<?xml version="1.0" encoding="utf-8"?>
<svg version="1.1" id="Layer_1" xmlns="http://www.w3.org/2000/svg" xmlns:xlink="http://www.w3.org/1999/xlink" x="0px" y="0px"
	 viewBox="0 0 411.98 84.17" style="enable-background:new 0 0 411.98 84.17;" xml:space="preserve">
<style type="text/css">
	.st0{fill:#020203;}
	.st1{fill:#FFFFFF;}
	.st2{fill:#575756;}
</style>
<path class="st0" d="M406.85,84H5.13C2.31,84,0,81.69,0,78.86V4.96c0-2.82,2.31-5.13,5.13-5.13h401.71c2.82,0,5.13,2.31,5.13,5.13
	v73.9C411.98,81.69,409.67,84,406.85,84z"/>
<g>
	<path class="st1" d="M36.46,10.08c-0.19-0.36-0.48-0.65-0.84-0.84c-0.3-1.04-1.48-1.73-3.09-1.73h-2.37
		c-0.92,0-1.71,0.57-2.04,1.39c-0.25,0.06-0.64,0.11-1.14,0.11c-0.53,0-0.94-0.06-1.19-0.12c-0.49-0.88-1.78-1.38-3.65-1.38
		s-3.16,0.5-3.65,1.38c-0.25,0.06-0.66,0.12-1.19,0.12c-0.49,0-0.88-0.05-1.14-0.11c-0.33-0.82-1.12-1.39-2.04-1.39h-2.37
		c-1.6,0-2.79,0.69-3.09,1.73c-0.36,0.19-0.65,0.48-0.84,0.84c-1.04,0.29-1.73,1.48-1.73,3.09v2.37c0,0.92,0.57,1.71,1.39,2.04
		c0.06,0.25,0.11,0.64,0.11,1.13c0,0.53-0.06,0.94-0.12,1.19c-0.88,0.49-1.38,1.78-1.38,3.65c0,1.87,0.5,3.16,1.38,3.65
		c0.06,0.25,0.12,0.66,0.12,1.19c0,0.49-0.05,0.88-0.11,1.14c-0.81,0.33-1.39,1.12-1.39,2.04v2.37c0,1.6,0.69,2.79,1.73,3.09
		c0.19,0.36,0.48,0.65,0.84,0.84c0.3,1.04,1.48,1.73,3.09,1.73h2.37c0.92,0,1.71-0.57,2.04-1.39c0.25-0.06,0.64-0.11,1.14-0.11
		c0.53,0,0.94,0.06,1.19,0.12c0.49,0.88,1.78,1.38,3.65,1.38s3.16-0.5,3.65-1.38c0.25-0.06,0.66-0.12,1.19-0.12
		c0.49,0,0.88,0.05,1.14,0.11c0.33,0.82,1.12,1.39,2.04,1.39h2.37c1.6,0,2.79-0.69,3.09-1.73c0.36-0.19,0.65-0.48,0.84-0.84
		c1.04-0.29,1.73-1.48,1.73-3.09v-2.37c0-0.92-0.57-1.71-1.39-2.04c-0.06-0.25-0.11-0.64-0.11-1.14c0-0.53,0.06-0.94,0.12-1.19
		c0.88-0.49,1.38-1.78,1.38-3.65s-0.5-3.16-1.38-3.65c-0.06-0.25-0.12-0.66-0.12-1.19c0-0.49,0.05-0.88,0.11-1.13
		c0.82-0.33,1.39-1.12,1.39-2.04v-2.37C38.19,11.56,37.5,10.38,36.46,10.08z M19.24,15.33c0,0.25-0.02,0.46-0.05,0.62
		c-0.86,0.26-1.45,0.95-1.45,1.79c0,0.94,0.72,1.68,1.74,1.86c0.18,0.34,0.46,0.62,0.8,0.8c0.18,1.02,0.92,1.74,1.86,1.74
		s1.68-0.72,1.86-1.74c0.34-0.18,0.62-0.46,0.8-0.8c1.02-0.18,1.74-0.92,1.74-1.86c0-0.85-0.58-1.53-1.45-1.79
		c-0.03-0.16-0.05-0.37-0.05-0.62c0-0.27,0.23-0.5,0.5-0.5c0.25,0,0.46,0.02,0.62,0.05c0.26,0.86,0.95,1.45,1.79,1.45
		s1.53-0.58,1.79-1.45c0.16-0.03,0.37-0.05,0.62-0.05c0.27,0,0.5,0.23,0.5,0.5c0,0.28-0.03,0.52-0.07,0.68
		c-0.87,0.42-1.43,1.53-1.43,2.97v1.93c0,0.68,0.45,1.4,1.41,1.67c0.05,0.23,0.09,0.56,0.09,0.96s-0.04,0.73-0.09,0.96
		c-0.96,0.26-1.41,0.99-1.41,1.67v1.93c0,1.45,0.56,2.55,1.43,2.97c0.04,0.17,0.07,0.4,0.07,0.68c0,0.27-0.23,0.5-0.5,0.5
		c-0.28,0-0.52-0.03-0.68-0.07c-0.42-0.87-1.53-1.43-2.97-1.43h-1.93c-0.68,0-1.4,0.45-1.67,1.41c-0.46,0.09-1.46,0.09-1.93,0
		c-0.27-0.96-0.99-1.41-1.67-1.41h-1.93c-1.45,0-2.55,0.56-2.97,1.43c-0.17,0.04-0.4,0.07-0.68,0.07c-0.27,0-0.5-0.23-0.5-0.5
		c0-0.28,0.03-0.52,0.07-0.68c0.87-0.42,1.43-1.53,1.43-2.97v-1.93c0-0.68-0.45-1.4-1.41-1.67c-0.05-0.23-0.09-0.56-0.09-0.96
		s0.04-0.73,0.09-0.96c0.97-0.26,1.41-0.99,1.41-1.67v-1.93c0-1.45-0.56-2.55-1.43-2.97c-0.04-0.17-0.07-0.4-0.07-0.68
		c0-0.27,0.23-0.5,0.5-0.5c0.25,0,0.46,0.02,0.62,0.05c0.26,0.86,0.95,1.45,1.79,1.45s1.53-0.58,1.79-1.45
		c0.16-0.03,0.37-0.05,0.62-0.05C19.01,14.83,19.24,15.06,19.24,15.33z"/>
	<path class="st1" d="M71.6,10.08c-0.19-0.36-0.48-0.65-0.84-0.84c-0.3-1.04-1.48-1.73-3.09-1.73H65.3c-0.92,0-1.71,0.57-2.04,1.39
		c-0.25,0.06-0.64,0.11-1.14,0.11c-0.53,0-0.94-0.06-1.19-0.12c-0.49-0.88-1.78-1.38-3.65-1.38s-3.16,0.5-3.65,1.38
		c-0.25,0.06-0.66,0.12-1.19,0.12c-0.49,0-0.88-0.05-1.14-0.11c-0.33-0.82-1.12-1.39-2.04-1.39h-2.37c-1.6,0-2.79,0.69-3.09,1.73
		c-0.36,0.19-0.65,0.48-0.84,0.84c-1.04,0.3-1.73,1.48-1.73,3.09v2.37c0,0.92,0.57,1.71,1.39,2.04c0.06,0.25,0.11,0.64,0.11,1.13
		c0,0.53-0.06,0.94-0.12,1.19c-0.88,0.49-1.38,1.78-1.38,3.65c0,1.87,0.5,3.16,1.38,3.65c0.06,0.25,0.12,0.66,0.12,1.19
		c0,0.49-0.05,0.88-0.11,1.14c-0.81,0.33-1.39,1.12-1.39,2.04v2.37c0,1.6,0.69,2.79,1.73,3.09c0.18,0.35,0.47,0.64,0.82,0.83
		c0.19,1.02,0.92,1.74,1.86,1.74s1.68-0.72,1.86-1.74c0.34-0.18,0.62-0.46,0.8-0.8c1.02-0.18,1.74-0.92,1.74-1.86
		c0-0.85-0.58-1.53-1.45-1.79c-0.03-0.16-0.05-0.37-0.05-0.62c0-0.27,0.23-0.5,0.5-0.5c0.28,0,0.52,0.03,0.68,0.07
		c0.42,0.87,1.53,1.43,2.97,1.43h3.23c1.34,0,2.4-0.54,2.84-1.36c0.29-0.07,0.77-0.14,1.41-0.14s1.12,0.07,1.41,0.14
		c0.44,0.82,1.5,1.36,2.84,1.36h3.23c1.6,0,2.79-0.69,3.09-1.73c0.36-0.19,0.65-0.48,0.84-0.84c1.04-0.3,1.73-1.48,1.73-3.09v-3.23
		c0-1.34-0.54-2.4-1.36-2.84c-0.07-0.29-0.14-0.77-0.14-1.41s0.07-1.12,0.14-1.41c0.82-0.44,1.36-1.5,1.36-2.84v-3.23
		C73.33,11.56,72.64,10.38,71.6,10.08z M48.62,25.32c0.84-0.31,1.44-1.09,1.44-2c0-0.91-0.6-1.69-1.44-2
		c-0.03-0.17-0.06-0.4-0.06-0.68s0.03-0.51,0.06-0.68c0.84-0.31,1.44-1.09,1.44-2c0-0.91-0.6-1.69-1.44-2
		c-0.03-0.16-0.06-0.38-0.06-0.64c0-0.27,0.23-0.5,0.5-0.5c0.25,0,0.46,0.02,0.62,0.05c0.26,0.86,0.95,1.45,1.79,1.45
		s1.53-0.58,1.79-1.45c0.16-0.03,0.37-0.05,0.62-0.05c0.27,0,0.5,0.23,0.5,0.5c0,0.26-0.03,0.48-0.06,0.64
		c-0.84,0.31-1.44,1.09-1.44,2c0,0.91,0.6,1.68,1.44,2c0.03,0.17,0.06,0.4,0.06,0.68s-0.03,0.51-0.06,0.68
		c-0.84,0.31-1.44,1.09-1.44,2c0,0.91,0.6,1.69,1.44,2c0.03,0.16,0.06,0.38,0.06,0.64c0,0.27-0.23,0.5-0.5,0.5
		c-0.25,0-0.46-0.02-0.62-0.05c-0.26-0.86-0.95-1.45-1.79-1.45s-1.53,0.58-1.79,1.45c-0.16,0.03-0.37,0.05-0.62,0.05
		c-0.27,0-0.5-0.23-0.5-0.5C48.56,25.7,48.59,25.48,48.62,25.32z M60.26,21.32c-0.03-0.17-0.06-0.4-0.06-0.68s0.03-0.51,0.06-0.68
		c0.84-0.31,1.44-1.09,1.44-2c0-0.91-0.6-1.69-1.44-2c-0.03-0.16-0.06-0.38-0.06-0.64c0-0.27,0.23-0.5,0.5-0.5
		c0.25,0,0.46,0.02,0.62,0.05c0.26,0.86,0.95,1.45,1.79,1.45s1.53-0.58,1.79-1.45c0.16-0.03,0.37-0.05,0.62-0.05
		c0.27,0,0.5,0.23,0.5,0.5c0,0.26-0.03,0.48-0.06,0.64c-0.84,0.31-1.44,1.09-1.44,2c0,0.91,0.6,1.68,1.44,2
		c0.03,0.17,0.06,0.4,0.06,0.68s-0.03,0.51-0.06,0.68c-0.84,0.31-1.44,1.09-1.44,2c0,0.91,0.6,1.69,1.44,2
		c0.03,0.16,0.06,0.38,0.06,0.64c0,0.27-0.23,0.5-0.5,0.5c-0.25,0-0.46-0.02-0.62-0.05c-0.26-0.86-0.95-1.45-1.79-1.45
		s-1.53,0.58-1.79,1.45c-0.16,0.03-0.37,0.05-0.62,0.05c-0.27,0-0.5-0.23-0.5-0.5c0-0.26,0.03-0.48,0.06-0.64
		c0.84-0.31,1.44-1.09,1.44-2C61.7,22.41,61.1,21.63,60.26,21.32z"/>
	<path class="st1" d="M108.47,12.15c0-1.01-0.74-1.86-1.74-2.08c-0.19-0.35-0.48-0.64-0.83-0.83c-0.3-1.04-1.48-1.73-3.09-1.73
		h-2.37c-0.92,0-1.71,0.57-2.04,1.39c-0.25,0.06-0.64,0.11-1.14,0.11c-0.53,0-0.94-0.06-1.19-0.12c-0.49-0.88-1.78-1.38-3.65-1.38
		s-3.16,0.5-3.65,1.38c-0.25,0.06-0.66,0.12-1.19,0.12c-0.49,0-0.88-0.05-1.14-0.11c-0.33-0.82-1.12-1.39-2.04-1.39h-2.37
		c-1.6,0-2.79,0.69-3.09,1.73c-0.36,0.19-0.65,0.48-0.84,0.84c-1.04,0.29-1.73,1.48-1.73,3.09v2.37c0,0.92,0.57,1.71,1.39,2.04
		c0.06,0.25,0.11,0.64,0.11,1.13c0,0.53-0.06,0.94-0.12,1.19c-0.88,0.49-1.38,1.78-1.38,3.65s0.5,3.16,1.38,3.65
		c0.06,0.25,0.12,0.66,0.12,1.19c0,0.49-0.05,0.88-0.11,1.14c-0.82,0.33-1.39,1.12-1.39,2.04v2.37c0,1.6,0.69,2.79,1.73,3.09
		c0.19,0.36,0.48,0.65,0.84,0.84c0.3,1.04,1.48,1.73,3.09,1.73h2.37c0.92,0,1.71-0.57,2.04-1.39c0.25-0.06,0.64-0.11,1.14-0.11
		c0.53,0,0.94,0.06,1.19,0.12c0.49,0.88,1.78,1.38,3.65,1.38s3.16-0.5,3.65-1.38c0.25-0.06,0.66-0.12,1.19-0.12
		c0.49,0,0.88,0.05,1.14,0.11c0.33,0.82,1.12,1.39,2.04,1.39h2.37c1.6,0,2.79-0.69,3.09-1.73c0.35-0.19,0.65-0.48,0.83-0.83
		c0.99-0.22,1.74-1.07,1.74-2.08c0-0.91-0.6-1.68-1.44-2c-0.03-0.17-0.06-0.4-0.06-0.68c0-0.28,0.03-0.51,0.06-0.68
		c0.84-0.31,1.44-1.09,1.44-2c0-1.01-0.74-1.86-1.74-2.08c-0.18-0.34-0.47-0.63-0.81-0.81c-0.19-1.02-0.92-1.74-1.86-1.74
		s-1.68,0.72-1.86,1.74c-0.34,0.18-0.62,0.46-0.8,0.8c-1.02,0.18-1.74,0.92-1.74,1.86c0,0.85,0.58,1.53,1.45,1.79
		c0.03,0.16,0.05,0.37,0.05,0.62c0,0.27-0.23,0.5-0.5,0.5c-0.28,0-0.52-0.03-0.68-0.07c-0.42-0.87-1.53-1.43-2.97-1.43h-1.93
		c-0.68,0-1.4,0.45-1.67,1.41c-0.46,0.09-1.46,0.09-1.93,0c-0.27-0.96-0.99-1.41-1.67-1.41h-1.93c-1.45,0-2.55,0.56-2.97,1.43
		c-0.17,0.04-0.4,0.07-0.68,0.07c-0.27,0-0.5-0.23-0.5-0.5c0-0.25,0.02-0.46,0.05-0.62c0.86-0.26,1.45-0.95,1.45-1.79
		s-0.58-1.53-1.45-1.79c-0.03-0.16-0.05-0.37-0.05-0.62c0-0.27,0.23-0.5,0.5-0.5c0.26,0,0.48,0.03,0.64,0.06
		c0.31,0.84,1.09,1.44,2,1.44c0.91,0,1.69-0.6,2-1.44c0.34-0.07,1.02-0.07,1.36,0c0.31,0.84,1.09,1.44,2,1.44
		c1.01,0,1.86-0.74,2.08-1.74c0.34-0.18,0.63-0.47,0.81-0.81c1.02-0.18,1.74-0.92,1.74-1.86s-0.72-1.68-1.74-1.86
		c-0.19-0.34-0.47-0.62-0.81-0.81c-0.22-0.99-1.07-1.74-2.08-1.74c-0.91,0-1.68,0.6-2,1.44c-0.34,0.07-1.02,0.07-1.36,0
		c-0.31-0.84-1.09-1.44-2-1.44c-0.91,0-1.69,0.6-2,1.44c-0.16,0.03-0.38,0.06-0.64,0.06c-0.27,0-0.5-0.23-0.5-0.5
		c0-0.25,0.02-0.46,0.05-0.62c0.86-0.26,1.45-0.95,1.45-1.79s-0.58-1.53-1.45-1.79c-0.03-0.16-0.05-0.37-0.05-0.62
		c0-0.27,0.23-0.5,0.5-0.5c0.28,0,0.52,0.03,0.68,0.07c0.42,0.87,1.53,1.43,2.97,1.43h1.93c0.68,0,1.4-0.45,1.67-1.41
		c0.46-0.09,1.46-0.09,1.93,0c0.27,0.96,0.99,1.41,1.67,1.41h1.93c1.45,0,2.55-0.56,2.97-1.43c0.17-0.04,0.4-0.07,0.68-0.07
		c0.27,0,0.5,0.23,0.5,0.5c0,0.25-0.02,0.46-0.05,0.62c-0.86,0.26-1.45,0.95-1.45,1.79c0,0.94,0.72,1.68,1.74,1.86
		c0.18,0.34,0.46,0.62,0.8,0.8c0.18,1.02,0.92,1.74,1.86,1.74s1.68-0.72,1.86-1.74c0.34-0.19,0.62-0.47,0.81-0.81
		c0.99-0.22,1.74-1.07,1.74-2.08c0-0.91-0.6-1.69-1.44-2c-0.03-0.17-0.06-0.4-0.06-0.68s0.03-0.51,0.06-0.68
		C107.87,13.84,108.47,13.06,108.47,12.15z"/>
	<path class="st1" d="M141.87,10.08c-0.18-0.35-0.47-0.64-0.82-0.83c-0.19-1.02-0.92-1.74-1.86-1.74s-1.68,0.72-1.86,1.74
		c-0.35,0.19-0.63,0.48-0.82,0.83c-1.04,0.29-1.73,1.48-1.73,3.09v3.23c0,1.34,0.54,2.4,1.36,2.84c0.07,0.29,0.14,0.77,0.14,1.41
		s-0.07,1.12-0.14,1.41c-0.82,0.44-1.36,1.5-1.36,2.84v3.23c0,1.45,0.56,2.55,1.43,2.97c0.04,0.17,0.07,0.4,0.07,0.68
		c0,0.27-0.23,0.5-0.5,0.5c-0.25,0-0.46-0.02-0.62-0.05c-0.26-0.86-0.95-1.45-1.79-1.45s-1.53,0.58-1.79,1.45
		c-0.16,0.03-0.37,0.05-0.62,0.05c-0.27,0-0.5-0.23-0.5-0.5c0-0.28,0.03-0.52,0.07-0.68c0.87-0.42,1.43-1.53,1.43-2.97v-3.23
		c0-1.34-0.54-2.4-1.36-2.84c-0.07-0.29-0.14-0.77-0.14-1.41s0.07-1.12,0.14-1.41c0.82-0.44,1.36-1.5,1.36-2.84v-3.23
		c0-1.6-0.69-2.79-1.73-3.09c-0.19-0.36-0.48-0.65-0.84-0.84c-0.3-1.04-1.48-1.73-3.09-1.73h-1.93c-0.68,0-1.4,0.45-1.67,1.41
		c-0.46,0.09-1.46,0.09-1.93,0c-0.27-0.96-0.99-1.41-1.67-1.41h-1.93c-1.6,0-2.79,0.69-3.09,1.73c-0.36,0.19-0.65,0.48-0.84,0.84
		c-1.04,0.29-1.73,1.48-1.73,3.09v2.37c0,0.92,0.57,1.71,1.39,2.04c0.06,0.25,0.11,0.64,0.11,1.13c0,0.53-0.06,0.94-0.12,1.19
		c-0.88,0.49-1.38,1.78-1.38,3.65s0.5,3.16,1.38,3.65c0.06,0.25,0.12,0.66,0.12,1.19c0,0.49-0.05,0.88-0.11,1.14
		c-0.82,0.33-1.39,1.12-1.39,2.04v2.37c0,1.6,0.69,2.79,1.73,3.09c0.18,0.35,0.47,0.64,0.82,0.83c0.19,1.02,0.92,1.74,1.86,1.74
		s1.68-0.72,1.86-1.74c0.35-0.19,0.63-0.48,0.82-0.83c1.04-0.3,1.73-1.48,1.73-3.09v-3.23c0-1.34-0.54-2.4-1.36-2.84
		c-0.07-0.29-0.14-0.77-0.14-1.41s0.07-1.12,0.14-1.41c0.82-0.44,1.36-1.5,1.36-2.84v-3.23c0-1.45-0.56-2.55-1.43-2.97
		c-0.04-0.17-0.07-0.4-0.07-0.68c0-0.27,0.23-0.5,0.5-0.5c0.25,0,0.46,0.02,0.62,0.05c0.26,0.86,0.95,1.45,1.79,1.45
		s1.53-0.58,1.79-1.45c0.16-0.03,0.37-0.05,0.62-0.05c0.27,0,0.5,0.23,0.5,0.5c0,0.28-0.03,0.52-0.07,0.68
		c-0.87,0.42-1.43,1.53-1.43,2.97v3.23c0,1.34,0.54,2.4,1.36,2.84c0.07,0.29,0.14,0.77,0.14,1.41s-0.07,1.12-0.14,1.41
		c-0.82,0.44-1.36,1.5-1.36,2.84v3.23c0,1.6,0.69,2.79,1.73,3.09c0.19,0.36,0.48,0.65,0.84,0.84c0.3,1.04,1.48,1.73,3.09,1.73h1.93
		c0.68,0,1.4-0.45,1.67-1.41c0.46-0.09,1.46-0.09,1.93,0c0.27,0.97,0.99,1.41,1.67,1.41h1.93c1.6,0,2.79-0.69,3.09-1.73
		c0.36-0.19,0.65-0.48,0.84-0.84c1.04-0.3,1.73-1.48,1.73-3.09v-2.37c0-0.92-0.57-1.71-1.39-2.04c-0.06-0.25-0.11-0.64-0.11-1.14
		c0-0.53,0.06-0.94,0.12-1.19c0.88-0.49,1.38-1.78,1.38-3.65c0-1.87-0.5-3.16-1.38-3.65c-0.06-0.25-0.12-0.66-0.12-1.19
		c0-0.49,0.05-0.88,0.11-1.13c0.81-0.33,1.39-1.12,1.39-2.04v-2.37C143.6,11.56,142.91,10.38,141.87,10.08z"/>
	<g>
		<path class="st1" d="M168.76,14.83c0.28,0,0.52,0.03,0.68,0.07c0.42,0.87,1.53,1.43,2.97,1.43h3.23c1.34,0,2.4-0.54,2.84-1.36
			c0.29-0.07,0.77-0.14,1.41-0.14s1.12,0.07,1.41,0.14c0.44,0.82,1.5,1.36,2.84,1.36h3.23c1.6,0,2.79-0.69,3.09-1.73
			c0.35-0.18,0.64-0.47,0.83-0.82c1.02-0.18,1.74-0.92,1.74-1.86s-0.72-1.68-1.74-1.86c-0.19-0.35-0.48-0.63-0.83-0.82
			c-0.3-1.04-1.48-1.73-3.09-1.73H185c-0.92,0-1.71,0.57-2.04,1.39c-0.25,0.06-0.64,0.11-1.14,0.11c-0.53,0-0.94-0.06-1.19-0.12
			c-0.49-0.88-1.78-1.38-3.65-1.38s-3.16,0.5-3.65,1.38c-0.25,0.06-0.66,0.12-1.19,0.12c-0.49,0-0.88-0.05-1.14-0.11
			c-0.33-0.82-1.12-1.39-2.04-1.39h-2.37c-1.6,0-2.79,0.69-3.09,1.73c-0.36,0.19-0.65,0.48-0.84,0.84
			c-1.04,0.29-1.73,1.48-1.73,3.09v1.93c0,0.68,0.45,1.4,1.41,1.67c0.05,0.23,0.09,0.56,0.09,0.96s-0.04,0.73-0.09,0.96
			c-0.97,0.27-1.41,0.99-1.41,1.67v1.93c0,1.6,0.69,2.79,1.73,3.09c0.19,0.36,0.48,0.65,0.84,0.84c0.3,1.04,1.48,1.73,3.09,1.73
			h3.23c1.34,0,2.4-0.54,2.84-1.36c0.29-0.07,0.77-0.14,1.41-0.14s1.12,0.07,1.41,0.14c0.44,0.82,1.5,1.36,2.84,1.36h3.23
			c1.45,0,2.55-0.56,2.97-1.43c0.17-0.04,0.4-0.07,0.68-0.07c0.27,0,0.5,0.23,0.5,0.5c0,0.25-0.02,0.46-0.05,0.62
			c-0.86,0.26-1.45,0.95-1.45,1.79s0.58,1.53,1.45,1.79c0.03,0.16,0.05,0.37,0.05,0.62c0,0.27-0.23,0.5-0.5,0.5
			c-0.28,0-0.52-0.03-0.68-0.07c-0.42-0.87-1.53-1.43-2.97-1.43h-3.23c-1.34,0-2.4,0.54-2.84,1.36c-0.29,0.07-0.77,0.14-1.41,0.14
			s-1.12-0.07-1.41-0.14c-0.44-0.82-1.51-1.36-2.84-1.36h-3.23c-1.6,0-2.79,0.69-3.09,1.73c-0.35,0.18-0.64,0.47-0.83,0.82
			c-1.02,0.18-1.74,0.92-1.74,1.86s0.72,1.68,1.74,1.86c0.19,0.35,0.48,0.63,0.83,0.82c0.3,1.04,1.48,1.73,3.09,1.73h2.37
			c0.92,0,1.71-0.57,2.04-1.39c0.25-0.06,0.64-0.11,1.14-0.11c0.53,0,0.94,0.06,1.19,0.12c0.49,0.88,1.78,1.38,3.65,1.38
			s3.16-0.5,3.65-1.38c0.25-0.06,0.66-0.12,1.19-0.12c0.49,0,0.88,0.05,1.14,0.11c0.33,0.82,1.12,1.39,2.04,1.39h2.37
			c1.6,0,2.79-0.69,3.09-1.73c0.36-0.19,0.65-0.48,0.84-0.84c1.04-0.3,1.73-1.48,1.73-3.09V32c0-0.68-0.45-1.4-1.41-1.67
			c-0.05-0.23-0.09-0.56-0.09-0.96s0.04-0.73,0.09-0.96c0.96-0.26,1.41-0.99,1.41-1.67V24.8c0-1.6-0.69-2.79-1.73-3.09
			c-0.19-0.36-0.48-0.65-0.84-0.84c-0.3-1.04-1.48-1.73-3.09-1.73h-3.23c-1.34,0-2.4,0.54-2.84,1.36c-0.29,0.07-0.77,0.14-1.41,0.14
			s-1.12-0.07-1.41-0.14c-0.44-0.82-1.51-1.36-2.84-1.36h-3.23c-1.45,0-2.55,0.56-2.97,1.43c-0.17,0.04-0.4,0.07-0.68,0.07
			c-0.27,0-0.5-0.23-0.5-0.5c0-0.25,0.02-0.46,0.05-0.62c0.86-0.26,1.45-0.95,1.45-1.79s-0.58-1.53-1.45-1.79
			c-0.03-0.16-0.05-0.37-0.05-0.62C168.26,15.06,168.49,14.83,168.76,14.83z"/>
		<path class="st1" d="M226.43,10.08c-0.19-0.36-0.48-0.65-0.84-0.84c-0.3-1.04-1.48-1.73-3.09-1.73h-2.37
			c-0.92,0-1.71,0.57-2.04,1.39c-0.25,0.06-0.64,0.11-1.14,0.11c-0.53,0-0.94-0.06-1.19-0.12c-0.49-0.88-1.78-1.38-3.65-1.38
			s-3.16,0.5-3.65,1.38c-0.25,0.06-0.66,0.12-1.19,0.12c-0.49,0-0.88-0.05-1.14-0.11c-0.33-0.82-1.12-1.39-2.04-1.39h-2.37
			c-1.6,0-2.79,0.69-3.09,1.73c-0.36,0.19-0.65,0.48-0.84,0.84c-1.04,0.29-1.73,1.48-1.73,3.09v2.37c0,0.92,0.57,1.71,1.39,2.04
			c0.06,0.25,0.11,0.64,0.11,1.13c0,0.53-0.06,0.94-0.12,1.19c-0.88,0.49-1.38,1.78-1.38,3.65s0.5,3.16,1.38,3.65
			c0.06,0.25,0.12,0.66,0.12,1.19c0,0.49-0.05,0.88-0.11,1.14c-0.82,0.33-1.39,1.12-1.39,2.04v2.37c0,1.6,0.69,2.79,1.73,3.09
			c0.19,0.36,0.48,0.65,0.84,0.84c0.3,1.04,1.48,1.73,3.09,1.73h2.37c0.92,0,1.71-0.57,2.04-1.39c0.25-0.06,0.64-0.11,1.14-0.11
			c0.53,0,0.94,0.06,1.19,0.12c0.49,0.88,1.78,1.38,3.65,1.38s3.16-0.5,3.65-1.38c0.25-0.06,0.66-0.12,1.19-0.12
			c0.49,0,0.88,0.05,1.14,0.11c0.33,0.82,1.12,1.39,2.04,1.39h2.37c1.6,0,2.79-0.69,3.09-1.73c0.36-0.19,0.65-0.48,0.84-0.84
			c1.04-0.3,1.73-1.48,1.73-3.09v-2.37c0-0.92-0.57-1.71-1.39-2.04c-0.06-0.25-0.11-0.64-0.11-1.14c0-0.53,0.06-0.94,0.12-1.19
			c0.88-0.49,1.38-1.78,1.38-3.65c0-1.87-0.5-3.16-1.38-3.65c-0.06-0.25-0.12-0.66-0.12-1.19c0-0.49,0.05-0.88,0.11-1.13
			c0.81-0.33,1.39-1.12,1.39-2.04v-2.37C228.16,11.56,227.47,10.38,226.43,10.08z M209.21,15.33c0,0.25-0.02,0.46-0.05,0.62
			c-0.86,0.26-1.45,0.95-1.45,1.79c0,0.94,0.72,1.68,1.74,1.86c0.18,0.34,0.46,0.62,0.8,0.8c0.18,1.02,0.92,1.74,1.86,1.74
			s1.68-0.72,1.86-1.74c0.34-0.18,0.62-0.46,0.8-0.8c1.02-0.18,1.74-0.92,1.74-1.86c0-0.85-0.58-1.53-1.45-1.79
			c-0.03-0.16-0.05-0.37-0.05-0.62c0-0.27,0.23-0.5,0.5-0.5c0.25,0,0.46,0.02,0.62,0.05c0.26,0.86,0.95,1.45,1.79,1.45
			s1.53-0.58,1.79-1.45c0.16-0.03,0.37-0.05,0.62-0.05c0.27,0,0.5,0.23,0.5,0.5c0,0.28-0.03,0.52-0.07,0.68
			c-0.87,0.42-1.43,1.53-1.43,2.97v1.93c0,0.68,0.45,1.4,1.41,1.67c0.05,0.23,0.09,0.56,0.09,0.96s-0.04,0.73-0.09,0.96
			c-0.97,0.26-1.41,0.99-1.41,1.67v1.93c0,1.45,0.56,2.55,1.43,2.97c0.04,0.17,0.07,0.4,0.07,0.68c0,0.27-0.23,0.5-0.5,0.5
			c-0.28,0-0.52-0.03-0.68-0.07c-0.42-0.87-1.53-1.43-2.97-1.43h-1.93c-0.68,0-1.4,0.45-1.67,1.41c-0.46,0.09-1.46,0.09-1.93,0
			c-0.27-0.96-0.99-1.41-1.67-1.41h-1.93c-1.45,0-2.55,0.56-2.97,1.43c-0.17,0.04-0.4,0.07-0.68,0.07c-0.27,0-0.5-0.23-0.5-0.5
			c0-0.29,0.03-0.52,0.07-0.68c0.87-0.42,1.43-1.53,1.43-2.97v-1.93c0-0.68-0.45-1.4-1.41-1.67c-0.05-0.23-0.09-0.56-0.09-0.96
			s0.04-0.73,0.09-0.96c0.96-0.26,1.41-0.99,1.41-1.67v-1.93c0-1.45-0.56-2.55-1.43-2.97c-0.04-0.17-0.07-0.4-0.07-0.68
			c0-0.27,0.23-0.5,0.5-0.5c0.25,0,0.46,0.02,0.62,0.05c0.26,0.86,0.95,1.45,1.79,1.45s1.53-0.58,1.79-1.45
			c0.16-0.03,0.37-0.05,0.62-0.05C208.99,14.83,209.21,15.06,209.21,15.33z"/>
		<path class="st1" d="M261.57,10.08c-0.19-0.35-0.48-0.65-0.83-0.83c-0.22-0.99-1.07-1.74-2.08-1.74c-0.91,0-1.69,0.6-2,1.44
			c-0.34,0.07-1.02,0.07-1.36,0c-0.31-0.84-1.09-1.44-2-1.44c-1.01,0-1.86,0.74-2.08,1.74c-0.34,0.18-0.63,0.47-0.81,0.81
			c-1.02,0.18-1.74,0.92-1.74,1.86s0.72,1.68,1.74,1.86c0.18,0.34,0.46,0.62,0.8,0.8c0.19,1.02,0.92,1.74,1.86,1.74
			c0.85,0,1.53-0.58,1.79-1.45c0.16-0.03,0.37-0.05,0.62-0.05c0.27,0,0.5,0.23,0.5,0.5c0,0.25-0.02,0.46-0.05,0.62
			c-0.86,0.26-1.45,0.95-1.45,1.79c0,0.84,0.58,1.53,1.45,1.79c0.03,0.16,0.05,0.37,0.05,0.62c0,0.27-0.23,0.5-0.5,0.5
			c-0.25,0-0.46-0.02-0.62-0.05c-0.26-0.86-0.95-1.45-1.79-1.45c-0.94,0-1.68,0.72-1.86,1.74c-0.34,0.18-0.62,0.46-0.8,0.8
			c-1.02,0.18-1.74,0.92-1.74,1.86s0.72,1.68,1.74,1.86c0.18,0.34,0.46,0.62,0.8,0.8c0.19,1.02,0.92,1.74,1.86,1.74
			c0.85,0,1.53-0.58,1.79-1.45c0.16-0.03,0.37-0.05,0.62-0.05c0.27,0,0.5,0.23,0.5,0.5c0,0.25-0.02,0.46-0.05,0.62
			c-0.86,0.26-1.45,0.95-1.45,1.79s0.58,1.53,1.45,1.79c0.03,0.16,0.05,0.37,0.05,0.62c0,0.27-0.23,0.5-0.5,0.5
			c-0.28,0-0.52-0.03-0.68-0.07c-0.42-0.87-1.53-1.43-2.97-1.43h-1.93c-0.68,0-1.4,0.45-1.67,1.41c-0.46,0.09-1.46,0.09-1.93,0
			c-0.27-0.96-0.99-1.41-1.67-1.41h-1.93c-1.45,0-2.55,0.56-2.97,1.43c-0.17,0.04-0.4,0.07-0.68,0.07c-0.27,0-0.5-0.23-0.5-0.5
			c0-0.25,0.02-0.46,0.05-0.62c0.86-0.26,1.45-0.95,1.45-1.79s-0.58-1.53-1.45-1.79c-0.03-0.16-0.05-0.37-0.05-0.62
			c0-0.27,0.23-0.5,0.5-0.5c0.25,0,0.46,0.02,0.62,0.05c0.26,0.86,0.95,1.45,1.79,1.45c0.94,0,1.68-0.72,1.86-1.74
			c0.34-0.18,0.62-0.46,0.8-0.8c1.02-0.18,1.74-0.92,1.74-1.86s-0.72-1.68-1.74-1.86c-0.18-0.34-0.46-0.62-0.8-0.8
			c-0.19-1.02-0.92-1.74-1.86-1.74c-0.84,0-1.53,0.58-1.79,1.45c-0.16,0.03-0.37,0.05-0.62,0.05c-0.27,0-0.5-0.23-0.5-0.5
			c0-0.25,0.02-0.46,0.05-0.62c0.86-0.26,1.45-0.95,1.45-1.79s-0.58-1.53-1.45-1.79c-0.03-0.16-0.05-0.37-0.05-0.62
			c0-0.27,0.23-0.5,0.5-0.5c0.25,0,0.46,0.02,0.62,0.05c0.26,0.86,0.95,1.45,1.79,1.45c0.94,0,1.68-0.72,1.86-1.74
			c0.34-0.18,0.62-0.46,0.8-0.8c1.02-0.18,1.74-0.92,1.74-1.86s-0.72-1.68-1.74-1.86c-0.19-0.34-0.47-0.62-0.81-0.81
			c-0.22-0.99-1.07-1.74-2.08-1.74c-0.91,0-1.69,0.6-2,1.44c-0.34,0.07-1.02,0.07-1.36,0c-0.31-0.84-1.09-1.44-2-1.44
			c-1.01,0-1.86,0.74-2.08,1.74c-0.35,0.19-0.64,0.48-0.83,0.83c-1.04,0.29-1.73,1.48-1.73,3.09v2.37c0,0.92,0.57,1.71,1.39,2.04
			c0.06,0.25,0.11,0.64,0.11,1.13c0,0.53-0.06,0.94-0.12,1.19c-0.88,0.49-1.38,1.78-1.38,3.65s0.5,3.16,1.38,3.65
			c0.06,0.25,0.12,0.66,0.12,1.19c0,0.49-0.05,0.88-0.11,1.14c-0.82,0.33-1.39,1.12-1.39,2.04v2.37c0,1.6,0.69,2.79,1.73,3.09
			c0.19,0.36,0.48,0.65,0.84,0.84c0.3,1.04,1.48,1.73,3.09,1.73h2.37c0.92,0,1.71-0.57,2.04-1.39c0.25-0.06,0.64-0.11,1.14-0.11
			c0.53,0,0.94,0.06,1.19,0.12c0.49,0.88,1.78,1.38,3.65,1.38s3.16-0.5,3.65-1.38c0.25-0.06,0.66-0.12,1.19-0.12
			c0.49,0,0.88,0.05,1.14,0.11c0.33,0.82,1.12,1.39,2.04,1.39h2.37c1.6,0,2.79-0.69,3.09-1.73c0.36-0.19,0.65-0.48,0.84-0.84
			c1.04-0.29,1.73-1.48,1.73-3.09v-2.37c0-0.92-0.57-1.71-1.39-2.04c-0.06-0.25-0.11-0.64-0.11-1.14c0-0.53,0.06-0.94,0.12-1.19
			c0.88-0.49,1.38-1.78,1.38-3.65c0-1.87-0.5-3.16-1.38-3.65c-0.06-0.25-0.12-0.66-0.12-1.19c0-0.49,0.05-0.88,0.11-1.13
			c0.81-0.33,1.39-1.12,1.39-2.04v-2.37C263.3,11.56,262.61,10.38,261.57,10.08z"/>
		<path class="st1" d="M296.71,10.08c-0.19-0.36-0.48-0.65-0.84-0.84c-0.3-1.04-1.48-1.73-3.09-1.73h-2.37
			c-0.92,0-1.71,0.57-2.04,1.39c-0.25,0.06-0.64,0.11-1.14,0.11c-0.53,0-0.94-0.06-1.19-0.12c-0.49-0.88-1.78-1.38-3.65-1.38
			s-3.16,0.5-3.65,1.38c-0.25,0.06-0.66,0.12-1.19,0.12c-0.49,0-0.88-0.05-1.14-0.11c-0.33-0.82-1.12-1.39-2.04-1.39h-2.37
			c-1.6,0-2.79,0.69-3.09,1.73c-0.36,0.19-0.65,0.48-0.84,0.84c-1.04,0.29-1.73,1.48-1.73,3.09v2.37c0,0.92,0.57,1.71,1.39,2.04
			c0.06,0.25,0.11,0.64,0.11,1.13c0,0.53-0.06,0.94-0.12,1.19c-0.88,0.49-1.38,1.78-1.38,3.65c0,1.87,0.5,3.16,1.38,3.65
			c0.06,0.25,0.12,0.66,0.12,1.19c0,0.49-0.05,0.88-0.11,1.14c-0.81,0.33-1.39,1.12-1.39,2.04v2.37c0,1.6,0.69,2.79,1.73,3.09
			c0.18,0.35,0.47,0.64,0.82,0.83c0.19,1.02,0.92,1.74,1.86,1.74s1.68-0.72,1.86-1.74c0.34-0.19,0.62-0.47,0.81-0.81
			c0.99-0.22,1.74-1.07,1.74-2.08c0-0.91-0.6-1.69-1.44-2c-0.03-0.17-0.06-0.4-0.06-0.68c0-0.28,0.03-0.51,0.06-0.68
			c0.84-0.31,1.44-1.09,1.44-2c0-0.91-0.6-1.69-1.44-2c-0.03-0.16-0.06-0.38-0.06-0.64c0-0.27,0.23-0.5,0.5-0.5
			c0.26,0,0.48,0.03,0.64,0.06c0.31,0.84,1.09,1.44,2,1.44c0.91,0,1.69-0.6,2-1.44c0.34-0.07,1.02-0.07,1.36,0
			c0.31,0.84,1.09,1.44,2,1.44c0.91,0,1.69-0.6,2-1.44c0.16-0.03,0.38-0.06,0.64-0.06c0.27,0,0.5,0.23,0.5,0.5
			c0,0.26-0.03,0.48-0.06,0.64c-0.84,0.31-1.44,1.09-1.44,2c0,0.91,0.6,1.69,1.44,2c0.03,0.17,0.06,0.4,0.06,0.68
			c0,0.28-0.03,0.51-0.06,0.68c-0.84,0.31-1.44,1.09-1.44,2c0,1.01,0.74,1.86,1.74,2.08c0.19,0.35,0.47,0.63,0.82,0.82
			c0.22,0.99,1.07,1.74,2.08,1.74c0.91,0,1.69-0.6,2-1.44c0.34-0.07,1.02-0.07,1.36,0c0.31,0.84,1.09,1.44,2,1.44
			c1.01,0,1.86-0.74,2.08-1.74c0.34-0.18,0.63-0.47,0.81-0.81c1.02-0.18,1.74-0.92,1.74-1.86s-0.72-1.68-1.74-1.86
			c-0.18-0.34-0.46-0.62-0.8-0.8c-0.19-1.02-0.92-1.74-1.86-1.74c-0.85,0-1.53,0.58-1.79,1.45c-0.16,0.03-0.37,0.05-0.62,0.05
			c-0.27,0-0.5-0.23-0.5-0.5c0-0.25,0.02-0.46,0.05-0.62c0.86-0.26,1.45-0.95,1.45-1.79s-0.58-1.53-1.45-1.79
			c-0.03-0.16-0.05-0.37-0.05-0.62c0-0.27,0.23-0.5,0.5-0.5c0.25,0,0.46,0.02,0.62,0.05c0.26,0.86,0.95,1.45,1.79,1.45
			c0.94,0,1.68-0.72,1.86-1.74c0.35-0.19,0.63-0.48,0.82-0.83c1.04-0.29,1.73-1.48,1.73-3.09v-1.93c0-0.68-0.45-1.41-1.41-1.67
			c-0.05-0.23-0.09-0.56-0.09-0.96s0.04-0.73,0.09-0.96c0.97-0.26,1.41-0.99,1.41-1.67v-1.93
			C298.44,11.56,297.75,10.38,296.71,10.08z M291.07,19.53c0.03,0.16,0.05,0.37,0.05,0.62c0,0.27-0.23,0.5-0.5,0.5
			c-0.28,0-0.52-0.03-0.68-0.07c-0.42-0.87-1.53-1.43-2.97-1.43h-1.93c-0.68,0-1.4,0.45-1.67,1.41c-0.46,0.09-1.46,0.09-1.93,0
			c-0.27-0.96-0.99-1.41-1.67-1.41h-1.93c-1.45,0-2.55,0.56-2.97,1.43c-0.17,0.04-0.4,0.07-0.68,0.07c-0.27,0-0.5-0.23-0.5-0.5
			c0-0.25,0.02-0.46,0.05-0.62c0.86-0.26,1.45-0.95,1.45-1.79c0-0.85-0.58-1.53-1.45-1.79c-0.03-0.16-0.05-0.37-0.05-0.62
			c0-0.27,0.23-0.5,0.5-0.5c0.28,0,0.52,0.03,0.68,0.07c0.42,0.87,1.53,1.43,2.97,1.43h1.93c0.68,0,1.41-0.45,1.67-1.41
			c0.46-0.09,1.46-0.09,1.93,0c0.26,0.96,0.99,1.41,1.67,1.41h1.93c1.45,0,2.55-0.56,2.97-1.43c0.17-0.04,0.4-0.07,0.68-0.07
			c0.27,0,0.5,0.23,0.5,0.5c0,0.25-0.02,0.46-0.05,0.62c-0.86,0.26-1.45,0.95-1.45,1.79C289.62,18.58,290.2,19.26,291.07,19.53z"/>
		<path class="st1" d="M333.57,12.15c0-1.01-0.74-1.86-1.74-2.08c-0.19-0.35-0.48-0.64-0.83-0.83c-0.3-1.04-1.48-1.73-3.09-1.73
			h-2.37c-0.92,0-1.71,0.57-2.04,1.39c-0.25,0.06-0.64,0.11-1.14,0.11c-0.53,0-0.94-0.06-1.19-0.12c-0.49-0.88-1.78-1.38-3.65-1.38
			s-3.16,0.5-3.65,1.38c-0.25,0.06-0.66,0.12-1.19,0.12c-0.49,0-0.88-0.05-1.14-0.11c-0.33-0.82-1.12-1.39-2.04-1.39h-2.37
			c-1.6,0-2.79,0.69-3.09,1.73c-0.36,0.19-0.65,0.48-0.84,0.84c-1.04,0.29-1.73,1.48-1.73,3.09v2.37c0,0.92,0.57,1.71,1.39,2.04
			c0.06,0.25,0.11,0.64,0.11,1.13c0,0.53-0.06,0.94-0.12,1.19c-0.88,0.49-1.38,1.78-1.38,3.65c0,1.87,0.5,3.16,1.38,3.65
			c0.06,0.25,0.12,0.66,0.12,1.19c0,0.49-0.05,0.88-0.11,1.14c-0.81,0.33-1.39,1.12-1.39,2.04v2.37c0,1.6,0.69,2.79,1.73,3.09
			c0.19,0.36,0.48,0.65,0.84,0.84c0.3,1.04,1.48,1.73,3.09,1.73h2.37c0.92,0,1.71-0.57,2.04-1.39c0.25-0.06,0.64-0.11,1.14-0.11
			c0.53,0,0.94,0.06,1.19,0.12c0.49,0.88,1.78,1.38,3.65,1.38s3.16-0.5,3.65-1.38c0.25-0.06,0.66-0.12,1.19-0.12
			c0.49,0,0.88,0.05,1.14,0.11c0.33,0.82,1.12,1.39,2.04,1.39h2.37c1.6,0,2.79-0.69,3.09-1.73c0.35-0.19,0.65-0.48,0.83-0.83
			c0.99-0.22,1.74-1.07,1.74-2.08c0-0.91-0.6-1.69-1.44-2c-0.03-0.17-0.06-0.4-0.06-0.68c0-0.28,0.03-0.51,0.06-0.68
			c0.84-0.31,1.44-1.09,1.44-2c0-1.01-0.74-1.86-1.74-2.08c-0.18-0.34-0.47-0.63-0.81-0.81c-0.19-1.02-0.92-1.74-1.86-1.74
			s-1.68,0.72-1.86,1.74c-0.34,0.18-0.62,0.46-0.8,0.8c-1.02,0.18-1.74,0.92-1.74,1.86c0,0.85,0.58,1.53,1.45,1.79
			c0.03,0.16,0.05,0.37,0.05,0.62c0,0.27-0.23,0.5-0.5,0.5c-0.25,0-0.46-0.02-0.62-0.05c-0.26-0.86-0.95-1.45-1.79-1.45
			s-1.53,0.58-1.79,1.45c-0.16,0.03-0.37,0.05-0.62,0.05c-0.27,0-0.5-0.23-0.5-0.5c0-0.25,0.02-0.46,0.05-0.62
			c0.86-0.26,1.45-0.95,1.45-1.79c0-0.94-0.72-1.68-1.74-1.86c-0.18-0.34-0.46-0.62-0.8-0.8c-0.19-1.02-0.92-1.74-1.86-1.74
			s-1.68,0.72-1.86,1.74c-0.34,0.18-0.62,0.46-0.8,0.8c-1.02,0.18-1.74,0.92-1.74,1.86c0,0.85,0.58,1.53,1.45,1.79
			c0.03,0.16,0.05,0.37,0.05,0.62c0,0.27-0.23,0.5-0.5,0.5c-0.25,0-0.46-0.02-0.62-0.05c-0.26-0.86-0.95-1.45-1.79-1.45
			s-1.53,0.58-1.79,1.45c-0.16,0.03-0.37,0.05-0.62,0.05c-0.27,0-0.5-0.23-0.5-0.5c0-0.28,0.03-0.52,0.07-0.68
			c0.87-0.42,1.43-1.53,1.43-2.97v-1.93c0-0.68-0.45-1.4-1.41-1.67c-0.05-0.23-0.09-0.56-0.09-0.96s0.04-0.73,0.09-0.96
			c0.97-0.26,1.41-0.99,1.41-1.67v-1.93c0-1.45-0.56-2.55-1.43-2.97c-0.04-0.17-0.07-0.4-0.07-0.68c0-0.27,0.23-0.5,0.5-0.5
			c0.25,0,0.46,0.02,0.62,0.05c0.26,0.86,0.95,1.45,1.79,1.45s1.53-0.58,1.79-1.45c0.16-0.03,0.37-0.05,0.62-0.05
			c0.27,0,0.5,0.23,0.5,0.5c0,0.25-0.02,0.46-0.05,0.62c-0.86,0.26-1.45,0.95-1.45,1.79c0,0.94,0.72,1.68,1.74,1.86
			c0.18,0.34,0.46,0.62,0.8,0.8c0.18,1.02,0.92,1.74,1.86,1.74s1.68-0.72,1.86-1.74c0.34-0.18,0.62-0.46,0.8-0.8
			c1.02-0.18,1.74-0.92,1.74-1.86c0-0.84-0.58-1.53-1.45-1.79c-0.03-0.16-0.05-0.37-0.05-0.62c0-0.27,0.23-0.5,0.5-0.5
			c0.25,0,0.46,0.02,0.62,0.05c0.26,0.86,0.95,1.45,1.79,1.45s1.53-0.58,1.79-1.45c0.16-0.03,0.37-0.05,0.62-0.05
			c0.27,0,0.5,0.23,0.5,0.5c0,0.25-0.02,0.46-0.05,0.62c-0.86,0.26-1.45,0.95-1.45,1.79c0,0.94,0.72,1.68,1.74,1.86
			c0.18,0.34,0.46,0.62,0.8,0.8c0.18,1.02,0.92,1.74,1.86,1.74s1.68-0.72,1.86-1.74c0.34-0.19,0.62-0.47,0.81-0.81
			c0.99-0.22,1.74-1.07,1.74-2.08c0-0.91-0.6-1.69-1.44-2c-0.03-0.17-0.06-0.4-0.06-0.68s0.03-0.51,0.06-0.68
			C332.98,13.84,333.57,13.06,333.57,12.15z"/>
		<path class="st1" d="M359.89,17.73c0,0.94,0.72,1.68,1.74,1.86c0.18,0.34,0.46,0.62,0.8,0.8c0.18,1.02,0.92,1.74,1.86,1.74
			s1.68-0.72,1.86-1.74c0.34-0.19,0.62-0.47,0.81-0.81c0.99-0.22,1.74-1.07,1.74-2.08c0-0.91-0.6-1.69-1.44-2
			c-0.03-0.17-0.06-0.4-0.06-0.68s0.03-0.51,0.06-0.68c0.84-0.31,1.44-1.09,1.44-2c0-1.01-0.74-1.86-1.74-2.08
			c-0.19-0.35-0.48-0.64-0.83-0.83c-0.3-1.04-1.48-1.73-3.09-1.73h-2.37c-0.92,0-1.71,0.57-2.04,1.39
			c-0.25,0.06-0.64,0.11-1.14,0.11c-0.53,0-0.94-0.06-1.19-0.12c-0.49-0.88-1.78-1.38-3.65-1.38s-3.16,0.5-3.65,1.38
			c-0.25,0.06-0.66,0.12-1.19,0.12c-0.49,0-0.88-0.05-1.14-0.11c-0.33-0.82-1.12-1.39-2.04-1.39h-2.37c-1.6,0-2.79,0.69-3.09,1.73
			c-0.36,0.19-0.65,0.48-0.84,0.84c-1.04,0.3-1.73,1.48-1.73,3.09v2.37c0,0.92,0.57,1.71,1.39,2.04c0.06,0.25,0.11,0.64,0.11,1.13
			c0,0.53-0.06,0.94-0.12,1.19c-0.88,0.49-1.38,1.78-1.38,3.65c0,1.87,0.5,3.16,1.38,3.65c0.06,0.25,0.12,0.66,0.12,1.19
			c0,0.49-0.05,0.88-0.11,1.14c-0.81,0.33-1.39,1.12-1.39,2.04v2.37c0,1.6,0.69,2.79,1.73,3.09c0.19,0.36,0.48,0.65,0.84,0.84
			c0.3,1.04,1.48,1.73,3.09,1.73h2.37c0.92,0,1.71-0.57,2.04-1.39c0.25-0.06,0.64-0.11,1.14-0.11c0.53,0,0.94,0.06,1.19,0.12
			c0.49,0.88,1.78,1.38,3.65,1.38s3.16-0.5,3.65-1.38c0.25-0.06,0.66-0.12,1.19-0.12c0.49,0,0.88,0.05,1.14,0.11
			c0.33,0.82,1.12,1.39,2.04,1.39h2.37c1.6,0,2.79-0.69,3.09-1.73c0.35-0.19,0.65-0.48,0.83-0.83c0.99-0.22,1.74-1.07,1.74-2.08
			c0-0.91-0.6-1.68-1.44-2c-0.03-0.17-0.06-0.4-0.06-0.68c0-0.28,0.03-0.51,0.06-0.68c0.84-0.31,1.44-1.09,1.44-2
			c0-1.01-0.74-1.86-1.74-2.08c-0.18-0.34-0.47-0.63-0.81-0.81c-0.19-1.02-0.92-1.74-1.86-1.74s-1.68,0.72-1.86,1.74
			c-0.34,0.18-0.62,0.46-0.8,0.8c-1.02,0.18-1.74,0.92-1.74,1.86c0,0.85,0.58,1.53,1.45,1.79c0.03,0.16,0.05,0.37,0.05,0.62
			c0,0.27-0.23,0.5-0.5,0.5c-0.28,0-0.52-0.03-0.68-0.07c-0.42-0.87-1.53-1.43-2.97-1.43h-1.93c-0.68,0-1.4,0.45-1.67,1.41
			c-0.46,0.09-1.46,0.09-1.93,0c-0.27-0.96-0.99-1.41-1.67-1.41h-1.93c-1.45,0-2.55,0.56-2.97,1.43c-0.17,0.04-0.4,0.07-0.68,0.07
			c-0.27,0-0.5-0.23-0.5-0.5c0-0.25,0.02-0.46,0.05-0.62c0.86-0.26,1.45-0.95,1.45-1.79s-0.58-1.53-1.45-1.79
			c-0.03-0.16-0.05-0.37-0.05-0.62c0-0.27,0.23-0.5,0.5-0.5c0.26,0,0.48,0.03,0.64,0.06c0.31,0.84,1.09,1.44,2,1.44
			c0.91,0,1.69-0.6,2-1.44c0.34-0.07,1.02-0.07,1.36,0c0.31,0.84,1.09,1.44,2,1.44c1.01,0,1.86-0.74,2.08-1.74
			c0.34-0.18,0.63-0.47,0.81-0.81c1.02-0.18,1.74-0.92,1.74-1.86s-0.72-1.68-1.74-1.86c-0.19-0.34-0.47-0.62-0.81-0.81
			c-0.22-0.99-1.07-1.74-2.08-1.74c-0.91,0-1.68,0.6-2,1.44c-0.34,0.07-1.02,0.07-1.36,0c-0.31-0.84-1.09-1.44-2-1.44
			c-0.91,0-1.69,0.6-2,1.44c-0.16,0.03-0.38,0.06-0.64,0.06c-0.27,0-0.5-0.23-0.5-0.5c0-0.25,0.02-0.46,0.05-0.62
			c0.86-0.26,1.45-0.95,1.45-1.79c0-0.85-0.58-1.53-1.45-1.79c-0.03-0.16-0.05-0.37-0.05-0.62c0-0.27,0.23-0.5,0.5-0.5
			c0.28,0,0.52,0.03,0.68,0.07c0.42,0.87,1.53,1.43,2.97,1.43h1.93c0.68,0,1.41-0.45,1.67-1.41c0.46-0.09,1.46-0.09,1.93,0
			c0.26,0.96,0.99,1.41,1.67,1.41h1.93c1.45,0,2.55-0.56,2.97-1.43c0.17-0.04,0.4-0.07,0.68-0.07c0.27,0,0.5,0.23,0.5,0.5
			c0,0.25-0.02,0.46-0.05,0.62C360.48,16.21,359.89,16.89,359.89,17.73z"/>
	</g>
</g>
<g>
	<path class="st1" d="M145.13,48.69c0-1.01-0.74-1.86-1.74-2.08c-0.19-0.35-0.48-0.64-0.83-0.83c-0.3-1.04-1.48-1.73-3.09-1.73
		h-2.37c-0.92,0-1.71,0.57-2.04,1.39c-0.25,0.06-0.64,0.11-1.14,0.11c-0.53,0-0.94-0.06-1.19-0.12c-0.49-0.88-1.78-1.38-3.65-1.38
		s-3.16,0.5-3.65,1.38c-0.25,0.06-0.66,0.12-1.19,0.12c-0.49,0-0.88-0.05-1.14-0.11c-0.33-0.82-1.12-1.39-2.04-1.39h-2.37
		c-1.6,0-2.79,0.69-3.09,1.73c-0.36,0.19-0.65,0.48-0.84,0.84c-1.04,0.29-1.73,1.48-1.73,3.09v2.37c0,0.92,0.57,1.71,1.39,2.04
		c0.06,0.25,0.11,0.64,0.11,1.13c0,0.53-0.06,0.94-0.12,1.19c-0.88,0.49-1.38,1.78-1.38,3.65s0.5,3.16,1.38,3.65
		c0.06,0.25,0.12,0.66,0.12,1.19c0,0.49-0.05,0.88-0.11,1.14c-0.82,0.33-1.39,1.12-1.39,2.04v2.37c0,1.6,0.69,2.79,1.73,3.09
		c0.19,0.36,0.48,0.65,0.84,0.84c0.3,1.04,1.48,1.73,3.09,1.73h2.37c0.92,0,1.71-0.57,2.04-1.39c0.25-0.06,0.64-0.11,1.14-0.11
		c0.53,0,0.94,0.06,1.19,0.12c0.49,0.88,1.78,1.38,3.65,1.38s3.16-0.5,3.65-1.38c0.25-0.06,0.66-0.12,1.19-0.12
		c0.49,0,0.88,0.05,1.14,0.11c0.33,0.82,1.12,1.39,2.04,1.39h2.37c1.6,0,2.79-0.69,3.09-1.73c0.35-0.19,0.65-0.48,0.83-0.83
		c0.99-0.22,1.74-1.07,1.74-2.08c0-0.91-0.6-1.68-1.44-2c-0.03-0.17-0.06-0.4-0.06-0.68s0.03-0.51,0.06-0.68
		c0.84-0.31,1.44-1.09,1.44-2c0-1.01-0.74-1.86-1.74-2.08c-0.18-0.34-0.47-0.63-0.81-0.81c-0.19-1.02-0.92-1.74-1.86-1.74
		s-1.68,0.72-1.86,1.74c-0.34,0.18-0.62,0.46-0.8,0.8c-1.02,0.18-1.74,0.92-1.74,1.86c0,0.85,0.58,1.53,1.45,1.79
		c0.03,0.16,0.05,0.37,0.05,0.62c0,0.27-0.23,0.5-0.5,0.5c-0.28,0-0.52-0.03-0.68-0.07c-0.42-0.87-1.53-1.43-2.97-1.43h-1.93
		c-0.68,0-1.4,0.45-1.67,1.41c-0.46,0.09-1.46,0.09-1.93,0c-0.27-0.96-0.99-1.41-1.67-1.41h-1.93c-1.45,0-2.55,0.56-2.97,1.43
		c-0.17,0.04-0.4,0.07-0.68,0.07c-0.27,0-0.5-0.23-0.5-0.5c0-0.25,0.02-0.46,0.05-0.62c0.86-0.26,1.45-0.95,1.45-1.79
		s-0.58-1.53-1.45-1.79c-0.03-0.16-0.05-0.37-0.05-0.62c0-0.27,0.23-0.5,0.5-0.5c0.26,0,0.48,0.03,0.64,0.06
		c0.31,0.84,1.09,1.44,2,1.44c0.91,0,1.69-0.6,2-1.44c0.34-0.07,1.02-0.07,1.36,0c0.31,0.84,1.09,1.44,2,1.44
		c1.01,0,1.86-0.74,2.08-1.74c0.34-0.18,0.63-0.47,0.81-0.81c1.02-0.18,1.74-0.92,1.74-1.86s-0.72-1.68-1.74-1.86
		c-0.19-0.34-0.47-0.62-0.81-0.81c-0.22-0.99-1.07-1.74-2.08-1.74c-0.91,0-1.68,0.6-2,1.44c-0.34,0.07-1.02,0.07-1.36,0
		c-0.31-0.84-1.09-1.44-2-1.44c-0.91,0-1.69,0.6-2,1.44c-0.16,0.03-0.38,0.06-0.64,0.06c-0.27,0-0.5-0.23-0.5-0.5
		c0-0.25,0.02-0.46,0.05-0.62c0.86-0.26,1.45-0.95,1.45-1.79s-0.58-1.53-1.45-1.79c-0.03-0.16-0.05-0.37-0.05-0.62
		c0-0.27,0.23-0.5,0.5-0.5c0.28,0,0.52,0.03,0.68,0.07c0.42,0.87,1.53,1.43,2.97,1.43h1.93c0.68,0,1.4-0.45,1.67-1.41
		c0.46-0.09,1.46-0.09,1.93,0c0.27,0.96,0.99,1.41,1.67,1.41h1.93c1.45,0,2.55-0.56,2.97-1.43c0.17-0.04,0.4-0.07,0.68-0.07
		c0.27,0,0.5,0.23,0.5,0.5c0,0.25-0.02,0.46-0.05,0.62c-0.86,0.26-1.45,0.95-1.45,1.79c0,0.94,0.72,1.68,1.74,1.86
		c0.18,0.34,0.46,0.62,0.8,0.8c0.18,1.02,0.92,1.74,1.86,1.74s1.68-0.72,1.86-1.74c0.34-0.19,0.62-0.47,0.81-0.81
		c0.99-0.22,1.74-1.07,1.74-2.08c0-0.91-0.6-1.69-1.44-2c-0.03-0.17-0.06-0.4-0.06-0.68s0.03-0.51,0.06-0.68
		C144.53,50.38,145.13,49.6,145.13,48.69z"/>
	<path class="st1" d="M37.99,58.26c-0.18-0.35-0.47-0.64-0.82-0.83c-0.19-1.02-0.92-1.74-1.86-1.74s-1.68,0.72-1.86,1.74
		c-0.34,0.19-0.62,0.47-0.81,0.81c-0.99,0.22-1.74,1.07-1.74,2.08c0,0.91,0.6,1.69,1.44,2c0.03,0.17,0.06,0.4,0.06,0.68
		s-0.03,0.51-0.06,0.68c-0.84,0.31-1.44,1.09-1.44,2c0,0.91,0.6,1.69,1.44,2c0.03,0.16,0.06,0.38,0.06,0.64c0,0.27-0.23,0.5-0.5,0.5
		c-0.25,0-0.46-0.02-0.62-0.05c-0.26-0.86-0.95-1.45-1.79-1.45s-1.53,0.58-1.79,1.45c-0.16,0.03-0.37,0.05-0.62,0.05
		c-0.27,0-0.5-0.23-0.5-0.5c0-0.28,0.03-0.52,0.07-0.68c0.87-0.42,1.43-1.53,1.43-2.97v-3.23c0-1.34-0.54-2.4-1.36-2.84
		c-0.07-0.29-0.14-0.77-0.14-1.4c0-0.64,0.07-1.12,0.14-1.41c0.82-0.44,1.36-1.5,1.36-2.84v-3.23c0-1.6-0.69-2.79-1.73-3.09
		c-0.19-0.36-0.48-0.65-0.84-0.84c-0.3-1.04-1.48-1.73-3.09-1.73H20.5c-0.68,0-1.4,0.45-1.67,1.41c-0.46,0.09-1.46,0.09-1.93,0
		c-0.27-0.96-0.99-1.41-1.67-1.41H13.3c-1.6,0-2.79,0.69-3.09,1.73c-0.36,0.19-0.65,0.48-0.84,0.84c-1.04,0.29-1.73,1.48-1.73,3.09
		v2.37c0,0.92,0.57,1.71,1.39,2.04c0.06,0.25,0.11,0.64,0.11,1.14c0,0.53-0.06,0.94-0.12,1.19c-0.88,0.49-1.38,1.78-1.38,3.65
		c0,1.87,0.5,3.16,1.38,3.65c0.06,0.25,0.12,0.66,0.12,1.19c0,0.49-0.05,0.88-0.11,1.13c-0.82,0.33-1.39,1.12-1.39,2.04v2.37
		c0,1.6,0.69,2.79,1.73,3.09c0.19,0.36,0.48,0.65,0.84,0.84c0.3,1.04,1.48,1.73,3.09,1.73h2.37c0.92,0,1.71-0.57,2.04-1.39
		c0.25-0.06,0.64-0.11,1.14-0.11c0.53,0,0.94,0.06,1.19,0.12c0.49,0.88,1.78,1.38,3.65,1.38s3.16-0.5,3.65-1.38
		c0.25-0.06,0.66-0.12,1.19-0.12c0.49,0,0.88,0.05,1.14,0.11c0.33,0.82,1.12,1.39,2.04,1.39h2.37c1.6,0,2.79-0.69,3.09-1.73
		c0.36-0.19,0.65-0.48,0.84-0.84c1.04-0.29,1.73-1.48,1.73-3.09v-1.93c0-0.68-0.45-1.41-1.41-1.67c-0.05-0.23-0.09-0.56-0.09-0.96
		s0.04-0.73,0.09-0.96c0.97-0.26,1.41-0.99,1.41-1.67v-1.93C39.72,59.74,39.03,58.55,37.99,58.26z M17.86,52.87
		c0.85,0,1.53-0.58,1.79-1.45c0.16-0.03,0.37-0.05,0.62-0.05c0.27,0,0.5,0.23,0.5,0.5c0,0.25-0.02,0.46-0.05,0.62
		c-0.86,0.26-1.45,0.95-1.45,1.79s0.58,1.53,1.45,1.79c0.03,0.16,0.05,0.37,0.05,0.62c0,0.27-0.23,0.5-0.5,0.5
		c-0.25,0-0.46-0.02-0.62-0.05c-0.26-0.86-0.95-1.45-1.79-1.45s-1.53,0.58-1.79,1.45c-0.16,0.03-0.37,0.05-0.62,0.05
		c-0.27,0-0.5-0.23-0.5-0.5c0-0.25,0.02-0.46,0.05-0.62c0.86-0.26,1.45-0.95,1.45-1.79s-0.58-1.53-1.45-1.79
		c-0.03-0.16-0.05-0.37-0.05-0.62c0-0.27,0.23-0.5,0.5-0.5c0.25,0,0.46,0.02,0.62,0.05C16.33,52.28,17.02,52.87,17.86,52.87z
		 M17.86,67.32c-0.85,0-1.53,0.58-1.79,1.45c-0.16,0.03-0.37,0.05-0.62,0.05c-0.27,0-0.5-0.23-0.5-0.5c0-0.25,0.02-0.46,0.05-0.62
		c0.86-0.26,1.45-0.95,1.45-1.79s-0.58-1.53-1.45-1.79c-0.03-0.16-0.05-0.37-0.05-0.62c0-0.27,0.23-0.5,0.5-0.5
		c0.25,0,0.46,0.02,0.62,0.05c0.26,0.86,0.95,1.45,1.79,1.45s1.53-0.58,1.79-1.45c0.16-0.03,0.37-0.05,0.62-0.05
		c0.27,0,0.5,0.23,0.5,0.5c0,0.25-0.02,0.46-0.05,0.62c-0.86,0.26-1.45,0.95-1.45,1.79s0.58,1.53,1.45,1.79
		c0.03,0.16,0.05,0.37,0.05,0.62c0,0.27-0.23,0.5-0.5,0.5c-0.25,0-0.46-0.02-0.62-0.05C19.39,67.9,18.71,67.32,17.86,67.32z"/>
	<path class="st1" d="M73.13,46.62c-0.19-0.36-0.48-0.65-0.84-0.84c-0.3-1.04-1.48-1.73-3.09-1.73h-2.37
		c-0.92,0-1.71,0.57-2.04,1.39c-0.25,0.06-0.64,0.11-1.14,0.11c-0.53,0-0.94-0.06-1.19-0.12c-0.49-0.88-1.78-1.38-3.65-1.38
		s-3.16,0.5-3.65,1.38c-0.25,0.06-0.66,0.12-1.19,0.12c-0.49,0-0.88-0.05-1.14-0.11c-0.33-0.82-1.12-1.39-2.04-1.39h-2.37
		c-1.6,0-2.79,0.69-3.09,1.73c-0.36,0.19-0.65,0.48-0.84,0.84c-1.04,0.3-1.73,1.48-1.73,3.09v2.37c0,0.92,0.57,1.71,1.39,2.04
		c0.06,0.25,0.11,0.64,0.11,1.14c0,0.53-0.06,0.94-0.12,1.19c-0.88,0.49-1.38,1.78-1.38,3.65c0,1.87,0.5,3.16,1.38,3.65
		c0.06,0.25,0.12,0.66,0.12,1.19c0,0.49-0.05,0.88-0.11,1.13c-0.81,0.33-1.39,1.12-1.39,2.04v2.37c0,1.6,0.69,2.79,1.73,3.09
		c0.19,0.36,0.48,0.65,0.84,0.84c0.3,1.04,1.48,1.73,3.09,1.73h2.37c0.92,0,1.71-0.57,2.04-1.39c0.25-0.06,0.64-0.11,1.14-0.11
		c0.53,0,0.94,0.06,1.19,0.12c0.49,0.88,1.78,1.38,3.65,1.38s3.16-0.5,3.65-1.38c0.25-0.06,0.66-0.12,1.19-0.12
		c0.49,0,0.88,0.05,1.14,0.11c0.33,0.82,1.12,1.39,2.04,1.39h2.37c1.6,0,2.79-0.69,3.09-1.73c0.36-0.19,0.65-0.48,0.84-0.84
		c1.04-0.3,1.73-1.48,1.73-3.09v-2.37c0-0.92-0.57-1.71-1.39-2.04c-0.06-0.25-0.11-0.64-0.11-1.14c0-0.53,0.06-0.94,0.12-1.19
		c0.88-0.49,1.38-1.78,1.38-3.65c0-1.87-0.5-3.16-1.38-3.65c-0.06-0.25-0.12-0.66-0.12-1.19c0-0.49,0.05-0.88,0.11-1.13
		c0.81-0.33,1.39-1.12,1.39-2.04v-2.37C74.86,48.1,74.17,46.92,73.13,46.62z M55.91,51.87c0,0.25-0.02,0.46-0.05,0.62
		c-0.86,0.26-1.45,0.95-1.45,1.79c0,0.94,0.72,1.68,1.74,1.86c0.18,0.34,0.46,0.62,0.8,0.8c0.19,1.02,0.92,1.74,1.86,1.74
		s1.68-0.72,1.86-1.74c0.34-0.18,0.62-0.46,0.8-0.8c1.02-0.18,1.74-0.92,1.74-1.86c0-0.84-0.58-1.53-1.45-1.79
		c-0.03-0.16-0.05-0.37-0.05-0.62c0-0.27,0.23-0.5,0.5-0.5c0.25,0,0.46,0.02,0.62,0.05c0.26,0.86,0.95,1.45,1.79,1.45
		c0.85,0,1.53-0.58,1.79-1.45c0.16-0.03,0.37-0.05,0.62-0.05c0.27,0,0.5,0.23,0.5,0.5c0,0.28-0.03,0.52-0.07,0.68
		c-0.87,0.42-1.43,1.53-1.43,2.97v1.93c0,0.68,0.45,1.4,1.41,1.67c0.05,0.23,0.09,0.56,0.09,0.96s-0.04,0.73-0.09,0.96
		c-0.97,0.27-1.41,0.99-1.41,1.67v1.93c0,1.45,0.56,2.55,1.43,2.97c0.04,0.17,0.07,0.4,0.07,0.68c0,0.27-0.23,0.5-0.5,0.5
		c-0.28,0-0.52-0.03-0.68-0.07c-0.42-0.87-1.53-1.43-2.97-1.43h-1.93c-0.68,0-1.4,0.45-1.67,1.41c-0.46,0.09-1.46,0.09-1.93,0
		c-0.27-0.96-0.99-1.41-1.67-1.41h-1.93c-1.45,0-2.55,0.56-2.97,1.43c-0.17,0.04-0.4,0.07-0.68,0.07c-0.27,0-0.5-0.23-0.5-0.5
		c0-0.28,0.03-0.52,0.07-0.68c0.87-0.42,1.43-1.53,1.43-2.97v-1.93c0-0.68-0.45-1.41-1.41-1.67c-0.05-0.23-0.09-0.56-0.09-0.96
		s0.04-0.73,0.09-0.96c0.97-0.26,1.41-0.99,1.41-1.67v-1.93c0-1.45-0.56-2.55-1.43-2.97c-0.04-0.17-0.07-0.4-0.07-0.68
		c0-0.27,0.23-0.5,0.5-0.5c0.25,0,0.46,0.02,0.62,0.05c0.26,0.86,0.95,1.45,1.79,1.45s1.53-0.58,1.79-1.45
		c0.16-0.03,0.37-0.05,0.62-0.05C55.68,51.37,55.91,51.6,55.91,51.87z"/>
	<path class="st1" d="M108.26,46.62c-0.18-0.35-0.47-0.64-0.82-0.83c-0.19-1.02-0.92-1.74-1.86-1.74s-1.68,0.72-1.86,1.74
		c-0.35,0.19-0.63,0.48-0.82,0.83c-1.04,0.29-1.73,1.48-1.73,3.09v3.23c0,1.34,0.54,2.4,1.36,2.84c0.07,0.29,0.14,0.77,0.14,1.41
		c0,0.64-0.07,1.12-0.14,1.4c-0.82,0.44-1.36,1.5-1.36,2.84v3.23c0,1.45,0.56,2.55,1.43,2.97c0.04,0.17,0.07,0.4,0.07,0.68
		c0,0.27-0.23,0.5-0.5,0.5c-0.25,0-0.46-0.02-0.62-0.05c-0.26-0.86-0.95-1.45-1.79-1.45s-1.53,0.58-1.79,1.45
		c-0.16,0.03-0.37,0.05-0.62,0.05c-0.27,0-0.5-0.23-0.5-0.5c0-0.29,0.03-0.52,0.07-0.68c0.87-0.42,1.43-1.53,1.43-2.97v-3.23
		c0-1.34-0.54-2.4-1.36-2.84c-0.07-0.29-0.14-0.77-0.14-1.41s0.07-1.12,0.14-1.41c0.82-0.44,1.36-1.5,1.36-2.84v-3.23
		c0-1.6-0.69-2.79-1.73-3.09c-0.19-0.36-0.48-0.65-0.84-0.84c-0.3-1.04-1.48-1.73-3.09-1.73h-1.93c-0.68,0-1.4,0.45-1.67,1.41
		c-0.46,0.09-1.46,0.09-1.93,0c-0.27-0.96-0.99-1.41-1.67-1.41h-1.93c-1.6,0-2.79,0.69-3.09,1.73c-0.36,0.19-0.65,0.48-0.84,0.84
		c-1.04,0.29-1.73,1.48-1.73,3.09v2.37c0,0.92,0.57,1.71,1.39,2.04c0.06,0.25,0.11,0.64,0.11,1.14c0,0.53-0.06,0.94-0.12,1.19
		c-0.88,0.49-1.38,1.78-1.38,3.65s0.5,3.16,1.38,3.65c0.06,0.25,0.12,0.66,0.12,1.19c0,0.49-0.05,0.88-0.11,1.13
		c-0.81,0.33-1.39,1.12-1.39,2.04v2.37c0,1.6,0.69,2.79,1.73,3.09c0.18,0.35,0.47,0.64,0.82,0.83c0.19,1.02,0.92,1.74,1.86,1.74
		s1.68-0.72,1.86-1.74c0.35-0.19,0.63-0.48,0.82-0.83c1.04-0.3,1.73-1.48,1.73-3.09v-3.23c0-1.34-0.54-2.4-1.36-2.84
		c-0.07-0.29-0.14-0.77-0.14-1.41s0.07-1.12,0.14-1.41c0.82-0.44,1.36-1.5,1.36-2.84v-3.23c0-1.45-0.56-2.55-1.43-2.97
		c-0.04-0.17-0.07-0.4-0.07-0.68c0-0.27,0.23-0.5,0.5-0.5c0.25,0,0.46,0.02,0.62,0.05c0.26,0.86,0.95,1.45,1.79,1.45
		s1.53-0.58,1.79-1.45c0.16-0.03,0.37-0.05,0.62-0.05c0.27,0,0.5,0.23,0.5,0.5c0,0.28-0.03,0.52-0.07,0.68
		c-0.87,0.42-1.43,1.53-1.43,2.97v3.23c0,1.34,0.54,2.4,1.36,2.84c0.07,0.29,0.14,0.77,0.14,1.41c0,0.64-0.07,1.12-0.14,1.4
		c-0.82,0.44-1.36,1.5-1.36,2.84v3.23c0,1.6,0.69,2.79,1.73,3.09c0.19,0.36,0.48,0.65,0.84,0.84c0.3,1.04,1.48,1.73,3.09,1.73h1.93
		c0.68,0,1.4-0.45,1.67-1.41c0.46-0.09,1.46-0.09,1.93,0c0.27,0.97,0.99,1.41,1.67,1.41h1.93c1.6,0,2.79-0.69,3.09-1.73
		c0.36-0.19,0.65-0.48,0.84-0.84c1.04-0.3,1.73-1.48,1.73-3.09v-2.37c0-0.92-0.57-1.71-1.39-2.04c-0.06-0.25-0.11-0.64-0.11-1.14
		c0-0.53,0.06-0.94,0.12-1.19c0.88-0.49,1.38-1.78,1.38-3.65c0-1.87-0.5-3.16-1.38-3.65c-0.06-0.25-0.12-0.66-0.12-1.19
		c0-0.49,0.05-0.88,0.11-1.13c0.81-0.33,1.39-1.12,1.39-2.04v-2.37C109.99,48.1,109.3,46.92,108.26,46.62z"/>
	<path class="st1" d="M178.54,58.26c-0.18-0.35-0.47-0.64-0.82-0.83c-0.19-1.02-0.92-1.74-1.86-1.74s-1.68,0.72-1.86,1.74
		c-0.34,0.19-0.62,0.47-0.81,0.81c-0.99,0.22-1.74,1.07-1.74,2.08c0,0.91,0.6,1.69,1.44,2c0.03,0.17,0.06,0.4,0.06,0.68
		s-0.03,0.51-0.06,0.68c-0.84,0.31-1.44,1.09-1.44,2c0,0.91,0.6,1.69,1.44,2c0.03,0.16,0.06,0.38,0.06,0.64c0,0.27-0.23,0.5-0.5,0.5
		c-0.25,0-0.46-0.02-0.62-0.05c-0.26-0.86-0.95-1.45-1.79-1.45s-1.53,0.58-1.79,1.45c-0.16,0.03-0.37,0.05-0.62,0.05
		c-0.27,0-0.5-0.23-0.5-0.5c0-0.28,0.03-0.52,0.07-0.68c0.87-0.42,1.43-1.53,1.43-2.97v-3.23c0-1.34-0.54-2.4-1.36-2.84
		c-0.07-0.29-0.14-0.77-0.14-1.4c0-0.64,0.07-1.12,0.14-1.41c0.82-0.44,1.36-1.51,1.36-2.84v-3.23c0-1.6-0.69-2.79-1.73-3.09
		c-0.19-0.36-0.48-0.65-0.84-0.84c-0.3-1.04-1.48-1.73-3.09-1.73h-1.93c-0.68,0-1.4,0.45-1.67,1.41c-0.46,0.09-1.46,0.09-1.93,0
		c-0.27-0.96-0.99-1.41-1.67-1.41h-1.93c-1.6,0-2.79,0.69-3.09,1.73c-0.36,0.19-0.65,0.48-0.84,0.84c-1.04,0.29-1.73,1.48-1.73,3.09
		v2.37c0,0.92,0.57,1.71,1.39,2.04c0.06,0.25,0.11,0.64,0.11,1.14c0,0.53-0.06,0.94-0.12,1.19c-0.88,0.49-1.38,1.78-1.38,3.65
		s0.5,3.16,1.38,3.65c0.06,0.25,0.12,0.66,0.12,1.19c0,0.49-0.05,0.88-0.11,1.13c-0.81,0.33-1.39,1.12-1.39,2.04v2.37
		c0,1.6,0.69,2.79,1.73,3.09c0.19,0.36,0.48,0.65,0.84,0.84c0.3,1.04,1.48,1.73,3.09,1.73h2.37c0.92,0,1.71-0.57,2.04-1.39
		c0.25-0.06,0.64-0.11,1.14-0.11c0.53,0,0.94,0.06,1.19,0.12c0.49,0.88,1.78,1.38,3.65,1.38s3.16-0.5,3.65-1.38
		c0.25-0.06,0.66-0.12,1.19-0.12c0.49,0,0.88,0.05,1.14,0.11c0.33,0.82,1.12,1.39,2.04,1.39h2.37c1.6,0,2.79-0.69,3.09-1.73
		c0.36-0.19,0.65-0.48,0.84-0.84c1.04-0.3,1.73-1.48,1.73-3.09v-1.93c0-0.68-0.45-1.41-1.41-1.67c-0.05-0.23-0.09-0.56-0.09-0.96
		s0.04-0.73,0.09-0.96c0.96-0.26,1.41-0.99,1.41-1.67v-1.93C180.27,59.74,179.58,58.55,178.54,58.26z M158.41,52.87
		c0.85,0,1.53-0.58,1.79-1.45c0.16-0.03,0.37-0.05,0.62-0.05c0.27,0,0.5,0.23,0.5,0.5c0,0.25-0.02,0.46-0.05,0.62
		c-0.86,0.26-1.45,0.95-1.45,1.79s0.58,1.53,1.45,1.79c0.03,0.16,0.05,0.37,0.05,0.62c0,0.27-0.23,0.5-0.5,0.5
		c-0.25,0-0.46-0.02-0.62-0.05c-0.26-0.86-0.95-1.45-1.79-1.45s-1.53,0.58-1.79,1.45c-0.16,0.03-0.37,0.05-0.62,0.05
		c-0.27,0-0.5-0.23-0.5-0.5c0-0.25,0.02-0.46,0.05-0.62c0.86-0.26,1.45-0.95,1.45-1.79s-0.58-1.53-1.45-1.79
		c-0.03-0.16-0.05-0.37-0.05-0.62c0-0.27,0.23-0.5,0.5-0.5c0.25,0,0.46,0.02,0.62,0.05C156.88,52.28,157.57,52.87,158.41,52.87z
		 M158.41,67.32c-0.85,0-1.53,0.58-1.79,1.45c-0.16,0.03-0.37,0.05-0.62,0.05c-0.27,0-0.5-0.23-0.5-0.5c0-0.25,0.02-0.46,0.05-0.62
		c0.86-0.26,1.45-0.95,1.45-1.79s-0.58-1.53-1.45-1.79c-0.03-0.16-0.05-0.37-0.05-0.62c0-0.27,0.23-0.5,0.5-0.5
		c0.25,0,0.46,0.02,0.62,0.05c0.26,0.86,0.95,1.45,1.79,1.45s1.53-0.58,1.79-1.45c0.16-0.03,0.37-0.05,0.62-0.05
		c0.27,0,0.5,0.23,0.5,0.5c0,0.25-0.02,0.46-0.05,0.62c-0.86,0.26-1.45,0.95-1.45,1.79s0.58,1.53,1.45,1.79
		c0.03,0.16,0.05,0.37,0.05,0.62c0,0.27-0.23,0.5-0.5,0.5c-0.25,0-0.46-0.02-0.62-0.05C159.94,67.9,159.26,67.32,158.41,67.32z"/>
	<path class="st1" d="M213.68,46.62c-0.19-0.35-0.48-0.65-0.83-0.83c-0.22-0.99-1.07-1.74-2.08-1.74c-0.91,0-1.69,0.6-2,1.44
		c-0.34,0.07-1.02,0.07-1.36,0c-0.31-0.84-1.09-1.44-2-1.44c-1.01,0-1.86,0.74-2.08,1.74c-0.34,0.18-0.63,0.47-0.81,0.81
		c-1.02,0.18-1.74,0.92-1.74,1.86s0.72,1.68,1.74,1.86c0.18,0.34,0.46,0.62,0.8,0.8c0.19,1.02,0.92,1.74,1.86,1.74
		c0.85,0,1.53-0.58,1.79-1.45c0.16-0.03,0.37-0.05,0.62-0.05c0.27,0,0.5,0.23,0.5,0.5c0,0.25-0.02,0.46-0.05,0.62
		c-0.86,0.26-1.45,0.95-1.45,1.79s0.58,1.53,1.45,1.79c0.03,0.16,0.05,0.37,0.05,0.62c0,0.27-0.23,0.5-0.5,0.5
		c-0.28,0-0.52-0.03-0.68-0.07c-0.42-0.87-1.53-1.43-2.97-1.43H202c-0.68,0-1.4,0.45-1.67,1.41c-0.46,0.09-1.46,0.09-1.93,0
		c-0.27-0.96-0.99-1.41-1.67-1.41h-1.93c-1.45,0-2.55,0.56-2.97,1.43c-0.17,0.04-0.4,0.07-0.68,0.07c-0.27,0-0.5-0.23-0.5-0.5
		c0-0.25,0.02-0.46,0.05-0.62c0.86-0.26,1.45-0.95,1.45-1.79s-0.58-1.53-1.45-1.79c-0.03-0.16-0.05-0.37-0.05-0.62
		c0-0.27,0.23-0.5,0.5-0.5c0.25,0,0.46,0.02,0.62,0.05c0.26,0.86,0.95,1.45,1.79,1.45c0.94,0,1.68-0.72,1.86-1.74
		c0.34-0.18,0.62-0.46,0.8-0.8c1.02-0.18,1.74-0.92,1.74-1.86s-0.72-1.68-1.74-1.86c-0.19-0.34-0.47-0.62-0.81-0.81
		c-0.22-0.99-1.07-1.74-2.08-1.74c-0.91,0-1.69,0.6-2,1.44c-0.34,0.07-1.02,0.07-1.36,0c-0.31-0.84-1.09-1.44-2-1.44
		c-1.01,0-1.86,0.74-2.08,1.74c-0.35,0.19-0.64,0.48-0.83,0.83c-1.04,0.29-1.73,1.48-1.73,3.09v3.23c0,1.34,0.54,2.4,1.36,2.84
		c0.07,0.29,0.14,0.77,0.14,1.41c0,0.64-0.07,1.12-0.14,1.4c-0.82,0.44-1.36,1.5-1.36,2.84v3.23c0,1.6,0.69,2.79,1.73,3.09
		c0.18,0.35,0.47,0.64,0.82,0.83c0.19,1.02,0.92,1.74,1.86,1.74s1.68-0.72,1.86-1.74c0.34-0.18,0.62-0.46,0.8-0.8
		c1.02-0.18,1.74-0.92,1.74-1.86c0-0.85-0.58-1.53-1.45-1.79c-0.03-0.16-0.05-0.37-0.05-0.62c0-0.27,0.23-0.5,0.5-0.5
		c0.25,0,0.46,0.02,0.62,0.05c0.26,0.86,0.95,1.45,1.79,1.45s1.53-0.58,1.79-1.45c0.16-0.03,0.37-0.05,0.62-0.05
		c0.27,0,0.5,0.23,0.5,0.5c0,0.25-0.02,0.46-0.05,0.62c-0.86,0.26-1.45,0.95-1.45,1.79s0.58,1.53,1.45,1.79
		c0.03,0.16,0.05,0.37,0.05,0.62c0,0.27-0.23,0.5-0.5,0.5c-0.25,0-0.46-0.02-0.62-0.05c-0.26-0.86-0.95-1.45-1.79-1.45
		c-0.94,0-1.68,0.72-1.86,1.74c-0.34,0.18-0.62,0.46-0.8,0.8c-1.02,0.18-1.74,0.92-1.74,1.86s0.72,1.68,1.74,1.86
		c0.19,0.35,0.48,0.63,0.83,0.82c0.3,1.04,1.48,1.73,3.09,1.73h1.93c0.68,0,1.4-0.45,1.67-1.41c0.46-0.09,1.46-0.09,1.93,0
		c0.27,0.97,0.99,1.41,1.67,1.41h1.93c1.6,0,2.79-0.69,3.09-1.73c0.35-0.18,0.64-0.47,0.83-0.82c1.02-0.18,1.74-0.92,1.74-1.86
		s-0.72-1.68-1.74-1.86c-0.18-0.34-0.46-0.62-0.8-0.8c-0.19-1.02-0.92-1.74-1.86-1.74c-0.85,0-1.53,0.58-1.79,1.45
		c-0.16,0.03-0.37,0.05-0.62,0.05c-0.27,0-0.5-0.23-0.5-0.5c0-0.25,0.02-0.46,0.05-0.62c0.86-0.26,1.45-0.95,1.45-1.79
		s-0.58-1.53-1.45-1.79c-0.03-0.16-0.05-0.37-0.05-0.62c0-0.27,0.23-0.5,0.5-0.5c0.25,0,0.46,0.02,0.62,0.05
		c0.26,0.86,0.95,1.45,1.79,1.45s1.53-0.58,1.79-1.45c0.16-0.03,0.37-0.05,0.62-0.05c0.27,0,0.5,0.23,0.5,0.5
		c0,0.25-0.02,0.46-0.05,0.62c-0.86,0.26-1.45,0.95-1.45,1.79c0,0.94,0.72,1.68,1.74,1.86c0.18,0.34,0.46,0.62,0.8,0.8
		c0.19,1.02,0.92,1.74,1.86,1.74s1.68-0.72,1.86-1.74c0.35-0.19,0.63-0.48,0.82-0.83c1.04-0.29,1.73-1.48,1.73-3.09v-3.23
		c0-1.34-0.54-2.4-1.36-2.84c-0.07-0.29-0.14-0.77-0.14-1.4c0-0.64,0.07-1.12,0.14-1.41c0.82-0.44,1.36-1.51,1.36-2.84v-3.23
		C215.4,48.1,214.72,46.92,213.68,46.62z"/>
	<path class="st1" d="M261.57,46.62c-0.19-0.36-0.48-0.65-0.84-0.84c-0.3-1.04-1.48-1.73-3.09-1.73h-2.37
		c-0.92,0-1.71,0.57-2.04,1.39c-0.25,0.06-0.64,0.11-1.14,0.11c-0.53,0-0.94-0.06-1.19-0.12c-0.49-0.88-1.78-1.38-3.65-1.38
		s-3.16,0.5-3.65,1.38c-0.25,0.06-0.66,0.12-1.19,0.12c-0.49,0-0.88-0.05-1.14-0.11c-0.33-0.82-1.12-1.39-2.04-1.39h-2.37
		c-1.6,0-2.79,0.69-3.09,1.73c-0.36,0.19-0.65,0.48-0.84,0.84c-1.04,0.29-1.73,1.48-1.73,3.09v2.37c0,0.92,0.57,1.71,1.39,2.04
		c0.06,0.25,0.11,0.64,0.11,1.14c0,0.53-0.06,0.94-0.12,1.19c-0.88,0.49-1.38,1.78-1.38,3.65s0.5,3.16,1.38,3.65
		c0.06,0.25,0.12,0.66,0.12,1.19c0,0.49-0.05,0.88-0.11,1.13c-0.81,0.33-1.39,1.12-1.39,2.04v2.37c0,1.6,0.69,2.79,1.73,3.09
		c0.18,0.35,0.47,0.64,0.82,0.83c0.19,1.02,0.92,1.74,1.86,1.74s1.68-0.72,1.86-1.74c0.34-0.19,0.62-0.47,0.81-0.81
		c0.99-0.22,1.74-1.07,1.74-2.08c0-0.91-0.6-1.69-1.44-2c-0.03-0.17-0.06-0.4-0.06-0.68s0.03-0.51,0.06-0.68
		c0.84-0.31,1.44-1.09,1.44-2c0-0.91-0.6-1.69-1.44-2c-0.03-0.16-0.06-0.38-0.06-0.64c0-0.27,0.23-0.5,0.5-0.5
		c0.26,0,0.48,0.03,0.64,0.06c0.31,0.84,1.09,1.44,2,1.44c0.91,0,1.69-0.6,2-1.44c0.34-0.07,1.02-0.07,1.36,0
		c0.31,0.84,1.09,1.44,2,1.44c0.91,0,1.69-0.6,2-1.44c0.16-0.03,0.38-0.06,0.64-0.06c0.27,0,0.5,0.23,0.5,0.5
		c0,0.26-0.03,0.48-0.06,0.64c-0.84,0.31-1.44,1.09-1.44,2c0,0.91,0.6,1.69,1.44,2c0.03,0.17,0.06,0.4,0.06,0.68
		s-0.03,0.51-0.06,0.68c-0.84,0.31-1.44,1.09-1.44,2c0,1.01,0.74,1.86,1.74,2.08c0.19,0.35,0.47,0.63,0.82,0.82
		c0.22,0.99,1.07,1.74,2.08,1.74c0.91,0,1.69-0.6,2-1.44c0.34-0.07,1.02-0.07,1.36,0c0.31,0.84,1.09,1.44,2,1.44
		c1.01,0,1.86-0.74,2.08-1.74c0.34-0.18,0.63-0.47,0.81-0.81c1.02-0.18,1.74-0.92,1.74-1.86s-0.72-1.68-1.74-1.86
		c-0.18-0.34-0.46-0.62-0.8-0.8c-0.19-1.02-0.92-1.74-1.86-1.74c-0.85,0-1.53,0.58-1.79,1.45c-0.16,0.03-0.37,0.05-0.62,0.05
		c-0.27,0-0.5-0.23-0.5-0.5c0-0.25,0.02-0.46,0.05-0.62c0.86-0.26,1.45-0.95,1.45-1.79s-0.58-1.53-1.45-1.79
		c-0.03-0.16-0.05-0.37-0.05-0.62c0-0.27,0.23-0.5,0.5-0.5c0.25,0,0.46,0.02,0.62,0.05c0.26,0.86,0.95,1.45,1.79,1.45
		c0.94,0,1.68-0.72,1.86-1.74c0.35-0.19,0.63-0.48,0.82-0.83c1.04-0.3,1.73-1.48,1.73-3.09v-1.93c0-0.68-0.45-1.41-1.41-1.67
		c-0.05-0.23-0.09-0.56-0.09-0.96s0.04-0.73,0.09-0.96c0.96-0.26,1.41-0.99,1.41-1.67v-1.93C263.3,48.1,262.61,46.92,261.57,46.62z
		 M251.83,55.68h-1.93c-0.68,0-1.4,0.45-1.67,1.41c-0.46,0.09-1.46,0.09-1.93,0c-0.27-0.96-0.99-1.41-1.67-1.41h-1.93
		c-1.45,0-2.55,0.56-2.97,1.43c-0.17,0.04-0.4,0.07-0.68,0.07c-0.27,0-0.5-0.23-0.5-0.5c0-0.25,0.02-0.46,0.05-0.62
		c0.86-0.26,1.45-0.95,1.45-1.79s-0.58-1.53-1.45-1.79c-0.03-0.16-0.05-0.37-0.05-0.62c0-0.27,0.23-0.5,0.5-0.5
		c0.28,0,0.52,0.03,0.68,0.07c0.42,0.87,1.53,1.43,2.97,1.43h1.93c0.68,0,1.4-0.45,1.67-1.41c0.46-0.09,1.46-0.09,1.93,0
		c0.27,0.97,0.99,1.41,1.67,1.41h1.93c1.45,0,2.55-0.56,2.97-1.43c0.17-0.04,0.4-0.07,0.68-0.07c0.27,0,0.5,0.23,0.5,0.5
		c0,0.25-0.02,0.46-0.05,0.62c-0.86,0.26-1.45,0.95-1.45,1.79s0.58,1.53,1.45,1.79c0.03,0.16,0.05,0.37,0.05,0.62
		c0,0.27-0.23,0.5-0.5,0.5c-0.28,0-0.52-0.03-0.68-0.07C254.38,56.24,253.27,55.68,251.83,55.68z"/>
	<path class="st1" d="M296.71,46.62c-0.19-0.36-0.48-0.65-0.84-0.84c-0.3-1.04-1.48-1.73-3.09-1.73h-2.37
		c-0.92,0-1.71,0.57-2.04,1.39c-0.25,0.06-0.64,0.11-1.14,0.11c-0.53,0-0.94-0.06-1.19-0.12c-0.49-0.88-1.78-1.38-3.65-1.38
		s-3.16,0.5-3.65,1.38c-0.25,0.06-0.66,0.12-1.19,0.12c-0.49,0-0.88-0.05-1.14-0.11c-0.33-0.82-1.12-1.39-2.04-1.39h-2.37
		c-1.6,0-2.79,0.69-3.09,1.73c-0.36,0.19-0.65,0.48-0.84,0.84c-1.04,0.29-1.73,1.48-1.73,3.09v2.37c0,0.92,0.57,1.71,1.39,2.04
		c0.06,0.25,0.11,0.64,0.11,1.14c0,0.53-0.06,0.94-0.12,1.19c-0.88,0.49-1.38,1.78-1.38,3.65s0.5,3.16,1.38,3.65
		c0.06,0.25,0.12,0.66,0.12,1.19c0,0.49-0.05,0.88-0.11,1.13c-0.81,0.33-1.39,1.12-1.39,2.04v2.37c0,1.6,0.69,2.79,1.73,3.09
		c0.19,0.36,0.48,0.65,0.84,0.84c0.3,1.04,1.48,1.73,3.09,1.73h2.37c0.92,0,1.71-0.57,2.04-1.39c0.25-0.06,0.64-0.11,1.14-0.11
		c0.53,0,0.94,0.06,1.19,0.12c0.49,0.88,1.78,1.38,3.65,1.38s3.16-0.5,3.65-1.38c0.25-0.06,0.66-0.12,1.19-0.12
		c0.49,0,0.88,0.05,1.14,0.11c0.33,0.82,1.12,1.39,2.04,1.39h2.37c1.6,0,2.79-0.69,3.09-1.73c0.36-0.19,0.65-0.48,0.84-0.84
		c1.04-0.29,1.73-1.48,1.73-3.09v-2.37c0-0.92-0.57-1.71-1.39-2.04c-0.06-0.25-0.11-0.64-0.11-1.14c0-0.53,0.06-0.94,0.12-1.19
		c0.88-0.49,1.38-1.78,1.38-3.65c0-1.87-0.5-3.16-1.38-3.65c-0.06-0.25-0.12-0.66-0.12-1.19c0-0.49,0.05-0.88,0.11-1.13
		c0.81-0.33,1.39-1.12,1.39-2.04v-2.37C298.44,48.1,297.75,46.92,296.71,46.62z M279.49,51.87c0,0.25-0.02,0.46-0.05,0.62
		c-0.86,0.26-1.45,0.95-1.45,1.79c0,0.94,0.72,1.68,1.74,1.86c0.18,0.34,0.46,0.62,0.8,0.8c0.19,1.02,0.92,1.74,1.86,1.74
		s1.68-0.72,1.86-1.74c0.34-0.18,0.62-0.46,0.8-0.8c1.02-0.18,1.74-0.92,1.74-1.86c0-0.85-0.58-1.53-1.45-1.79
		c-0.03-0.16-0.05-0.37-0.05-0.62c0-0.27,0.23-0.5,0.5-0.5c0.25,0,0.46,0.02,0.62,0.05c0.26,0.86,0.95,1.45,1.79,1.45
		s1.53-0.58,1.79-1.45c0.16-0.03,0.37-0.05,0.62-0.05c0.27,0,0.5,0.23,0.5,0.5c0,0.28-0.03,0.52-0.07,0.68
		c-0.87,0.42-1.43,1.53-1.43,2.97v1.93c0,0.68,0.45,1.4,1.41,1.67c0.05,0.23,0.09,0.56,0.09,0.96s-0.04,0.73-0.09,0.96
		c-0.97,0.26-1.41,0.99-1.41,1.67v1.93c0,1.45,0.56,2.55,1.43,2.97c0.04,0.17,0.07,0.4,0.07,0.68c0,0.27-0.23,0.5-0.5,0.5
		c-0.28,0-0.52-0.03-0.68-0.07c-0.42-0.87-1.53-1.43-2.97-1.43h-1.93c-0.68,0-1.4,0.45-1.67,1.41c-0.46,0.09-1.46,0.09-1.93,0
		c-0.27-0.96-0.99-1.41-1.67-1.41h-1.93c-1.45,0-2.55,0.56-2.97,1.43c-0.17,0.04-0.4,0.07-0.68,0.07c-0.27,0-0.5-0.23-0.5-0.5
		c0-0.29,0.03-0.52,0.07-0.68c0.87-0.42,1.43-1.53,1.43-2.97v-1.93c0-0.68-0.45-1.41-1.41-1.67c-0.05-0.23-0.09-0.56-0.09-0.96
		s0.04-0.73,0.09-0.96c0.96-0.26,1.41-0.99,1.41-1.67v-1.93c0-1.45-0.56-2.55-1.43-2.97c-0.04-0.17-0.07-0.4-0.07-0.68
		c0-0.27,0.23-0.5,0.5-0.5c0.25,0,0.46,0.02,0.62,0.05c0.26,0.86,0.95,1.45,1.79,1.45s1.53-0.58,1.79-1.45
		c0.16-0.03,0.37-0.05,0.62-0.05C279.26,51.37,279.49,51.6,279.49,51.87z"/>
	<path class="st1" d="M331.85,46.62c-0.19-0.36-0.48-0.65-0.84-0.84c-0.3-1.04-1.48-1.73-3.09-1.73h-2.37
		c-0.92,0-1.71,0.57-2.04,1.39c-0.25,0.06-0.64,0.11-1.14,0.11c-0.53,0-0.94-0.06-1.19-0.12c-0.49-0.88-1.78-1.38-3.65-1.38
		s-3.16,0.5-3.65,1.38c-0.25,0.06-0.66,0.12-1.19,0.12c-0.49,0-0.88-0.05-1.14-0.11c-0.33-0.82-1.12-1.39-2.04-1.39h-2.37
		c-1.6,0-2.79,0.69-3.09,1.73c-0.36,0.19-0.65,0.48-0.84,0.84c-1.04,0.29-1.73,1.48-1.73,3.09v2.37c0,0.92,0.57,1.71,1.39,2.04
		c0.06,0.25,0.11,0.64,0.11,1.14c0,0.53-0.06,0.94-0.12,1.19c-0.88,0.49-1.38,1.78-1.38,3.65c0,1.87,0.5,3.16,1.38,3.65
		c0.06,0.25,0.12,0.66,0.12,1.19c0,0.49-0.05,0.88-0.11,1.13c-0.81,0.33-1.39,1.12-1.39,2.04v2.37c0,1.6,0.69,2.79,1.73,3.09
		c0.18,0.35,0.47,0.64,0.82,0.83c0.19,1.02,0.92,1.74,1.86,1.74s1.68-0.72,1.86-1.74c0.34-0.19,0.62-0.47,0.81-0.81
		c0.99-0.22,1.74-1.07,1.74-2.08c0-0.91-0.6-1.69-1.44-2c-0.03-0.17-0.06-0.4-0.06-0.68s0.03-0.51,0.06-0.68
		c0.84-0.31,1.44-1.09,1.44-2c0-0.91-0.6-1.69-1.44-2c-0.03-0.16-0.06-0.38-0.06-0.64c0-0.27,0.23-0.5,0.5-0.5
		c0.28,0,0.52,0.03,0.68,0.07c0.42,0.87,1.53,1.43,2.97,1.43h1.93c0.68,0,1.41-0.45,1.67-1.41c0.46-0.09,1.46-0.09,1.93,0
		c0.27,0.97,0.99,1.41,1.67,1.41h1.93c1.45,0,2.55-0.56,2.97-1.43c0.17-0.04,0.4-0.07,0.68-0.07c0.27,0,0.5,0.23,0.5,0.5
		c0,0.26-0.03,0.48-0.06,0.64c-0.84,0.31-1.44,1.09-1.44,2c0,0.91,0.6,1.69,1.44,2c0.03,0.17,0.06,0.4,0.06,0.68
		s-0.03,0.51-0.06,0.68c-0.84,0.31-1.44,1.09-1.44,2c0,1.01,0.74,1.86,1.74,2.08c0.18,0.34,0.47,0.63,0.81,0.81
		c0.19,1.02,0.92,1.74,1.86,1.74s1.68-0.72,1.86-1.74c0.35-0.19,0.63-0.48,0.82-0.83c1.04-0.29,1.73-1.48,1.73-3.09v-2.37
		c0-0.92-0.57-1.71-1.39-2.04c-0.06-0.25-0.11-0.64-0.11-1.14c0-0.53,0.06-0.94,0.12-1.19c0.88-0.49,1.38-1.78,1.38-3.65
		c0-1.87-0.5-3.16-1.38-3.65c-0.06-0.25-0.12-0.66-0.12-1.19c0-0.49,0.05-0.88,0.11-1.13c0.81-0.33,1.39-1.12,1.39-2.04v-2.37
		C333.57,48.1,332.89,46.92,331.85,46.62z M308.86,52.48c-0.03-0.16-0.05-0.37-0.05-0.62c0-0.27,0.23-0.5,0.5-0.5
		c0.25,0,0.46,0.02,0.62,0.05c0.26,0.86,0.95,1.45,1.79,1.45s1.53-0.58,1.79-1.45c0.16-0.03,0.37-0.05,0.62-0.05
		c0.27,0,0.5,0.23,0.5,0.5c0,0.25-0.02,0.46-0.05,0.62c-0.86,0.26-1.45,0.95-1.45,1.79s0.58,1.53,1.45,1.79
		c0.03,0.16,0.05,0.37,0.05,0.62c0,0.27-0.23,0.5-0.5,0.5c-0.25,0-0.46-0.02-0.62-0.05c-0.26-0.86-0.95-1.45-1.79-1.45
		s-1.53,0.58-1.79,1.45c-0.16,0.03-0.37,0.05-0.62,0.05c-0.27,0-0.5-0.23-0.5-0.5c0-0.25,0.02-0.46,0.05-0.62
		c0.86-0.26,1.45-0.95,1.45-1.79S309.73,52.75,308.86,52.48z M323.35,55.68c-0.85,0-1.53,0.58-1.79,1.45
		c-0.16,0.03-0.37,0.05-0.62,0.05c-0.27,0-0.5-0.23-0.5-0.5c0-0.25,0.02-0.46,0.05-0.62c0.86-0.26,1.45-0.95,1.45-1.79
		s-0.58-1.53-1.45-1.79c-0.03-0.16-0.05-0.37-0.05-0.62c0-0.27,0.23-0.5,0.5-0.5c0.25,0,0.46,0.02,0.62,0.05
		c0.26,0.86,0.95,1.45,1.79,1.45s1.53-0.58,1.79-1.45c0.16-0.03,0.37-0.05,0.62-0.05c0.27,0,0.5,0.23,0.5,0.5
		c0,0.25-0.02,0.46-0.05,0.62c-0.86,0.26-1.45,0.95-1.45,1.79s0.58,1.53,1.45,1.79c0.03,0.16,0.05,0.37,0.05,0.62
		c0,0.27-0.23,0.5-0.5,0.5c-0.25,0-0.46-0.02-0.62-0.05C324.88,56.27,324.19,55.68,323.35,55.68z"/>
	<path class="st1" d="M366.98,46.62c-0.19-0.36-0.48-0.65-0.84-0.84c-0.3-1.04-1.48-1.73-3.09-1.73h-1.93
		c-0.68,0-1.4,0.45-1.67,1.41c-0.46,0.09-1.46,0.09-1.93,0c-0.27-0.96-0.99-1.41-1.67-1.41h-1.93c-1.6,0-2.79,0.69-3.09,1.73
		c-0.35,0.18-0.64,0.47-0.83,0.82c-1.02,0.18-1.74,0.92-1.74,1.86c0,0.85,0.58,1.53,1.45,1.79c0.03,0.16,0.05,0.37,0.05,0.62
		c0,0.27-0.23,0.5-0.5,0.5c-0.25,0-0.46-0.02-0.62-0.05c-0.26-0.86-0.95-1.45-1.79-1.45s-1.53,0.58-1.79,1.45
		c-0.16,0.03-0.37,0.05-0.62,0.05c-0.27,0-0.5-0.23-0.5-0.5c0-0.25,0.02-0.46,0.05-0.62c0.86-0.26,1.45-0.95,1.45-1.79
		c0-0.94-0.72-1.68-1.74-1.86c-0.18-0.34-0.46-0.62-0.8-0.8c-0.19-1.02-0.92-1.74-1.86-1.74s-1.68,0.72-1.86,1.74
		c-0.35,0.19-0.63,0.48-0.82,0.83c-1.04,0.29-1.73,1.48-1.73,3.09v2.37c0,0.92,0.57,1.71,1.39,2.04c0.06,0.25,0.11,0.64,0.11,1.14
		c0,0.53-0.06,0.94-0.12,1.19c-0.88,0.49-1.38,1.78-1.38,3.65c0,1.87,0.5,3.16,1.38,3.65c0.06,0.25,0.12,0.66,0.12,1.19
		c0,0.49-0.05,0.88-0.11,1.13c-0.82,0.33-1.39,1.12-1.39,2.04v2.37c0,1.6,0.69,2.79,1.73,3.09c0.19,0.36,0.48,0.65,0.84,0.84
		c0.3,1.04,1.48,1.73,3.09,1.73h2.37c0.92,0,1.71-0.57,2.04-1.39c0.25-0.06,0.64-0.11,1.14-0.11c0.53,0,0.94,0.06,1.19,0.12
		c0.49,0.88,1.78,1.38,3.65,1.38s3.16-0.5,3.65-1.38c0.25-0.06,0.66-0.12,1.19-0.12c0.49,0,0.88,0.05,1.14,0.11
		c0.33,0.82,1.12,1.39,2.04,1.39h2.37c1.6,0,2.79-0.69,3.09-1.73c0.36-0.19,0.65-0.48,0.84-0.84c1.04-0.29,1.73-1.48,1.73-3.09
		v-2.37c0-0.92-0.57-1.71-1.39-2.04c-0.06-0.25-0.11-0.64-0.11-1.14c0-0.53,0.06-0.94,0.12-1.19c0.88-0.49,1.38-1.78,1.38-3.65
		s-0.5-3.16-1.38-3.65c-0.06-0.25-0.12-0.66-0.12-1.19c0-0.49,0.05-0.88,0.11-1.13c0.81-0.33,1.39-1.12,1.39-2.04v-2.37
		C368.71,48.1,368.02,46.92,366.98,46.62z M347.09,58.68c0.91,0,1.69-0.6,2-1.44c0.34-0.07,1.02-0.07,1.36,0
		c0.31,0.84,1.09,1.44,2,1.44c1.01,0,1.86-0.74,2.08-1.74c0.34-0.18,0.63-0.47,0.81-0.81c1.02-0.18,1.74-0.92,1.74-1.86
		c0-0.84-0.58-1.53-1.45-1.79c-0.03-0.16-0.05-0.37-0.05-0.62c0-0.27,0.23-0.5,0.5-0.5c0.25,0,0.46,0.02,0.62,0.05
		c0.26,0.86,0.95,1.45,1.79,1.45s1.53-0.58,1.79-1.45c0.16-0.03,0.37-0.05,0.62-0.05c0.27,0,0.5,0.23,0.5,0.5
		c0,0.28-0.03,0.52-0.07,0.68c-0.87,0.42-1.43,1.53-1.43,2.97v1.93c0,0.68,0.45,1.4,1.41,1.67c0.05,0.23,0.09,0.56,0.09,0.96
		s-0.04,0.73-0.09,0.96c-0.96,0.26-1.41,0.99-1.41,1.67v1.93c0,1.45,0.56,2.55,1.43,2.97c0.04,0.17,0.07,0.4,0.07,0.68
		c0,0.27-0.23,0.5-0.5,0.5c-0.28,0-0.52-0.03-0.68-0.07c-0.42-0.87-1.53-1.43-2.97-1.43h-1.93c-0.68,0-1.4,0.45-1.67,1.41
		c-0.46,0.09-1.46,0.09-1.93,0c-0.27-0.96-0.99-1.41-1.67-1.41h-1.93c-1.45,0-2.55,0.56-2.97,1.43c-0.17,0.04-0.4,0.07-0.68,0.07
		c-0.27,0-0.5-0.23-0.5-0.5c0-0.26,0.03-0.48,0.06-0.64c0.84-0.31,1.44-1.09,1.44-2c0-0.91-0.6-1.69-1.44-2
		c-0.03-0.17-0.06-0.4-0.06-0.68s0.03-0.51,0.06-0.68c0.84-0.31,1.44-1.09,1.44-2c0-0.91-0.6-1.69-1.44-2
		c-0.03-0.16-0.06-0.38-0.06-0.64c0-0.27,0.23-0.5,0.5-0.5c0.26,0,0.48,0.03,0.64,0.06C345.4,58.09,346.18,58.68,347.09,58.68z"/>
	<path class="st1" d="M379.58,51.37c0.28,0,0.52,0.03,0.68,0.07c0.42,0.87,1.53,1.43,2.97,1.43h3.23c1.34,0,2.4-0.54,2.84-1.36
		c0.29-0.07,0.77-0.14,1.41-0.14s1.12,0.07,1.41,0.14c0.44,0.82,1.5,1.36,2.84,1.36h3.23c1.6,0,2.79-0.69,3.09-1.73
		c0.35-0.18,0.64-0.47,0.83-0.82c1.02-0.18,1.74-0.92,1.74-1.86s-0.72-1.68-1.74-1.86c-0.19-0.35-0.48-0.63-0.83-0.82
		c-0.3-1.04-1.48-1.73-3.09-1.73h-2.37c-0.92,0-1.71,0.57-2.04,1.39c-0.25,0.06-0.64,0.11-1.14,0.11c-0.53,0-0.94-0.06-1.19-0.12
		c-0.49-0.88-1.78-1.38-3.65-1.38s-3.16,0.5-3.65,1.38c-0.25,0.06-0.66,0.12-1.19,0.12c-0.49,0-0.88-0.05-1.14-0.11
		c-0.33-0.82-1.12-1.39-2.04-1.39h-2.37c-1.6,0-2.79,0.69-3.09,1.73c-0.36,0.19-0.65,0.48-0.84,0.84c-1.04,0.3-1.73,1.48-1.73,3.09
		v1.93c0,0.68,0.45,1.4,1.41,1.67c0.05,0.23,0.09,0.56,0.09,0.96s-0.04,0.73-0.09,0.96c-0.96,0.26-1.41,0.99-1.41,1.67v1.93
		c0,1.6,0.69,2.79,1.73,3.09c0.19,0.36,0.48,0.65,0.84,0.84c0.3,1.04,1.48,1.73,3.09,1.73h3.23c1.34,0,2.4-0.54,2.84-1.36
		c0.29-0.07,0.77-0.14,1.41-0.14s1.12,0.07,1.41,0.14c0.44,0.82,1.5,1.36,2.84,1.36h3.23c1.45,0,2.55-0.56,2.97-1.43
		c0.17-0.04,0.4-0.07,0.68-0.07c0.27,0,0.5,0.23,0.5,0.5c0,0.25-0.02,0.46-0.05,0.62c-0.86,0.26-1.45,0.95-1.45,1.79
		s0.58,1.53,1.45,1.79c0.03,0.16,0.05,0.37,0.05,0.62c0,0.27-0.23,0.5-0.5,0.5c-0.28,0-0.52-0.03-0.68-0.07
		c-0.42-0.87-1.53-1.43-2.97-1.43h-3.23c-1.34,0-2.4,0.54-2.84,1.36c-0.29,0.07-0.77,0.14-1.4,0.14c-0.64,0-1.12-0.07-1.41-0.14
		c-0.44-0.82-1.5-1.36-2.84-1.36h-3.23c-1.6,0-2.79,0.69-3.09,1.73c-0.35,0.18-0.64,0.47-0.83,0.82c-1.02,0.18-1.74,0.92-1.74,1.86
		s0.72,1.68,1.74,1.86c0.19,0.35,0.48,0.63,0.83,0.82c0.3,1.04,1.48,1.73,3.09,1.73h2.37c0.92,0,1.71-0.57,2.04-1.39
		c0.25-0.06,0.64-0.11,1.14-0.11c0.53,0,0.94,0.06,1.19,0.12c0.49,0.88,1.78,1.38,3.65,1.38s3.16-0.5,3.65-1.38
		c0.25-0.06,0.66-0.12,1.19-0.12c0.49,0,0.88,0.05,1.14,0.11c0.33,0.82,1.12,1.39,2.04,1.39h2.37c1.6,0,2.79-0.69,3.09-1.73
		c0.36-0.19,0.65-0.48,0.84-0.84c1.04-0.3,1.73-1.48,1.73-3.09v-1.93c0-0.68-0.45-1.41-1.41-1.67c-0.05-0.23-0.09-0.56-0.09-0.96
		s0.04-0.73,0.09-0.96c0.96-0.26,1.41-0.99,1.41-1.67v-1.93c0-1.6-0.69-2.79-1.73-3.09c-0.19-0.36-0.48-0.65-0.84-0.84
		c-0.3-1.04-1.48-1.73-3.09-1.73h-3.23c-1.34,0-2.4,0.54-2.84,1.36c-0.29,0.07-0.77,0.14-1.41,0.14c-0.64,0-1.12-0.07-1.41-0.14
		c-0.44-0.82-1.51-1.36-2.84-1.36h-3.23c-1.45,0-2.55,0.56-2.97,1.43c-0.17,0.04-0.4,0.07-0.68,0.07c-0.27,0-0.5-0.23-0.5-0.5
		c0-0.25,0.02-0.46,0.05-0.62c0.86-0.26,1.45-0.95,1.45-1.79s-0.58-1.53-1.45-1.79c-0.03-0.16-0.05-0.37-0.05-0.62
		C379.08,51.6,379.31,51.37,379.58,51.37z"/>
</g>
<path class="st0" d="M516.12,84.17H441c-2.49,0-4.53-2.04-4.53-4.53V4.53c0-2.49,2.04-4.53,4.53-4.53h75.12
	c2.49,0,4.53,2.04,4.53,4.53v75.12C520.64,82.14,518.61,84.17,516.12,84.17z"/>
<path class="st1" d="M474.41,10.26c-0.19-0.36-0.48-0.65-0.84-0.84c-0.3-1.04-1.48-1.73-3.09-1.73h-2.37
	c-0.92,0-1.71,0.57-2.04,1.39c-0.25,0.06-0.64,0.11-1.14,0.11c-0.53,0-0.94-0.06-1.19-0.12c-0.49-0.88-1.78-1.38-3.65-1.38
	s-3.16,0.5-3.65,1.38c-0.25,0.06-0.66,0.12-1.19,0.12c-0.49,0-0.88-0.05-1.14-0.11c-0.33-0.82-1.12-1.39-2.04-1.39h-2.37
	c-1.6,0-2.79,0.69-3.09,1.73c-0.36,0.19-0.65,0.48-0.84,0.84c-1.04,0.29-1.73,1.48-1.73,3.09v2.37c0,0.92,0.57,1.71,1.39,2.04
	c0.06,0.25,0.11,0.64,0.11,1.13c0,0.53-0.06,0.94-0.12,1.19c-0.88,0.49-1.38,1.78-1.38,3.65c0,1.87,0.5,3.16,1.38,3.65
	c0.06,0.25,0.12,0.66,0.12,1.19c0,0.49-0.05,0.88-0.11,1.14c-0.81,0.33-1.39,1.12-1.39,2.04v2.37c0,1.6,0.69,2.79,1.73,3.09
	c0.19,0.36,0.48,0.65,0.84,0.84c0.3,1.04,1.48,1.73,3.09,1.73h2.37c0.92,0,1.71-0.57,2.04-1.39c0.25-0.06,0.64-0.11,1.14-0.11
	c0.53,0,0.94,0.06,1.19,0.12c0.49,0.88,1.78,1.38,3.65,1.38s3.16-0.5,3.65-1.38c0.25-0.06,0.66-0.12,1.19-0.12
	c0.49,0,0.88,0.05,1.14,0.11c0.33,0.82,1.12,1.39,2.04,1.39h2.37c1.6,0,2.79-0.69,3.09-1.73c0.36-0.19,0.65-0.48,0.84-0.84
	c1.04-0.29,1.73-1.48,1.73-3.09v-2.37c0-0.92-0.57-1.71-1.39-2.04c-0.06-0.25-0.11-0.64-0.11-1.14c0-0.53,0.06-0.94,0.12-1.19
	c0.88-0.49,1.38-1.78,1.38-3.65s-0.5-3.16-1.38-3.65c-0.06-0.25-0.12-0.66-0.12-1.19c0-0.49,0.05-0.88,0.11-1.13
	c0.82-0.33,1.39-1.12,1.39-2.04v-2.37C476.14,11.74,475.45,10.55,474.41,10.26z M457.19,15.5c0,0.25-0.02,0.46-0.05,0.62
	c-0.86,0.26-1.45,0.95-1.45,1.79c0,0.94,0.72,1.68,1.74,1.86c0.18,0.34,0.46,0.62,0.8,0.8c0.18,1.02,0.92,1.74,1.86,1.74
	s1.68-0.72,1.86-1.74c0.34-0.18,0.62-0.46,0.8-0.8c1.02-0.18,1.74-0.92,1.74-1.86c0-0.85-0.58-1.53-1.45-1.79
	c-0.03-0.16-0.05-0.37-0.05-0.62c0-0.27,0.23-0.5,0.5-0.5c0.25,0,0.46,0.02,0.62,0.05c0.26,0.86,0.95,1.45,1.79,1.45
	s1.53-0.58,1.79-1.45c0.16-0.03,0.37-0.05,0.62-0.05c0.27,0,0.5,0.23,0.5,0.5c0,0.28-0.03,0.52-0.07,0.68
	c-0.87,0.42-1.43,1.53-1.43,2.97v1.93c0,0.68,0.45,1.4,1.41,1.67c0.05,0.23,0.09,0.56,0.09,0.96s-0.04,0.73-0.09,0.96
	c-0.96,0.26-1.41,0.99-1.41,1.67v1.93c0,1.45,0.56,2.55,1.43,2.97c0.04,0.17,0.07,0.4,0.07,0.68c0,0.27-0.23,0.5-0.5,0.5
	c-0.28,0-0.52-0.03-0.68-0.07c-0.42-0.87-1.53-1.43-2.97-1.43h-1.93c-0.68,0-1.4,0.45-1.67,1.41c-0.46,0.09-1.46,0.09-1.93,0
	c-0.27-0.96-0.99-1.41-1.67-1.41h-1.93c-1.45,0-2.55,0.56-2.97,1.43c-0.17,0.04-0.4,0.07-0.68,0.07c-0.27,0-0.5-0.23-0.5-0.5
	c0-0.28,0.03-0.52,0.07-0.68c0.87-0.42,1.43-1.53,1.43-2.97v-1.93c0-0.68-0.45-1.4-1.41-1.67c-0.05-0.23-0.09-0.56-0.09-0.96
	s0.04-0.73,0.09-0.96c0.97-0.26,1.41-0.99,1.41-1.67v-1.93c0-1.45-0.56-2.55-1.43-2.97c-0.04-0.17-0.07-0.4-0.07-0.68
	c0-0.27,0.23-0.5,0.5-0.5c0.25,0,0.46,0.02,0.62,0.05c0.26,0.86,0.95,1.45,1.79,1.45s1.53-0.58,1.79-1.45
	c0.16-0.03,0.37-0.05,0.62-0.05C456.96,15,457.19,15.23,457.19,15.5z"/>
<path class="st1" d="M487.66,15c0.28,0,0.52,0.03,0.68,0.07c0.42,0.87,1.53,1.43,2.97,1.43h3.23c1.34,0,2.4-0.54,2.84-1.36
	c0.29-0.07,0.77-0.14,1.41-0.14s1.12,0.07,1.41,0.14c0.44,0.82,1.5,1.36,2.84,1.36h3.23c1.6,0,2.79-0.69,3.09-1.73
	c0.35-0.18,0.64-0.47,0.83-0.82c1.02-0.18,1.74-0.92,1.74-1.86s-0.72-1.68-1.74-1.86c-0.19-0.35-0.48-0.63-0.83-0.82
	c-0.3-1.04-1.48-1.73-3.09-1.73h-2.37c-0.92,0-1.71,0.57-2.04,1.39c-0.25,0.06-0.64,0.11-1.14,0.11c-0.53,0-0.94-0.06-1.19-0.12
	c-0.49-0.88-1.78-1.38-3.65-1.38s-3.16,0.5-3.65,1.38c-0.25,0.06-0.66,0.12-1.19,0.12c-0.49,0-0.88-0.05-1.14-0.11
	c-0.33-0.82-1.12-1.39-2.04-1.39h-2.37c-1.6,0-2.79,0.69-3.09,1.73c-0.36,0.19-0.65,0.48-0.84,0.84c-1.04,0.29-1.73,1.48-1.73,3.09
	v1.93c0,0.68,0.45,1.4,1.41,1.67c0.05,0.23,0.09,0.56,0.09,0.96s-0.04,0.73-0.09,0.96c-0.97,0.27-1.41,0.99-1.41,1.67v1.93
	c0,1.6,0.69,2.79,1.73,3.09c0.19,0.36,0.48,0.65,0.84,0.84c0.3,1.04,1.48,1.73,3.09,1.73h3.23c1.34,0,2.4-0.54,2.84-1.36
	c0.29-0.07,0.77-0.14,1.41-0.14s1.12,0.07,1.41,0.14c0.44,0.82,1.5,1.36,2.84,1.36h3.23c1.45,0,2.55-0.56,2.97-1.43
	c0.17-0.04,0.4-0.07,0.68-0.07c0.27,0,0.5,0.23,0.5,0.5c0,0.25-0.02,0.46-0.05,0.62c-0.86,0.26-1.45,0.95-1.45,1.79
	s0.58,1.53,1.45,1.79c0.03,0.16,0.05,0.37,0.05,0.62c0,0.27-0.23,0.5-0.5,0.5c-0.28,0-0.52-0.03-0.68-0.07
	c-0.42-0.87-1.53-1.43-2.97-1.43h-3.23c-1.34,0-2.4,0.54-2.84,1.36c-0.29,0.07-0.77,0.14-1.41,0.14s-1.12-0.07-1.41-0.14
	c-0.44-0.82-1.51-1.36-2.84-1.36h-3.23c-1.6,0-2.79,0.69-3.09,1.73c-0.35,0.18-0.64,0.47-0.83,0.82c-1.02,0.18-1.74,0.92-1.74,1.86
	s0.72,1.68,1.74,1.86c0.19,0.35,0.48,0.63,0.83,0.82c0.3,1.04,1.48,1.73,3.09,1.73h2.37c0.92,0,1.71-0.57,2.04-1.39
	c0.25-0.06,0.64-0.11,1.14-0.11c0.53,0,0.94,0.06,1.19,0.12c0.49,0.88,1.78,1.38,3.65,1.38s3.16-0.5,3.65-1.38
	c0.25-0.06,0.66-0.12,1.19-0.12c0.49,0,0.88,0.05,1.14,0.11c0.33,0.82,1.12,1.39,2.04,1.39h2.37c1.6,0,2.79-0.69,3.09-1.73
	c0.36-0.19,0.65-0.48,0.84-0.84c1.04-0.3,1.73-1.48,1.73-3.09v-1.93c0-0.68-0.45-1.4-1.41-1.67c-0.05-0.23-0.09-0.56-0.09-0.96
	s0.04-0.73,0.09-0.96c0.96-0.26,1.41-0.99,1.41-1.67v-1.93c0-1.6-0.69-2.79-1.73-3.09c-0.19-0.36-0.48-0.65-0.84-0.84
	c-0.3-1.04-1.48-1.73-3.09-1.73h-3.23c-1.34,0-2.4,0.54-2.84,1.36c-0.29,0.07-0.77,0.14-1.41,0.14s-1.12-0.07-1.41-0.14
	c-0.44-0.82-1.51-1.36-2.84-1.36h-3.23c-1.45,0-2.55,0.56-2.97,1.43c-0.17,0.04-0.4,0.07-0.68,0.07c-0.27,0-0.5-0.23-0.5-0.5
	c0-0.25,0.02-0.46,0.05-0.62c0.86-0.26,1.45-0.95,1.45-1.79s-0.58-1.53-1.45-1.79c-0.03-0.16-0.05-0.37-0.05-0.62
	C487.16,15.23,487.39,15,487.66,15z"/>
<path class="st1" d="M474.41,58.43c-0.18-0.35-0.47-0.64-0.82-0.83c-0.19-1.02-0.92-1.74-1.86-1.74s-1.68,0.72-1.86,1.74
	c-0.34,0.19-0.62,0.47-0.81,0.81c-0.99,0.22-1.74,1.07-1.74,2.08c0,0.91,0.6,1.69,1.44,2c0.03,0.17,0.06,0.4,0.06,0.68
	s-0.03,0.51-0.06,0.68c-0.84,0.31-1.44,1.09-1.44,2c0,0.91,0.6,1.69,1.44,2c0.03,0.16,0.06,0.38,0.06,0.64c0,0.27-0.23,0.5-0.5,0.5
	c-0.25,0-0.46-0.02-0.62-0.05c-0.26-0.86-0.95-1.45-1.79-1.45s-1.53,0.58-1.79,1.45c-0.16,0.03-0.37,0.05-0.62,0.05
	c-0.27,0-0.5-0.23-0.5-0.5c0-0.28,0.03-0.52,0.07-0.68c0.87-0.42,1.43-1.53,1.43-2.97v-3.23c0-1.34-0.54-2.4-1.36-2.84
	c-0.07-0.29-0.14-0.77-0.14-1.4c0-0.64,0.07-1.12,0.14-1.41c0.82-0.44,1.36-1.5,1.36-2.84v-3.23c0-1.6-0.69-2.79-1.73-3.09
	c-0.19-0.36-0.48-0.65-0.84-0.84c-0.3-1.04-1.48-1.73-3.09-1.73h-1.93c-0.68,0-1.4,0.45-1.67,1.41c-0.46,0.09-1.46,0.09-1.93,0
	c-0.27-0.96-0.99-1.41-1.67-1.41h-1.93c-1.6,0-2.79,0.69-3.09,1.73c-0.36,0.19-0.65,0.48-0.84,0.84c-1.04,0.29-1.73,1.48-1.73,3.09
	v2.37c0,0.92,0.57,1.71,1.39,2.04c0.06,0.25,0.11,0.64,0.11,1.14c0,0.53-0.06,0.94-0.12,1.19c-0.88,0.49-1.38,1.78-1.38,3.65
	c0,1.87,0.5,3.16,1.38,3.65c0.06,0.25,0.12,0.66,0.12,1.19c0,0.49-0.05,0.88-0.11,1.13c-0.82,0.33-1.39,1.12-1.39,2.04v2.37
	c0,1.6,0.69,2.79,1.73,3.09c0.19,0.36,0.48,0.65,0.84,0.84c0.3,1.04,1.48,1.73,3.09,1.73h2.37c0.92,0,1.71-0.57,2.04-1.39
	c0.25-0.06,0.64-0.11,1.14-0.11c0.53,0,0.94,0.06,1.19,0.12c0.49,0.88,1.78,1.38,3.65,1.38s3.16-0.5,3.65-1.38
	c0.25-0.06,0.66-0.12,1.19-0.12c0.49,0,0.88,0.05,1.14,0.11c0.33,0.82,1.12,1.39,2.04,1.39h2.37c1.6,0,2.79-0.69,3.09-1.73
	c0.36-0.19,0.65-0.48,0.84-0.84c1.04-0.29,1.73-1.48,1.73-3.09v-1.93c0-0.68-0.45-1.41-1.41-1.67c-0.05-0.23-0.09-0.56-0.09-0.96
	s0.04-0.73,0.09-0.96c0.97-0.26,1.41-0.99,1.41-1.67v-1.93C476.14,59.91,475.45,58.73,474.41,58.43z M454.28,53.04
	c0.85,0,1.53-0.58,1.79-1.45c0.16-0.03,0.37-0.05,0.62-0.05c0.27,0,0.5,0.23,0.5,0.5c0,0.25-0.02,0.46-0.05,0.62
	c-0.86,0.26-1.45,0.95-1.45,1.79s0.58,1.53,1.45,1.79c0.03,0.16,0.05,0.37,0.05,0.62c0,0.27-0.23,0.5-0.5,0.5
	c-0.25,0-0.46-0.02-0.62-0.05c-0.26-0.86-0.95-1.45-1.79-1.45s-1.53,0.58-1.79,1.45c-0.16,0.03-0.37,0.05-0.62,0.05
	c-0.27,0-0.5-0.23-0.5-0.5c0-0.25,0.02-0.46,0.05-0.62c0.86-0.26,1.45-0.95,1.45-1.79s-0.58-1.53-1.45-1.79
	c-0.03-0.16-0.05-0.37-0.05-0.62c0-0.27,0.23-0.5,0.5-0.5c0.25,0,0.46,0.02,0.62,0.05C452.75,52.46,453.44,53.04,454.28,53.04z
	 M454.28,67.49c-0.85,0-1.53,0.58-1.79,1.45c-0.16,0.03-0.37,0.05-0.62,0.05c-0.27,0-0.5-0.23-0.5-0.5c0-0.25,0.02-0.46,0.05-0.62
	c0.86-0.26,1.45-0.95,1.45-1.79s-0.58-1.53-1.45-1.79c-0.03-0.16-0.05-0.37-0.05-0.62c0-0.27,0.23-0.5,0.5-0.5
	c0.25,0,0.46,0.02,0.62,0.05c0.26,0.86,0.95,1.45,1.79,1.45s1.53-0.58,1.79-1.45c0.16-0.03,0.37-0.05,0.62-0.05
	c0.27,0,0.5,0.23,0.5,0.5c0,0.25-0.02,0.46-0.05,0.62c-0.86,0.26-1.45,0.95-1.45,1.79s0.58,1.53,1.45,1.79
	c0.03,0.16,0.05,0.37,0.05,0.62c0,0.27-0.23,0.5-0.5,0.5c-0.25,0-0.46-0.02-0.62-0.05C455.81,68.08,455.13,67.49,454.28,67.49z"/>
<path class="st1" d="M510.19,46.8c-0.19-0.36-0.48-0.65-0.84-0.84c-0.3-1.04-1.48-1.73-3.09-1.73h-2.37c-0.92,0-1.71,0.57-2.04,1.39
	c-0.25,0.06-0.64,0.11-1.14,0.11c-0.53,0-0.94-0.06-1.19-0.12c-0.49-0.88-1.78-1.38-3.65-1.38s-3.16,0.5-3.65,1.38
	c-0.25,0.06-0.66,0.12-1.19,0.12c-0.49,0-0.88-0.05-1.14-0.11c-0.33-0.82-1.12-1.39-2.04-1.39h-2.37c-1.6,0-2.79,0.69-3.09,1.73
	c-0.36,0.19-0.65,0.48-0.84,0.84c-1.04,0.29-1.73,1.48-1.73,3.09v2.37c0,0.92,0.57,1.71,1.39,2.04c0.06,0.25,0.11,0.64,0.11,1.14
	c0,0.53-0.06,0.94-0.12,1.19c-0.88,0.49-1.38,1.78-1.38,3.65s0.5,3.16,1.38,3.65c0.06,0.25,0.12,0.66,0.12,1.19
	c0,0.49-0.05,0.88-0.11,1.13c-0.81,0.33-1.39,1.12-1.39,2.04v2.37c0,1.6,0.69,2.79,1.73,3.09c0.18,0.35,0.47,0.64,0.82,0.83
	c0.19,1.02,0.92,1.74,1.86,1.74s1.68-0.72,1.86-1.74c0.34-0.19,0.62-0.47,0.81-0.81c0.99-0.22,1.74-1.07,1.74-2.08
	c0-0.91-0.6-1.69-1.44-2c-0.03-0.17-0.06-0.4-0.06-0.68s0.03-0.51,0.06-0.68c0.84-0.31,1.44-1.09,1.44-2c0-0.91-0.6-1.69-1.44-2
	c-0.03-0.16-0.06-0.38-0.06-0.64c0-0.27,0.23-0.5,0.5-0.5c0.26,0,0.48,0.03,0.64,0.06c0.31,0.84,1.09,1.44,2,1.44
	c0.91,0,1.69-0.6,2-1.44c0.34-0.07,1.02-0.07,1.36,0c0.31,0.84,1.09,1.44,2,1.44c0.91,0,1.69-0.6,2-1.44
	c0.16-0.03,0.38-0.06,0.64-0.06c0.27,0,0.5,0.23,0.5,0.5c0,0.26-0.03,0.48-0.06,0.64c-0.84,0.31-1.44,1.09-1.44,2
	c0,0.91,0.6,1.69,1.44,2c0.03,0.17,0.06,0.4,0.06,0.68s-0.03,0.51-0.06,0.68c-0.84,0.31-1.44,1.09-1.44,2
	c0,1.01,0.74,1.86,1.74,2.08c0.19,0.35,0.47,0.63,0.82,0.82c0.22,0.99,1.07,1.74,2.08,1.74c0.91,0,1.69-0.6,2-1.44
	c0.34-0.07,1.02-0.07,1.36,0c0.31,0.84,1.09,1.44,2,1.44c1.01,0,1.86-0.74,2.08-1.74c0.34-0.18,0.63-0.47,0.81-0.81
	c1.02-0.18,1.74-0.92,1.74-1.86s-0.72-1.68-1.74-1.86c-0.18-0.34-0.46-0.62-0.8-0.8c-0.19-1.02-0.92-1.74-1.86-1.74
	c-0.85,0-1.53,0.58-1.79,1.45c-0.16,0.03-0.37,0.05-0.62,0.05c-0.27,0-0.5-0.23-0.5-0.5c0-0.25,0.02-0.46,0.05-0.62
	c0.86-0.26,1.45-0.95,1.45-1.79s-0.58-1.53-1.45-1.79c-0.03-0.16-0.05-0.37-0.05-0.62c0-0.27,0.23-0.5,0.5-0.5
	c0.25,0,0.46,0.02,0.62,0.05c0.26,0.86,0.95,1.45,1.79,1.45c0.94,0,1.68-0.72,1.86-1.74c0.35-0.19,0.63-0.48,0.82-0.83
	c1.04-0.3,1.73-1.48,1.73-3.09v-1.93c0-0.68-0.45-1.41-1.41-1.67c-0.05-0.23-0.09-0.56-0.09-0.96s0.04-0.73,0.09-0.96
	c0.96-0.26,1.41-0.99,1.41-1.67v-1.93C511.92,48.28,511.23,47.1,510.19,46.8z M500.45,55.86h-1.93c-0.68,0-1.4,0.45-1.67,1.41
	c-0.46,0.09-1.46,0.09-1.93,0c-0.27-0.96-0.99-1.41-1.67-1.41h-1.93c-1.45,0-2.55,0.56-2.97,1.43c-0.17,0.04-0.4,0.07-0.68,0.07
	c-0.27,0-0.5-0.23-0.5-0.5c0-0.25,0.02-0.46,0.05-0.62c0.86-0.26,1.45-0.95,1.45-1.79s-0.58-1.53-1.45-1.79
	c-0.03-0.16-0.05-0.37-0.05-0.62c0-0.27,0.23-0.5,0.5-0.5c0.28,0,0.52,0.03,0.68,0.07c0.42,0.87,1.53,1.43,2.97,1.43h1.93
	c0.68,0,1.4-0.45,1.67-1.41c0.46-0.09,1.46-0.09,1.93,0c0.27,0.97,0.99,1.41,1.67,1.41h1.93c1.45,0,2.55-0.56,2.97-1.43
	c0.17-0.04,0.4-0.07,0.68-0.07c0.27,0,0.5,0.23,0.5,0.5c0,0.25-0.02,0.46-0.05,0.62c-0.86,0.26-1.45,0.95-1.45,1.79
	s0.58,1.53,1.45,1.79c0.03,0.16,0.05,0.37,0.05,0.62c0,0.27-0.23,0.5-0.5,0.5c-0.28,0-0.52-0.03-0.68-0.07
	C503,56.42,501.9,55.86,500.45,55.86z"/>
<g>
	<path class="st2" d="M386.31,8.71c-0.09-0.17-0.23-0.31-0.39-0.39c-0.14-0.49-0.69-0.81-1.44-0.81h-1.11
		c-0.43,0-0.8,0.27-0.95,0.65c-0.12,0.03-0.3,0.05-0.53,0.05c-0.25,0-0.44-0.03-0.56-0.06c-0.23-0.41-0.83-0.64-1.71-0.64
		s-1.48,0.23-1.71,0.64c-0.12,0.03-0.31,0.06-0.56,0.06c-0.23,0-0.41-0.03-0.53-0.05c-0.16-0.38-0.53-0.65-0.95-0.65h-1.11
		c-0.75,0-1.31,0.32-1.44,0.81c-0.17,0.09-0.31,0.23-0.39,0.39c-0.49,0.14-0.81,0.69-0.81,1.44v1.11c0,0.43,0.27,0.8,0.65,0.96
		c0.03,0.12,0.05,0.3,0.05,0.53c0,0.25-0.03,0.44-0.06,0.56c-0.41,0.23-0.64,0.83-0.64,1.71c0,0.87,0.23,1.48,0.64,1.71
		c0.03,0.12,0.06,0.31,0.06,0.56c0,0.23-0.03,0.41-0.05,0.53c-0.38,0.16-0.65,0.52-0.65,0.95v1.11c0,0.75,0.32,1.31,0.81,1.44
		c0.09,0.17,0.23,0.31,0.39,0.39c0.14,0.49,0.69,0.81,1.44,0.81h1.11c0.43,0,0.8-0.27,0.95-0.65c0.12-0.03,0.3-0.05,0.53-0.05
		c0.25,0,0.44,0.03,0.56,0.06c0.23,0.41,0.83,0.64,1.71,0.64s1.48-0.23,1.71-0.64c0.12-0.03,0.31-0.06,0.56-0.06
		c0.23,0,0.41,0.03,0.53,0.05c0.16,0.38,0.53,0.65,0.95,0.65h1.11c0.75,0,1.31-0.32,1.44-0.81c0.17-0.09,0.31-0.23,0.39-0.39
		c0.49-0.14,0.81-0.69,0.81-1.44v-1.11c0-0.43-0.27-0.8-0.65-0.95c-0.03-0.12-0.05-0.3-0.05-0.53c0-0.25,0.03-0.44,0.06-0.55
		c0.41-0.23,0.64-0.83,0.64-1.71s-0.23-1.48-0.64-1.71c-0.03-0.12-0.06-0.31-0.06-0.56c0-0.23,0.03-0.41,0.05-0.53
		c0.38-0.16,0.65-0.53,0.65-0.96v-1.11C387.12,9.41,386.8,8.85,386.31,8.71z M378.26,11.16c0,0.12-0.01,0.21-0.03,0.29
		c-0.4,0.12-0.68,0.44-0.68,0.84c0,0.44,0.34,0.78,0.81,0.87c0.09,0.16,0.22,0.29,0.37,0.37c0.09,0.48,0.43,0.82,0.87,0.82
		s0.79-0.34,0.87-0.82c0.16-0.09,0.29-0.22,0.37-0.37c0.48-0.09,0.82-0.43,0.82-0.87c0-0.4-0.27-0.71-0.68-0.84
		c-0.01-0.07-0.03-0.17-0.03-0.29c0-0.13,0.11-0.23,0.23-0.23c0.12,0,0.21,0.01,0.29,0.03c0.12,0.4,0.44,0.68,0.84,0.68
		s0.71-0.27,0.84-0.68c0.07-0.01,0.17-0.03,0.29-0.03c0.13,0,0.23,0.11,0.23,0.23c0,0.13-0.01,0.24-0.03,0.32
		c-0.41,0.2-0.67,0.71-0.67,1.39v0.9c0,0.32,0.21,0.66,0.66,0.78c0.02,0.11,0.04,0.26,0.04,0.45s-0.02,0.34-0.04,0.45
		c-0.45,0.12-0.66,0.46-0.66,0.78v0.9c0,0.68,0.26,1.19,0.67,1.39c0.02,0.08,0.03,0.19,0.03,0.32c0,0.13-0.11,0.23-0.23,0.23
		c-0.13,0-0.24-0.01-0.32-0.03c-0.2-0.41-0.71-0.67-1.39-0.67h-0.9c-0.32,0-0.66,0.21-0.78,0.66c-0.22,0.04-0.68,0.04-0.9,0
		c-0.12-0.45-0.46-0.66-0.78-0.66h-0.9c-0.68,0-1.19,0.26-1.39,0.67c-0.08,0.02-0.19,0.03-0.32,0.03c-0.13,0-0.23-0.11-0.23-0.23
		c0-0.13,0.01-0.24,0.03-0.32c0.41-0.2,0.67-0.71,0.67-1.39v-0.9c0-0.32-0.21-0.66-0.66-0.78c-0.02-0.11-0.04-0.26-0.04-0.45
		s0.02-0.34,0.04-0.45c0.45-0.12,0.66-0.46,0.66-0.78v-0.9c0-0.68-0.26-1.19-0.67-1.39c-0.02-0.08-0.03-0.19-0.03-0.32
		c0-0.13,0.11-0.23,0.23-0.23c0.12,0,0.21,0.01,0.29,0.03c0.12,0.4,0.44,0.68,0.84,0.68s0.71-0.27,0.84-0.68
		c0.07-0.01,0.17-0.03,0.29-0.03C378.15,10.93,378.26,11.04,378.26,11.16z"/>
	<path class="st2" d="M392.5,10.93c0.13,0,0.24,0.01,0.32,0.03c0.2,0.41,0.71,0.67,1.39,0.67h1.51c0.63,0,1.12-0.25,1.33-0.64
		c0.13-0.03,0.36-0.07,0.66-0.07s0.52,0.03,0.66,0.07c0.21,0.38,0.7,0.64,1.33,0.64h1.51c0.75,0,1.31-0.32,1.44-0.81
		c0.16-0.09,0.3-0.22,0.39-0.38c0.48-0.09,0.81-0.43,0.81-0.87s-0.34-0.78-0.81-0.87c-0.09-0.16-0.22-0.3-0.39-0.38
		c-0.14-0.49-0.69-0.81-1.44-0.81h-1.11c-0.43,0-0.8,0.27-0.95,0.65c-0.12,0.03-0.3,0.05-0.53,0.05c-0.25,0-0.44-0.03-0.56-0.06
		c-0.23-0.41-0.83-0.64-1.71-0.64c-0.87,0-1.48,0.23-1.71,0.64c-0.12,0.03-0.31,0.06-0.56,0.06c-0.23,0-0.41-0.03-0.53-0.05
		c-0.16-0.38-0.53-0.65-0.96-0.65h-1.11c-0.75,0-1.3,0.32-1.44,0.81c-0.17,0.09-0.31,0.23-0.39,0.39c-0.49,0.14-0.81,0.69-0.81,1.44
		v0.9c0,0.32,0.21,0.66,0.66,0.78c0.02,0.11,0.04,0.26,0.04,0.45c0,0.19-0.02,0.34-0.04,0.45c-0.45,0.12-0.66,0.46-0.66,0.78v0.9
		c0,0.75,0.32,1.31,0.81,1.44c0.09,0.17,0.23,0.31,0.39,0.39c0.14,0.49,0.69,0.81,1.44,0.81H393c0.63,0,1.12-0.25,1.33-0.64
		c0.13-0.03,0.36-0.07,0.66-0.07c0.3,0,0.52,0.03,0.66,0.07c0.21,0.38,0.7,0.64,1.33,0.64h1.51c0.68,0,1.19-0.26,1.39-0.67
		c0.08-0.02,0.19-0.03,0.32-0.03c0.13,0,0.23,0.11,0.23,0.23c0,0.12-0.01,0.21-0.03,0.29c-0.4,0.12-0.68,0.44-0.68,0.84
		c0,0.4,0.27,0.71,0.68,0.84c0.01,0.07,0.03,0.17,0.03,0.29c0,0.13-0.11,0.23-0.23,0.23c-0.13,0-0.24-0.01-0.32-0.03
		c-0.2-0.41-0.71-0.67-1.39-0.67h-1.51c-0.63,0-1.12,0.25-1.33,0.64c-0.13,0.03-0.36,0.07-0.66,0.07c-0.3,0-0.52-0.03-0.66-0.07
		c-0.21-0.38-0.7-0.64-1.33-0.64h-1.51c-0.75,0-1.3,0.32-1.44,0.81c-0.16,0.09-0.3,0.22-0.39,0.38c-0.48,0.09-0.82,0.43-0.82,0.87
		s0.34,0.78,0.82,0.87c0.09,0.16,0.22,0.3,0.39,0.38c0.14,0.49,0.69,0.81,1.44,0.81h1.11c0.43,0,0.8-0.27,0.96-0.65
		c0.12-0.03,0.3-0.05,0.53-0.05c0.25,0,0.44,0.03,0.56,0.06c0.23,0.41,0.83,0.64,1.71,0.64c0.87,0,1.48-0.23,1.71-0.64
		c0.12-0.03,0.31-0.06,0.56-0.06c0.23,0,0.41,0.03,0.53,0.05c0.16,0.38,0.52,0.65,0.95,0.65h1.11c0.75,0,1.31-0.32,1.44-0.81
		c0.17-0.09,0.31-0.23,0.39-0.39c0.49-0.14,0.81-0.69,0.81-1.44v-0.9c0-0.32-0.21-0.66-0.66-0.78c-0.02-0.11-0.04-0.26-0.04-0.45
		c0-0.19,0.02-0.34,0.04-0.45c0.45-0.12,0.66-0.46,0.66-0.78v-0.9c0-0.75-0.32-1.3-0.81-1.44c-0.09-0.17-0.23-0.31-0.39-0.39
		c-0.14-0.49-0.69-0.81-1.44-0.81h-1.51c-0.63,0-1.12,0.25-1.33,0.63c-0.13,0.03-0.36,0.07-0.66,0.07s-0.52-0.03-0.66-0.07
		c-0.21-0.38-0.7-0.63-1.33-0.63h-1.51c-0.68,0-1.19,0.26-1.39,0.67c-0.08,0.02-0.19,0.03-0.32,0.03c-0.13,0-0.23-0.11-0.23-0.23
		c0-0.12,0.01-0.21,0.03-0.29c0.4-0.12,0.68-0.44,0.68-0.84c0-0.39-0.27-0.71-0.68-0.84c-0.01-0.07-0.03-0.17-0.03-0.29
		C392.27,11.04,392.38,10.93,392.5,10.93z"/>
	<path class="st2" d="M386.31,31.23c-0.09-0.16-0.22-0.3-0.38-0.39c-0.09-0.48-0.43-0.81-0.87-0.81c-0.44,0-0.78,0.34-0.87,0.81
		c-0.16,0.09-0.29,0.22-0.38,0.38c-0.46,0.1-0.81,0.5-0.81,0.97c0,0.42,0.28,0.79,0.67,0.93c0.02,0.08,0.03,0.19,0.03,0.32
		s-0.01,0.24-0.03,0.32c-0.39,0.15-0.67,0.51-0.67,0.93c0,0.42,0.28,0.79,0.67,0.93c0.02,0.08,0.03,0.18,0.03,0.3
		c0,0.13-0.11,0.23-0.23,0.23c-0.12,0-0.21-0.01-0.29-0.03c-0.12-0.4-0.44-0.68-0.84-0.68s-0.71,0.27-0.84,0.68
		c-0.07,0.01-0.17,0.03-0.29,0.03c-0.13,0-0.23-0.11-0.23-0.23c0-0.13,0.01-0.24,0.03-0.32c0.41-0.2,0.67-0.71,0.67-1.39v-1.51
		c0-0.63-0.25-1.12-0.64-1.33c-0.03-0.13-0.07-0.36-0.07-0.66c0-0.3,0.03-0.52,0.07-0.66c0.38-0.21,0.64-0.7,0.64-1.33v-1.51
		c0-0.75-0.32-1.31-0.81-1.44c-0.09-0.17-0.23-0.31-0.39-0.39c-0.14-0.49-0.69-0.81-1.44-0.81h-0.9c-0.32,0-0.66,0.21-0.78,0.66
		c-0.22,0.04-0.68,0.04-0.9,0c-0.12-0.45-0.46-0.66-0.78-0.66h-0.9c-0.75,0-1.31,0.32-1.44,0.81c-0.17,0.09-0.31,0.23-0.39,0.39
		c-0.49,0.14-0.81,0.69-0.81,1.44v1.11c0,0.43,0.27,0.8,0.65,0.95c0.03,0.12,0.05,0.3,0.05,0.53c0,0.25-0.03,0.44-0.06,0.55
		c-0.41,0.23-0.64,0.83-0.64,1.71c0,0.87,0.23,1.48,0.64,1.71c0.03,0.12,0.06,0.31,0.06,0.56c0,0.23-0.03,0.41-0.05,0.53
		c-0.38,0.16-0.65,0.53-0.65,0.96v1.11c0,0.75,0.32,1.31,0.81,1.44c0.09,0.17,0.23,0.31,0.39,0.39c0.14,0.49,0.69,0.81,1.44,0.81
		h1.11c0.43,0,0.8-0.27,0.95-0.65c0.12-0.03,0.3-0.05,0.53-0.05c0.25,0,0.44,0.03,0.56,0.06c0.23,0.41,0.83,0.64,1.71,0.64
		s1.48-0.23,1.71-0.64c0.12-0.03,0.31-0.06,0.56-0.06c0.23,0,0.41,0.03,0.53,0.05c0.16,0.38,0.53,0.65,0.95,0.65h1.11
		c0.75,0,1.31-0.32,1.44-0.81c0.17-0.09,0.31-0.23,0.39-0.39c0.49-0.14,0.81-0.69,0.81-1.44v-0.9c0-0.32-0.21-0.66-0.66-0.78
		c-0.02-0.11-0.04-0.26-0.04-0.45c0-0.19,0.02-0.34,0.04-0.45c0.45-0.12,0.66-0.46,0.66-0.78v-0.9
		C387.12,31.93,386.8,31.37,386.31,31.23z M376.9,28.71c0.4,0,0.71-0.27,0.84-0.68c0.07-0.01,0.17-0.03,0.29-0.03
		c0.13,0,0.23,0.11,0.23,0.23c0,0.12-0.01,0.21-0.03,0.29c-0.4,0.12-0.68,0.44-0.68,0.84c0,0.4,0.27,0.71,0.68,0.84
		c0.01,0.07,0.03,0.17,0.03,0.29c0,0.13-0.11,0.23-0.23,0.23c-0.12,0-0.21-0.01-0.29-0.03c-0.12-0.4-0.44-0.68-0.84-0.68
		s-0.71,0.27-0.84,0.68c-0.07,0.01-0.17,0.03-0.29,0.03c-0.13,0-0.23-0.11-0.23-0.23c0-0.12,0.01-0.21,0.03-0.29
		c0.4-0.12,0.68-0.44,0.68-0.84c0-0.4-0.27-0.71-0.68-0.84c-0.01-0.07-0.03-0.17-0.03-0.29c0-0.13,0.11-0.23,0.23-0.23
		c0.12,0,0.21,0.01,0.29,0.03C376.19,28.44,376.5,28.71,376.9,28.71z M376.9,35.47c-0.4,0-0.71,0.27-0.84,0.68
		c-0.07,0.01-0.17,0.03-0.29,0.03c-0.13,0-0.23-0.11-0.23-0.23c0-0.12,0.01-0.21,0.03-0.29c0.4-0.12,0.68-0.44,0.68-0.84
		c0-0.4-0.27-0.71-0.68-0.84c-0.01-0.07-0.03-0.17-0.03-0.29c0-0.13,0.11-0.23,0.23-0.23c0.12,0,0.21,0.01,0.29,0.03
		c0.12,0.4,0.44,0.68,0.84,0.68s0.71-0.27,0.84-0.68c0.07-0.01,0.17-0.03,0.29-0.03c0.13,0,0.23,0.11,0.23,0.23
		c0,0.12-0.01,0.21-0.03,0.29c-0.4,0.12-0.68,0.44-0.68,0.84c0,0.4,0.27,0.71,0.68,0.84c0.01,0.07,0.03,0.17,0.03,0.29
		c0,0.13-0.11,0.23-0.23,0.23c-0.12,0-0.21-0.01-0.29-0.03C377.61,35.74,377.3,35.47,376.9,35.47z"/>
	<path class="st2" d="M403.04,25.8c-0.09-0.17-0.23-0.31-0.39-0.39c-0.14-0.49-0.69-0.81-1.44-0.81h-1.11
		c-0.43,0-0.8,0.27-0.95,0.65c-0.12,0.03-0.3,0.05-0.53,0.05c-0.25,0-0.44-0.03-0.56-0.06c-0.23-0.41-0.83-0.64-1.71-0.64
		c-0.87,0-1.48,0.23-1.71,0.64c-0.12,0.03-0.31,0.06-0.56,0.06c-0.23,0-0.41-0.03-0.53-0.05c-0.16-0.38-0.53-0.65-0.96-0.65h-1.11
		c-0.75,0-1.3,0.32-1.44,0.81c-0.17,0.09-0.31,0.23-0.39,0.39c-0.49,0.14-0.81,0.69-0.81,1.44v1.11c0,0.43,0.27,0.8,0.65,0.95
		c0.03,0.12,0.05,0.3,0.05,0.53c0,0.25-0.03,0.44-0.06,0.55c-0.41,0.23-0.64,0.83-0.64,1.71s0.23,1.48,0.64,1.71
		c0.03,0.12,0.06,0.31,0.06,0.56c0,0.23-0.03,0.41-0.05,0.53c-0.38,0.16-0.65,0.53-0.65,0.96v1.11c0,0.75,0.32,1.31,0.81,1.44
		c0.09,0.16,0.22,0.3,0.38,0.39c0.09,0.48,0.43,0.81,0.87,0.81s0.78-0.34,0.87-0.81c0.16-0.09,0.29-0.22,0.38-0.38
		c0.46-0.1,0.81-0.5,0.81-0.97c0-0.42-0.28-0.79-0.67-0.93c-0.02-0.08-0.03-0.19-0.03-0.32s0.01-0.24,0.03-0.32
		c0.39-0.15,0.67-0.51,0.67-0.93c0-0.43-0.28-0.79-0.67-0.93c-0.02-0.08-0.03-0.18-0.03-0.3c0-0.13,0.11-0.23,0.23-0.23
		c0.12,0,0.22,0.01,0.3,0.03c0.14,0.39,0.51,0.67,0.93,0.67c0.42,0,0.79-0.28,0.93-0.67c0.16-0.03,0.48-0.03,0.64,0
		c0.15,0.39,0.51,0.67,0.93,0.67c0.43,0,0.79-0.28,0.93-0.67c0.08-0.02,0.18-0.03,0.3-0.03c0.13,0,0.23,0.11,0.23,0.23
		c0,0.12-0.01,0.23-0.03,0.3c-0.39,0.15-0.67,0.51-0.67,0.93c0,0.42,0.28,0.79,0.67,0.93c0.02,0.08,0.03,0.19,0.03,0.32
		s-0.01,0.24-0.03,0.32c-0.39,0.15-0.67,0.51-0.67,0.93c0,0.47,0.35,0.87,0.81,0.97c0.09,0.16,0.22,0.3,0.38,0.38
		c0.1,0.46,0.5,0.81,0.97,0.81c0.42,0,0.79-0.28,0.93-0.67c0.16-0.03,0.48-0.03,0.64,0c0.15,0.39,0.51,0.67,0.93,0.67
		c0.47,0,0.87-0.35,0.97-0.81c0.16-0.09,0.29-0.22,0.38-0.38c0.48-0.09,0.81-0.43,0.81-0.87s-0.34-0.78-0.81-0.87
		c-0.09-0.16-0.22-0.29-0.37-0.37c-0.09-0.48-0.43-0.81-0.87-0.81c-0.4,0-0.71,0.27-0.84,0.68c-0.07,0.01-0.17,0.03-0.29,0.03
		c-0.13,0-0.23-0.11-0.23-0.23c0-0.12,0.01-0.21,0.03-0.29c0.4-0.12,0.68-0.44,0.68-0.84c0-0.4-0.27-0.71-0.68-0.84
		c-0.01-0.07-0.03-0.17-0.03-0.29c0-0.13,0.11-0.23,0.23-0.23c0.12,0,0.21,0.01,0.29,0.03c0.12,0.4,0.44,0.68,0.84,0.68
		c0.44,0,0.78-0.34,0.87-0.81c0.16-0.09,0.3-0.22,0.38-0.39c0.49-0.14,0.81-0.69,0.81-1.44v-0.9c0-0.32-0.21-0.66-0.66-0.78
		c-0.02-0.11-0.04-0.26-0.04-0.45c0-0.19,0.02-0.34,0.04-0.45c0.45-0.12,0.66-0.46,0.66-0.78v-0.9
		C403.85,26.49,403.53,25.93,403.04,25.8z M398.48,30.03h-0.9c-0.32,0-0.66,0.21-0.78,0.66c-0.22,0.04-0.68,0.04-0.9,0
		c-0.12-0.45-0.46-0.66-0.78-0.66h-0.9c-0.68,0-1.19,0.26-1.39,0.67c-0.08,0.02-0.19,0.03-0.32,0.03c-0.13,0-0.23-0.11-0.23-0.23
		c0-0.12,0.01-0.21,0.03-0.29c0.4-0.12,0.68-0.44,0.68-0.84s-0.27-0.71-0.68-0.84c-0.01-0.07-0.03-0.17-0.03-0.29
		c0-0.13,0.11-0.23,0.23-0.23c0.13,0,0.24,0.01,0.32,0.03c0.2,0.41,0.71,0.67,1.39,0.67h0.9c0.32,0,0.66-0.21,0.78-0.66
		c0.22-0.04,0.68-0.04,0.9,0c0.12,0.45,0.46,0.66,0.78,0.66h0.9c0.68,0,1.19-0.26,1.39-0.67c0.08-0.02,0.19-0.03,0.32-0.03
		c0.13,0,0.23,0.11,0.23,0.23c0,0.12-0.01,0.21-0.03,0.29c-0.4,0.12-0.68,0.44-0.68,0.84c0,0.4,0.27,0.71,0.68,0.84
		c0.01,0.07,0.03,0.17,0.03,0.29c0,0.13-0.11,0.23-0.23,0.23c-0.13,0-0.24-0.01-0.32-0.03C399.68,30.29,399.16,30.03,398.48,30.03z"
		/>
</g>
</svg>
