<svg id="c921cfa6-af70-4d59-bf60-1e397b0b85d5" data-name="Layer 1" xmlns="http://www.w3.org/2000/svg" width="600" height="102" viewBox="0 0 600 102">
  <title>OSLR_Logo_Header</title>
  <g>
    <g>
      <path d="M573.543,1.813a1.425,1.425,0,0,0-.594-.594A2.079,2.079,0,0,0,570.772,0H569.1a1.561,1.561,0,0,0-1.44.98,3.766,3.766,0,0,1-.8.078,3.678,3.678,0,0,1-.837-.086C565.677.353,564.768,0,563.45,0s-2.227.353-2.573.972a3.678,3.678,0,0,1-.837.086,3.764,3.764,0,0,1-.8-.078A1.561,1.561,0,0,0,557.8,0h-1.67a2.079,2.079,0,0,0-2.177,1.219,1.425,1.425,0,0,0-.594.594,2.079,2.079,0,0,0-1.219,2.177v1.67a1.562,1.562,0,0,0,.98,1.441,3.76,3.76,0,0,1,.078.8,3.652,3.652,0,0,1-.086.837c-.618.346-.971,1.255-.971,2.573s.353,2.227.972,2.573a3.684,3.684,0,0,1,.086.837,3.773,3.773,0,0,1-.078.8,1.561,1.561,0,0,0-.98,1.44v1.671a2.079,2.079,0,0,0,1.219,2.177,1.425,1.425,0,0,0,.594.594,2.079,2.079,0,0,0,2.177,1.219h1.67a1.561,1.561,0,0,0,1.44-.98,3.76,3.76,0,0,1,.8-.078,3.683,3.683,0,0,1,.837.086c.346.618,1.255.972,2.573.972s2.227-.353,2.573-.972a3.683,3.683,0,0,1,.837-.086,3.762,3.762,0,0,1,.8.078,1.561,1.561,0,0,0,1.44.98h1.67a2.079,2.079,0,0,0,2.177-1.219,1.425,1.425,0,0,0,.594-.594,2.079,2.079,0,0,0,1.22-2.177V16.964a1.56,1.56,0,0,0-.98-1.44,3.769,3.769,0,0,1-.078-.8,3.676,3.676,0,0,1,.086-.837c.618-.346.972-1.255.972-2.574s-.354-2.227-.972-2.573A3.652,3.652,0,0,1,573.7,7.9a3.761,3.761,0,0,1,.078-.8,1.561,1.561,0,0,0,.98-1.441V3.99A2.079,2.079,0,0,0,573.543,1.813Zm-4,8.819a3.8,3.8,0,0,1,0,1.359,1.241,1.241,0,0,0-1,1.177v1.364a2.217,2.217,0,0,0,1.01,2.1,2.32,2.32,0,0,1,.048.482.357.357,0,0,1-.353.353,2.3,2.3,0,0,1-.482-.048,2.215,2.215,0,0,0-2.1-1.01h-1.363a1.241,1.241,0,0,0-1.177,1,4.676,4.676,0,0,1-1.359,0,1.242,1.242,0,0,0-1.178-1H560.23a2.215,2.215,0,0,0-2.1,1.01,2.3,2.3,0,0,1-.482.048.357.357,0,0,1-.353-.353,2.32,2.32,0,0,1,.048-.482,2.217,2.217,0,0,0,1.01-2.1V13.169a1.241,1.241,0,0,0-1-1.177,3.8,3.8,0,0,1,0-1.359,1.241,1.241,0,0,0,1-1.177V8.092a2.217,2.217,0,0,0-1.01-2.1,2.32,2.32,0,0,1-.048-.482.357.357,0,0,1,.353-.353,2.362,2.362,0,0,1,.435.038,1.293,1.293,0,0,0,2.528,0,2.361,2.361,0,0,1,.435-.038.357.357,0,0,1,.353.353,2.379,2.379,0,0,1-.038.435,1.338,1.338,0,0,0-1.02,1.264,1.378,1.378,0,0,0,1.229,1.313,1.422,1.422,0,0,0,.565.565,1.317,1.317,0,0,0,2.628,0,1.422,1.422,0,0,0,.565-.565,1.378,1.378,0,0,0,1.23-1.313,1.338,1.338,0,0,0-1.02-1.264,2.386,2.386,0,0,1-.038-.435.357.357,0,0,1,.353-.353,2.361,2.361,0,0,1,.435.038,1.293,1.293,0,0,0,2.528,0,2.362,2.362,0,0,1,.435-.038.357.357,0,0,1,.353.353,2.32,2.32,0,0,1-.048.482,2.217,2.217,0,0,0-1.01,2.1V9.455A1.241,1.241,0,0,0,569.541,10.632Z" style="fill: #706f6f"/>
      <path d="M598.781,10.017a1.425,1.425,0,0,0-.594-.594A2.08,2.08,0,0,0,596.01,8.2h-2.275a2.2,2.2,0,0,0-2,.957,4.968,4.968,0,0,1-1.983,0,2.2,2.2,0,0,0-2.006-.957h-2.275a2.215,2.215,0,0,0-2.1,1.01,2.3,2.3,0,0,1-.483.048.357.357,0,0,1-.353-.353,2.386,2.386,0,0,1,.038-.435,1.338,1.338,0,0,0,1.02-1.263,1.34,1.34,0,0,0-1.02-1.264,2.386,2.386,0,0,1-.038-.435.357.357,0,0,1,.353-.353,2.3,2.3,0,0,1,.482.047,2.216,2.216,0,0,0,2.1,1.01h2.275a2.2,2.2,0,0,0,2.005-.958,4.968,4.968,0,0,1,1.982,0,2.2,2.2,0,0,0,2.005.958h2.275A2.079,2.079,0,0,0,598.187,5a1.425,1.425,0,0,0,.584-.576A1.378,1.378,0,0,0,600,3.109a1.378,1.378,0,0,0-1.229-1.314,1.425,1.425,0,0,0-.584-.576A2.079,2.079,0,0,0,596.01,0h-1.67a1.561,1.561,0,0,0-1.44.98,3.766,3.766,0,0,1-.8.078,3.679,3.679,0,0,1-.838-.086C590.915.353,590.006,0,588.688,0s-2.227.353-2.573.972a3.678,3.678,0,0,1-.837.086,3.764,3.764,0,0,1-.8-.078A1.561,1.561,0,0,0,583.036,0h-1.67a2.079,2.079,0,0,0-2.177,1.219,1.426,1.426,0,0,0-.594.594,2.079,2.079,0,0,0-1.22,2.177V5.353a1.242,1.242,0,0,0,1,1.178,3.79,3.79,0,0,1,0,1.358,1.243,1.243,0,0,0-1,1.178v1.363a2.079,2.079,0,0,0,1.22,2.177,1.426,1.426,0,0,0,.594.594,2.078,2.078,0,0,0,2.177,1.219h2.274a2.2,2.2,0,0,0,2.005-.958,4.968,4.968,0,0,1,1.982,0,2.2,2.2,0,0,0,2.005.958h2.275a2.216,2.216,0,0,0,2.1-1.01,2.3,2.3,0,0,1,.482-.047.357.357,0,0,1,.353.353,2.385,2.385,0,0,1-.038.435,1.293,1.293,0,0,0,0,2.528,2.385,2.385,0,0,1,.038.435.357.357,0,0,1-.353.353,2.3,2.3,0,0,1-.482-.048,2.216,2.216,0,0,0-2.1-1.01h-2.275a2.2,2.2,0,0,0-2,.958,4.968,4.968,0,0,1-1.982,0,2.2,2.2,0,0,0-2.006-.958h-2.275a2.079,2.079,0,0,0-2.177,1.219,1.426,1.426,0,0,0-.584.576,1.317,1.317,0,0,0,0,2.628,1.425,1.425,0,0,0,.584.576,2.078,2.078,0,0,0,2.177,1.219h1.67a1.561,1.561,0,0,0,1.441-.98,3.76,3.76,0,0,1,.8-.078,3.683,3.683,0,0,1,.837.086c.346.618,1.255.972,2.573.972s2.227-.353,2.573-.972a3.683,3.683,0,0,1,.838-.086,3.762,3.762,0,0,1,.8.078,1.561,1.561,0,0,0,1.44.98h1.67a2.079,2.079,0,0,0,2.177-1.219,1.424,1.424,0,0,0,.594-.594A2.079,2.079,0,0,0,600,18.635V17.271a1.241,1.241,0,0,0-1-1.177,3.8,3.8,0,0,1,0-1.359,1.241,1.241,0,0,0,1-1.177V12.194A2.079,2.079,0,0,0,598.781,10.017Z" style="fill: #706f6f"/>
      <path d="M573.543,35.788a1.422,1.422,0,0,0-.575-.584,1.317,1.317,0,0,0-2.629,0,1.424,1.424,0,0,0-.57.573,1.49,1.49,0,0,0-.211,2.878,2.608,2.608,0,0,1,0,.959,1.484,1.484,0,0,0,0,2.816,2.342,2.342,0,0,1,.042.453.357.357,0,0,1-.353.353,2.357,2.357,0,0,1-.435-.038,1.293,1.293,0,0,0-2.528,0,2.356,2.356,0,0,1-.435.038.357.357,0,0,1-.353-.353,2.325,2.325,0,0,1,.047-.482,2.216,2.216,0,0,0,1.011-2.1V38.028a2.2,2.2,0,0,0-.958-2.006,4.965,4.965,0,0,1,0-1.981,2.2,2.2,0,0,0,.958-2.006V29.761a2.079,2.079,0,0,0-1.22-2.177,1.425,1.425,0,0,0-.594-.594,2.079,2.079,0,0,0-2.177-1.219h-1.363a1.241,1.241,0,0,0-1.178,1,4.676,4.676,0,0,1-1.359,0,1.242,1.242,0,0,0-1.178-1h-1.363a2.079,2.079,0,0,0-2.177,1.219,1.425,1.425,0,0,0-.594.594,2.079,2.079,0,0,0-1.219,2.177v1.671a1.561,1.561,0,0,0,.98,1.44,3.773,3.773,0,0,1,.078.8,3.672,3.672,0,0,1-.086.837c-.618.346-.972,1.255-.972,2.574s.353,2.227.971,2.573a3.652,3.652,0,0,1,.086.837,3.8,3.8,0,0,1-.077.8,1.561,1.561,0,0,0-.98,1.441V44.4a2.079,2.079,0,0,0,1.219,2.177,1.425,1.425,0,0,0,.594.594,2.079,2.079,0,0,0,2.177,1.219h1.67a1.561,1.561,0,0,0,1.44-.98,3.764,3.764,0,0,1,.8-.078,3.678,3.678,0,0,1,.837.086c.346.618,1.255.972,2.573.972s2.227-.353,2.573-.972a3.678,3.678,0,0,1,.837-.086,3.766,3.766,0,0,1,.8.078,1.561,1.561,0,0,0,1.44.98h1.67a2.079,2.079,0,0,0,2.177-1.219,1.425,1.425,0,0,0,.594-.594,2.079,2.079,0,0,0,1.22-2.177V43.042a1.241,1.241,0,0,0-1-1.178,3.489,3.489,0,0,1-.061-.679,3.527,3.527,0,0,1,.061-.68,1.241,1.241,0,0,0,1-1.178V37.965A2.079,2.079,0,0,0,573.543,35.788Zm-12.182,6.661a2.379,2.379,0,0,1,.038.435.357.357,0,0,1-.353.353,2.356,2.356,0,0,1-.435-.038,1.293,1.293,0,0,0-2.528,0,2.357,2.357,0,0,1-.435.038.357.357,0,0,1-.353-.353,2.379,2.379,0,0,1,.038-.435,1.293,1.293,0,0,0,0-2.528,2.379,2.379,0,0,1-.038-.435.357.357,0,0,1,.353-.353,2.417,2.417,0,0,1,.435.038,1.293,1.293,0,0,0,2.528,0,2.415,2.415,0,0,1,.435-.038.357.357,0,0,1,.353.353,2.379,2.379,0,0,1-.038.435,1.293,1.293,0,0,0,0,2.528Zm0-8.2a2.379,2.379,0,0,1,.038.435.357.357,0,0,1-.353.353,2.415,2.415,0,0,1-.435-.038,1.293,1.293,0,0,0-2.528,0,2.417,2.417,0,0,1-.435.038.357.357,0,0,1-.353-.353,2.379,2.379,0,0,1,.038-.435,1.293,1.293,0,0,0,0-2.528,2.379,2.379,0,0,1-.038-.435.357.357,0,0,1,.353-.353,2.423,2.423,0,0,1,.435.038,1.293,1.293,0,0,0,2.528,0,2.422,2.422,0,0,1,.435-.038.357.357,0,0,1,.353.353,2.379,2.379,0,0,1-.038.435,1.293,1.293,0,0,0,0,2.528Z" style="fill: #706f6f"/>
      <path d="M598.781,27.584a1.424,1.424,0,0,0-.594-.594,2.079,2.079,0,0,0-2.177-1.219h-1.671a1.561,1.561,0,0,0-1.44.98,3.761,3.761,0,0,1-.8.078,3.679,3.679,0,0,1-.838-.086c-.346-.618-1.254-.972-2.573-.972s-2.227.353-2.573.972a3.678,3.678,0,0,1-.837.086,3.759,3.759,0,0,1-.8-.078,1.561,1.561,0,0,0-1.441-.98h-1.67a2.079,2.079,0,0,0-2.177,1.219,1.426,1.426,0,0,0-.594.594,2.079,2.079,0,0,0-1.22,2.177v1.671a1.56,1.56,0,0,0,.98,1.44,3.773,3.773,0,0,1,.078.8,3.65,3.65,0,0,1-.086.837c-.618.346-.972,1.255-.972,2.574s.354,2.227.972,2.573a3.652,3.652,0,0,1,.086.837,3.765,3.765,0,0,1-.078.8,1.562,1.562,0,0,0-.98,1.441V44.4a2.079,2.079,0,0,0,1.22,2.177,1.421,1.421,0,0,0,.575.584,1.317,1.317,0,0,0,2.629,0,1.419,1.419,0,0,0,.57-.574,1.49,1.49,0,0,0,.211-2.877,2.608,2.608,0,0,1,0-.959,1.484,1.484,0,0,0,0-2.816,2.361,2.361,0,0,1-.042-.454.357.357,0,0,1,.353-.353,2.362,2.362,0,0,1,.454.041,1.484,1.484,0,0,0,2.816,0,3.106,3.106,0,0,1,.959,0,1.485,1.485,0,0,0,2.817,0,2.36,2.36,0,0,1,.453-.041.357.357,0,0,1,.353.353,2.348,2.348,0,0,1-.042.453,1.485,1.485,0,0,0,0,2.817,2.611,2.611,0,0,1,0,.959,1.516,1.516,0,0,0-1.014,1.408,1.531,1.531,0,0,0,1.226,1.47,1.419,1.419,0,0,0,.578.577,1.49,1.49,0,0,0,2.878.212,3.15,3.15,0,0,1,.959,0,1.49,1.49,0,0,0,2.878-.212,1.42,1.42,0,0,0,.573-.57,1.317,1.317,0,0,0,0-2.628,1.422,1.422,0,0,0-.565-.565,1.378,1.378,0,0,0-1.314-1.229,1.339,1.339,0,0,0-1.264,1.02,2.356,2.356,0,0,1-.435.038.357.357,0,0,1-.353-.353,2.386,2.386,0,0,1,.038-.435,1.293,1.293,0,0,0,0-2.528,2.386,2.386,0,0,1-.038-.435.357.357,0,0,1,.353-.353,2.416,2.416,0,0,1,.435.038,1.339,1.339,0,0,0,1.264,1.02,1.378,1.378,0,0,0,1.314-1.229,1.421,1.421,0,0,0,.575-.584A2.079,2.079,0,0,0,600,36.2V34.838a1.241,1.241,0,0,0-1-1.178,3.8,3.8,0,0,1,0-1.359,1.241,1.241,0,0,0,1-1.177V29.761A2.079,2.079,0,0,0,598.781,27.584ZM594.8,34.245a2.385,2.385,0,0,1,.038.435.357.357,0,0,1-.353.353,2.3,2.3,0,0,1-.482-.048,2.215,2.215,0,0,0-2.1-1.01h-1.363a1.241,1.241,0,0,0-1.178,1,4.676,4.676,0,0,1-1.359,0,1.242,1.242,0,0,0-1.178-1h-1.363a2.215,2.215,0,0,0-2.1,1.01,2.3,2.3,0,0,1-.482.048.357.357,0,0,1-.353-.353,2.386,2.386,0,0,1,.038-.435,1.293,1.293,0,0,0,0-2.528,2.386,2.386,0,0,1-.038-.435.357.357,0,0,1,.353-.353,2.3,2.3,0,0,1,.482.047,2.215,2.215,0,0,0,2.1,1.01h1.363a1.242,1.242,0,0,0,1.178-1,4.681,4.681,0,0,1,1.359,0,1.241,1.241,0,0,0,1.178,1h1.363a2.215,2.215,0,0,0,2.1-1.01,2.3,2.3,0,0,1,.482-.047.357.357,0,0,1,.353.353,2.385,2.385,0,0,1-.038.435,1.293,1.293,0,0,0,0,2.528Z" style="fill: #706f6f"/>
    </g>
    <g>
      <path d="M45.787,3.879a3.047,3.047,0,0,0-1.271-1.271C44.071,1.039,42.28,0,39.86,0H36.287a3.339,3.339,0,0,0-3.081,2.1,8.052,8.052,0,0,1-1.713.166A7.871,7.871,0,0,1,29.7,2.079C28.961.756,27.018,0,24.2,0s-4.764.756-5.5,2.079a7.871,7.871,0,0,1-1.791.184A8.046,8.046,0,0,1,15.19,2.1,3.339,3.339,0,0,0,12.109,0H8.536C6.115,0,4.325,1.039,3.879,2.607A3.047,3.047,0,0,0,2.608,3.879C1.039,4.324,0,6.115,0,8.536v3.572A3.342,3.342,0,0,0,2.1,15.19,8.037,8.037,0,0,1,2.263,16.9a7.813,7.813,0,0,1-.185,1.791C.756,19.434,0,21.377,0,24.2s.756,4.764,2.079,5.5a7.885,7.885,0,0,1,.184,1.791A8.065,8.065,0,0,1,2.1,33.205,3.338,3.338,0,0,0,0,36.286V39.86c0,2.42,1.039,4.212,2.608,4.657a3.047,3.047,0,0,0,1.271,1.271C4.325,47.357,6.115,48.4,8.536,48.4h3.573a3.34,3.34,0,0,0,3.081-2.1,8.046,8.046,0,0,1,1.713-.166,7.871,7.871,0,0,1,1.791.184c.74,1.323,2.683,2.079,5.5,2.079s4.763-.756,5.5-2.079a7.871,7.871,0,0,1,1.791-.184,8.052,8.052,0,0,1,1.713.166,3.339,3.339,0,0,0,3.081,2.1H39.86c2.42,0,4.211-1.039,4.657-2.608a3.047,3.047,0,0,0,1.271-1.271c1.57-.445,2.609-2.236,2.609-4.657V36.286a3.338,3.338,0,0,0-2.1-3.08,8.07,8.07,0,0,1-.166-1.713,7.859,7.859,0,0,1,.184-1.79C47.64,28.961,48.4,27.018,48.4,24.2s-.756-4.764-2.079-5.5a7.813,7.813,0,0,1-.185-1.791A8.053,8.053,0,0,1,46.3,15.19a3.34,3.34,0,0,0,2.1-3.082V8.536C48.4,6.115,47.357,4.324,45.787,3.879Zm-8.56,18.864a8.128,8.128,0,0,1,0,2.908A2.654,2.654,0,0,0,35.1,28.169v2.917c0,2.182.844,3.852,2.16,4.487a4.965,4.965,0,0,1,.1,1.031.764.764,0,0,1-.754.754,4.918,4.918,0,0,1-1.032-.1c-.634-1.317-2.3-2.161-4.487-2.161H28.17a2.654,2.654,0,0,0-2.518,2.132,10.01,10.01,0,0,1-2.907,0A2.657,2.657,0,0,0,20.226,35.1H17.31c-2.182,0-3.852.844-4.487,2.161a4.918,4.918,0,0,1-1.032.1.764.764,0,0,1-.754-.754,4.966,4.966,0,0,1,.1-1.031c1.316-.635,2.161-2.306,2.161-4.487V28.169a2.654,2.654,0,0,0-2.132-2.518,8.128,8.128,0,0,1,0-2.908A2.654,2.654,0,0,0,13.3,20.225V17.31c0-2.182-.845-3.852-2.161-4.487a4.966,4.966,0,0,1-.1-1.031.764.764,0,0,1,.754-.754,5.043,5.043,0,0,1,.93.081,2.863,2.863,0,0,0,2.7,2.182,2.863,2.863,0,0,0,2.7-2.182,5.043,5.043,0,0,1,.93-.081.764.764,0,0,1,.754.754,5.1,5.1,0,0,1-.081.93,2.863,2.863,0,0,0-2.182,2.7,2.947,2.947,0,0,0,2.63,2.809,3.041,3.041,0,0,0,1.209,1.209,2.817,2.817,0,0,0,5.622,0,3.041,3.041,0,0,0,1.209-1.209,2.947,2.947,0,0,0,2.63-2.809,2.862,2.862,0,0,0-2.182-2.7,5.1,5.1,0,0,1-.081-.93.764.764,0,0,1,.754-.754,5.044,5.044,0,0,1,.93.081,2.766,2.766,0,0,0,5.407,0,5.043,5.043,0,0,1,.93-.081.764.764,0,0,1,.754.754,4.965,4.965,0,0,1-.1,1.031c-1.316.635-2.16,2.306-2.16,4.487v2.915A2.654,2.654,0,0,0,37.227,22.743Z" style="fill: #fff"/>
      <path d="M98.794,3.879a3.047,3.047,0,0,0-1.271-1.271C97.077,1.039,95.287,0,92.865,0H89.292A3.339,3.339,0,0,0,86.21,2.1a8.052,8.052,0,0,1-1.713.166,7.871,7.871,0,0,1-1.791-.184C81.966.756,80.023,0,77.2,0s-4.764.756-5.5,2.079a7.871,7.871,0,0,1-1.791.184A8.046,8.046,0,0,1,68.195,2.1,3.339,3.339,0,0,0,65.114,0H61.541c-2.42,0-4.211,1.039-4.657,2.607a3.047,3.047,0,0,0-1.271,1.271c-1.569.446-2.608,2.236-2.608,4.657v3.572a3.342,3.342,0,0,0,2.1,3.082,8.037,8.037,0,0,1,.167,1.712,7.839,7.839,0,0,1-.185,1.793c-1.321.74-2.077,2.683-2.077,5.5s.756,4.764,2.077,5.5a7.833,7.833,0,0,1,.185,1.791,8.054,8.054,0,0,1-.167,1.713,3.337,3.337,0,0,0-2.1,3.08V39.86c0,2.42,1.039,4.21,2.608,4.657a3.041,3.041,0,0,0,1.23,1.249,2.818,2.818,0,0,0,5.623,0,3.041,3.041,0,0,0,1.209-1.209,2.947,2.947,0,0,0,2.63-2.811,2.863,2.863,0,0,0-2.182-2.7,5.1,5.1,0,0,1-.081-.93.764.764,0,0,1,.754-.754,4.917,4.917,0,0,1,1.032.1c.634,1.317,2.3,2.161,4.487,2.161h4.866a4.7,4.7,0,0,0,4.289-2.049,10.625,10.625,0,0,1,4.24,0A4.7,4.7,0,0,0,88,39.621h4.867c2.421,0,4.212-1.039,4.657-2.607a3.047,3.047,0,0,0,1.271-1.271c1.569-.446,2.608-2.236,2.608-4.657V26.22a4.7,4.7,0,0,0-2.048-4.288,9.372,9.372,0,0,1-.214-2.121,9.371,9.371,0,0,1,.214-2.121A4.7,4.7,0,0,0,101.4,13.4V8.536C101.4,6.115,100.362,4.325,98.794,3.879ZM72.721,18.784a5.582,5.582,0,0,1,0,2.051,3.176,3.176,0,0,0,.006,6.025,5.015,5.015,0,0,1,.089.969.764.764,0,0,1-.754.754,5.175,5.175,0,0,1-.93-.081,2.766,2.766,0,0,0-5.407,0,5.174,5.174,0,0,1-.93.081.764.764,0,0,1-.754-.754,5.02,5.02,0,0,1,.089-.969,3.176,3.176,0,0,0,.006-6.025,5.579,5.579,0,0,1,0-2.051,3.175,3.175,0,0,0-.006-6.024,5.02,5.02,0,0,1-.089-.969.764.764,0,0,1,.754-.754,5.043,5.043,0,0,1,.93.081,2.766,2.766,0,0,0,5.407,0,5.044,5.044,0,0,1,.93-.081.764.764,0,0,1,.754.754,5.015,5.015,0,0,1-.089.969,3.175,3.175,0,0,0-.006,6.024Zm17.548,0a5.579,5.579,0,0,1,0,2.051,3.176,3.176,0,0,0,.006,6.025,5.02,5.02,0,0,1,.089.969.764.764,0,0,1-.754.754,5.174,5.174,0,0,1-.93-.081,2.766,2.766,0,0,0-5.407,0,5.175,5.175,0,0,1-.93.081.764.764,0,0,1-.754-.754,5.044,5.044,0,0,1,.089-.971,3.175,3.175,0,0,0,.006-6.024,5.582,5.582,0,0,1,0-2.051,3.174,3.174,0,0,0-.006-6.022,5.044,5.044,0,0,1-.089-.971.764.764,0,0,1,.754-.754,5.044,5.044,0,0,1,.93.081,2.766,2.766,0,0,0,5.407,0,5.043,5.043,0,0,1,.93-.081.764.764,0,0,1,.754.754,5.02,5.02,0,0,1-.089.969,3.175,3.175,0,0,0-.006,6.024Z" style="fill: #fff"/>
      <path d="M154.406,7a3.272,3.272,0,0,0-2.619-3.144,3.044,3.044,0,0,0-1.259-1.249C150.082,1.039,148.292,0,145.87,0H142.3a3.338,3.338,0,0,0-3.08,2.1,8.052,8.052,0,0,1-1.713.166,7.871,7.871,0,0,1-1.791-.184C134.973.756,133.029,0,130.209,0s-4.763.756-5.5,2.079a7.871,7.871,0,0,1-1.791.184A8.047,8.047,0,0,1,121.2,2.1,3.34,3.34,0,0,0,118.119,0h-3.573c-2.42,0-4.21,1.039-4.656,2.607a3.051,3.051,0,0,0-1.271,1.271c-1.57.445-2.609,2.236-2.609,4.657v3.572a3.34,3.34,0,0,0,2.1,3.082,8.053,8.053,0,0,1,.166,1.712,7.813,7.813,0,0,1-.185,1.791c-1.322.74-2.079,2.683-2.079,5.5s.756,4.766,2.079,5.505a7.808,7.808,0,0,1,.185,1.79,8.07,8.07,0,0,1-.166,1.713,3.337,3.337,0,0,0-2.1,3.08V39.86c0,2.42,1.039,4.212,2.609,4.657a3.051,3.051,0,0,0,1.271,1.271c.446,1.569,2.236,2.608,4.656,2.608h3.573a3.34,3.34,0,0,0,3.082-2.1,8.047,8.047,0,0,1,1.713-.166,7.871,7.871,0,0,1,1.791.184c.74,1.323,2.683,2.079,5.5,2.079s4.764-.756,5.5-2.079a7.871,7.871,0,0,1,1.791-.184,8.052,8.052,0,0,1,1.713.166,3.338,3.338,0,0,0,3.08,2.1h3.573c2.421,0,4.212-1.039,4.657-2.608a3.043,3.043,0,0,0,1.259-1.249,3.187,3.187,0,0,0,.452-6.155,5.579,5.579,0,0,1,0-2.051,3.187,3.187,0,0,0-.452-6.155,3.035,3.035,0,0,0-1.218-1.227,2.818,2.818,0,0,0-5.623,0,3.046,3.046,0,0,0-1.209,1.209,2.947,2.947,0,0,0-2.63,2.811,2.863,2.863,0,0,0,2.182,2.7,5.1,5.1,0,0,1,.081.93.764.764,0,0,1-.754.754,4.918,4.918,0,0,1-1.032-.1c-.634-1.317-2.3-2.161-4.487-2.161h-2.915a2.655,2.655,0,0,0-2.519,2.132,10.01,10.01,0,0,1-2.907,0,2.657,2.657,0,0,0-2.519-2.132H123.32c-2.182,0-3.852.844-4.486,2.161a4.918,4.918,0,0,1-1.032.1.764.764,0,0,1-.754-.754,5.1,5.1,0,0,1,.081-.93,2.766,2.766,0,0,0,0-5.407,5.1,5.1,0,0,1-.081-.93.764.764,0,0,1,.754-.754,5.048,5.048,0,0,1,.97.088,3.174,3.174,0,0,0,6.023.007,6.647,6.647,0,0,1,2.051,0A3.187,3.187,0,0,0,133,28.226a3.042,3.042,0,0,0,1.226-1.218,2.817,2.817,0,0,0,0-5.622A3.033,3.033,0,0,0,133,20.168a3.187,3.187,0,0,0-6.155-.452,6.843,6.843,0,0,1-2.052,0,3.174,3.174,0,0,0-6.022.006,5.057,5.057,0,0,1-.971.088.764.764,0,0,1-.754-.754,5.1,5.1,0,0,1,.081-.93,2.863,2.863,0,0,0,2.181-2.7,2.865,2.865,0,0,0-2.181-2.7,5.1,5.1,0,0,1-.081-.93.764.764,0,0,1,.754-.754,4.924,4.924,0,0,1,1.032.1c.633,1.316,2.3,2.161,4.486,2.161h2.915a2.657,2.657,0,0,0,2.519-2.132,10.01,10.01,0,0,1,2.907,0,2.657,2.657,0,0,0,2.519,2.132H137.1c2.183,0,3.853-.846,4.487-2.161a4.918,4.918,0,0,1,1.032-.1.764.764,0,0,1,.754.754,5.1,5.1,0,0,1-.081.93,2.863,2.863,0,0,0-2.182,2.7,2.946,2.946,0,0,0,2.63,2.809,3.041,3.041,0,0,0,1.209,1.209,2.818,2.818,0,0,0,5.623,0,3.035,3.035,0,0,0,1.218-1.227,3.187,3.187,0,0,0,.452-6.155,5.579,5.579,0,0,1,0-2.051A3.242,3.242,0,0,0,154.406,7Z" style="fill: #fff"/>
      <path d="M204.8,3.879a3.041,3.041,0,0,0-1.23-1.249,2.818,2.818,0,0,0-5.623,0,3.041,3.041,0,0,0-1.23,1.249c-1.569.445-2.608,2.236-2.608,4.657V13.4a4.7,4.7,0,0,0,2.048,4.288,9.293,9.293,0,0,1,.214,2.12,9.319,9.319,0,0,1-.214,2.121,4.7,4.7,0,0,0-2.048,4.288v4.866c0,2.182.845,3.852,2.161,4.487a4.966,4.966,0,0,1,.1,1.031.764.764,0,0,1-.754.754,5.174,5.174,0,0,1-.93-.081,2.766,2.766,0,0,0-5.407,0,5.175,5.175,0,0,1-.93.081.764.764,0,0,1-.754-.754,4.966,4.966,0,0,1,.1-1.031c1.316-.635,2.161-2.306,2.161-4.487V26.22a4.706,4.706,0,0,0-2.049-4.29,9.349,9.349,0,0,1-.214-2.12,9.35,9.35,0,0,1,.214-2.12,4.7,4.7,0,0,0,2.049-4.288V8.536c0-2.42-1.039-4.212-2.608-4.657a3.048,3.048,0,0,0-1.271-1.271C185.539,1.039,183.748,0,181.328,0h-2.916a2.655,2.655,0,0,0-2.519,2.132,10.009,10.009,0,0,1-2.907,0A2.657,2.657,0,0,0,170.467,0h-2.915c-2.42,0-4.21,1.039-4.656,2.607a3.051,3.051,0,0,0-1.271,1.271c-1.57.445-2.609,2.236-2.609,4.657v3.572a3.34,3.34,0,0,0,2.1,3.082,8.053,8.053,0,0,1,.166,1.712,7.813,7.813,0,0,1-.185,1.791c-1.322.74-2.079,2.683-2.079,5.5s.756,4.766,2.079,5.505a7.808,7.808,0,0,1,.185,1.79,8.07,8.07,0,0,1-.166,1.713,3.338,3.338,0,0,0-2.1,3.08V39.86c0,2.42,1.039,4.212,2.609,4.657a3.041,3.041,0,0,0,1.23,1.249,2.818,2.818,0,0,0,5.623,0,3.041,3.041,0,0,0,1.23-1.249c1.569-.446,2.608-2.236,2.608-4.657V34.994a4.7,4.7,0,0,0-2.048-4.288,10.64,10.64,0,0,1,0-4.243,4.7,4.7,0,0,0,2.048-4.287V17.31c0-2.182-.845-3.852-2.16-4.486a4.98,4.98,0,0,1-.1-1.033.764.764,0,0,1,.754-.754,5.043,5.043,0,0,1,.93.081,2.766,2.766,0,0,0,5.407,0,5.044,5.044,0,0,1,.93-.081.764.764,0,0,1,.754.754,4.965,4.965,0,0,1-.1,1.031c-1.317.633-2.162,2.3-2.162,4.487v4.866a4.7,4.7,0,0,0,2.049,4.288,10.59,10.59,0,0,1,0,4.24,4.7,4.7,0,0,0-2.049,4.29V39.86c0,2.42,1.039,4.212,2.609,4.657a3.051,3.051,0,0,0,1.271,1.271c.446,1.569,2.236,2.608,4.656,2.608h2.915a2.657,2.657,0,0,0,2.519-2.132,10.009,10.009,0,0,1,2.907,0A2.655,2.655,0,0,0,195.96,48.4h2.916c2.42,0,4.211-1.039,4.657-2.608a3.047,3.047,0,0,0,1.271-1.271c1.569-.446,2.608-2.236,2.608-4.657V36.286a3.337,3.337,0,0,0-2.1-3.08,8.054,8.054,0,0,1-.167-1.713,7.833,7.833,0,0,1,.185-1.791c1.321-.74,2.077-2.683,2.077-5.5s-.756-4.763-2.077-5.5a7.839,7.839,0,0,1-.185-1.793,8.037,8.037,0,0,1,.167-1.712,3.342,3.342,0,0,0,2.1-3.082V8.536C207.411,6.115,206.372,4.325,204.8,3.879Z" style="fill: #fff"/>
      <path d="M269.86,48.4h3.573c2.421,0,4.212-1.039,4.657-2.608a3.047,3.047,0,0,0,1.271-1.271c1.569-.446,2.608-2.236,2.608-4.657V36.943a2.654,2.654,0,0,0-2.131-2.518,8.129,8.129,0,0,1,0-2.908A2.654,2.654,0,0,0,281.969,29V26.083c0-2.42-1.039-4.21-2.608-4.657a3.049,3.049,0,0,0-1.271-1.271c-.446-1.567-2.237-2.606-4.657-2.606h-4.866A4.7,4.7,0,0,0,264.28,19.6a10.633,10.633,0,0,1-4.241,0,4.705,4.705,0,0,0-4.29-2.048h-4.866c-2.181,0-3.85.844-4.484,2.16a4.931,4.931,0,0,1-1.033.1.764.764,0,0,1-.754-.754,5.1,5.1,0,0,1,.081-.93,2.863,2.863,0,0,0,2.181-2.7,2.865,2.865,0,0,0-2.181-2.7,5.1,5.1,0,0,1-.081-.93.764.764,0,0,1,.754-.754,4.911,4.911,0,0,1,1.031.1c.634,1.316,2.3,2.161,4.486,2.161h4.865a4.7,4.7,0,0,0,4.29-2.049,10.625,10.625,0,0,1,4.24,0,4.7,4.7,0,0,0,4.289,2.049h4.867c2.421,0,4.212-1.039,4.657-2.608a3.049,3.049,0,0,0,1.249-1.232,2.947,2.947,0,0,0,2.629-2.811,2.947,2.947,0,0,0-2.629-2.811,3.048,3.048,0,0,0-1.249-1.232C277.645,1.039,275.854,0,273.433,0H269.86a3.338,3.338,0,0,0-3.08,2.1,8.052,8.052,0,0,1-1.713.166,7.871,7.871,0,0,1-1.791-.184C262.535.756,260.592,0,257.772,0s-4.764.756-5.5,2.079a7.871,7.871,0,0,1-1.791.184,8.046,8.046,0,0,1-1.713-.166A3.34,3.34,0,0,0,245.682,0h-3.573c-2.42,0-4.21,1.039-4.656,2.607a3.051,3.051,0,0,0-1.271,1.271c-1.57.445-2.609,2.236-2.609,4.657v2.915a2.657,2.657,0,0,0,2.132,2.519,8.112,8.112,0,0,1,0,2.905,2.658,2.658,0,0,0-2.132,2.521v2.915c0,2.42,1.039,4.212,2.609,4.657a3.05,3.05,0,0,0,1.271,1.271c.446,1.569,2.236,2.608,4.656,2.608h4.865a4.7,4.7,0,0,0,4.289-2.049,10.625,10.625,0,0,1,4.24,0,4.7,4.7,0,0,0,4.289,2.049h4.867c2.183,0,3.853-.844,4.487-2.161a4.917,4.917,0,0,1,1.032-.1.764.764,0,0,1,.754.754,5.1,5.1,0,0,1-.081.93,2.765,2.765,0,0,0,0,5.407,5.1,5.1,0,0,1,.081.93.764.764,0,0,1-.754.754,4.918,4.918,0,0,1-1.032-.1c-.634-1.317-2.3-2.161-4.487-2.161h-4.866a4.7,4.7,0,0,0-4.288,2.049,10.628,10.628,0,0,1-4.24,0,4.7,4.7,0,0,0-4.29-2.049h-4.866c-2.42,0-4.21,1.039-4.656,2.607a3.048,3.048,0,0,0-1.249,1.232,2.817,2.817,0,0,0,0,5.622,3.049,3.049,0,0,0,1.249,1.232c.446,1.569,2.236,2.608,4.656,2.608h3.573a3.34,3.34,0,0,0,3.082-2.1,8.046,8.046,0,0,1,1.713-.166,7.871,7.871,0,0,1,1.791.184c.74,1.323,2.683,2.079,5.5,2.079s4.763-.756,5.5-2.079a7.871,7.871,0,0,1,1.791-.184,8.052,8.052,0,0,1,1.713.166A3.338,3.338,0,0,0,269.86,48.4Z" style="fill: #fff"/>
      <path d="M332.366,3.879A3.047,3.047,0,0,0,331.1,2.607C330.65,1.039,328.859,0,326.439,0h-3.573a3.339,3.339,0,0,0-3.081,2.1,8.052,8.052,0,0,1-1.713.166,7.871,7.871,0,0,1-1.791-.184C315.54.756,313.6,0,310.777,0s-4.764.756-5.5,2.079a7.871,7.871,0,0,1-1.791.184,8.046,8.046,0,0,1-1.713-.166A3.34,3.34,0,0,0,298.687,0h-3.573c-2.42,0-4.21,1.039-4.656,2.607a3.051,3.051,0,0,0-1.271,1.271c-1.57.445-2.609,2.236-2.609,4.657v3.572a3.34,3.34,0,0,0,2.1,3.082,8.048,8.048,0,0,1,.167,1.712,7.813,7.813,0,0,1-.185,1.791c-1.322.74-2.079,2.683-2.079,5.5s.756,4.766,2.079,5.505a7.808,7.808,0,0,1,.185,1.79,8.065,8.065,0,0,1-.167,1.713,3.337,3.337,0,0,0-2.1,3.08V39.86c0,2.42,1.039,4.212,2.609,4.657a3.051,3.051,0,0,0,1.271,1.271c.446,1.569,2.236,2.608,4.656,2.608h3.573a3.34,3.34,0,0,0,3.082-2.1,8.046,8.046,0,0,1,1.713-.166,7.871,7.871,0,0,1,1.791.184c.74,1.323,2.683,2.079,5.5,2.079s4.763-.756,5.5-2.079a7.871,7.871,0,0,1,1.791-.184,8.052,8.052,0,0,1,1.713.166,3.339,3.339,0,0,0,3.081,2.1h3.573c2.42,0,4.211-1.039,4.657-2.608a3.047,3.047,0,0,0,1.271-1.271c1.569-.446,2.608-2.236,2.608-4.657V36.286a3.342,3.342,0,0,0-2.1-3.08,8.059,8.059,0,0,1-.166-1.713A7.833,7.833,0,0,1,332.9,29.7c1.321-.74,2.077-2.683,2.077-5.5s-.756-4.763-2.077-5.5a7.839,7.839,0,0,1-.185-1.793,8.042,8.042,0,0,1,.166-1.712,3.341,3.341,0,0,0,2.1-3.082V8.536C334.974,6.115,333.935,4.325,332.366,3.879Zm-8.56,18.864a8.128,8.128,0,0,1,0,2.908,2.654,2.654,0,0,0-2.132,2.518v2.917c0,2.182.845,3.852,2.162,4.487a4.965,4.965,0,0,1,.1,1.031.764.764,0,0,1-.754.754,4.918,4.918,0,0,1-1.032-.1c-.634-1.317-2.3-2.161-4.487-2.161h-2.916a2.655,2.655,0,0,0-2.519,2.132,10.01,10.01,0,0,1-2.907,0A2.657,2.657,0,0,0,306.8,35.1h-2.915c-2.182,0-3.852.844-4.486,2.161a4.918,4.918,0,0,1-1.032.1.764.764,0,0,1-.754-.754,4.982,4.982,0,0,1,.1-1.033c1.316-.633,2.16-2.3,2.16-4.486V28.169a2.654,2.654,0,0,0-2.131-2.518,8.128,8.128,0,0,1,0-2.908,2.654,2.654,0,0,0,2.131-2.518V17.31c0-2.182-.845-3.852-2.16-4.486a4.981,4.981,0,0,1-.1-1.033.764.764,0,0,1,.754-.754,5.043,5.043,0,0,1,.93.081,2.765,2.765,0,0,0,5.405,0,5.043,5.043,0,0,1,.93-.081.764.764,0,0,1,.754.754,5.1,5.1,0,0,1-.081.93,2.863,2.863,0,0,0-2.182,2.7,2.947,2.947,0,0,0,2.63,2.809,3.041,3.041,0,0,0,1.209,1.209,2.818,2.818,0,0,0,5.623,0,3.041,3.041,0,0,0,1.209-1.209,2.946,2.946,0,0,0,2.629-2.809,2.863,2.863,0,0,0-2.181-2.7,5.1,5.1,0,0,1-.081-.93.764.764,0,0,1,.754-.754,5.044,5.044,0,0,1,.93.081,2.766,2.766,0,0,0,5.407,0,5.043,5.043,0,0,1,.93-.081.764.764,0,0,1,.754.754,4.965,4.965,0,0,1-.1,1.031c-1.317.635-2.162,2.306-2.162,4.487v2.915A2.654,2.654,0,0,0,323.806,22.743Z" style="fill: #fff"/>
      <path d="M385.371,3.879a3.03,3.03,0,0,0-1.248-1.258,3.187,3.187,0,0,0-6.156-.454,6.651,6.651,0,0,1-2.051,0,3.187,3.187,0,0,0-6.156.454,3.037,3.037,0,0,0-1.226,1.218,2.947,2.947,0,0,0-2.63,2.811,2.947,2.947,0,0,0,2.63,2.811,3.041,3.041,0,0,0,1.209,1.209,2.948,2.948,0,0,0,2.812,2.63,2.863,2.863,0,0,0,2.7-2.182,5.043,5.043,0,0,1,.93-.081.764.764,0,0,1,.754.754,5.1,5.1,0,0,1-.081.93,2.863,2.863,0,0,0-2.182,2.7,2.862,2.862,0,0,0,2.182,2.7,5.1,5.1,0,0,1,.081.93.764.764,0,0,1-.754.754,5.045,5.045,0,0,1-.93-.081,2.863,2.863,0,0,0-2.7-2.18,2.948,2.948,0,0,0-2.811,2.628,3.042,3.042,0,0,0-1.209,1.209,2.817,2.817,0,0,0,0,5.622,3.041,3.041,0,0,0,1.209,1.209,2.948,2.948,0,0,0,2.812,2.63,2.864,2.864,0,0,0,2.7-2.182,5.174,5.174,0,0,1,.93-.081.764.764,0,0,1,.754.754,5.1,5.1,0,0,1-.081.93,2.766,2.766,0,0,0,0,5.407,5.1,5.1,0,0,1,.081.93.764.764,0,0,1-.754.754,4.918,4.918,0,0,1-1.032-.1c-.634-1.317-2.3-2.161-4.487-2.161h-2.916a2.655,2.655,0,0,0-2.519,2.132,10.01,10.01,0,0,1-2.907,0,2.657,2.657,0,0,0-2.519-2.132h-2.915c-2.182,0-3.852.844-4.486,2.161a4.918,4.918,0,0,1-1.032.1.764.764,0,0,1-.754-.754,5.1,5.1,0,0,1,.081-.93,2.766,2.766,0,0,0,0-5.407,5.1,5.1,0,0,1-.081-.93.764.764,0,0,1,.754-.754,5.174,5.174,0,0,1,.93.081,2.863,2.863,0,0,0,2.7,2.182,2.947,2.947,0,0,0,2.811-2.63,3.041,3.041,0,0,0,1.209-1.209,2.817,2.817,0,0,0,0-5.622,3.043,3.043,0,0,0-1.209-1.209,2.948,2.948,0,0,0-2.81-2.628,2.863,2.863,0,0,0-2.7,2.18,5.045,5.045,0,0,1-.93.081.764.764,0,0,1-.754-.754,5.1,5.1,0,0,1,.081-.93,2.863,2.863,0,0,0,2.181-2.7,2.865,2.865,0,0,0-2.181-2.7,5.1,5.1,0,0,1-.081-.93.764.764,0,0,1,.754-.754,5.043,5.043,0,0,1,.93.081,2.863,2.863,0,0,0,2.7,2.182,2.947,2.947,0,0,0,2.811-2.63,3.041,3.041,0,0,0,1.209-1.209,2.947,2.947,0,0,0,2.63-2.811,2.947,2.947,0,0,0-2.63-2.811A3.037,3.037,0,0,0,357.8,2.621a3.186,3.186,0,0,0-6.154-.454,6.651,6.651,0,0,1-2.051,0,3.187,3.187,0,0,0-6.156.454,3.03,3.03,0,0,0-1.248,1.258c-1.57.445-2.609,2.236-2.609,4.657v3.572a3.34,3.34,0,0,0,2.1,3.082,8.048,8.048,0,0,1,.167,1.712,7.813,7.813,0,0,1-.185,1.791c-1.322.74-2.079,2.683-2.079,5.5s.756,4.766,2.079,5.505a7.808,7.808,0,0,1,.185,1.79,8.065,8.065,0,0,1-.167,1.713,3.337,3.337,0,0,0-2.1,3.08V39.86c0,2.42,1.039,4.212,2.609,4.657a3.051,3.051,0,0,0,1.271,1.271c.446,1.569,2.236,2.608,4.656,2.608h3.573a3.34,3.34,0,0,0,3.082-2.1,8.046,8.046,0,0,1,1.713-.166,7.871,7.871,0,0,1,1.791.184c.74,1.323,2.683,2.079,5.5,2.079s4.763-.756,5.5-2.079a7.871,7.871,0,0,1,1.791-.184,8.052,8.052,0,0,1,1.713.166,3.339,3.339,0,0,0,3.081,2.1h3.573c2.42,0,4.211-1.039,4.657-2.608a3.047,3.047,0,0,0,1.271-1.271c1.569-.445,2.608-2.236,2.608-4.657V36.286a3.338,3.338,0,0,0-2.1-3.08,8.065,8.065,0,0,1-.167-1.713A7.885,7.885,0,0,1,385.9,29.7c1.323-.74,2.079-2.683,2.079-5.5s-.756-4.763-2.078-5.5a7.813,7.813,0,0,1-.185-1.791,8.037,8.037,0,0,1,.167-1.712,3.342,3.342,0,0,0,2.1-3.082V8.536C387.979,6.115,386.94,4.324,385.371,3.879Z" style="fill: #fff"/>
      <path d="M438.376,3.879a3.047,3.047,0,0,0-1.271-1.271C436.66,1.039,434.869,0,432.449,0h-3.573a3.339,3.339,0,0,0-3.081,2.1,8.052,8.052,0,0,1-1.713.166,7.871,7.871,0,0,1-1.791-.184C421.55.756,419.607,0,416.787,0s-4.764.756-5.5,2.079a7.871,7.871,0,0,1-1.791.184,8.046,8.046,0,0,1-1.713-.166A3.339,3.339,0,0,0,404.7,0h-3.573c-2.42,0-4.211,1.039-4.657,2.607A3.047,3.047,0,0,0,395.2,3.879c-1.569.445-2.608,2.236-2.608,4.657v3.572a3.342,3.342,0,0,0,2.1,3.082,8.037,8.037,0,0,1,.167,1.712,7.839,7.839,0,0,1-.185,1.793c-1.322.74-2.078,2.683-2.078,5.5s.756,4.764,2.078,5.5a7.833,7.833,0,0,1,.185,1.791,8.065,8.065,0,0,1-.167,1.713,3.338,3.338,0,0,0-2.1,3.08V39.86c0,2.42,1.039,4.212,2.608,4.657a3.041,3.041,0,0,0,1.23,1.249,2.818,2.818,0,0,0,5.623,0,3.038,3.038,0,0,0,1.218-1.226,3.187,3.187,0,0,0,.453-6.156,5.579,5.579,0,0,1,0-2.051,3.176,3.176,0,0,0-.006-6.025,5.02,5.02,0,0,1-.089-.969.764.764,0,0,1,.754-.754,5.048,5.048,0,0,1,.97.088,3.175,3.175,0,0,0,6.025.007,6.647,6.647,0,0,1,2.051,0,3.174,3.174,0,0,0,6.023-.007,5.048,5.048,0,0,1,.97-.088.764.764,0,0,1,.754.754,5.014,5.014,0,0,1-.089.969,3.176,3.176,0,0,0-.006,6.025,5.579,5.579,0,0,1,0,2.051,3.187,3.187,0,0,0,.453,6.156,3.035,3.035,0,0,0,1.235,1.235,3.187,3.187,0,0,0,6.156.454,6.647,6.647,0,0,1,2.051,0,3.187,3.187,0,0,0,6.156-.454,3.038,3.038,0,0,0,1.226-1.218,2.817,2.817,0,0,0,0-5.622,3.041,3.041,0,0,0-1.209-1.21,2.949,2.949,0,0,0-2.812-2.63,2.864,2.864,0,0,0-2.7,2.182,5.175,5.175,0,0,1-.93.081.764.764,0,0,1-.754-.754,5.1,5.1,0,0,1,.081-.93,2.766,2.766,0,0,0,0-5.407,5.1,5.1,0,0,1-.081-.93.764.764,0,0,1,.754-.754,5.174,5.174,0,0,1,.93.081,2.864,2.864,0,0,0,2.7,2.182,2.949,2.949,0,0,0,2.812-2.63,3.04,3.04,0,0,0,1.23-1.249c1.569-.445,2.608-2.236,2.608-4.657V19.4a2.655,2.655,0,0,0-2.132-2.519,8.12,8.12,0,0,1,0-2.907,2.655,2.655,0,0,0,2.132-2.519V8.536C440.984,6.115,439.945,4.324,438.376,3.879Zm-8.51,14.247a5.1,5.1,0,0,1,.081.93.764.764,0,0,1-.754.754,4.931,4.931,0,0,1-1.033-.1c-.634-1.316-2.3-2.16-4.486-2.16h-2.916a2.655,2.655,0,0,0-2.518,2.13,10.02,10.02,0,0,1-2.908,0,2.655,2.655,0,0,0-2.518-2.13H409.9c-2.181,0-3.851.844-4.485,2.16a4.931,4.931,0,0,1-1.033.1.764.764,0,0,1-.754-.754,5.1,5.1,0,0,1,.081-.93,2.862,2.862,0,0,0,2.182-2.7,2.863,2.863,0,0,0-2.182-2.7,5.1,5.1,0,0,1-.081-.93.764.764,0,0,1,.754-.754,4.924,4.924,0,0,1,1.032.1c.633,1.316,2.3,2.161,4.486,2.161h2.916a2.657,2.657,0,0,0,2.52-2.132,10.01,10.01,0,0,1,2.907,0,2.655,2.655,0,0,0,2.518,2.132h2.915c2.183,0,3.853-.844,4.487-2.161a4.924,4.924,0,0,1,1.032-.1.764.764,0,0,1,.754.754,5.1,5.1,0,0,1-.081.93,2.863,2.863,0,0,0-2.182,2.7A2.862,2.862,0,0,0,429.866,18.126Z" style="fill: #fff"/>
      <path d="M493.99,7a3.275,3.275,0,0,0-2.622-3.145,3.043,3.043,0,0,0-1.258-1.248C489.665,1.039,487.874,0,485.454,0h-3.573A3.339,3.339,0,0,0,478.8,2.1a8.052,8.052,0,0,1-1.713.166,7.871,7.871,0,0,1-1.791-.184C474.555.756,472.612,0,469.792,0s-4.764.756-5.5,2.079a7.871,7.871,0,0,1-1.791.184,8.046,8.046,0,0,1-1.713-.166A3.339,3.339,0,0,0,457.7,0H454.13c-2.42,0-4.211,1.039-4.657,2.607A3.047,3.047,0,0,0,448.2,3.879c-1.569.445-2.608,2.236-2.608,4.657v3.572a3.342,3.342,0,0,0,2.1,3.082,8.037,8.037,0,0,1,.167,1.712,7.813,7.813,0,0,1-.185,1.791c-1.322.741-2.078,2.684-2.078,5.5s.756,4.764,2.079,5.5a7.885,7.885,0,0,1,.184,1.791,8.065,8.065,0,0,1-.167,1.713,3.338,3.338,0,0,0-2.1,3.08V39.86c0,2.42,1.039,4.212,2.608,4.657a3.047,3.047,0,0,0,1.271,1.271c.446,1.569,2.236,2.608,4.657,2.608H457.7a3.339,3.339,0,0,0,3.081-2.1,8.046,8.046,0,0,1,1.713-.166,7.871,7.871,0,0,1,1.791.184c.74,1.323,2.683,2.079,5.5,2.079s4.764-.756,5.5-2.079a7.871,7.871,0,0,1,1.791-.184,8.052,8.052,0,0,1,1.713.166,3.339,3.339,0,0,0,3.081,2.1h3.573c2.42,0,4.211-1.039,4.657-2.608a3.043,3.043,0,0,0,1.258-1.248,3.275,3.275,0,0,0,2.622-3.145,3.242,3.242,0,0,0-2.169-3.011,5.579,5.579,0,0,1,0-2.051,3.242,3.242,0,0,0,2.169-3.011,3.275,3.275,0,0,0-2.622-3.145,3.038,3.038,0,0,0-1.218-1.226,2.818,2.818,0,0,0-5.623,0,3.041,3.041,0,0,0-1.209,1.209,2.947,2.947,0,0,0-2.629,2.811,2.863,2.863,0,0,0,2.181,2.7,5.1,5.1,0,0,1,.081.93.764.764,0,0,1-.754.754,5.174,5.174,0,0,1-.93-.081,2.765,2.765,0,0,0-5.405,0,5.175,5.175,0,0,1-.93.081.764.764,0,0,1-.754-.754,5.1,5.1,0,0,1,.081-.93,2.865,2.865,0,0,0,2.181-2.7,2.947,2.947,0,0,0-2.629-2.811,3.041,3.041,0,0,0-1.209-1.209,2.818,2.818,0,0,0-5.623,0,3.046,3.046,0,0,0-1.209,1.209,2.947,2.947,0,0,0-2.63,2.811,2.862,2.862,0,0,0,2.182,2.7,5.1,5.1,0,0,1,.081.93.764.764,0,0,1-.754.754,5.176,5.176,0,0,1-.93-.081,2.766,2.766,0,0,0-5.407,0,5.174,5.174,0,0,1-.93.081.764.764,0,0,1-.754-.754,4.965,4.965,0,0,1,.1-1.031c1.316-.635,2.161-2.306,2.161-4.487V28.169a2.654,2.654,0,0,0-2.132-2.518,8.128,8.128,0,0,1,0-2.908,2.654,2.654,0,0,0,2.132-2.518V17.31c0-2.182-.845-3.852-2.161-4.487a4.965,4.965,0,0,1-.1-1.031.764.764,0,0,1,.754-.754,5.043,5.043,0,0,1,.93.081,2.766,2.766,0,0,0,5.407,0,5.044,5.044,0,0,1,.93-.081.764.764,0,0,1,.754.754,5.1,5.1,0,0,1-.081.93,2.862,2.862,0,0,0-2.182,2.7,2.946,2.946,0,0,0,2.63,2.809,3.041,3.041,0,0,0,1.209,1.209,2.818,2.818,0,0,0,5.623,0,3.041,3.041,0,0,0,1.209-1.209,2.946,2.946,0,0,0,2.629-2.809,2.865,2.865,0,0,0-2.181-2.7,5.1,5.1,0,0,1-.081-.93.764.764,0,0,1,.754-.754,5.043,5.043,0,0,1,.93.081,2.765,2.765,0,0,0,5.405,0,5.043,5.043,0,0,1,.93-.081.764.764,0,0,1,.754.754,5.1,5.1,0,0,1-.081.93,2.863,2.863,0,0,0-2.181,2.7,2.946,2.946,0,0,0,2.629,2.809,3.041,3.041,0,0,0,1.209,1.209,2.818,2.818,0,0,0,5.623,0,3.038,3.038,0,0,0,1.218-1.226,3.275,3.275,0,0,0,2.622-3.145,3.242,3.242,0,0,0-2.169-3.011,5.579,5.579,0,0,1,0-2.051A3.242,3.242,0,0,0,493.99,7Z" style="fill: #fff"/>
      <path d="M547,7a3.272,3.272,0,0,0-2.619-3.144,3.044,3.044,0,0,0-1.259-1.249C542.671,1.039,540.881,0,538.459,0h-3.574A3.339,3.339,0,0,0,531.8,2.1a8.052,8.052,0,0,1-1.713.166,7.871,7.871,0,0,1-1.791-.184C527.56.756,525.617,0,522.8,0s-4.764.756-5.5,2.079a7.871,7.871,0,0,1-1.791.184,8.047,8.047,0,0,1-1.713-.166A3.339,3.339,0,0,0,510.708,0h-3.573c-2.42,0-4.211,1.039-4.657,2.607a3.047,3.047,0,0,0-1.271,1.271c-1.569.446-2.608,2.236-2.608,4.657v3.572a3.342,3.342,0,0,0,2.1,3.082,8.037,8.037,0,0,1,.167,1.712,7.839,7.839,0,0,1-.185,1.793c-1.321.74-2.077,2.683-2.077,5.5s.756,4.764,2.077,5.5a7.833,7.833,0,0,1,.185,1.791,8.054,8.054,0,0,1-.167,1.713,3.337,3.337,0,0,0-2.1,3.08V39.86c0,2.42,1.039,4.21,2.608,4.657a3.047,3.047,0,0,0,1.271,1.271c.446,1.569,2.236,2.608,4.657,2.608h3.574a3.34,3.34,0,0,0,3.082-2.1,8.047,8.047,0,0,1,1.713-.166,7.871,7.871,0,0,1,1.791.184c.74,1.323,2.683,2.079,5.5,2.079s4.764-.756,5.5-2.079a7.871,7.871,0,0,1,1.791-.184,8.052,8.052,0,0,1,1.713.166,3.339,3.339,0,0,0,3.08,2.1h3.573c2.421,0,4.212-1.039,4.657-2.608a3.044,3.044,0,0,0,1.259-1.249,3.187,3.187,0,0,0,.452-6.155,5.579,5.579,0,0,1,0-2.051,3.187,3.187,0,0,0-.452-6.155,3.035,3.035,0,0,0-1.218-1.227,2.818,2.818,0,0,0-5.623,0,3.046,3.046,0,0,0-1.209,1.209,2.947,2.947,0,0,0-2.63,2.811,2.862,2.862,0,0,0,2.183,2.7,5.1,5.1,0,0,1,.081.93.764.764,0,0,1-.754.754,4.918,4.918,0,0,1-1.032-.1c-.634-1.317-2.3-2.161-4.487-2.161h-2.916a2.654,2.654,0,0,0-2.518,2.132,10.01,10.01,0,0,1-2.907,0,2.657,2.657,0,0,0-2.52-2.132h-2.916c-2.182,0-3.852.844-4.486,2.161a4.918,4.918,0,0,1-1.032.1.764.764,0,0,1-.754-.754,5.1,5.1,0,0,1,.081-.93,2.766,2.766,0,0,0,0-5.407,5.1,5.1,0,0,1-.081-.93.764.764,0,0,1,.754-.754,5.048,5.048,0,0,1,.97.088,3.175,3.175,0,0,0,6.025.007,6.647,6.647,0,0,1,2.051,0,3.187,3.187,0,0,0,6.156-.454,3.042,3.042,0,0,0,1.226-1.218,2.817,2.817,0,0,0,0-5.622,3.033,3.033,0,0,0-1.226-1.218,3.187,3.187,0,0,0-6.155-.452,6.843,6.843,0,0,1-2.052,0,3.175,3.175,0,0,0-6.023.006,5.051,5.051,0,0,1-.971.088.764.764,0,0,1-.754-.754,5.1,5.1,0,0,1,.081-.93,2.862,2.862,0,0,0,2.182-2.7,2.863,2.863,0,0,0-2.182-2.7,5.1,5.1,0,0,1-.081-.93.764.764,0,0,1,.754-.754,4.924,4.924,0,0,1,1.032.1c.633,1.316,2.3,2.161,4.486,2.161h2.916a2.657,2.657,0,0,0,2.52-2.132,10.01,10.01,0,0,1,2.907,0,2.655,2.655,0,0,0,2.518,2.132h2.916c2.182,0,3.853-.846,4.487-2.161a4.918,4.918,0,0,1,1.032-.1.764.764,0,0,1,.754.754,5.1,5.1,0,0,1-.081.93,2.863,2.863,0,0,0-2.183,2.7,2.946,2.946,0,0,0,2.63,2.809,3.041,3.041,0,0,0,1.209,1.209,2.818,2.818,0,0,0,5.623,0,3.035,3.035,0,0,0,1.218-1.227,3.187,3.187,0,0,0,.452-6.155,5.579,5.579,0,0,1,0-2.051A3.242,3.242,0,0,0,547,7Z" style="fill: #fff"/>
      <path d="M207.411,60.605a3.272,3.272,0,0,0-2.619-3.144,3.043,3.043,0,0,0-1.259-1.249c-.446-1.569-2.236-2.608-4.657-2.608H195.3a3.338,3.338,0,0,0-3.08,2.1,8.051,8.051,0,0,1-1.713.167,7.874,7.874,0,0,1-1.791-.184c-.74-1.323-2.683-2.079-5.5-2.079s-4.763.756-5.5,2.079a7.874,7.874,0,0,1-1.791.184,8.046,8.046,0,0,1-1.713-.167,3.34,3.34,0,0,0-3.082-2.1h-3.573c-2.42,0-4.21,1.039-4.656,2.608a3.051,3.051,0,0,0-1.271,1.271c-1.57.445-2.609,2.236-2.609,4.657v3.572a3.34,3.34,0,0,0,2.1,3.082,8.054,8.054,0,0,1,.166,1.712,7.813,7.813,0,0,1-.185,1.791c-1.322.74-2.079,2.683-2.079,5.5s.756,4.766,2.079,5.505a7.808,7.808,0,0,1,.185,1.79,8.07,8.07,0,0,1-.166,1.713,3.338,3.338,0,0,0-2.1,3.08v3.574c0,2.42,1.039,4.212,2.609,4.657a3.051,3.051,0,0,0,1.271,1.271c.446,1.569,2.236,2.608,4.656,2.608h3.573a3.34,3.34,0,0,0,3.082-2.1,8.051,8.051,0,0,1,1.713-.166,7.874,7.874,0,0,1,1.791.184c.74,1.323,2.683,2.079,5.5,2.079s4.764-.756,5.5-2.079a7.874,7.874,0,0,1,1.791-.184,8.056,8.056,0,0,1,1.713.166,3.339,3.339,0,0,0,3.08,2.1h3.573c2.421,0,4.212-1.039,4.657-2.608a3.043,3.043,0,0,0,1.259-1.249,3.187,3.187,0,0,0,.452-6.155,5.579,5.579,0,0,1,0-2.051,3.187,3.187,0,0,0-.452-6.155,3.035,3.035,0,0,0-1.218-1.227,2.818,2.818,0,0,0-5.623,0,3.046,3.046,0,0,0-1.209,1.21,2.947,2.947,0,0,0-2.63,2.811,2.863,2.863,0,0,0,2.182,2.7,5.1,5.1,0,0,1,.081.93.764.764,0,0,1-.754.754,4.917,4.917,0,0,1-1.032-.1c-.634-1.317-2.3-2.161-4.487-2.161h-2.915a2.655,2.655,0,0,0-2.519,2.132,10.01,10.01,0,0,1-2.907,0,2.657,2.657,0,0,0-2.519-2.132h-2.915c-2.182,0-3.852.844-4.486,2.161a4.917,4.917,0,0,1-1.032.1.764.764,0,0,1-.754-.754,5.1,5.1,0,0,1,.081-.93,2.766,2.766,0,0,0,0-5.407,5.1,5.1,0,0,1-.081-.93.764.764,0,0,1,.754-.754,5.043,5.043,0,0,1,.97.088,3.174,3.174,0,0,0,6.023.007,6.647,6.647,0,0,1,2.051,0,3.187,3.187,0,0,0,6.156-.454,3.042,3.042,0,0,0,1.226-1.218,2.817,2.817,0,0,0,0-5.622,3.033,3.033,0,0,0-1.226-1.218,3.187,3.187,0,0,0-6.155-.452,6.843,6.843,0,0,1-2.052,0,3.174,3.174,0,0,0-6.022.006,5.057,5.057,0,0,1-.971.088.764.764,0,0,1-.754-.754,5.1,5.1,0,0,1,.081-.93,2.765,2.765,0,0,0,0-5.405,5.1,5.1,0,0,1-.081-.93.764.764,0,0,1,.754-.754,4.924,4.924,0,0,1,1.032.1c.633,1.316,2.3,2.161,4.486,2.161h2.915a2.657,2.657,0,0,0,2.519-2.132,10.01,10.01,0,0,1,2.907,0,2.657,2.657,0,0,0,2.519,2.132H190.1c2.183,0,3.853-.846,4.487-2.161a4.918,4.918,0,0,1,1.032-.1.764.764,0,0,1,.754.754,5.1,5.1,0,0,1-.081.93,2.863,2.863,0,0,0-2.182,2.7,2.946,2.946,0,0,0,2.63,2.809,3.041,3.041,0,0,0,1.209,1.209,2.818,2.818,0,0,0,5.623,0,3.035,3.035,0,0,0,1.218-1.227,3.187,3.187,0,0,0,.452-6.155,5.579,5.579,0,0,1,0-2.051A3.242,3.242,0,0,0,207.411,60.605Z" style="fill: #fff"/>
      <path d="M45.787,75.032a3.041,3.041,0,0,0-1.23-1.249,2.818,2.818,0,0,0-5.623,0,3.044,3.044,0,0,0-1.218,1.226,3.188,3.188,0,0,0-.452,6.156,5.579,5.579,0,0,1,0,2.051,3.175,3.175,0,0,0,.006,6.024,5.014,5.014,0,0,1,.089.969.764.764,0,0,1-.754.754,5.042,5.042,0,0,1-.93-.081,2.766,2.766,0,0,0-5.407,0,5.043,5.043,0,0,1-.93.081.764.764,0,0,1-.754-.754,4.965,4.965,0,0,1,.1-1.031c1.317-.635,2.162-2.3,2.162-4.487V79.824a4.7,4.7,0,0,0-2.05-4.29,10.618,10.618,0,0,1,0-4.238,4.7,4.7,0,0,0,2.05-4.29V62.14c0-2.42-1.039-4.212-2.609-4.657a3.046,3.046,0,0,0-1.271-1.271c-.446-1.569-2.236-2.608-4.656-2.608H19.4a2.655,2.655,0,0,0-2.519,2.132,10.009,10.009,0,0,1-2.907,0A2.657,2.657,0,0,0,11.452,53.6H8.536c-2.42,0-4.211,1.039-4.657,2.608a3.046,3.046,0,0,0-1.271,1.271C1.039,57.928,0,59.72,0,62.14v3.574a3.338,3.338,0,0,0,2.1,3.08,8.065,8.065,0,0,1,.167,1.713,7.859,7.859,0,0,1-.184,1.79C.756,73.039,0,74.982,0,77.8s.756,4.763,2.078,5.5A7.813,7.813,0,0,1,2.263,85.1,8.107,8.107,0,0,1,2.1,86.81,3.34,3.34,0,0,0,0,89.892v3.573c0,2.42,1.039,4.212,2.608,4.657a3.047,3.047,0,0,0,1.271,1.271C4.325,100.961,6.115,102,8.536,102h3.573a3.34,3.34,0,0,0,3.081-2.1,8.05,8.05,0,0,1,1.713-.166,7.874,7.874,0,0,1,1.791.184c.74,1.323,2.683,2.079,5.5,2.079s4.763-.756,5.5-2.079a7.874,7.874,0,0,1,1.791-.184,8.056,8.056,0,0,1,1.713.166,3.339,3.339,0,0,0,3.081,2.1H39.86c2.42,0,4.211-1.039,4.657-2.608a3.047,3.047,0,0,0,1.271-1.271c1.57-.445,2.609-2.236,2.609-4.657V90.549a2.655,2.655,0,0,0-2.132-2.519,7.47,7.47,0,0,1-.131-1.453,7.546,7.546,0,0,1,.131-1.454A2.655,2.655,0,0,0,48.4,82.6V79.689C48.4,77.268,47.357,75.477,45.787,75.032ZM19.73,89.279a5.1,5.1,0,0,1,.081.93.764.764,0,0,1-.754.754,5.043,5.043,0,0,1-.93-.081,2.863,2.863,0,0,0-2.7-2.182,2.863,2.863,0,0,0-2.7,2.182,5.042,5.042,0,0,1-.93.081.764.764,0,0,1-.754-.754,5.1,5.1,0,0,1,.081-.93,2.766,2.766,0,0,0,0-5.407,5.1,5.1,0,0,1-.081-.93.764.764,0,0,1,.754-.754,5.174,5.174,0,0,1,.93.081,2.864,2.864,0,0,0,2.7,2.182,2.864,2.864,0,0,0,2.7-2.182,5.174,5.174,0,0,1,.93-.081.764.764,0,0,1,.754.754,5.1,5.1,0,0,1-.081.93,2.766,2.766,0,0,0,0,5.407Zm0-17.547a5.1,5.1,0,0,1,.081.93.764.764,0,0,1-.754.754,5.175,5.175,0,0,1-.93-.081,2.864,2.864,0,0,0-2.7-2.182,2.864,2.864,0,0,0-2.7,2.182,5.174,5.174,0,0,1-.93.081.764.764,0,0,1-.754-.754,5.1,5.1,0,0,1,.081-.93,2.766,2.766,0,0,0,0-5.407,5.1,5.1,0,0,1-.081-.93.764.764,0,0,1,.754-.754,5.168,5.168,0,0,1,.93.081,2.864,2.864,0,0,0,2.7,2.182,2.864,2.864,0,0,0,2.7-2.182,5.169,5.169,0,0,1,.93-.081.764.764,0,0,1,.754.754,5.1,5.1,0,0,1-.081.93,2.766,2.766,0,0,0,0,5.407Z" style="fill: #fff"/>
      <path d="M98.794,57.484a3.046,3.046,0,0,0-1.271-1.271c-.446-1.569-2.236-2.608-4.657-2.608H89.292a3.339,3.339,0,0,0-3.081,2.1,8.052,8.052,0,0,1-1.713.167,7.874,7.874,0,0,1-1.791-.184c-.74-1.323-2.683-2.079-5.5-2.079s-4.764.756-5.5,2.079a7.874,7.874,0,0,1-1.791.184,8.046,8.046,0,0,1-1.713-.167,3.339,3.339,0,0,0-3.081-2.1H61.541c-2.42,0-4.211,1.039-4.657,2.608a3.046,3.046,0,0,0-1.271,1.271c-1.569.446-2.608,2.236-2.608,4.657v3.574a3.339,3.339,0,0,0,2.1,3.08,8.054,8.054,0,0,1,.167,1.713,7.885,7.885,0,0,1-.184,1.791c-1.322.74-2.078,2.683-2.078,5.5s.756,4.763,2.077,5.5a7.838,7.838,0,0,1,.185,1.793A8.1,8.1,0,0,1,55.1,86.81a3.341,3.341,0,0,0-2.1,3.082v3.573c0,2.42,1.039,4.21,2.608,4.657a3.047,3.047,0,0,0,1.271,1.271c.446,1.569,2.236,2.608,4.657,2.608h3.574A3.34,3.34,0,0,0,68.2,99.9a8.051,8.051,0,0,1,1.713-.166,7.874,7.874,0,0,1,1.791.184c.74,1.323,2.683,2.079,5.5,2.079s4.764-.756,5.5-2.079a7.874,7.874,0,0,1,1.791-.184,8.056,8.056,0,0,1,1.713.166,3.338,3.338,0,0,0,3.08,2.1h3.573c2.421,0,4.212-1.039,4.657-2.608a3.047,3.047,0,0,0,1.271-1.271c1.569-.446,2.608-2.236,2.608-4.657V89.892a3.342,3.342,0,0,0-2.1-3.082,8.054,8.054,0,0,1-.167-1.713,7.833,7.833,0,0,1,.185-1.791c1.321-.74,2.077-2.683,2.077-5.5s-.756-4.763-2.077-5.5a7.838,7.838,0,0,1-.185-1.793,8.038,8.038,0,0,1,.167-1.712,3.34,3.34,0,0,0,2.1-3.08V62.14C101.4,59.72,100.362,57.93,98.794,57.484ZM90.234,76.35a8.1,8.1,0,0,1,0,2.9A2.658,2.658,0,0,0,88.1,81.775V84.69c0,2.183.845,3.854,2.162,4.487a4.965,4.965,0,0,1,.1,1.031.764.764,0,0,1-.754.754,4.917,4.917,0,0,1-1.032-.1c-.634-1.316-2.3-2.161-4.487-2.161H81.175a2.655,2.655,0,0,0-2.518,2.132,10.01,10.01,0,0,1-2.907,0A2.657,2.657,0,0,0,73.231,88.7H70.315c-2.182,0-3.853.846-4.487,2.161a4.923,4.923,0,0,1-1.032.1.764.764,0,0,1-.754-.754,4.966,4.966,0,0,1,.1-1.031c1.316-.635,2.161-2.305,2.161-4.487V81.775a2.655,2.655,0,0,0-2.132-2.519,8.121,8.121,0,0,1,0-2.907A2.654,2.654,0,0,0,66.3,73.831V70.914c0-2.182-.845-3.852-2.161-4.487a4.966,4.966,0,0,1-.1-1.031.764.764,0,0,1,.754-.754,5.168,5.168,0,0,1,.93.081,2.766,2.766,0,0,0,5.407,0,5.169,5.169,0,0,1,.93-.081.764.764,0,0,1,.754.754,5.1,5.1,0,0,1-.081.93,2.863,2.863,0,0,0-2.182,2.7,2.947,2.947,0,0,0,2.63,2.811,3.041,3.041,0,0,0,1.209,1.209,2.818,2.818,0,0,0,5.623,0,3.041,3.041,0,0,0,1.209-1.209,2.947,2.947,0,0,0,2.629-2.811,2.865,2.865,0,0,0-2.181-2.7,5.1,5.1,0,0,1-.081-.93.764.764,0,0,1,.754-.754,5.169,5.169,0,0,1,.93.081,2.766,2.766,0,0,0,5.407,0,5.168,5.168,0,0,1,.93-.081.764.764,0,0,1,.754.754,4.966,4.966,0,0,1-.1,1.031c-1.317.633-2.162,2.3-2.162,4.487v2.917A2.657,2.657,0,0,0,90.234,76.35Z" style="fill: #fff"/>
      <path d="M151.8,57.484a3.04,3.04,0,0,0-1.23-1.249,2.818,2.818,0,0,0-5.623,0,3.041,3.041,0,0,0-1.23,1.249c-1.57.445-2.609,2.236-2.609,4.657v4.866a4.7,4.7,0,0,0,2.049,4.29,10.6,10.6,0,0,1,0,4.238,4.7,4.7,0,0,0-2.05,4.29V84.69c0,2.183.845,3.854,2.162,4.487a4.97,4.97,0,0,1,.1,1.031.764.764,0,0,1-.754.754,5.042,5.042,0,0,1-.93-.081,2.766,2.766,0,0,0-5.407,0,5.043,5.043,0,0,1-.93.081.764.764,0,0,1-.754-.754,4.982,4.982,0,0,1,.1-1.033c1.316-.633,2.16-2.3,2.16-4.486V79.824a4.7,4.7,0,0,0-2.048-4.288,10.636,10.636,0,0,1,0-4.241,4.7,4.7,0,0,0,2.048-4.288V62.14c0-2.42-1.039-4.21-2.607-4.657a3.047,3.047,0,0,0-1.271-1.271c-.446-1.569-2.236-2.608-4.657-2.608h-2.916a2.655,2.655,0,0,0-2.519,2.132,10.009,10.009,0,0,1-2.907,0,2.657,2.657,0,0,0-2.519-2.132h-2.915c-2.42,0-4.21,1.039-4.656,2.608a3.051,3.051,0,0,0-1.271,1.271c-1.57.445-2.609,2.236-2.609,4.657v3.574a3.338,3.338,0,0,0,2.1,3.08,8.069,8.069,0,0,1,.166,1.713,7.808,7.808,0,0,1-.185,1.79c-1.322.74-2.079,2.684-2.079,5.505s.756,4.764,2.079,5.5a7.813,7.813,0,0,1,.185,1.791,8.054,8.054,0,0,1-.166,1.712,3.341,3.341,0,0,0-2.1,3.082v3.573c0,2.42,1.039,4.212,2.609,4.657a3.04,3.04,0,0,0,1.23,1.249,2.818,2.818,0,0,0,5.623,0,3.04,3.04,0,0,0,1.23-1.249c1.569-.446,2.608-2.236,2.608-4.657V88.6a4.7,4.7,0,0,0-2.048-4.288,10.633,10.633,0,0,1,0-4.241,4.7,4.7,0,0,0,2.048-4.288V70.914c0-2.182-.845-3.852-2.16-4.486a4.981,4.981,0,0,1-.1-1.033.764.764,0,0,1,.754-.754,5.168,5.168,0,0,1,.93.081,2.766,2.766,0,0,0,5.407,0,5.169,5.169,0,0,1,.93-.081.764.764,0,0,1,.754.754,4.966,4.966,0,0,1-.1,1.031c-1.317.633-2.162,2.3-2.162,4.487V75.78a4.7,4.7,0,0,0,2.049,4.29,10.6,10.6,0,0,1,0,4.238,4.7,4.7,0,0,0-2.05,4.29v4.866c0,2.42,1.039,4.212,2.609,4.657a3.051,3.051,0,0,0,1.271,1.271c.446,1.569,2.236,2.608,4.656,2.608h2.915a2.657,2.657,0,0,0,2.519-2.132,10.009,10.009,0,0,1,2.907,0A2.654,2.654,0,0,0,142.954,102h2.916c2.421,0,4.212-1.039,4.657-2.608a3.047,3.047,0,0,0,1.271-1.271c1.569-.446,2.608-2.236,2.608-4.657V89.892a3.342,3.342,0,0,0-2.1-3.082,8.054,8.054,0,0,1-.167-1.713,7.833,7.833,0,0,1,.185-1.791c1.321-.74,2.077-2.683,2.077-5.5s-.756-4.763-2.077-5.5a7.838,7.838,0,0,1-.185-1.793,8.038,8.038,0,0,1,.167-1.712,3.34,3.34,0,0,0,2.1-3.08V62.14C154.406,59.72,153.367,57.93,151.8,57.484Z" style="fill: #fff"/>
      <path d="M258.113,75.032a3.041,3.041,0,0,0-1.23-1.249,2.818,2.818,0,0,0-5.623,0,3.038,3.038,0,0,0-1.218,1.226,3.274,3.274,0,0,0-2.621,3.145,3.242,3.242,0,0,0,2.168,3.011,5.579,5.579,0,0,1,0,2.051,3.175,3.175,0,0,0,.006,6.024,5.014,5.014,0,0,1,.089.969.764.764,0,0,1-.754.754,5.042,5.042,0,0,1-.93-.081,2.766,2.766,0,0,0-5.407,0,5.042,5.042,0,0,1-.93.081.764.764,0,0,1-.754-.754,4.965,4.965,0,0,1,.1-1.031c1.316-.635,2.161-2.305,2.161-4.487V79.824a4.7,4.7,0,0,0-2.049-4.29,10.618,10.618,0,0,1,0-4.238,4.706,4.706,0,0,0,2.049-4.29V62.14c0-2.42-1.039-4.212-2.608-4.657a3.046,3.046,0,0,0-1.271-1.271c-.446-1.569-2.236-2.608-4.657-2.608h-2.916a2.655,2.655,0,0,0-2.519,2.132,10.009,10.009,0,0,1-2.907,0,2.657,2.657,0,0,0-2.519-2.132h-2.915c-2.42,0-4.21,1.039-4.656,2.608a3.051,3.051,0,0,0-1.271,1.271c-1.57.445-2.609,2.236-2.609,4.657v3.574a3.338,3.338,0,0,0,2.1,3.08,8.065,8.065,0,0,1,.167,1.713,7.8,7.8,0,0,1-.185,1.79c-1.322.74-2.079,2.684-2.079,5.505s.756,4.764,2.079,5.5a7.809,7.809,0,0,1,.185,1.791,8.049,8.049,0,0,1-.167,1.712,3.341,3.341,0,0,0-2.1,3.082v3.573c0,2.42,1.039,4.212,2.609,4.657a3.051,3.051,0,0,0,1.271,1.271c.446,1.569,2.236,2.608,4.656,2.608h3.573a3.34,3.34,0,0,0,3.082-2.1,8.05,8.05,0,0,1,1.713-.166,7.875,7.875,0,0,1,1.791.184c.74,1.323,2.683,2.079,5.5,2.079s4.763-.756,5.5-2.079a7.874,7.874,0,0,1,1.791-.184,8.056,8.056,0,0,1,1.713.166,3.339,3.339,0,0,0,3.081,2.1h3.573c2.42,0,4.211-1.039,4.657-2.608a3.047,3.047,0,0,0,1.271-1.271c1.569-.446,2.608-2.236,2.608-4.657V90.549a2.655,2.655,0,0,0-2.131-2.519,8.121,8.121,0,0,1,0-2.907A2.655,2.655,0,0,0,260.72,82.6V79.689C260.72,77.268,259.682,75.478,258.113,75.032ZM232.056,89.279a5.1,5.1,0,0,1,.081.93.764.764,0,0,1-.754.754,5.043,5.043,0,0,1-.93-.081,2.766,2.766,0,0,0-5.407,0,5.043,5.043,0,0,1-.93.081.764.764,0,0,1-.754-.754,5.1,5.1,0,0,1,.081-.93,2.766,2.766,0,0,0,0-5.407,5.1,5.1,0,0,1-.081-.93.764.764,0,0,1,.754-.754,5.174,5.174,0,0,1,.93.081,2.766,2.766,0,0,0,5.407,0,5.174,5.174,0,0,1,.93-.081.764.764,0,0,1,.754.754,5.1,5.1,0,0,1-.081.93,2.765,2.765,0,0,0,0,5.407Zm0-17.547a5.1,5.1,0,0,1,.081.93.764.764,0,0,1-.754.754,5.175,5.175,0,0,1-.93-.081,2.766,2.766,0,0,0-5.407,0,5.175,5.175,0,0,1-.93.081.764.764,0,0,1-.754-.754,5.1,5.1,0,0,1,.081-.93,2.766,2.766,0,0,0,0-5.407,5.1,5.1,0,0,1-.081-.93.764.764,0,0,1,.754-.754,5.169,5.169,0,0,1,.93.081,2.766,2.766,0,0,0,5.407,0,5.169,5.169,0,0,1,.93-.081.764.764,0,0,1,.754.754,5.1,5.1,0,0,1-.081.93,2.765,2.765,0,0,0,0,5.407Z" style="fill: #fff"/>
      <path d="M311.118,57.484a3.03,3.03,0,0,0-1.248-1.258,3.187,3.187,0,0,0-6.156-.454,6.647,6.647,0,0,1-2.051,0,3.187,3.187,0,0,0-6.156.454,3.037,3.037,0,0,0-1.226,1.218,2.817,2.817,0,0,0,0,5.622,3.041,3.041,0,0,0,1.209,1.209A2.949,2.949,0,0,0,298.3,66.9a2.864,2.864,0,0,0,2.7-2.182,5.168,5.168,0,0,1,.93-.081.764.764,0,0,1,.754.754,5.1,5.1,0,0,1-.081.93,2.766,2.766,0,0,0,0,5.407,5.1,5.1,0,0,1,.081.93.764.764,0,0,1-.754.754,4.918,4.918,0,0,1-1.032-.1c-.634-1.317-2.3-2.161-4.487-2.161H293.5a2.655,2.655,0,0,0-2.519,2.132,10.009,10.009,0,0,1-2.907,0,2.657,2.657,0,0,0-2.519-2.132H282.64c-2.182,0-3.852.844-4.486,2.161a4.917,4.917,0,0,1-1.032.1.764.764,0,0,1-.754-.754,5.1,5.1,0,0,1,.081-.93,2.766,2.766,0,0,0,0-5.407,5.1,5.1,0,0,1-.081-.93.764.764,0,0,1,.754-.754,5.169,5.169,0,0,1,.93.081,2.864,2.864,0,0,0,2.7,2.182,2.949,2.949,0,0,0,2.812-2.63,3.041,3.041,0,0,0,1.209-1.209,2.817,2.817,0,0,0,0-5.622,3.037,3.037,0,0,0-1.226-1.218,3.187,3.187,0,0,0-6.156-.454,6.741,6.741,0,0,1-2.051,0,3.187,3.187,0,0,0-6.156.454,3.03,3.03,0,0,0-1.248,1.258c-1.57.445-2.609,2.236-2.609,4.657v4.866a4.706,4.706,0,0,0,2.049,4.29,10.6,10.6,0,0,1,0,4.238,4.7,4.7,0,0,0-2.05,4.29V84.69c0,2.42,1.039,4.212,2.609,4.657a3.04,3.04,0,0,0,1.23,1.249,2.818,2.818,0,0,0,5.623,0A3.041,3.041,0,0,0,276,89.387a2.947,2.947,0,0,0,2.629-2.811,2.863,2.863,0,0,0-2.181-2.7,5.1,5.1,0,0,1-.081-.93.764.764,0,0,1,.754-.754,5.174,5.174,0,0,1,.93.081,2.766,2.766,0,0,0,5.407,0,5.174,5.174,0,0,1,.93-.081.764.764,0,0,1,.754.754,5.1,5.1,0,0,1-.081.93,2.765,2.765,0,0,0,0,5.407,5.1,5.1,0,0,1,.081.93.764.764,0,0,1-.754.754,5.043,5.043,0,0,1-.93-.081,2.863,2.863,0,0,0-2.7-2.182,2.949,2.949,0,0,0-2.812,2.63,3.046,3.046,0,0,0-1.209,1.209,2.817,2.817,0,0,0,0,5.622,3.049,3.049,0,0,0,1.249,1.232c.446,1.569,2.236,2.608,4.656,2.608h2.917a2.657,2.657,0,0,0,2.519-2.132,10.01,10.01,0,0,1,2.907,0A2.654,2.654,0,0,0,293.5,102h2.915c2.42,0,4.211-1.039,4.657-2.608a3.049,3.049,0,0,0,1.249-1.232,2.817,2.817,0,0,0,0-5.622,3.041,3.041,0,0,0-1.209-1.209A2.949,2.949,0,0,0,298.3,88.7a2.863,2.863,0,0,0-2.7,2.182,5.042,5.042,0,0,1-.93.081.764.764,0,0,1-.754-.754,5.1,5.1,0,0,1,.081-.93,2.766,2.766,0,0,0,0-5.407,5.1,5.1,0,0,1-.081-.93.764.764,0,0,1,.754-.754,5.174,5.174,0,0,1,.93.081,2.766,2.766,0,0,0,5.407,0,5.174,5.174,0,0,1,.93-.081.764.764,0,0,1,.754.754,5.1,5.1,0,0,1-.081.93,2.863,2.863,0,0,0-2.182,2.7,2.947,2.947,0,0,0,2.63,2.811,3.041,3.041,0,0,0,1.209,1.209,2.818,2.818,0,0,0,5.623,0,3.041,3.041,0,0,0,1.23-1.249c1.569-.445,2.608-2.236,2.608-4.657V79.824a4.7,4.7,0,0,0-2.049-4.29,10.618,10.618,0,0,1,0-4.238,4.706,4.706,0,0,0,2.049-4.29V62.14C313.726,59.72,312.687,57.928,311.118,57.484Z" style="fill: #fff"/>
      <path d="M385.371,57.484a3.047,3.047,0,0,0-1.271-1.271c-.446-1.569-2.236-2.608-4.657-2.608h-3.573a3.339,3.339,0,0,0-3.081,2.1,8.052,8.052,0,0,1-1.713.167,7.874,7.874,0,0,1-1.791-.184c-.74-1.323-2.683-2.079-5.5-2.079s-4.764.756-5.5,2.079a7.874,7.874,0,0,1-1.791.184,8.046,8.046,0,0,1-1.713-.167,3.34,3.34,0,0,0-3.082-2.1h-3.573c-2.42,0-4.21,1.039-4.656,2.608a3.05,3.05,0,0,0-1.271,1.271c-1.57.445-2.609,2.236-2.609,4.657v3.574a3.338,3.338,0,0,0,2.1,3.08,8.065,8.065,0,0,1,.167,1.713,7.808,7.808,0,0,1-.185,1.79c-1.322.74-2.079,2.684-2.079,5.505s.756,4.764,2.079,5.5a7.813,7.813,0,0,1,.185,1.791,8.049,8.049,0,0,1-.167,1.712,3.341,3.341,0,0,0-2.1,3.082v3.573c0,2.42,1.039,4.212,2.609,4.657a3.04,3.04,0,0,0,1.23,1.249,2.818,2.818,0,0,0,5.623,0,3.035,3.035,0,0,0,1.218-1.227,3.187,3.187,0,0,0,.452-6.155,5.579,5.579,0,0,1,0-2.051,3.175,3.175,0,0,0-.006-6.024,5.048,5.048,0,0,1-.089-.971.764.764,0,0,1,.754-.754,5.043,5.043,0,0,1,.97.088,3.174,3.174,0,0,0,6.023.007,6.647,6.647,0,0,1,2.051,0,3.175,3.175,0,0,0,6.025-.007,5.042,5.042,0,0,1,.97-.088.764.764,0,0,1,.754.754,5.014,5.014,0,0,1-.089.969,3.176,3.176,0,0,0-.006,6.025,5.579,5.579,0,0,1,0,2.051A3.242,3.242,0,0,0,365.9,95a3.275,3.275,0,0,0,2.622,3.145,3.035,3.035,0,0,0,1.235,1.235,3.187,3.187,0,0,0,6.156.454,6.739,6.739,0,0,1,2.051,0,3.187,3.187,0,0,0,6.156-.454,3.037,3.037,0,0,0,1.226-1.218,2.817,2.817,0,0,0,0-5.622,3.041,3.041,0,0,0-1.209-1.209,2.949,2.949,0,0,0-2.812-2.63,2.863,2.863,0,0,0-2.7,2.182,5.043,5.043,0,0,1-.93.081.764.764,0,0,1-.754-.754,5.1,5.1,0,0,1,.081-.93,2.766,2.766,0,0,0,0-5.407,5.1,5.1,0,0,1-.081-.93.764.764,0,0,1,.754-.754,5.174,5.174,0,0,1,.93.081,2.864,2.864,0,0,0,2.7,2.182,2.949,2.949,0,0,0,2.812-2.63,3.04,3.04,0,0,0,1.23-1.249c1.569-.446,2.608-2.236,2.608-4.655V73a2.655,2.655,0,0,0-2.131-2.519,8.12,8.12,0,0,1,0-2.907,2.654,2.654,0,0,0,2.131-2.518V62.14C387.979,59.72,386.94,57.93,385.371,57.484Zm-8.51,14.249a5.1,5.1,0,0,1,.081.93.764.764,0,0,1-.754.754,4.918,4.918,0,0,1-1.032-.1c-.634-1.317-2.3-2.161-4.487-2.161h-2.916a2.655,2.655,0,0,0-2.519,2.132,10.01,10.01,0,0,1-2.907,0,2.657,2.657,0,0,0-2.519-2.132h-2.915c-2.182,0-3.852.844-4.486,2.161a4.918,4.918,0,0,1-1.032.1.764.764,0,0,1-.754-.754,5.1,5.1,0,0,1,.081-.93,2.766,2.766,0,0,0,0-5.407,5.1,5.1,0,0,1-.081-.93.764.764,0,0,1,.754-.754,4.918,4.918,0,0,1,1.032.1c.634,1.317,2.3,2.161,4.486,2.161h2.915a2.657,2.657,0,0,0,2.519-2.132,10.01,10.01,0,0,1,2.907,0,2.655,2.655,0,0,0,2.519,2.132h2.916c2.183,0,3.852-.844,4.487-2.161a4.918,4.918,0,0,1,1.032-.1.764.764,0,0,1,.754.754,5.1,5.1,0,0,1-.081.93,2.765,2.765,0,0,0,0,5.407Z" style="fill: #fff"/>
      <path d="M438.376,57.484a3.047,3.047,0,0,0-1.271-1.271c-.446-1.569-2.236-2.608-4.657-2.608h-3.573a3.339,3.339,0,0,0-3.081,2.1,8.052,8.052,0,0,1-1.713.167,7.874,7.874,0,0,1-1.791-.184c-.74-1.323-2.683-2.079-5.5-2.079s-4.764.756-5.5,2.079a7.874,7.874,0,0,1-1.791.184,8.046,8.046,0,0,1-1.713-.167,3.34,3.34,0,0,0-3.082-2.1h-3.573c-2.42,0-4.21,1.039-4.656,2.608a3.05,3.05,0,0,0-1.271,1.271c-1.57.445-2.609,2.236-2.609,4.657v3.574a3.338,3.338,0,0,0,2.1,3.08,8.065,8.065,0,0,1,.167,1.713,7.808,7.808,0,0,1-.185,1.79c-1.322.74-2.079,2.684-2.079,5.505s.756,4.764,2.079,5.5a7.813,7.813,0,0,1,.185,1.791,8.049,8.049,0,0,1-.167,1.712,3.341,3.341,0,0,0-2.1,3.082v3.573c0,2.42,1.039,4.212,2.609,4.657a3.051,3.051,0,0,0,1.271,1.271c.446,1.569,2.236,2.608,4.656,2.608H404.7a3.34,3.34,0,0,0,3.082-2.1,8.05,8.05,0,0,1,1.713-.166,7.874,7.874,0,0,1,1.791.184c.74,1.323,2.683,2.079,5.5,2.079s4.763-.756,5.5-2.079a7.874,7.874,0,0,1,1.791-.184,8.056,8.056,0,0,1,1.713.166,3.339,3.339,0,0,0,3.081,2.1h3.573c2.42,0,4.211-1.039,4.657-2.608a3.047,3.047,0,0,0,1.271-1.271c1.569-.445,2.608-2.236,2.608-4.657V89.892a3.342,3.342,0,0,0-2.1-3.082,8.054,8.054,0,0,1-.167-1.713,7.885,7.885,0,0,1,.184-1.791c1.323-.74,2.079-2.683,2.079-5.5s-.756-4.763-2.078-5.5a7.813,7.813,0,0,1-.185-1.791,8.049,8.049,0,0,1,.167-1.712,3.338,3.338,0,0,0,2.1-3.08V62.14C440.984,59.72,439.945,57.928,438.376,57.484Zm-8.56,18.865a8.121,8.121,0,0,1,0,2.907,2.655,2.655,0,0,0-2.132,2.519V84.69c0,2.182.845,3.852,2.161,4.487a4.965,4.965,0,0,1,.1,1.031.764.764,0,0,1-.754.754,4.923,4.923,0,0,1-1.032-.1c-.633-1.316-2.3-2.161-4.487-2.161h-2.916a2.657,2.657,0,0,0-2.519,2.132,10.01,10.01,0,0,1-2.907,0,2.657,2.657,0,0,0-2.519-2.132H409.9c-2.182,0-3.852.846-4.486,2.161a4.923,4.923,0,0,1-1.032.1.764.764,0,0,1-.754-.754,4.981,4.981,0,0,1,.1-1.033c1.315-.633,2.16-2.3,2.16-4.486V81.775a2.655,2.655,0,0,0-2.131-2.519,8.121,8.121,0,0,1,0-2.907,2.654,2.654,0,0,0,2.131-2.518V70.914c0-2.182-.845-3.852-2.16-4.486a4.981,4.981,0,0,1-.1-1.033.764.764,0,0,1,.754-.754,5.168,5.168,0,0,1,.93.081,2.765,2.765,0,0,0,5.405,0,5.169,5.169,0,0,1,.93-.081.764.764,0,0,1,.754.754,5.1,5.1,0,0,1-.081.93,2.863,2.863,0,0,0-2.182,2.7,2.947,2.947,0,0,0,2.63,2.811,3.041,3.041,0,0,0,1.209,1.209,2.818,2.818,0,0,0,5.623,0,3.041,3.041,0,0,0,1.209-1.209,2.947,2.947,0,0,0,2.63-2.811,2.863,2.863,0,0,0-2.182-2.7,5.1,5.1,0,0,1-.081-.93.764.764,0,0,1,.754-.754,5.169,5.169,0,0,1,.93.081,2.766,2.766,0,0,0,5.407,0,5.168,5.168,0,0,1,.93-.081.764.764,0,0,1,.754.754,4.966,4.966,0,0,1-.1,1.031c-1.316.635-2.161,2.305-2.161,4.487v2.917A2.654,2.654,0,0,0,429.816,76.349Z" style="fill: #fff"/>
      <path d="M491.381,57.484a3.046,3.046,0,0,0-1.271-1.271c-.446-1.569-2.236-2.608-4.657-2.608h-3.573a3.339,3.339,0,0,0-3.081,2.1,8.052,8.052,0,0,1-1.713.167,7.874,7.874,0,0,1-1.791-.184c-.74-1.323-2.683-2.079-5.5-2.079s-4.764.756-5.5,2.079a7.874,7.874,0,0,1-1.791.184,8.046,8.046,0,0,1-1.713-.167,3.339,3.339,0,0,0-3.081-2.1H454.13c-2.42,0-4.211,1.039-4.657,2.608a3.046,3.046,0,0,0-1.271,1.271c-1.569.445-2.608,2.236-2.608,4.657v3.574a3.34,3.34,0,0,0,2.1,3.08,8.065,8.065,0,0,1,.167,1.713,7.833,7.833,0,0,1-.185,1.791c-1.322.74-2.078,2.683-2.078,5.5s.756,4.763,2.078,5.5a7.838,7.838,0,0,1,.185,1.793,8.038,8.038,0,0,1-.167,1.712,3.341,3.341,0,0,0-2.1,3.082v3.573c0,2.42,1.039,4.212,2.608,4.657a3.04,3.04,0,0,0,1.23,1.249,2.818,2.818,0,0,0,5.623,0,3.038,3.038,0,0,0,1.218-1.226,3.187,3.187,0,0,0,.453-6.156,5.579,5.579,0,0,1,0-2.051,3.176,3.176,0,0,0-.006-6.025,5.019,5.019,0,0,1-.089-.969.764.764,0,0,1,.754-.754,4.917,4.917,0,0,1,1.032.1c.634,1.317,2.3,2.161,4.486,2.161h2.916a2.657,2.657,0,0,0,2.52-2.132,10.006,10.006,0,0,1,2.907,0,2.654,2.654,0,0,0,2.518,2.132h2.915c2.183,0,3.852-.844,4.487-2.161a4.917,4.917,0,0,1,1.032-.1.764.764,0,0,1,.754.754,5.019,5.019,0,0,1-.089.969,3.176,3.176,0,0,0-.006,6.025,5.579,5.579,0,0,1,0,2.051,3.187,3.187,0,0,0,.453,6.156,3.038,3.038,0,0,0,1.218,1.226,2.818,2.818,0,0,0,5.623,0,3.04,3.04,0,0,0,1.23-1.249c1.569-.445,2.608-2.236,2.608-4.657V89.892a3.341,3.341,0,0,0-2.1-3.082,8.054,8.054,0,0,1-.167-1.713,7.885,7.885,0,0,1,.184-1.791c1.323-.74,2.079-2.683,2.079-5.5s-.756-4.763-2.078-5.5a7.813,7.813,0,0,1-.185-1.791,8.049,8.049,0,0,1,.167-1.712,3.338,3.338,0,0,0,2.1-3.08V62.14C493.989,59.72,492.95,57.928,491.381,57.484ZM465.323,71.732a5.1,5.1,0,0,1,.081.93.764.764,0,0,1-.754.754,5.175,5.175,0,0,1-.93-.081,2.765,2.765,0,0,0-5.405,0,5.174,5.174,0,0,1-.93.081.764.764,0,0,1-.754-.754,5.1,5.1,0,0,1,.081-.93,2.766,2.766,0,0,0,0-5.407,5.1,5.1,0,0,1-.081-.93.764.764,0,0,1,.754-.754,5.168,5.168,0,0,1,.93.081,2.765,2.765,0,0,0,5.405,0,5.169,5.169,0,0,1,.93-.081.764.764,0,0,1,.754.754,5.1,5.1,0,0,1-.081.93,2.766,2.766,0,0,0,0,5.407Zm17.548,0a5.1,5.1,0,0,1,.081.93.764.764,0,0,1-.754.754,5.174,5.174,0,0,1-.93-.081,2.766,2.766,0,0,0-5.407,0,5.176,5.176,0,0,1-.93.081.764.764,0,0,1-.754-.754,5.1,5.1,0,0,1,.081-.93,2.766,2.766,0,0,0,0-5.407,5.1,5.1,0,0,1-.081-.93.764.764,0,0,1,.754-.754,5.169,5.169,0,0,1,.93.081,2.766,2.766,0,0,0,5.407,0,5.168,5.168,0,0,1,.93-.081.764.764,0,0,1,.754.754,5.1,5.1,0,0,1-.081.93,2.766,2.766,0,0,0,0,5.407Z" style="fill: #fff"/>
      <path d="M544.386,57.484a3.046,3.046,0,0,0-1.271-1.271c-.446-1.569-2.236-2.608-4.657-2.608h-2.916a2.655,2.655,0,0,0-2.519,2.132,10.009,10.009,0,0,1-2.907,0A2.657,2.657,0,0,0,527.6,53.6h-2.915c-2.42,0-4.21,1.039-4.656,2.608a3.048,3.048,0,0,0-1.249,1.232,2.946,2.946,0,0,0-2.63,2.811,2.863,2.863,0,0,0,2.182,2.7,5.1,5.1,0,0,1,.081.93.764.764,0,0,1-.754.754,5.169,5.169,0,0,1-.93-.081,2.766,2.766,0,0,0-5.407,0,5.168,5.168,0,0,1-.93.081.764.764,0,0,1-.754-.754,5.1,5.1,0,0,1,.081-.93,2.863,2.863,0,0,0,2.182-2.7,2.947,2.947,0,0,0-2.63-2.811,3.041,3.041,0,0,0-1.209-1.209,2.818,2.818,0,0,0-5.623,0,3.04,3.04,0,0,0-1.23,1.249c-1.569.445-2.608,2.236-2.608,4.657v3.574a3.338,3.338,0,0,0,2.1,3.08,8.065,8.065,0,0,1,.167,1.713,7.859,7.859,0,0,1-.184,1.79c-1.323.741-2.079,2.684-2.079,5.505s.756,4.763,2.078,5.5a7.813,7.813,0,0,1,.185,1.791,8.112,8.112,0,0,1-.166,1.712,3.34,3.34,0,0,0-2.1,3.082v3.573c0,2.42,1.039,4.212,2.608,4.657a3.047,3.047,0,0,0,1.271,1.271c.446,1.569,2.236,2.608,4.657,2.608h3.573a3.339,3.339,0,0,0,3.081-2.1,8.051,8.051,0,0,1,1.713-.166,7.874,7.874,0,0,1,1.791.184c.74,1.323,2.683,2.079,5.5,2.079s4.764-.756,5.5-2.079a7.874,7.874,0,0,1,1.791-.184,8.056,8.056,0,0,1,1.713.166,3.339,3.339,0,0,0,3.081,2.1h3.573c2.42,0,4.211-1.039,4.657-2.608a3.047,3.047,0,0,0,1.271-1.271c1.57-.445,2.609-2.236,2.609-4.657V89.892a3.34,3.34,0,0,0-2.1-3.082,8.065,8.065,0,0,1-.167-1.713,7.859,7.859,0,0,1,.184-1.79C546.239,82.566,547,80.623,547,77.8s-.756-4.764-2.079-5.5a7.813,7.813,0,0,1-.185-1.791,8.049,8.049,0,0,1,.167-1.712,3.339,3.339,0,0,0,2.1-3.08V62.14C547,59.72,545.956,57.928,544.386,57.484Zm-8.56,18.865a8.121,8.121,0,0,1,0,2.907,2.655,2.655,0,0,0-2.131,2.519V84.69c0,2.182.844,3.852,2.16,4.487a4.965,4.965,0,0,1,.1,1.031.764.764,0,0,1-.754.754,4.923,4.923,0,0,1-1.032-.1c-.633-1.316-2.3-2.161-4.487-2.161h-2.915a2.655,2.655,0,0,0-2.518,2.132,10.01,10.01,0,0,1-2.907,0,2.657,2.657,0,0,0-2.52-2.132h-2.916c-2.182,0-3.852.846-4.486,2.161a4.923,4.923,0,0,1-1.032.1.764.764,0,0,1-.754-.754,5.019,5.019,0,0,1,.089-.969,3.176,3.176,0,0,0,.006-6.025,5.579,5.579,0,0,1,0-2.051,3.175,3.175,0,0,0-.006-6.024,5.019,5.019,0,0,1-.089-.969.764.764,0,0,1,.754-.754,5.048,5.048,0,0,1,.97.088,3.175,3.175,0,0,0,6.025.007,6.647,6.647,0,0,1,2.051,0,3.187,3.187,0,0,0,6.156-.454,3.037,3.037,0,0,0,1.226-1.218,2.947,2.947,0,0,0,2.629-2.811,2.865,2.865,0,0,0-2.181-2.7,5.1,5.1,0,0,1-.081-.93.764.764,0,0,1,.754-.754,5.169,5.169,0,0,1,.93.081,2.765,2.765,0,0,0,5.405,0,5.168,5.168,0,0,1,.93-.081.764.764,0,0,1,.754.754,4.966,4.966,0,0,1-.1,1.031c-1.316.635-2.16,2.305-2.16,4.487v2.917A2.654,2.654,0,0,0,535.826,76.349Z" style="fill: #fff"/>
      <path d="M597.392,75.032a3.047,3.047,0,0,0-1.271-1.271c-.446-1.569-2.236-2.607-4.657-2.607H586.6A4.7,4.7,0,0,0,582.31,73.2a10.625,10.625,0,0,1-4.24,0,4.7,4.7,0,0,0-4.291-2.049h-4.867c-2.182,0-3.852.844-4.486,2.161a4.918,4.918,0,0,1-1.032.1.764.764,0,0,1-.754-.754,5.1,5.1,0,0,1,.081-.93,2.766,2.766,0,0,0,0-5.407,5.1,5.1,0,0,1-.081-.93.764.764,0,0,1,.754-.754,4.918,4.918,0,0,1,1.032.1c.634,1.317,2.3,2.161,4.486,2.161h4.866a4.7,4.7,0,0,0,4.29-2.049,10.625,10.625,0,0,1,4.24,0A4.7,4.7,0,0,0,586.6,66.9h4.867c2.421,0,4.212-1.039,4.657-2.608a3.049,3.049,0,0,0,1.249-1.232,2.817,2.817,0,0,0,0-5.622,3.048,3.048,0,0,0-1.249-1.232c-.446-1.569-2.236-2.608-4.657-2.608h-3.574a3.339,3.339,0,0,0-3.081,2.1,8.051,8.051,0,0,1-1.713.167,7.874,7.874,0,0,1-1.791-.184c-.74-1.323-2.683-2.079-5.5-2.079s-4.763.756-5.5,2.079a7.874,7.874,0,0,1-1.791.184,8.046,8.046,0,0,1-1.713-.167,3.339,3.339,0,0,0-3.081-2.1h-3.573c-2.42,0-4.211,1.039-4.657,2.608a3.047,3.047,0,0,0-1.271,1.271c-1.569.446-2.608,2.236-2.608,4.657v2.917a2.654,2.654,0,0,0,2.131,2.518,8.12,8.12,0,0,1,0,2.907A2.655,2.655,0,0,0,551.6,73v2.917c0,2.419,1.039,4.21,2.608,4.655a3.047,3.047,0,0,0,1.271,1.271c.446,1.569,2.236,2.608,4.657,2.608h4.866a4.7,4.7,0,0,0,4.289-2.049,10.625,10.625,0,0,1,4.24,0,4.7,4.7,0,0,0,4.289,2.049h4.867c2.182,0,3.853-.844,4.487-2.161a4.918,4.918,0,0,1,1.032-.1.764.764,0,0,1,.754.754,5.1,5.1,0,0,1-.081.93,2.765,2.765,0,0,0,0,5.407,5.1,5.1,0,0,1,.081.93.764.764,0,0,1-.754.754,4.918,4.918,0,0,1-1.032-.1c-.634-1.316-2.3-2.161-4.487-2.161h-4.866a4.7,4.7,0,0,0-4.289,2.049,10.622,10.622,0,0,1-4.239,0,4.7,4.7,0,0,0-4.29-2.049h-4.867c-2.42,0-4.211,1.039-4.657,2.608a3.048,3.048,0,0,0-1.249,1.232,2.817,2.817,0,0,0,0,5.622,3.049,3.049,0,0,0,1.249,1.232c.446,1.569,2.236,2.608,4.657,2.608h3.574a3.34,3.34,0,0,0,3.082-2.1,8.051,8.051,0,0,1,1.713-.166,7.874,7.874,0,0,1,1.791.184c.74,1.323,2.683,2.079,5.5,2.079s4.764-.756,5.5-2.079a7.874,7.874,0,0,1,1.791-.184,8.056,8.056,0,0,1,1.713.166,3.339,3.339,0,0,0,3.08,2.1h3.573c2.421,0,4.212-1.039,4.657-2.608a3.047,3.047,0,0,0,1.271-1.271c1.569-.446,2.608-2.236,2.608-4.657V90.549a2.655,2.655,0,0,0-2.131-2.519,8.121,8.121,0,0,1,0-2.907A2.655,2.655,0,0,0,600,82.6V79.689C600,77.268,598.961,75.478,597.392,75.032Z" style="fill: #fff"/>
    </g>
  </g>
</svg>
