<?xml version="1.0" encoding="utf-8"?>
<svg version="1.1" id="Layer_1" xmlns="http://www.w3.org/2000/svg" xmlns:xlink="http://www.w3.org/1999/xlink" x="0px" y="0px"
	 viewBox="0 0 286 298.73" style="enable-background:new 0 0 286 298.73;" xml:space="preserve">
<style type="text/css">
	.st0{fill:#BCA580;}
	.st1{fill:#1E1E1C;}
</style>
<g>
	<path class="st0" d="M131.78,51.06c-0.59-1.12-1.51-2.05-2.64-2.64c-0.93-3.26-4.64-5.42-9.67-5.42h-7.42
		c-2.88,0-5.36,1.8-6.4,4.35c-0.79,0.18-2.01,0.35-3.56,0.35c-1.66,0-2.94-0.19-3.72-0.38C96.84,44.57,92.8,43,86.94,43
		c-5.86,0-9.89,1.57-11.43,4.32c-0.78,0.19-2.06,0.38-3.72,0.38c-1.55,0-2.76-0.17-3.56-0.35C67.19,44.8,64.72,43,61.84,43h-7.42
		c-5.03,0-8.75,2.16-9.67,5.42c-1.12,0.59-2.05,1.52-2.64,2.64c-3.26,0.92-5.42,4.64-5.42,9.67v7.42c0,2.88,1.8,5.36,4.35,6.4
		c0.18,0.79,0.35,2.01,0.35,3.56c0,1.66-0.19,2.94-0.38,3.72c-2.75,1.54-4.32,5.57-4.32,11.43c0,5.86,1.57,9.89,4.32,11.43
		c0.19,0.79,0.38,2.07,0.38,3.72c0,1.54-0.17,2.76-0.35,3.56c-2.55,1.04-4.35,3.52-4.35,6.4v7.42c0,5.03,2.16,8.75,5.42,9.67
		c0.59,1.12,1.51,2.05,2.64,2.64c0.93,3.26,4.64,5.42,9.67,5.42h7.42c2.88,0,5.36-1.8,6.4-4.35c0.79-0.18,2.01-0.35,3.56-0.35
		c1.66,0,2.94,0.19,3.72,0.38c1.54,2.75,5.57,4.32,11.43,4.32c5.86,0,9.89-1.57,11.43-4.32c0.78-0.19,2.06-0.38,3.72-0.38
		c1.54,0,2.76,0.17,3.56,0.35c1.04,2.55,3.52,4.35,6.4,4.35h7.42c5.03,0,8.75-2.16,9.67-5.42c1.12-0.59,2.05-1.52,2.64-2.64
		c3.26-0.92,5.42-4.64,5.42-9.67v-7.42c0-2.88-1.8-5.36-4.36-6.4c-0.18-0.8-0.35-2.01-0.35-3.56c0-1.66,0.19-2.93,0.38-3.72
		c2.75-1.54,4.32-5.57,4.32-11.43s-1.57-9.89-4.32-11.43c-0.19-0.78-0.38-2.06-0.38-3.72c0-1.54,0.17-2.76,0.35-3.56
		c2.55-1.04,4.36-3.52,4.36-6.4v-7.42C137.2,55.7,135.04,51.98,131.78,51.06z M135.49,68.15c0,2.11-1.29,4-3.29,4.82
		c-0.52,0.21-0.9,0.66-1.02,1.21c-0.18,0.79-0.39,2.11-0.39,3.93c0,2.05,0.27,3.46,0.43,4.13c0.11,0.46,0.41,0.86,0.83,1.09
		c2.19,1.22,3.44,4.85,3.44,9.94c0,5.09-1.26,8.71-3.44,9.94c-0.42,0.23-0.71,0.63-0.83,1.09c-0.16,0.66-0.43,2.08-0.43,4.12
		c0,1.82,0.21,3.14,0.39,3.93c0.12,0.55,0.51,1,1.02,1.21c2,0.81,3.29,2.7,3.29,4.81v7.42c0,4.16-1.64,7.31-4.17,8.02
		c-0.45,0.13-0.83,0.43-1.05,0.85c-0.43,0.82-1.1,1.49-1.92,1.93c-0.41,0.22-0.72,0.6-0.85,1.05c-0.72,2.53-3.87,4.17-8.03,4.17
		h-7.42c-2.11,0-4-1.29-4.81-3.29c-0.21-0.52-0.66-0.9-1.21-1.02c-0.79-0.18-2.11-0.39-3.93-0.39c-2.04,0-3.46,0.27-4.12,0.43
		c-0.46,0.11-0.86,0.41-1.09,0.83c-1.22,2.19-4.85,3.44-9.94,3.44c-5.09,0-8.71-1.25-9.94-3.44c-0.23-0.42-0.63-0.72-1.09-0.83
		c-0.67-0.16-2.08-0.43-4.12-0.43c-1.82,0-3.14,0.21-3.93,0.39c-0.55,0.12-1,0.5-1.21,1.02c-0.81,2-2.7,3.29-4.81,3.29h-7.42
		c-4.16,0-7.31-1.64-8.03-4.17c-0.13-0.45-0.43-0.83-0.85-1.05c-0.82-0.43-1.49-1.1-1.92-1.93c-0.22-0.41-0.6-0.72-1.05-0.85
		c-2.53-0.72-4.17-3.87-4.17-8.02v-7.42c0-2.11,1.29-4,3.29-4.81c0.52-0.21,0.9-0.66,1.02-1.21c0.18-0.79,0.39-2.12,0.39-3.93
		c0-2.04-0.27-3.46-0.43-4.12c-0.11-0.46-0.41-0.86-0.83-1.09c-2.19-1.22-3.44-4.84-3.44-9.94c0-5.09,1.25-8.71,3.44-9.94
		c0.41-0.23,0.71-0.63,0.83-1.09c0.16-0.66,0.43-2.08,0.43-4.13c0-1.42-0.14-2.81-0.39-3.93c-0.12-0.55-0.5-1-1.02-1.21
		c-2-0.82-3.29-2.71-3.29-4.82v-7.42c0-4.16,1.64-7.31,4.17-8.03c0.45-0.13,0.83-0.43,1.05-0.85c0.43-0.82,1.1-1.49,1.92-1.93
		c0.41-0.22,0.72-0.6,0.85-1.05c0.72-2.53,3.87-4.17,8.03-4.17h7.42c2.11,0,4,1.29,4.81,3.29c0.21,0.52,0.66,0.9,1.21,1.02
		c0.79,0.18,2.11,0.39,3.93,0.39c2.04,0,3.46-0.27,4.12-0.43c0.46-0.11,0.86-0.41,1.09-0.83c1.22-2.19,4.85-3.44,9.94-3.44
		c5.09,0,8.71,1.25,9.94,3.44c0.23,0.42,0.63,0.72,1.09,0.83c0.66,0.16,2.08,0.43,4.12,0.43c1.82,0,3.14-0.21,3.93-0.39
		c0.55-0.12,1-0.5,1.21-1.02c0.81-2,2.7-3.29,4.81-3.29h7.42c4.16,0,7.31,1.64,8.03,4.17c0.13,0.45,0.43,0.83,0.85,1.05
		c0.82,0.43,1.49,1.1,1.92,1.93c0.22,0.41,0.6,0.72,1.05,0.85c2.54,0.72,4.17,3.87,4.17,8.03V68.15z"/>
	<path class="st0" d="M114.81,71.17c0.47-0.23,0.82-0.66,0.93-1.18c0.11-0.53,0.25-1.39,0.25-2.5c0-1.81-1.47-3.28-3.28-3.28
		c-0.79,0-1.57,0.07-2.25,0.2c-0.62,0.12-1.13,0.57-1.32,1.18c-0.62,2.05-2.15,3.32-3.98,3.32c-1.83,0-3.35-1.27-3.98-3.32
		c-0.19-0.61-0.69-1.06-1.32-1.18c-0.68-0.13-1.46-0.2-2.25-0.2c-1.81,0-3.28,1.47-3.28,3.28c0,0.79,0.07,1.55,0.2,2.25
		c0.12,0.63,0.57,1.14,1.18,1.32c2.05,0.62,3.32,2.15,3.32,3.98c0,2.04-1.63,3.71-4.06,4.15c-0.51,0.09-0.95,0.41-1.2,0.86
		c-0.42,0.78-1.06,1.41-1.83,1.83c-0.45,0.25-0.77,0.69-0.86,1.2c-0.44,2.43-2.11,4.06-4.15,4.06s-3.72-1.63-4.15-4.06
		c-0.09-0.51-0.41-0.95-0.86-1.2c-0.77-0.42-1.41-1.06-1.83-1.83c-0.25-0.45-0.69-0.77-1.2-0.86c-2.43-0.44-4.05-2.11-4.05-4.15
		c0-1.83,1.27-3.35,3.32-3.98c0.61-0.19,1.07-0.69,1.18-1.32c0.13-0.7,0.2-1.45,0.2-2.25c0-1.81-1.47-3.28-3.28-3.28
		c-0.79,0-1.57,0.07-2.25,0.2c-0.62,0.12-1.13,0.57-1.32,1.18c-0.62,2.05-2.15,3.32-3.98,3.32c-1.83,0-3.35-1.27-3.98-3.32
		c-0.19-0.61-0.69-1.06-1.32-1.18c-0.68-0.13-1.46-0.2-2.25-0.2c-1.81,0-3.28,1.47-3.28,3.28c0,1.11,0.14,1.98,0.25,2.5
		c0.11,0.52,0.45,0.95,0.93,1.18c2.17,1.05,3.52,4.03,3.52,7.78V85c0,1.31-0.83,2.94-3.17,3.58c-0.62,0.17-1.1,0.68-1.23,1.32
		c-0.14,0.7-0.31,1.85-0.31,3.35s0.17,2.66,0.31,3.35c0.13,0.63,0.6,1.14,1.23,1.32c2.34,0.64,3.17,2.27,3.17,3.58v6.06
		c0,3.75-1.35,6.73-3.52,7.78c-0.47,0.23-0.82,0.66-0.93,1.18c-0.11,0.53-0.25,1.39-0.25,2.5c0,1.81,1.47,3.28,3.28,3.28
		c1.13,0,1.99-0.14,2.51-0.25c0.51-0.11,0.95-0.46,1.18-0.93c1.05-2.17,4.02-3.52,7.78-3.52h6.06c1.31,0,2.94,0.83,3.58,3.17
		c0.17,0.62,0.68,1.1,1.31,1.22c0.8,0.16,2.02,0.25,3.36,0.25s2.56-0.09,3.36-0.25c0.63-0.13,1.14-0.6,1.31-1.22
		c0.64-2.34,2.27-3.17,3.58-3.17h6.05c3.75,0,6.73,1.35,7.78,3.52c0.23,0.47,0.66,0.82,1.18,0.93c0.52,0.11,1.38,0.25,2.51,0.25
		c1.81,0,3.28-1.47,3.28-3.28c0-1.11-0.14-1.98-0.25-2.5c-0.11-0.52-0.45-0.95-0.93-1.18c-2.17-1.05-3.52-4.03-3.52-7.78v-6.06
		c0-1.31,0.83-2.94,3.17-3.58c0.62-0.17,1.1-0.68,1.23-1.32c0.14-0.7,0.31-1.85,0.31-3.35c0-1.51-0.17-2.66-0.31-3.35
		c-0.13-0.63-0.6-1.14-1.23-1.32c-2.34-0.64-3.17-2.27-3.17-3.58v-6.05C111.29,75.2,112.64,72.22,114.81,71.17z M114,90.23
		c0.15,0.73,0.27,1.76,0.27,3.02c0,1.26-0.13,2.29-0.27,3.02c-3.02,0.83-4.43,3.09-4.43,5.23v6.06c0,4.53,1.75,8,4.49,9.32
		c0.11,0.52,0.21,1.25,0.21,2.14c0,0.85-0.72,1.57-1.57,1.57c-0.89,0-1.63-0.1-2.14-0.21c-1.32-2.74-4.79-4.49-9.32-4.49h-6.05
		c-2.14,0-4.4,1.4-5.23,4.43c-0.73,0.15-1.87,0.22-3.02,0.22s-2.29-0.07-3.02-0.22c-0.83-3.02-3.1-4.43-5.23-4.43h-6.06
		c-4.53,0-8,1.75-9.32,4.49c-0.52,0.11-1.25,0.21-2.14,0.21c-0.85,0-1.57-0.72-1.57-1.57c0-0.89,0.1-1.62,0.21-2.14
		c2.73-1.32,4.49-4.79,4.49-9.32v-6.06c0-2.14-1.4-4.4-4.43-5.23c-0.15-0.73-0.27-1.76-0.27-3.02c0-1.26,0.13-2.29,0.27-3.02
		c3.02-0.83,4.43-3.09,4.43-5.23v-6.05c0-4.53-1.75-8-4.49-9.32c-0.11-0.52-0.21-1.25-0.21-2.14c0-0.85,0.72-1.57,1.57-1.57
		c0.78,0,1.43,0.07,1.93,0.17c0.82,2.7,2.97,4.53,5.61,4.53c2.65,0,4.79-1.83,5.61-4.53c0.5-0.09,1.15-0.17,1.93-0.17
		c0.85,0,1.57,0.72,1.57,1.57c0,0.78-0.07,1.43-0.17,1.93c-2.7,0.82-4.53,2.96-4.53,5.61c0,2.94,2.26,5.26,5.46,5.83
		c0.58,1.06,1.45,1.93,2.51,2.51c0.58,3.2,2.89,5.46,5.84,5.46s5.26-2.26,5.84-5.46c1.06-0.58,1.93-1.45,2.51-2.51
		c3.2-0.58,5.46-2.89,5.46-5.83c0-2.65-1.83-4.79-4.53-5.61c-0.09-0.5-0.17-1.15-0.17-1.93c0-0.85,0.72-1.57,1.57-1.57
		c0.78,0,1.43,0.07,1.93,0.17c0.82,2.7,2.97,4.53,5.61,4.53c2.65,0,4.79-1.83,5.61-4.53c0.5-0.09,1.16-0.17,1.93-0.17
		c0.85,0,1.57,0.72,1.57,1.57c0,0.89-0.1,1.62-0.21,2.14c-2.73,1.32-4.49,4.79-4.49,9.32V85C109.58,87.14,110.98,89.4,114,90.23z"/>
	<path class="st0" d="M243.9,87.5c-0.59-1.12-1.52-2.05-2.64-2.64c-0.93-3.26-4.65-5.41-9.67-5.41h-10.11
		c-4.19,0-7.52,1.68-8.9,4.25c-0.9,0.22-2.41,0.44-4.4,0.44s-3.51-0.23-4.4-0.44c-1.39-2.57-4.72-4.25-8.91-4.25h-10.11
		c-4.53,0-8,1.75-9.31,4.49c-0.52,0.11-1.25,0.21-2.14,0.21c-0.85,0-1.57-0.72-1.57-1.57c0-0.78,0.07-1.43,0.17-1.93
		c2.7-0.82,4.53-2.96,4.53-5.61c0-2.65-1.83-4.79-4.53-5.61c-0.09-0.5-0.17-1.15-0.17-1.93c0-0.85,0.72-1.57,1.57-1.57
		c0.89,0,1.62,0.1,2.14,0.21c1.32,2.73,4.79,4.49,9.32,4.49h10.1c4.19,0,7.52-1.68,8.91-4.26c0.9-0.22,2.41-0.44,4.4-0.44
		c1.99,0,3.5,0.23,4.4,0.44c1.39,2.57,4.71,4.26,8.91,4.26h10.11c5.03,0,8.75-2.16,9.67-5.42c1.1-0.58,2-1.47,2.59-2.56
		c3.2-0.58,5.46-2.89,5.46-5.84c0-2.94-2.26-5.26-5.46-5.84c-0.59-1.09-1.5-1.98-2.59-2.56c-0.93-3.26-4.64-5.42-9.67-5.42h-7.42
		c-2.88,0-5.36,1.8-6.4,4.35c-0.79,0.18-2.01,0.35-3.56,0.35c-1.66,0-2.94-0.19-3.72-0.38c-1.54-2.75-5.57-4.32-11.43-4.32
		c-5.86,0-9.89,1.57-11.43,4.32c-0.78,0.19-2.06,0.38-3.72,0.38c-1.55,0-2.76-0.17-3.56-0.35c-1.04-2.55-3.52-4.35-6.4-4.35h-7.42
		c-5.03,0-8.74,2.16-9.67,5.42c-1.12,0.59-2.05,1.52-2.64,2.64c-3.26,0.92-5.42,4.64-5.42,9.67v6.05c0,2.14,1.4,4.4,4.43,5.23
		c0.15,0.73,0.27,1.75,0.27,3.02c0,1.26-0.13,2.29-0.27,3.02c-3.03,0.83-4.43,3.1-4.43,5.23v6.05c0,5.03,2.16,8.75,5.42,9.67
		c0.59,1.12,1.52,2.05,2.64,2.64c0.93,3.26,4.64,5.42,9.67,5.42h10.1c4.19,0,7.52-1.68,8.91-4.26c0.9-0.22,2.41-0.44,4.4-0.44
		c1.99,0,3.5,0.23,4.4,0.44c1.39,2.58,4.71,4.26,8.91,4.26h10.11c4.53,0,8-1.75,9.32-4.49c0.52-0.11,1.25-0.21,2.14-0.21
		c0.85,0,1.57,0.72,1.57,1.57c0,0.78-0.08,1.43-0.17,1.93c-2.7,0.82-4.53,2.96-4.53,5.61s1.83,4.79,4.53,5.61
		c0.09,0.5,0.17,1.15,0.17,1.93c0,0.85-0.72,1.57-1.57,1.57c-0.89,0-1.63-0.1-2.14-0.21c-1.32-2.74-4.79-4.49-9.32-4.49h-10.11
		c-4.19,0-7.52,1.68-8.91,4.26c-0.9,0.22-2.41,0.44-4.4,0.44c-1.99,0-3.5-0.23-4.4-0.44c-1.39-2.58-4.72-4.26-8.91-4.26h-10.11
		c-5.03,0-8.74,2.16-9.67,5.42c-1.1,0.58-2,1.47-2.59,2.56c-3.2,0.58-5.46,2.89-5.46,5.84s2.26,5.26,5.46,5.84
		c0.59,1.09,1.5,1.98,2.59,2.56c0.93,3.26,4.64,5.42,9.67,5.42h7.42c2.88,0,5.36-1.8,6.4-4.35c0.79-0.18,2.01-0.35,3.56-0.35
		c1.66,0,2.94,0.19,3.72,0.38c1.54,2.75,5.57,4.32,11.43,4.32c5.86,0,9.89-1.57,11.43-4.32c0.78-0.19,2.06-0.38,3.72-0.38
		c1.54,0,2.76,0.17,3.56,0.35c1.04,2.55,3.52,4.35,6.4,4.35h7.42c5.03,0,8.75-2.16,9.67-5.42c1.12-0.59,2.05-1.52,2.64-2.64
		c3.26-0.93,5.42-4.64,5.42-9.67v-6.06c0-2.14-1.4-4.4-4.43-5.23c-0.15-0.73-0.27-1.76-0.27-3.02s0.13-2.29,0.27-3.02
		c3.02-0.83,4.43-3.09,4.43-5.23v-6.06C249.31,92.14,247.16,88.42,243.9,87.5z M247.6,103.23c0,1.31-0.83,2.94-3.17,3.58
		c-0.62,0.17-1.1,0.68-1.23,1.32c-0.14,0.7-0.31,1.85-0.31,3.35c0,1.51,0.17,2.66,0.31,3.35c0.13,0.63,0.6,1.14,1.23,1.32
		c2.34,0.64,3.17,2.27,3.17,3.58v6.06c0,4.15-1.64,7.3-4.17,8.03c-0.45,0.13-0.83,0.43-1.05,0.85c-0.43,0.82-1.1,1.49-1.92,1.93
		c-0.41,0.22-0.72,0.6-0.85,1.05c-0.72,2.53-3.87,4.17-8.03,4.17h-7.42c-2.11,0-4-1.29-4.81-3.29c-0.21-0.52-0.66-0.9-1.21-1.02
		c-0.79-0.18-2.11-0.39-3.93-0.39c-2.04,0-3.46,0.27-4.12,0.43c-0.46,0.11-0.86,0.41-1.09,0.83c-1.22,2.19-4.85,3.44-9.94,3.44
		c-5.09,0-8.71-1.25-9.94-3.44c-0.23-0.42-0.63-0.72-1.09-0.83c-0.67-0.16-2.08-0.43-4.12-0.43c-1.82,0-3.14,0.21-3.93,0.39
		c-0.55,0.12-1,0.5-1.21,1.02c-0.81,2-2.71,3.29-4.82,3.29h-7.42c-4.15,0-7.3-1.64-8.02-4.17c-0.13-0.45-0.43-0.83-0.85-1.05
		c-0.8-0.42-1.46-1.07-1.89-1.86c-0.25-0.45-0.69-0.77-1.2-0.86c-2.43-0.44-4.06-2.11-4.06-4.15c0-2.05,1.63-3.72,4.05-4.15
		c0.51-0.09,0.95-0.41,1.2-0.86c0.44-0.8,1.09-1.44,1.89-1.87c0.41-0.22,0.72-0.6,0.85-1.05c0.72-2.53,3.87-4.17,8.02-4.17h10.11
		c3.45,0,6.29,1.29,7.4,3.36c0.23,0.43,0.63,0.74,1.1,0.85c0.76,0.18,2.39,0.49,4.8,0.49c2.41,0,4.05-0.31,4.8-0.49
		c0.47-0.11,0.87-0.42,1.1-0.85c1.11-2.07,3.95-3.36,7.4-3.36h10.11c3.75,0,6.73,1.35,7.78,3.52c0.23,0.47,0.66,0.82,1.18,0.93
		c0.52,0.11,1.38,0.25,2.51,0.25c1.81,0,3.28-1.47,3.28-3.28c0-0.79-0.07-1.54-0.2-2.25c-0.12-0.63-0.57-1.14-1.18-1.32
		c-2.05-0.62-3.32-2.15-3.32-3.98c0-1.83,1.27-3.35,3.32-3.98c0.61-0.19,1.07-0.7,1.18-1.32c0.13-0.7,0.2-1.46,0.2-2.25
		c0-1.81-1.47-3.28-3.28-3.28c-1.13,0-1.99,0.14-2.51,0.25c-0.51,0.11-0.95,0.46-1.18,0.93c-1.05,2.17-4.03,3.52-7.78,3.52h-10.11
		c-3.45,0-6.29-1.29-7.4-3.36c-0.23-0.43-0.63-0.74-1.1-0.85c-0.76-0.18-2.39-0.49-4.8-0.49c-2.41,0-4.05,0.31-4.8,0.49
		c-0.47,0.11-0.87,0.42-1.1,0.85c-1.11,2.07-3.95,3.36-7.4,3.36h-10.1c-4.15,0-7.3-1.64-8.02-4.17c-0.13-0.45-0.43-0.83-0.85-1.05
		c-0.81-0.43-1.5-1.11-1.92-1.93c-0.22-0.41-0.6-0.72-1.05-0.85c-2.54-0.72-4.17-3.87-4.17-8.02v-6.05c0-1.31,0.83-2.94,3.17-3.59
		c0.62-0.17,1.1-0.68,1.22-1.31c0.14-0.7,0.31-1.84,0.31-3.35c0-1.51-0.17-2.66-0.31-3.35c-0.13-0.63-0.6-1.14-1.22-1.31
		c-2.34-0.64-3.17-2.27-3.17-3.58v-6.05c0-4.16,1.64-7.31,4.17-8.03c0.45-0.13,0.83-0.43,1.05-0.85c0.43-0.81,1.11-1.5,1.92-1.93
		c0.41-0.22,0.72-0.6,0.85-1.05c0.72-2.53,3.87-4.17,8.02-4.17h7.42c2.11,0,4,1.29,4.82,3.29c0.21,0.52,0.66,0.9,1.21,1.02
		c0.79,0.18,2.11,0.39,3.93,0.39c2.04,0,3.46-0.27,4.12-0.43c0.46-0.11,0.86-0.41,1.09-0.83c1.22-2.19,4.85-3.44,9.94-3.44
		c5.09,0,8.71,1.25,9.94,3.44c0.23,0.42,0.63,0.72,1.09,0.83c0.66,0.16,2.08,0.43,4.12,0.43c1.82,0,3.14-0.21,3.93-0.39
		c0.55-0.12,1-0.5,1.21-1.02c0.81-2,2.7-3.29,4.81-3.29h7.42c4.16,0,7.31,1.64,8.03,4.17c0.13,0.45,0.43,0.83,0.85,1.05
		c0.8,0.42,1.46,1.07,1.89,1.87c0.25,0.45,0.69,0.77,1.2,0.86c2.42,0.44,4.05,2.11,4.05,4.15s-1.63,3.72-4.05,4.15
		c-0.51,0.09-0.95,0.41-1.2,0.86c-0.44,0.8-1.09,1.44-1.89,1.86c-0.41,0.22-0.72,0.6-0.85,1.05c-0.72,2.53-3.87,4.17-8.03,4.17
		h-10.11c-3.45,0-6.29-1.29-7.4-3.36c-0.23-0.43-0.63-0.74-1.1-0.85c-0.76-0.18-2.39-0.49-4.8-0.49c-2.41,0-4.05,0.31-4.8,0.49
		c-0.47,0.11-0.87,0.42-1.1,0.85c-1.12,2.07-3.95,3.36-7.4,3.36h-10.1c-3.75,0-6.73-1.35-7.77-3.52c-0.23-0.47-0.66-0.82-1.18-0.93
		c-0.52-0.11-1.38-0.25-2.51-0.25c-1.81,0-3.28,1.47-3.28,3.28c0,0.79,0.07,1.55,0.2,2.25c0.12,0.63,0.57,1.14,1.18,1.32
		c2.05,0.63,3.32,2.15,3.32,3.98c0,1.83-1.27,3.35-3.32,3.97c-0.61,0.19-1.07,0.7-1.18,1.32c-0.13,0.7-0.2,1.46-0.2,2.25
		c0,1.81,1.47,3.28,3.28,3.28c1.13,0,1.99-0.14,2.51-0.25c0.51-0.11,0.95-0.45,1.18-0.93c1.05-2.17,4.02-3.52,7.77-3.52h10.11
		c3.45,0,6.29,1.29,7.4,3.35c0.23,0.43,0.63,0.74,1.1,0.85c0.76,0.18,2.39,0.49,4.81,0.49c2.41,0,4.05-0.31,4.81-0.49
		c0.47-0.11,0.87-0.42,1.1-0.85c1.12-2.07,3.95-3.35,7.4-3.35h10.11c4.15,0,7.3,1.64,8.03,4.17c0.13,0.45,0.43,0.83,0.85,1.04
		c0.81,0.43,1.5,1.11,1.93,1.93c0.22,0.41,0.6,0.72,1.05,0.85c2.53,0.72,4.17,3.87,4.17,8.03V103.23z"/>
	<path class="st0" d="M78.16,219.72c0.61-0.19,1.07-0.69,1.18-1.32c0.13-0.7,0.2-1.45,0.2-2.25c0-1.81-1.47-3.28-3.28-3.28
		c-0.78,0-1.53,0.07-2.24,0.2c-0.63,0.12-1.14,0.57-1.33,1.18c-0.62,2.05-2.15,3.32-3.98,3.32c-1.83,0-3.35-1.27-3.98-3.32
		c-0.19-0.61-0.7-1.07-1.33-1.18c-0.71-0.13-1.46-0.2-2.24-0.2c-1.81,0-3.28,1.47-3.28,3.28c0,0.79,0.07,1.55,0.2,2.25
		c0.12,0.63,0.57,1.14,1.18,1.32c2.05,0.62,3.32,2.15,3.32,3.98c0,1.83-1.27,3.35-3.32,3.98c-0.61,0.19-1.07,0.69-1.18,1.32
		c-0.13,0.7-0.2,1.46-0.2,2.25c0,1.81,1.47,3.28,3.28,3.28c0.79,0,1.57-0.07,2.25-0.2c0.62-0.12,1.13-0.57,1.32-1.18
		c0.62-2.05,2.15-3.32,3.98-3.32c1.83,0,3.35,1.27,3.98,3.32c0.19,0.61,0.69,1.06,1.32,1.18c0.68,0.13,1.46,0.2,2.25,0.2
		c1.81,0,3.28-1.47,3.28-3.28c0-0.79-0.07-1.55-0.2-2.25c-0.12-0.63-0.57-1.14-1.18-1.32c-2.05-0.62-3.32-2.15-3.32-3.98
		C74.84,221.87,76.12,220.34,78.16,219.72z M73.13,223.7c0,2.65,1.83,4.79,4.53,5.61c0.09,0.5,0.17,1.15,0.17,1.93
		c0,0.85-0.72,1.57-1.57,1.57c-0.78,0-1.43-0.07-1.93-0.17c-0.82-2.7-2.97-4.53-5.61-4.53c-2.65,0-4.79,1.83-5.61,4.53
		c-0.5,0.09-1.16,0.17-1.93,0.17c-0.85,0-1.57-0.72-1.57-1.57c0-0.78,0.07-1.43,0.17-1.93c2.7-0.82,4.53-2.96,4.53-5.61
		c0-2.65-1.83-4.79-4.53-5.61c-0.09-0.5-0.17-1.15-0.17-1.93c0-0.85,0.72-1.57,1.57-1.57c0.78,0,1.43,0.08,1.93,0.17
		c0.82,2.7,2.97,4.53,5.61,4.53c2.65,0,4.79-1.83,5.61-4.53c0.5-0.09,1.15-0.17,1.93-0.17c0.85,0,1.57,0.72,1.57,1.57
		c0,0.78-0.07,1.43-0.17,1.93C74.96,218.9,73.13,221.05,73.13,223.7z"/>
	<path class="st0" d="M131.78,199.72c-0.58-1.1-1.47-2-2.55-2.59c-0.58-3.2-2.9-5.46-5.84-5.46c-2.94,0-5.26,2.26-5.84,5.46
		c-1.07,0.58-1.95,1.47-2.53,2.55c-3.11,0.69-5.44,3.36-5.44,6.53c0,2.84,1.87,5.28,4.5,6.25c0.11,0.53,0.2,1.26,0.2,2.13
		c0,0.87-0.09,1.6-0.2,2.13c-2.63,0.97-4.5,3.41-4.5,6.25c0,2.85,1.88,5.28,4.51,6.26c0.1,0.5,0.19,1.19,0.19,2.01
		c0,0.85-0.72,1.57-1.57,1.57c-0.78,0-1.43-0.07-1.93-0.17c-0.82-2.7-2.97-4.53-5.61-4.53c-2.65,0-4.79,1.83-5.61,4.53
		c-0.5,0.09-1.15,0.17-1.93,0.17c-0.85,0-1.57-0.72-1.57-1.57c0-0.89,0.1-1.62,0.21-2.14c2.74-1.32,4.49-4.79,4.49-9.32v-10.11
		c0-4.19-1.68-7.52-4.26-8.91c-0.22-0.9-0.44-2.41-0.44-4.4c0-1.99,0.23-3.51,0.44-4.4c2.58-1.39,4.26-4.71,4.26-8.91v-10.11
		c0-5.03-2.16-8.75-5.42-9.67c-0.59-1.12-1.51-2.05-2.64-2.64c-0.93-3.26-4.64-5.42-9.67-5.42h-6.05c-2.14,0-4.4,1.4-5.23,4.43
		c-0.73,0.15-1.87,0.22-3.02,0.22s-2.29-0.07-3.02-0.22c-0.83-3.02-3.1-4.43-5.23-4.43h-6.06c-5.03,0-8.75,2.16-9.67,5.42
		c-1.12,0.59-2.05,1.52-2.64,2.64c-3.26,0.92-5.42,4.64-5.42,9.67v7.42c0,2.88,1.8,5.36,4.35,6.4c0.18,0.8,0.35,2.01,0.35,3.56
		c0,1.66-0.19,2.93-0.38,3.72c-2.75,1.54-4.32,5.57-4.32,11.43c0,5.86,1.57,9.89,4.32,11.43c0.19,0.78,0.38,2.06,0.38,3.72
		c0,1.54-0.17,2.76-0.34,3.56c-2.55,1.04-4.36,3.52-4.36,6.4V238c0,5.03,2.16,8.75,5.42,9.67c0.59,1.12,1.51,2.05,2.64,2.64
		c0.93,3.26,4.64,5.42,9.67,5.42h7.42c2.88,0,5.36-1.8,6.4-4.35c0.79-0.18,2.01-0.35,3.56-0.35c1.66,0,2.94,0.19,3.72,0.38
		c1.54,2.75,5.57,4.32,11.43,4.32c5.86,0,9.89-1.57,11.43-4.32c0.78-0.19,2.06-0.38,3.72-0.38c1.54,0,2.76,0.17,3.56,0.35
		c1.04,2.55,3.52,4.35,6.4,4.35h7.42c5.03,0,8.75-2.16,9.67-5.42c1.12-0.59,2.05-1.52,2.64-2.64c3.26-0.92,5.42-4.64,5.42-9.67
		v-6.05c0-2.14-1.4-4.4-4.43-5.23c-0.15-0.73-0.27-1.75-0.27-3.02c0-1.26,0.13-2.29,0.27-3.02c3.03-0.83,4.43-3.1,4.43-5.23v-6.05
		C137.2,204.37,135.04,200.65,131.78,199.72z M135.49,215.45c0,1.31-0.83,2.94-3.17,3.58c-0.62,0.17-1.1,0.68-1.23,1.32
		c-0.14,0.7-0.31,1.85-0.31,3.35c0,1.52,0.17,2.66,0.31,3.36c0.13,0.63,0.6,1.14,1.22,1.31c2.34,0.64,3.17,2.27,3.17,3.58V238
		c0,4.16-1.64,7.31-4.17,8.03c-0.45,0.13-0.83,0.43-1.05,0.85c-0.43,0.82-1.1,1.49-1.92,1.93c-0.41,0.22-0.72,0.6-0.85,1.05
		c-0.72,2.53-3.87,4.17-8.03,4.17h-7.42c-2.11,0-4-1.29-4.81-3.29c-0.21-0.52-0.66-0.9-1.21-1.02c-0.79-0.18-2.11-0.39-3.93-0.39
		c-2.04,0-3.46,0.27-4.12,0.43c-0.46,0.11-0.86,0.41-1.09,0.83c-1.22,2.19-4.85,3.44-9.94,3.44c-5.09,0-8.71-1.25-9.94-3.44
		c-0.23-0.42-0.63-0.72-1.09-0.83c-0.66-0.16-2.08-0.43-4.12-0.43c-1.82,0-3.14,0.21-3.93,0.39c-0.55,0.12-1,0.5-1.21,1.02
		c-0.81,2-2.7,3.29-4.81,3.29h-7.42c-4.16,0-7.31-1.64-8.03-4.17c-0.13-0.45-0.43-0.83-0.85-1.05c-0.82-0.43-1.49-1.1-1.92-1.93
		c-0.22-0.41-0.6-0.72-1.05-0.85c-2.53-0.72-4.17-3.87-4.17-8.03v-7.42c0-2.11,1.29-4,3.29-4.82c0.52-0.21,0.9-0.67,1.03-1.22
		c0.18-0.79,0.38-2.12,0.38-3.92c0-2.05-0.27-3.46-0.43-4.13c-0.11-0.46-0.41-0.85-0.83-1.09c-2.19-1.23-3.44-4.85-3.44-9.94
		c0-5.09,1.25-8.72,3.44-9.94c0.42-0.23,0.71-0.63,0.83-1.09c0.16-0.66,0.43-2.08,0.43-4.12c0-1.81-0.21-3.14-0.39-3.93
		c-0.12-0.55-0.5-1-1.02-1.21c-2-0.81-3.29-2.7-3.29-4.81v-7.42c0-4.16,1.64-7.31,4.17-8.03c0.45-0.13,0.83-0.43,1.05-0.85
		c0.43-0.82,1.1-1.49,1.92-1.93c0.41-0.22,0.72-0.6,0.85-1.05c0.72-2.53,3.87-4.17,8.03-4.17h6.06c1.31,0,2.94,0.83,3.58,3.17
		c0.17,0.62,0.68,1.1,1.31,1.22c0.8,0.16,2.02,0.25,3.36,0.25s2.56-0.09,3.36-0.25c0.63-0.13,1.14-0.6,1.31-1.22
		c0.64-2.34,2.27-3.17,3.58-3.17h6.05c4.15,0,7.3,1.64,8.02,4.17c0.13,0.45,0.43,0.83,0.85,1.05c0.82,0.43,1.49,1.1,1.92,1.93
		c0.22,0.41,0.6,0.72,1.05,0.85c2.54,0.72,4.17,3.87,4.17,8.02v10.11c0,3.45-1.29,6.29-3.36,7.4c-0.43,0.23-0.74,0.63-0.85,1.1
		c-0.18,0.76-0.49,2.39-0.49,4.81c0,2.41,0.31,4.04,0.49,4.8c0.11,0.47,0.42,0.87,0.85,1.1c2.07,1.12,3.36,3.95,3.36,7.4v10.11
		c0,3.75-1.35,6.73-3.52,7.78c-0.48,0.23-0.82,0.66-0.93,1.18c-0.11,0.53-0.25,1.39-0.25,2.5c0,1.81,1.47,3.28,3.28,3.28
		c0.79,0,1.57-0.07,2.25-0.2c0.62-0.12,1.13-0.57,1.32-1.18c0.62-2.05,2.15-3.32,3.98-3.32c1.83,0,3.35,1.27,3.98,3.32
		c0.19,0.61,0.69,1.06,1.32,1.18c0.68,0.13,1.46,0.2,2.25,0.2c1.81,0,3.28-1.47,3.28-3.28c0-1.04-0.12-1.85-0.22-2.35
		c-0.12-0.58-0.53-1.06-1.09-1.27c-2.03-0.75-3.39-2.62-3.39-4.65c0-2.03,1.36-3.9,3.38-4.65c0.56-0.21,0.97-0.68,1.08-1.27
		c0.11-0.52,0.23-1.37,0.23-2.47c0-1.1-0.13-1.95-0.23-2.47c-0.12-0.58-0.53-1.06-1.08-1.27c-2.02-0.75-3.38-2.62-3.38-4.65
		c0-2.32,1.69-4.32,4.1-4.86c0.48-0.11,0.9-0.42,1.13-0.86c0.42-0.79,1.06-1.43,1.84-1.86c0.45-0.25,0.77-0.69,0.86-1.2
		c0.44-2.43,2.11-4.05,4.16-4.05c2.05,0,3.72,1.63,4.16,4.05c0.09,0.51,0.41,0.95,0.86,1.2c0.8,0.43,1.44,1.09,1.86,1.89
		c0.22,0.41,0.6,0.72,1.05,0.85c2.54,0.72,4.17,3.87,4.17,8.03V215.45z"/>
	<path class="st0" d="M78.16,183.28c0.61-0.19,1.07-0.69,1.18-1.32c0.13-0.7,0.2-1.45,0.2-2.25c0-1.81-1.47-3.28-3.28-3.28
		c-0.78,0-1.53,0.07-2.24,0.2c-0.63,0.12-1.14,0.57-1.33,1.18c-0.62,2.05-2.15,3.32-3.98,3.32c-1.83,0-3.35-1.27-3.98-3.32
		c-0.19-0.61-0.7-1.07-1.33-1.18c-0.71-0.13-1.46-0.2-2.24-0.2c-1.81,0-3.28,1.47-3.28,3.28c0,0.79,0.07,1.55,0.2,2.25
		c0.12,0.63,0.57,1.14,1.18,1.32c2.05,0.62,3.32,2.15,3.32,3.98c0,1.83-1.27,3.35-3.32,3.98c-0.61,0.19-1.07,0.69-1.18,1.32
		c-0.13,0.7-0.2,1.46-0.2,2.25c0,1.81,1.47,3.28,3.28,3.28c0.78,0,1.53-0.07,2.24-0.2c0.63-0.12,1.14-0.57,1.33-1.18
		c0.62-2.05,2.15-3.32,3.98-3.32c1.83,0,3.35,1.27,3.98,3.32c0.19,0.61,0.7,1.07,1.33,1.18c0.71,0.13,1.46,0.2,2.24,0.2
		c1.81,0,3.28-1.47,3.28-3.28c0-0.79-0.07-1.55-0.2-2.25c-0.12-0.63-0.57-1.14-1.18-1.32c-2.05-0.62-3.32-2.15-3.32-3.98
		C74.84,185.42,76.12,183.9,78.16,183.28z M73.13,187.25c0,2.65,1.83,4.79,4.53,5.61c0.09,0.5,0.17,1.15,0.17,1.93
		c0,0.85-0.72,1.57-1.57,1.57c-0.78,0-1.43-0.08-1.93-0.17c-0.82-2.7-2.97-4.53-5.61-4.53c-2.65,0-4.79,1.83-5.61,4.53
		c-0.5,0.09-1.16,0.17-1.93,0.17c-0.85,0-1.57-0.72-1.57-1.57c0-0.78,0.07-1.43,0.17-1.93c2.7-0.82,4.53-2.96,4.53-5.61
		c0-2.65-1.83-4.79-4.53-5.61c-0.09-0.5-0.17-1.15-0.17-1.93c0-0.85,0.72-1.57,1.57-1.57c0.78,0,1.43,0.08,1.93,0.17
		c0.82,2.7,2.97,4.53,5.61,4.53c2.65,0,4.79-1.83,5.61-4.53c0.5-0.09,1.15-0.17,1.93-0.17c0.85,0,1.57,0.72,1.57,1.57
		c0,0.78-0.07,1.43-0.17,1.93C74.96,182.46,73.13,184.6,73.13,187.25z"/>
	<path class="st0" d="M226.72,183.28c0.61-0.19,1.07-0.7,1.18-1.32c0.13-0.7,0.2-1.46,0.2-2.25c0-1.81-1.47-3.28-3.28-3.28
		c-1.13,0-1.99,0.14-2.51,0.25c-0.51,0.11-0.95,0.46-1.18,0.93c-1.05,2.17-4.03,3.52-7.78,3.52h-6.06c-1.31,0-2.94-0.83-3.58-3.17
		c-0.17-0.62-0.68-1.1-1.31-1.22c-0.8-0.16-2.02-0.25-3.36-0.25s-2.56,0.09-3.36,0.25c-0.63,0.13-1.14,0.6-1.31,1.22
		c-0.64,2.34-2.27,3.17-3.58,3.17h-6.05c-3.75,0-6.73-1.35-7.77-3.52c-0.23-0.47-0.66-0.82-1.18-0.93
		c-0.52-0.11-1.38-0.25-2.51-0.25c-1.81,0-3.28,1.47-3.28,3.28c0,0.79,0.07,1.55,0.2,2.25c0.12,0.63,0.57,1.14,1.18,1.32
		c2.05,0.63,3.32,2.15,3.32,3.98s-1.27,3.35-3.32,3.98c-0.61,0.19-1.06,0.7-1.18,1.32c-0.13,0.7-0.2,1.46-0.2,2.25
		c0,1.81,1.47,3.28,3.28,3.28c1.13,0,1.99-0.14,2.51-0.25c0.51-0.11,0.95-0.46,1.18-0.93c1.05-2.17,4.02-3.52,7.77-3.52h6.05
		c1.31,0,2.94,0.83,3.58,3.17c0.17,0.62,0.68,1.1,1.31,1.22c0.8,0.16,2.02,0.25,3.36,0.25s2.56-0.09,3.36-0.25
		c0.63-0.13,1.14-0.6,1.31-1.22c0.64-2.34,2.27-3.17,3.58-3.17h6.06c3.75,0,6.73,1.35,7.78,3.52c0.23,0.47,0.66,0.82,1.18,0.93
		c0.52,0.11,1.38,0.25,2.51,0.25c1.81,0,3.28-1.47,3.28-3.28c0-0.79-0.07-1.54-0.2-2.25c-0.12-0.63-0.57-1.14-1.18-1.32
		c-2.05-0.62-3.32-2.15-3.32-3.98S224.67,183.9,226.72,183.28z M221.69,187.25c0,2.65,1.83,4.79,4.53,5.61
		c0.09,0.5,0.17,1.15,0.17,1.93c0,0.85-0.72,1.57-1.57,1.57c-0.89,0-1.63-0.1-2.14-0.21c-1.32-2.74-4.79-4.49-9.32-4.49h-6.06
		c-2.14,0-4.4,1.4-5.23,4.43c-0.73,0.15-1.87,0.22-3.02,0.22c-1.15,0-2.29-0.07-3.02-0.22c-0.83-3.02-3.1-4.43-5.23-4.43h-6.05
		c-4.53,0-8,1.75-9.32,4.49c-0.52,0.11-1.25,0.21-2.14,0.21c-0.85,0-1.57-0.72-1.57-1.57c0-0.78,0.07-1.43,0.17-1.93
		c2.7-0.83,4.53-2.97,4.53-5.61c0-2.65-1.83-4.79-4.53-5.61c-0.09-0.5-0.17-1.15-0.17-1.93c0-0.85,0.72-1.57,1.57-1.57
		c0.89,0,1.63,0.1,2.14,0.21c1.32,2.74,4.79,4.49,9.32,4.49h6.05c2.14,0,4.4-1.4,5.23-4.43c0.73-0.15,1.87-0.22,3.02-0.22
		c1.15,0,2.29,0.07,3.02,0.22c0.83,3.03,3.1,4.43,5.23,4.43h6.06c4.53,0,8-1.75,9.32-4.49c0.52-0.11,1.25-0.21,2.14-0.21
		c0.85,0,1.57,0.72,1.57,1.57c0,0.78-0.08,1.43-0.17,1.93C223.52,182.46,221.69,184.6,221.69,187.25z"/>
	<path class="st0" d="M243.9,163.28c-0.59-1.12-1.51-2.05-2.64-2.64c-0.93-3.26-4.64-5.42-9.67-5.42h-7.42
		c-2.88,0-5.36,1.8-6.4,4.35c-0.79,0.18-2.01,0.35-3.56,0.35c-1.66,0-2.94-0.19-3.72-0.38c-1.54-2.75-5.57-4.32-11.43-4.32
		c-5.86,0-9.89,1.57-11.43,4.32c-0.78,0.19-2.06,0.38-3.72,0.38c-1.55,0-2.76-0.17-3.56-0.35c-1.04-2.55-3.52-4.35-6.4-4.35h-7.42
		c-5.03,0-8.74,2.16-9.67,5.42c-1.12,0.59-2.05,1.52-2.64,2.64c-3.26,0.92-5.42,4.64-5.42,9.67v7.42c0,2.88,1.8,5.36,4.36,6.4
		c0.18,0.8,0.35,2.01,0.35,3.56c0,1.66-0.19,2.93-0.38,3.72c-2.75,1.54-4.32,5.57-4.32,11.43s1.57,9.89,4.32,11.43
		c0.19,0.78,0.38,2.06,0.38,3.72c0,1.54-0.17,2.76-0.35,3.56c-2.55,1.04-4.36,3.52-4.36,6.4V238c0,5.03,2.16,8.75,5.42,9.67
		c0.58,1.1,1.47,2,2.55,2.59c0.58,3.2,2.9,5.46,5.84,5.46c2.94,0,5.26-2.26,5.84-5.46c1.07-0.58,1.95-1.47,2.53-2.55
		c3.11-0.69,5.44-3.36,5.44-6.53c0-2.84-1.87-5.28-4.5-6.25c-0.11-0.53-0.2-1.26-0.2-2.13s0.09-1.6,0.2-2.13
		c2.63-0.97,4.5-3.41,4.5-6.25c0-2.85-1.88-5.29-4.51-6.26c-0.1-0.51-0.18-1.2-0.18-2.02c0-0.85,0.72-1.57,1.57-1.57
		c0.82,0,1.51,0.08,2.01,0.18c0.97,2.64,3.41,4.52,6.26,4.52c2.84,0,5.28-1.87,6.25-4.5c0.53-0.11,1.33-0.17,2.13-0.17
		s1.6,0.06,2.13,0.17c0.97,2.63,3.41,4.5,6.25,4.5c2.85,0,5.29-1.88,6.26-4.52c0.51-0.1,1.19-0.18,2.01-0.18
		c0.85,0,1.57,0.72,1.57,1.57c0,0.82-0.08,1.51-0.18,2.01c-2.64,0.97-4.52,3.41-4.52,6.26c0,2.85,1.87,5.28,4.5,6.25
		c0.11,0.53,0.2,1.26,0.2,2.13s-0.09,1.6-0.2,2.13c-2.63,0.97-4.5,3.41-4.5,6.25c0,3.17,2.33,5.84,5.44,6.53
		c0.58,1.09,1.48,1.98,2.57,2.56c0.69,3.11,3.36,5.44,6.53,5.44c2.84,0,5.28-1.87,6.25-4.5c0.53-0.11,1.32-0.16,2.11-0.16
		c0.81,0,1.61,0.06,2.15,0.16c0.97,2.63,3.41,4.5,6.25,4.5c3.17,0,5.84-2.33,6.53-5.44c1.08-0.58,1.96-1.46,2.55-2.53
		c3.2-0.58,5.46-2.89,5.46-5.84s-2.26-5.26-5.46-5.84c-0.58-1.06-1.45-1.93-2.51-2.51c-0.58-3.2-2.9-5.46-5.84-5.46
		c-2.65,0-4.79,1.83-5.61,4.53c-0.5,0.09-1.16,0.17-1.93,0.17c-0.85,0-1.57-0.72-1.57-1.57c0-0.78,0.07-1.43,0.17-1.93
		c2.7-0.82,4.53-2.96,4.53-5.61c0-2.65-1.83-4.79-4.53-5.61c-0.09-0.5-0.17-1.15-0.17-1.93c0-0.85,0.72-1.57,1.57-1.57
		c0.78,0,1.43,0.08,1.93,0.17c0.82,2.7,2.97,4.53,5.61,4.53c2.94,0,5.26-2.26,5.84-5.46c1.09-0.59,1.98-1.5,2.55-2.59
		c3.26-0.93,5.42-4.64,5.42-9.67v-6.06c0-2.14-1.4-4.4-4.43-5.23c-0.15-0.73-0.27-1.75-0.27-3.02c0-1.26,0.13-2.29,0.27-3.02
		c3.02-0.83,4.43-3.09,4.43-5.23v-6.06C249.31,167.92,247.16,164.2,243.9,163.28z M247.6,179.01c0,1.31-0.83,2.94-3.17,3.58
		c-0.62,0.17-1.1,0.68-1.23,1.32c-0.14,0.7-0.31,1.85-0.31,3.35c0,1.51,0.17,2.66,0.31,3.35c0.13,0.63,0.6,1.14,1.22,1.31
		c2.34,0.64,3.17,2.27,3.17,3.58v6.06c0,4.15-1.64,7.3-4.17,8.02c-0.45,0.13-0.83,0.43-1.05,0.85c-0.42,0.8-1.07,1.46-1.86,1.89
		c-0.45,0.25-0.77,0.69-0.86,1.2c-0.44,2.43-2.11,4.05-4.16,4.05c-1.83,0-3.35-1.27-3.98-3.32c-0.19-0.61-0.7-1.07-1.33-1.18
		c-0.71-0.13-1.46-0.2-2.24-0.2c-1.81,0-3.28,1.47-3.28,3.28c0,0.79,0.07,1.55,0.2,2.25c0.12,0.63,0.57,1.14,1.18,1.32
		c2.05,0.62,3.32,2.15,3.32,3.98c0,1.83-1.27,3.35-3.32,3.98c-0.61,0.19-1.07,0.7-1.18,1.32c-0.13,0.7-0.2,1.46-0.2,2.25
		c0,1.81,1.47,3.28,3.28,3.28c0.79,0,1.57-0.07,2.25-0.2c0.62-0.12,1.13-0.57,1.32-1.18c0.62-2.05,2.15-3.32,3.98-3.32
		c2.05,0,3.72,1.63,4.16,4.06c0.09,0.51,0.41,0.95,0.86,1.2c0.77,0.42,1.41,1.06,1.83,1.83c0.25,0.45,0.69,0.77,1.2,0.86
		c2.42,0.44,4.05,2.11,4.05,4.15c0,2.05-1.63,3.72-4.05,4.15c-0.51,0.09-0.95,0.41-1.2,0.86c-0.43,0.78-1.07,1.42-1.86,1.84
		c-0.44,0.24-0.75,0.65-0.86,1.14c-0.54,2.42-2.54,4.1-4.86,4.1c-2.03,0-3.9-1.36-4.65-3.38c-0.21-0.56-0.68-0.97-1.27-1.08
		c-0.85-0.17-1.92-0.2-2.49-0.2c-0.56,0-1.63,0.03-2.46,0.2c-0.58,0.12-1.05,0.53-1.26,1.08c-0.75,2.02-2.62,3.38-4.65,3.38
		c-2.32,0-4.32-1.69-4.86-4.1c-0.11-0.49-0.42-0.9-0.86-1.14c-0.8-0.43-1.44-1.07-1.87-1.87c-0.24-0.44-0.65-0.75-1.14-0.86
		c-2.42-0.54-4.11-2.54-4.11-4.86c0-2.03,1.36-3.9,3.39-4.65c0.56-0.21,0.97-0.69,1.08-1.27c0.11-0.52,0.23-1.38,0.23-2.47
		c0-1.09-0.13-1.94-0.23-2.47c-0.12-0.58-0.53-1.06-1.08-1.27c-2.03-0.75-3.39-2.62-3.39-4.65c0-2.03,1.37-3.91,3.4-4.65
		c0.56-0.21,0.97-0.69,1.09-1.27c0.1-0.5,0.22-1.31,0.22-2.35c0-1.81-1.47-3.28-3.28-3.28c-1.04,0-1.85,0.12-2.35,0.22
		c-0.58,0.12-1.07,0.53-1.27,1.09c-0.75,2.03-2.62,3.39-4.65,3.39c-2.03,0-3.9-1.36-4.65-3.38c-0.2-0.55-0.68-0.96-1.26-1.08
		c-0.84-0.17-1.91-0.2-2.48-0.2s-1.63,0.03-2.48,0.2c-0.58,0.12-1.05,0.53-1.26,1.08c-0.75,2.02-2.62,3.38-4.65,3.38
		c-2.04,0-3.9-1.36-4.65-3.39c-0.21-0.56-0.69-0.97-1.27-1.09c-0.5-0.1-1.31-0.22-2.35-0.22c-1.81,0-3.28,1.47-3.28,3.28
		c0,1.04,0.12,1.85,0.22,2.35c0.12,0.58,0.53,1.07,1.09,1.27c2.03,0.75,3.39,2.62,3.39,4.65c0,2.03-1.36,3.9-3.38,4.65
		c-0.56,0.21-0.97,0.68-1.08,1.27c-0.11,0.52-0.23,1.37-0.23,2.47c0,1.1,0.13,1.95,0.23,2.47c0.12,0.58,0.53,1.06,1.08,1.27
		c2.02,0.75,3.38,2.62,3.38,4.65c0,2.32-1.69,4.32-4.1,4.86c-0.49,0.11-0.9,0.42-1.14,0.86c-0.42,0.79-1.06,1.43-1.84,1.86
		c-0.45,0.25-0.77,0.69-0.86,1.2c-0.44,2.43-2.11,4.06-4.16,4.06c-2.05,0-3.72-1.63-4.16-4.06c-0.09-0.51-0.41-0.95-0.86-1.2
		c-0.8-0.43-1.44-1.09-1.86-1.89c-0.22-0.41-0.6-0.72-1.05-0.85c-2.54-0.72-4.17-3.87-4.17-8.03v-7.42c0-2.11,1.29-4,3.29-4.82
		c0.52-0.21,0.9-0.66,1.02-1.21c0.18-0.79,0.39-2.12,0.39-3.93c0-2.05-0.27-3.46-0.43-4.13c-0.11-0.46-0.41-0.86-0.83-1.09
		c-2.19-1.22-3.44-4.85-3.44-9.94c0-5.09,1.25-8.72,3.44-9.94c0.41-0.23,0.71-0.63,0.83-1.09c0.16-0.66,0.43-2.08,0.43-4.12
		c0-1.81-0.21-3.14-0.39-3.93c-0.12-0.55-0.51-1-1.02-1.21c-2-0.81-3.29-2.7-3.29-4.81v-7.42c0-4.16,1.64-7.31,4.17-8.02
		c0.45-0.13,0.83-0.43,1.05-0.85c0.43-0.81,1.11-1.5,1.92-1.93c0.41-0.22,0.72-0.6,0.85-1.04c0.72-2.53,3.87-4.17,8.02-4.17h7.42
		c2.11,0,4,1.29,4.82,3.29c0.21,0.52,0.66,0.9,1.21,1.02c0.79,0.18,2.11,0.39,3.93,0.39c2.04,0,3.46-0.27,4.12-0.43
		c0.46-0.11,0.86-0.41,1.09-0.83c1.22-2.19,4.85-3.44,9.94-3.44c5.09,0,8.71,1.25,9.94,3.44c0.23,0.42,0.63,0.72,1.09,0.83
		c0.66,0.16,2.08,0.43,4.12,0.43c1.82,0,3.14-0.21,3.93-0.39c0.55-0.12,1-0.5,1.21-1.02c0.81-2,2.7-3.29,4.81-3.29h7.42
		c4.16,0,7.31,1.64,8.03,4.17c0.13,0.45,0.43,0.83,0.85,1.05c0.82,0.43,1.49,1.1,1.92,1.93c0.22,0.41,0.6,0.72,1.05,0.85
		c2.53,0.72,4.17,3.87,4.17,8.03V179.01z"/>
</g>
<g>
	<g>
		<path class="st1" d="M131.31,52.7c-0.45-0.13-0.83-0.43-1.05-0.85c-0.43-0.82-1.1-1.49-1.92-1.93c-0.41-0.22-0.72-0.6-0.85-1.05
			c-0.72-2.53-3.87-4.17-8.03-4.17h-7.42c-2.11,0-4,1.29-4.81,3.29c-0.21,0.52-0.66,0.9-1.21,1.02c-0.79,0.18-2.11,0.39-3.93,0.39
			c-2.04,0-3.46-0.27-4.12-0.43c-0.46-0.11-0.86-0.41-1.09-0.83c-1.22-2.19-4.85-3.44-9.94-3.44c-5.09,0-8.71,1.25-9.94,3.44
			c-0.23,0.42-0.63,0.72-1.09,0.83c-0.66,0.16-2.08,0.43-4.12,0.43c-1.82,0-3.14-0.21-3.93-0.39c-0.55-0.12-1-0.5-1.21-1.02
			c-0.81-2-2.7-3.29-4.81-3.29h-7.42c-4.16,0-7.31,1.64-8.03,4.17c-0.13,0.45-0.43,0.83-0.85,1.05c-0.82,0.43-1.49,1.1-1.92,1.93
			c-0.22,0.41-0.6,0.72-1.05,0.85c-2.53,0.72-4.17,3.87-4.17,8.03v7.42c0,2.11,1.29,4,3.29,4.82c0.52,0.21,0.9,0.66,1.02,1.21
			c0.25,1.12,0.39,2.51,0.39,3.93c0,2.05-0.27,3.46-0.43,4.13c-0.11,0.46-0.41,0.85-0.83,1.09c-2.19,1.23-3.44,4.85-3.44,9.94
			c0,5.09,1.25,8.71,3.44,9.94c0.42,0.23,0.72,0.63,0.83,1.09c0.16,0.67,0.43,2.09,0.43,4.12c0,1.81-0.21,3.14-0.39,3.93
			c-0.12,0.55-0.5,1-1.02,1.21c-2,0.81-3.29,2.7-3.29,4.81v7.42c0,4.16,1.64,7.31,4.17,8.02c0.45,0.13,0.83,0.43,1.05,0.85
			c0.43,0.82,1.1,1.49,1.92,1.93c0.41,0.22,0.72,0.6,0.85,1.05c0.72,2.53,3.87,4.17,8.03,4.17h7.42c2.11,0,4-1.29,4.81-3.29
			c0.21-0.52,0.66-0.9,1.21-1.02c0.79-0.18,2.11-0.39,3.93-0.39c2.04,0,3.46,0.27,4.12,0.43c0.46,0.11,0.86,0.41,1.09,0.83
			c1.22,2.19,4.85,3.44,9.94,3.44c5.09,0,8.71-1.25,9.94-3.44c0.23-0.42,0.63-0.72,1.09-0.83c0.67-0.16,2.08-0.43,4.12-0.43
			c1.82,0,3.14,0.21,3.93,0.39c0.55,0.12,1,0.5,1.21,1.02c0.81,2,2.7,3.29,4.81,3.29h7.42c4.16,0,7.31-1.64,8.03-4.17
			c0.13-0.45,0.43-0.83,0.85-1.05c0.82-0.43,1.49-1.1,1.92-1.93c0.22-0.41,0.6-0.72,1.05-0.85c2.54-0.72,4.17-3.87,4.17-8.02v-7.42
			c0-2.11-1.29-4-3.29-4.81c-0.52-0.21-0.9-0.66-1.02-1.21c-0.18-0.79-0.39-2.11-0.39-3.93c0-2.04,0.27-3.46,0.43-4.12
			c0.11-0.46,0.41-0.86,0.83-1.09c2.19-1.23,3.44-4.85,3.44-9.94c0-5.09-1.25-8.71-3.44-9.94c-0.41-0.23-0.71-0.63-0.83-1.09
			c-0.16-0.66-0.43-2.08-0.43-4.13c0-1.81,0.21-3.14,0.39-3.93c0.12-0.55,0.51-1,1.02-1.21c2-0.81,3.29-2.7,3.29-4.82v-7.42
			C135.49,56.57,133.85,53.42,131.31,52.7z M114.45,88.58c0.62,0.17,1.1,0.68,1.23,1.32c0.14,0.7,0.31,1.85,0.31,3.35
			c0,1.51-0.17,2.66-0.31,3.35c-0.13,0.63-0.6,1.14-1.23,1.32c-2.34,0.64-3.17,2.27-3.17,3.58v6.06c0,3.75,1.35,6.73,3.52,7.78
			c0.47,0.23,0.82,0.66,0.93,1.18c0.11,0.53,0.25,1.39,0.25,2.5c0,1.81-1.47,3.28-3.28,3.28c-1.13,0-1.99-0.14-2.51-0.25
			c-0.51-0.11-0.95-0.46-1.18-0.93c-1.05-2.17-4.03-3.52-7.78-3.52h-6.05c-1.31,0-2.94,0.83-3.58,3.17
			c-0.17,0.62-0.68,1.1-1.31,1.22c-0.8,0.16-2.02,0.25-3.36,0.25s-2.56-0.09-3.36-0.25c-0.63-0.13-1.14-0.6-1.31-1.22
			c-0.64-2.34-2.27-3.17-3.58-3.17h-6.06c-3.75,0-6.73,1.35-7.78,3.52c-0.23,0.47-0.66,0.82-1.18,0.93
			c-0.52,0.11-1.38,0.25-2.51,0.25c-1.81,0-3.28-1.47-3.28-3.28c0-1.11,0.14-1.98,0.25-2.5c0.11-0.52,0.45-0.95,0.93-1.18
			c2.17-1.05,3.52-4.03,3.52-7.78v-6.06c0-1.31-0.83-2.94-3.17-3.58c-0.62-0.17-1.1-0.68-1.23-1.32c-0.14-0.7-0.31-1.85-0.31-3.35
			s0.17-2.66,0.31-3.35c0.13-0.63,0.6-1.14,1.23-1.32c2.34-0.64,3.17-2.27,3.17-3.58v-6.05c0-3.75-1.35-6.73-3.52-7.78
			c-0.47-0.23-0.82-0.66-0.93-1.18c-0.11-0.53-0.25-1.39-0.25-2.5c0-1.81,1.47-3.28,3.28-3.28c0.79,0,1.57,0.07,2.25,0.2
			c0.62,0.12,1.13,0.57,1.32,1.18c0.62,2.05,2.15,3.32,3.98,3.32c1.83,0,3.35-1.27,3.98-3.32c0.19-0.61,0.69-1.06,1.32-1.18
			c0.68-0.13,1.46-0.2,2.25-0.2c1.81,0,3.28,1.47,3.28,3.28c0,0.79-0.07,1.55-0.2,2.25c-0.12,0.63-0.57,1.14-1.18,1.32
			c-2.05,0.62-3.32,2.15-3.32,3.98c0,2.04,1.63,3.71,4.05,4.15c0.51,0.09,0.95,0.41,1.2,0.86c0.42,0.77,1.06,1.41,1.83,1.83
			c0.45,0.25,0.77,0.69,0.86,1.2c0.44,2.43,2.11,4.06,4.15,4.06s3.72-1.63,4.15-4.06c0.09-0.51,0.41-0.95,0.86-1.2
			c0.77-0.42,1.41-1.06,1.83-1.83c0.25-0.45,0.69-0.77,1.2-0.86c2.43-0.44,4.06-2.11,4.06-4.15c0-1.83-1.27-3.35-3.32-3.98
			c-0.61-0.19-1.07-0.7-1.18-1.32c-0.13-0.7-0.2-1.46-0.2-2.25c0-1.81,1.47-3.28,3.28-3.28c0.79,0,1.57,0.07,2.25,0.2
			c0.62,0.12,1.13,0.57,1.32,1.18c0.62,2.05,2.15,3.32,3.98,3.32c1.83,0,3.35-1.27,3.98-3.32c0.19-0.61,0.69-1.06,1.32-1.18
			c0.68-0.13,1.46-0.2,2.25-0.2c1.81,0,3.28,1.47,3.28,3.28c0,1.11-0.14,1.98-0.25,2.5c-0.11,0.52-0.45,0.95-0.93,1.18
			c-2.17,1.05-3.52,4.03-3.52,7.78V85C111.29,86.31,112.12,87.94,114.45,88.58z"/>
		<path class="st1" d="M243.43,89.14c-0.45-0.13-0.83-0.43-1.05-0.85c-0.43-0.81-1.11-1.5-1.93-1.93c-0.41-0.22-0.72-0.6-0.85-1.04
			c-0.72-2.53-3.87-4.17-8.03-4.17h-10.11c-3.45,0-6.28,1.29-7.4,3.35c-0.23,0.43-0.63,0.74-1.1,0.85
			c-0.76,0.18-2.39,0.49-4.81,0.49c-2.41,0-4.05-0.31-4.81-0.49c-0.47-0.11-0.87-0.42-1.1-0.85c-1.12-2.07-3.95-3.35-7.4-3.35
			h-10.11c-3.75,0-6.73,1.35-7.77,3.52c-0.23,0.47-0.66,0.82-1.18,0.93c-0.52,0.11-1.38,0.25-2.51,0.25c-1.81,0-3.28-1.47-3.28-3.28
			c0-0.79,0.07-1.55,0.2-2.25c0.12-0.63,0.57-1.14,1.18-1.32c2.05-0.62,3.32-2.15,3.32-3.97c0-1.83-1.27-3.35-3.32-3.98
			c-0.61-0.19-1.06-0.7-1.18-1.32c-0.13-0.7-0.2-1.46-0.2-2.25c0-1.81,1.47-3.28,3.28-3.28c1.13,0,1.98,0.14,2.51,0.25
			c0.51,0.11,0.95,0.45,1.18,0.93c1.05,2.17,4.03,3.52,7.77,3.52h10.1c3.45,0,6.29-1.29,7.4-3.36c0.23-0.43,0.63-0.74,1.1-0.85
			c0.76-0.18,2.39-0.49,4.8-0.49c2.41,0,4.05,0.31,4.8,0.49c0.47,0.11,0.87,0.42,1.1,0.85c1.12,2.07,3.95,3.36,7.4,3.36h10.11
			c4.16,0,7.31-1.64,8.03-4.17c0.13-0.45,0.43-0.83,0.85-1.05c0.8-0.42,1.46-1.07,1.89-1.86c0.25-0.45,0.69-0.77,1.2-0.86
			c2.42-0.44,4.05-2.11,4.05-4.15s-1.63-3.72-4.05-4.15c-0.51-0.09-0.95-0.41-1.2-0.86c-0.44-0.8-1.09-1.44-1.89-1.87
			c-0.41-0.22-0.72-0.6-0.85-1.05c-0.72-2.53-3.87-4.17-8.03-4.17h-7.42c-2.11,0-4,1.29-4.81,3.29c-0.21,0.52-0.66,0.9-1.21,1.02
			c-0.79,0.18-2.11,0.39-3.93,0.39c-2.04,0-3.46-0.27-4.12-0.43c-0.46-0.11-0.86-0.41-1.09-0.83c-1.22-2.19-4.85-3.44-9.94-3.44
			c-5.09,0-8.71,1.25-9.94,3.44c-0.23,0.42-0.63,0.72-1.09,0.83c-0.66,0.16-2.08,0.43-4.12,0.43c-1.82,0-3.14-0.21-3.93-0.39
			c-0.55-0.12-1-0.5-1.21-1.02c-0.81-2-2.71-3.29-4.82-3.29h-7.42c-4.15,0-7.3,1.64-8.02,4.17c-0.13,0.45-0.43,0.83-0.85,1.05
			c-0.81,0.43-1.5,1.11-1.92,1.93c-0.22,0.41-0.6,0.72-1.05,0.85c-2.54,0.72-4.17,3.87-4.17,8.03v6.05c0,1.31,0.83,2.94,3.17,3.58
			c0.62,0.17,1.1,0.68,1.22,1.31c0.14,0.7,0.31,1.84,0.31,3.35c0,1.51-0.17,2.66-0.31,3.35c-0.13,0.63-0.6,1.14-1.22,1.31
			c-2.34,0.64-3.17,2.27-3.17,3.59v6.05c0,4.16,1.64,7.31,4.17,8.02c0.45,0.13,0.83,0.43,1.05,0.85c0.43,0.81,1.11,1.5,1.92,1.93
			c0.41,0.22,0.72,0.6,0.85,1.05c0.72,2.53,3.87,4.17,8.02,4.17h10.1c3.45,0,6.29-1.29,7.4-3.36c0.23-0.43,0.63-0.74,1.1-0.85
			c0.76-0.18,2.39-0.49,4.8-0.49c2.41,0,4.05,0.31,4.8,0.49c0.47,0.11,0.87,0.42,1.1,0.85c1.12,2.07,3.95,3.36,7.4,3.36h10.11
			c3.75,0,6.73-1.35,7.78-3.52c0.23-0.47,0.66-0.82,1.18-0.93c0.52-0.11,1.38-0.25,2.51-0.25c1.81,0,3.28,1.47,3.28,3.28
			c0,0.79-0.07,1.54-0.2,2.25c-0.12,0.63-0.57,1.14-1.18,1.32c-2.05,0.62-3.32,2.15-3.32,3.98c0,1.83,1.27,3.35,3.32,3.98
			c0.61,0.19,1.07,0.7,1.18,1.32c0.13,0.7,0.2,1.46,0.2,2.25c0,1.81-1.47,3.28-3.28,3.28c-1.13,0-1.99-0.14-2.51-0.25
			c-0.51-0.11-0.95-0.46-1.18-0.93c-1.05-2.17-4.03-3.52-7.78-3.52h-10.11c-3.45,0-6.28,1.29-7.4,3.36
			c-0.23,0.43-0.63,0.74-1.1,0.85c-0.76,0.18-2.39,0.49-4.8,0.49c-2.41,0-4.05-0.31-4.8-0.49c-0.47-0.11-0.87-0.42-1.1-0.85
			c-1.12-2.07-3.95-3.36-7.4-3.36h-10.11c-4.15,0-7.3,1.64-8.02,4.17c-0.13,0.45-0.43,0.83-0.85,1.05c-0.8,0.42-1.46,1.07-1.89,1.87
			c-0.25,0.45-0.69,0.77-1.2,0.86c-2.42,0.44-4.05,2.1-4.05,4.15c0,2.05,1.63,3.72,4.06,4.15c0.51,0.09,0.95,0.41,1.2,0.86
			c0.44,0.8,1.09,1.44,1.89,1.86c0.41,0.22,0.72,0.6,0.85,1.05c0.72,2.53,3.87,4.17,8.02,4.17h7.42c2.11,0,4-1.29,4.82-3.29
			c0.21-0.52,0.66-0.9,1.21-1.02c0.79-0.18,2.11-0.39,3.93-0.39c2.04,0,3.46,0.27,4.12,0.43c0.46,0.11,0.86,0.41,1.09,0.83
			c1.22,2.19,4.85,3.44,9.94,3.44c5.09,0,8.71-1.25,9.94-3.44c0.23-0.42,0.63-0.72,1.09-0.83c0.67-0.16,2.09-0.43,4.12-0.43
			c1.82,0,3.14,0.21,3.93,0.39c0.55,0.12,1,0.5,1.21,1.02c0.81,2,2.7,3.29,4.81,3.29h7.42c4.16,0,7.31-1.64,8.03-4.17
			c0.13-0.45,0.43-0.83,0.85-1.05c0.82-0.43,1.49-1.1,1.92-1.93c0.22-0.41,0.6-0.72,1.05-0.85c2.53-0.72,4.17-3.87,4.17-8.03v-6.06
			c0-1.31-0.83-2.94-3.17-3.58c-0.62-0.17-1.1-0.68-1.23-1.32c-0.14-0.7-0.31-1.85-0.31-3.35c0-1.51,0.17-2.66,0.31-3.35
			c0.13-0.63,0.6-1.14,1.23-1.32c2.34-0.64,3.17-2.27,3.17-3.58v-6.06C247.6,93.01,245.96,89.86,243.43,89.14z"/>
		<path class="st1" d="M131.31,201.37c-0.45-0.13-0.83-0.43-1.05-0.85c-0.42-0.8-1.07-1.46-1.86-1.89c-0.45-0.25-0.77-0.69-0.86-1.2
			c-0.44-2.43-2.11-4.05-4.16-4.05c-2.05,0-3.72,1.63-4.16,4.05c-0.09,0.51-0.41,0.95-0.86,1.2c-0.78,0.43-1.42,1.07-1.84,1.86
			c-0.24,0.44-0.65,0.75-1.13,0.86c-2.41,0.54-4.1,2.54-4.1,4.86c0,2.03,1.36,3.9,3.38,4.65c0.56,0.21,0.97,0.68,1.08,1.27
			c0.11,0.52,0.23,1.37,0.23,2.47c0,1.1-0.13,1.95-0.23,2.47c-0.12,0.58-0.53,1.06-1.08,1.27c-2.02,0.75-3.38,2.62-3.38,4.65
			c0,2.03,1.36,3.9,3.39,4.65c0.56,0.21,0.97,0.69,1.09,1.27c0.1,0.5,0.22,1.31,0.22,2.35c0,1.81-1.47,3.28-3.28,3.28
			c-0.79,0-1.57-0.07-2.25-0.2c-0.62-0.12-1.13-0.57-1.32-1.18c-0.62-2.05-2.15-3.32-3.98-3.32c-1.83,0-3.35,1.27-3.98,3.32
			c-0.19,0.61-0.69,1.06-1.32,1.18c-0.68,0.13-1.46,0.2-2.25,0.2c-1.81,0-3.28-1.47-3.28-3.28c0-1.11,0.14-1.97,0.25-2.5
			c0.11-0.52,0.45-0.95,0.93-1.18c2.17-1.05,3.52-4.03,3.52-7.78v-10.11c0-3.45-1.29-6.29-3.36-7.4c-0.43-0.23-0.74-0.63-0.85-1.1
			c-0.18-0.76-0.49-2.39-0.49-4.8c0-2.42,0.31-4.05,0.49-4.81c0.11-0.47,0.42-0.87,0.85-1.1c2.07-1.12,3.36-3.95,3.36-7.4v-10.11
			c0-4.16-1.64-7.31-4.17-8.02c-0.45-0.13-0.83-0.43-1.05-0.85c-0.43-0.82-1.1-1.49-1.92-1.93c-0.41-0.22-0.72-0.6-0.85-1.05
			c-0.72-2.53-3.87-4.17-8.02-4.17h-6.05c-1.31,0-2.94,0.83-3.58,3.17c-0.17,0.62-0.68,1.1-1.31,1.22c-0.8,0.16-2.02,0.25-3.36,0.25
			s-2.56-0.09-3.36-0.25c-0.63-0.13-1.14-0.6-1.31-1.22c-0.64-2.34-2.27-3.17-3.58-3.17h-6.06c-4.16,0-7.31,1.64-8.03,4.17
			c-0.13,0.45-0.43,0.83-0.85,1.05c-0.82,0.43-1.49,1.1-1.92,1.93c-0.22,0.41-0.6,0.72-1.05,0.85c-2.53,0.72-4.17,3.87-4.17,8.03
			v7.42c0,2.11,1.29,4,3.29,4.81c0.52,0.21,0.9,0.66,1.02,1.21c0.18,0.79,0.39,2.12,0.39,3.93c0,2.04-0.27,3.46-0.43,4.12
			c-0.11,0.46-0.41,0.86-0.83,1.09c-2.19,1.23-3.44,4.85-3.44,9.94c0,5.09,1.25,8.71,3.44,9.94c0.41,0.23,0.71,0.63,0.83,1.09
			c0.16,0.66,0.43,2.08,0.43,4.13c0,1.8-0.21,3.13-0.38,3.92c-0.12,0.55-0.5,1-1.03,1.22c-2,0.81-3.29,2.7-3.29,4.82V238
			c0,4.16,1.64,7.31,4.17,8.03c0.45,0.13,0.83,0.43,1.05,0.85c0.43,0.82,1.1,1.49,1.92,1.93c0.41,0.22,0.72,0.6,0.85,1.05
			c0.72,2.53,3.87,4.17,8.03,4.17h7.42c2.11,0,4-1.29,4.81-3.29c0.21-0.52,0.66-0.9,1.21-1.02c0.79-0.18,2.11-0.39,3.93-0.39
			c2.04,0,3.46,0.27,4.12,0.43c0.46,0.11,0.86,0.41,1.09,0.83c1.22,2.19,4.85,3.44,9.94,3.44c5.09,0,8.71-1.25,9.94-3.44
			c0.23-0.42,0.63-0.72,1.09-0.83c0.66-0.16,2.08-0.43,4.12-0.43c1.82,0,3.14,0.21,3.93,0.39c0.55,0.12,1,0.5,1.21,1.02
			c0.81,2,2.7,3.29,4.81,3.29h7.42c4.16,0,7.31-1.64,8.03-4.17c0.13-0.45,0.43-0.83,0.85-1.05c0.82-0.43,1.49-1.1,1.92-1.93
			c0.22-0.41,0.6-0.72,1.05-0.85c2.54-0.72,4.17-3.87,4.17-8.03v-6.05c0-1.31-0.83-2.94-3.17-3.58c-0.62-0.17-1.1-0.68-1.22-1.31
			c-0.14-0.69-0.31-1.84-0.31-3.36c0-1.51,0.17-2.66,0.31-3.35c0.13-0.64,0.6-1.14,1.23-1.32c2.34-0.64,3.17-2.27,3.17-3.58v-6.05
			C135.49,205.24,133.85,202.09,131.31,201.37z M78.16,227.67c0.61,0.19,1.07,0.69,1.18,1.32c0.13,0.7,0.2,1.45,0.2,2.25
			c0,1.81-1.47,3.28-3.28,3.28c-0.79,0-1.57-0.07-2.25-0.2c-0.62-0.12-1.13-0.57-1.32-1.18c-0.62-2.05-2.15-3.32-3.98-3.32
			c-1.83,0-3.35,1.27-3.98,3.32c-0.19,0.61-0.69,1.06-1.32,1.18c-0.68,0.13-1.46,0.2-2.25,0.2c-1.81,0-3.28-1.47-3.28-3.28
			c0-0.79,0.07-1.55,0.2-2.25c0.12-0.63,0.57-1.14,1.18-1.32c2.05-0.62,3.32-2.15,3.32-3.98c0-1.83-1.27-3.35-3.32-3.98
			c-0.61-0.19-1.07-0.69-1.18-1.32c-0.13-0.7-0.2-1.46-0.2-2.25c0-1.81,1.47-3.28,3.28-3.28c0.78,0,1.53,0.07,2.24,0.2
			c0.63,0.12,1.14,0.57,1.33,1.18c0.62,2.05,2.15,3.32,3.98,3.32c1.83,0,3.35-1.27,3.98-3.32c0.19-0.61,0.7-1.07,1.33-1.18
			c0.71-0.13,1.46-0.2,2.24-0.2c1.81,0,3.28,1.47,3.28,3.28c0,0.79-0.07,1.55-0.2,2.25c-0.12,0.63-0.57,1.14-1.18,1.32
			c-2.05,0.62-3.32,2.15-3.32,3.98C74.84,225.53,76.12,227.05,78.16,227.67z M78.16,191.23c0.61,0.19,1.07,0.69,1.18,1.32
			c0.13,0.7,0.2,1.46,0.2,2.25c0,1.81-1.47,3.28-3.28,3.28c-0.78,0-1.53-0.07-2.24-0.2c-0.63-0.12-1.14-0.57-1.33-1.18
			c-0.62-2.05-2.15-3.32-3.98-3.32c-1.83,0-3.35,1.27-3.98,3.32c-0.19,0.61-0.7,1.07-1.33,1.18c-0.71,0.13-1.46,0.2-2.24,0.2
			c-1.81,0-3.28-1.47-3.28-3.28c0-0.79,0.07-1.55,0.2-2.25c0.12-0.63,0.57-1.14,1.18-1.32c2.05-0.62,3.32-2.15,3.32-3.98
			c0-1.83-1.27-3.35-3.32-3.98c-0.61-0.19-1.07-0.69-1.18-1.32c-0.13-0.7-0.2-1.46-0.2-2.25c0-1.81,1.47-3.28,3.28-3.28
			c0.78,0,1.53,0.07,2.24,0.2c0.63,0.12,1.14,0.57,1.33,1.18c0.62,2.05,2.15,3.32,3.98,3.32c1.83,0,3.35-1.27,3.98-3.32
			c0.19-0.61,0.7-1.07,1.33-1.18c0.71-0.13,1.46-0.2,2.24-0.2c1.81,0,3.28,1.47,3.28,3.28c0,0.79-0.07,1.55-0.2,2.25
			c-0.12,0.63-0.57,1.14-1.18,1.32c-2.05,0.62-3.32,2.15-3.32,3.98C74.84,189.08,76.12,190.61,78.16,191.23z"/>
		<path class="st1" d="M243.43,164.92c-0.45-0.13-0.83-0.43-1.05-0.85c-0.43-0.82-1.1-1.49-1.92-1.93c-0.41-0.22-0.72-0.6-0.85-1.05
			c-0.72-2.53-3.87-4.17-8.03-4.17h-7.42c-2.11,0-4,1.29-4.81,3.29c-0.21,0.52-0.66,0.9-1.21,1.02c-0.79,0.18-2.11,0.39-3.93,0.39
			c-2.04,0-3.46-0.27-4.12-0.43c-0.46-0.11-0.86-0.41-1.09-0.83c-1.22-2.19-4.85-3.44-9.94-3.44c-5.09,0-8.71,1.25-9.94,3.44
			c-0.23,0.42-0.63,0.72-1.09,0.83c-0.66,0.16-2.08,0.43-4.12,0.43c-1.82,0-3.14-0.21-3.93-0.39c-0.55-0.12-1-0.5-1.21-1.02
			c-0.81-2-2.71-3.29-4.82-3.29h-7.42c-4.15,0-7.3,1.64-8.02,4.17c-0.13,0.45-0.43,0.83-0.85,1.04c-0.81,0.43-1.5,1.11-1.92,1.93
			c-0.22,0.41-0.6,0.72-1.05,0.85c-2.54,0.72-4.17,3.87-4.17,8.02v7.42c0,2.11,1.29,4,3.29,4.81c0.52,0.21,0.9,0.66,1.02,1.21
			c0.18,0.79,0.39,2.12,0.39,3.93c0,2.04-0.27,3.46-0.43,4.12c-0.11,0.46-0.41,0.86-0.83,1.09c-2.19,1.22-3.44,4.85-3.44,9.94
			c0,5.09,1.25,8.71,3.44,9.94c0.41,0.23,0.71,0.63,0.83,1.09c0.16,0.66,0.43,2.08,0.43,4.13c0,1.81-0.21,3.14-0.39,3.93
			c-0.12,0.55-0.5,1-1.02,1.21c-2,0.81-3.29,2.7-3.29,4.82V238c0,4.16,1.64,7.31,4.17,8.03c0.45,0.13,0.83,0.43,1.05,0.85
			c0.42,0.8,1.07,1.46,1.86,1.89c0.45,0.25,0.77,0.69,0.86,1.2c0.44,2.43,2.11,4.06,4.16,4.06c2.05,0,3.72-1.63,4.16-4.06
			c0.09-0.51,0.41-0.95,0.86-1.2c0.78-0.43,1.42-1.07,1.84-1.86c0.24-0.44,0.65-0.75,1.14-0.86c2.41-0.54,4.1-2.53,4.1-4.86
			c0-2.03-1.36-3.9-3.38-4.65c-0.56-0.21-0.97-0.68-1.08-1.27c-0.11-0.52-0.23-1.37-0.23-2.47c0-1.1,0.13-1.95,0.23-2.47
			c0.12-0.58,0.53-1.06,1.08-1.27c2.02-0.75,3.38-2.62,3.38-4.65c0-2.04-1.36-3.9-3.39-4.65c-0.56-0.21-0.97-0.69-1.09-1.27
			c-0.1-0.5-0.22-1.31-0.22-2.35c0-1.81,1.47-3.28,3.28-3.28c1.04,0,1.85,0.12,2.35,0.22c0.58,0.12,1.07,0.53,1.27,1.09
			c0.75,2.03,2.61,3.39,4.65,3.39c2.03,0,3.9-1.36,4.65-3.38c0.2-0.55,0.68-0.96,1.26-1.08c0.84-0.17,1.91-0.2,2.48-0.2
			s1.63,0.03,2.48,0.2c0.58,0.12,1.05,0.53,1.26,1.08c0.75,2.02,2.62,3.38,4.65,3.38c2.04,0,3.91-1.36,4.65-3.39
			c0.21-0.56,0.69-0.97,1.27-1.09c0.5-0.1,1.31-0.22,2.35-0.22c1.81,0,3.28,1.47,3.28,3.28c0,1.04-0.12,1.85-0.22,2.35
			c-0.12,0.58-0.53,1.06-1.09,1.27c-2.03,0.75-3.4,2.62-3.4,4.65c0,2.03,1.36,3.9,3.39,4.65c0.56,0.21,0.97,0.69,1.08,1.27
			c0.11,0.52,0.23,1.38,0.23,2.47c0,1.09-0.13,1.94-0.23,2.47c-0.12,0.58-0.53,1.06-1.08,1.27c-2.03,0.75-3.39,2.62-3.39,4.65
			c0,2.32,1.69,4.32,4.11,4.86c0.49,0.11,0.9,0.42,1.14,0.86c0.43,0.79,1.07,1.44,1.87,1.87c0.44,0.24,0.75,0.65,0.86,1.14
			c0.54,2.42,2.54,4.1,4.86,4.1c2.03,0,3.9-1.36,4.65-3.38c0.2-0.55,0.68-0.96,1.26-1.08c0.83-0.17,1.9-0.2,2.46-0.2
			c0.56,0,1.64,0.03,2.49,0.2c0.58,0.12,1.06,0.53,1.27,1.08c0.75,2.02,2.62,3.38,4.65,3.38c2.32,0,4.32-1.69,4.86-4.1
			c0.11-0.49,0.42-0.9,0.86-1.14c0.79-0.42,1.43-1.06,1.86-1.84c0.25-0.45,0.69-0.77,1.2-0.86c2.42-0.44,4.05-2.11,4.05-4.15
			c0-2.05-1.63-3.72-4.05-4.15c-0.51-0.09-0.95-0.41-1.2-0.86c-0.42-0.78-1.06-1.41-1.83-1.83c-0.45-0.25-0.77-0.69-0.86-1.2
			c-0.44-2.43-2.11-4.06-4.16-4.06c-1.83,0-3.35,1.27-3.98,3.32c-0.19,0.61-0.69,1.06-1.32,1.18c-0.68,0.13-1.46,0.2-2.25,0.2
			c-1.81,0-3.28-1.47-3.28-3.28c0-0.79,0.07-1.55,0.2-2.25c0.12-0.63,0.57-1.14,1.18-1.32c2.05-0.62,3.32-2.15,3.32-3.98
			c0-1.83-1.27-3.35-3.32-3.98c-0.61-0.19-1.07-0.7-1.18-1.32c-0.13-0.7-0.2-1.46-0.2-2.25c0-1.81,1.47-3.28,3.28-3.28
			c0.78,0,1.53,0.07,2.24,0.2c0.63,0.12,1.14,0.57,1.33,1.18c0.62,2.05,2.15,3.32,3.98,3.32c2.05,0,3.72-1.63,4.16-4.05
			c0.09-0.51,0.41-0.95,0.86-1.2c0.8-0.43,1.44-1.09,1.86-1.89c0.22-0.41,0.6-0.72,1.05-0.85c2.53-0.72,4.17-3.87,4.17-8.02v-6.06
			c0-1.31-0.83-2.94-3.17-3.58c-0.62-0.17-1.1-0.68-1.22-1.31c-0.14-0.7-0.31-1.84-0.31-3.35c0-1.51,0.17-2.66,0.31-3.35
			c0.13-0.63,0.6-1.14,1.23-1.32c2.34-0.64,3.17-2.27,3.17-3.58v-6.06C247.6,168.79,245.96,165.64,243.43,164.92z M226.72,191.23
			c0.61,0.19,1.07,0.7,1.18,1.32c0.13,0.7,0.2,1.46,0.2,2.25c0,1.81-1.47,3.28-3.28,3.28c-1.13,0-1.99-0.14-2.51-0.25
			c-0.51-0.11-0.95-0.46-1.18-0.93c-1.05-2.17-4.03-3.52-7.78-3.52h-6.06c-1.31,0-2.94,0.83-3.58,3.17
			c-0.17,0.62-0.68,1.1-1.31,1.22c-0.8,0.16-2.02,0.25-3.36,0.25s-2.56-0.09-3.36-0.25c-0.63-0.13-1.14-0.6-1.31-1.22
			c-0.64-2.34-2.27-3.17-3.58-3.17h-6.05c-3.75,0-6.73,1.35-7.77,3.52c-0.23,0.47-0.66,0.82-1.18,0.93
			c-0.52,0.11-1.38,0.25-2.51,0.25c-1.81,0-3.28-1.47-3.28-3.28c0-0.79,0.07-1.55,0.2-2.25c0.12-0.63,0.57-1.14,1.18-1.32
			c2.05-0.63,3.32-2.15,3.32-3.98s-1.27-3.35-3.32-3.98c-0.61-0.19-1.06-0.7-1.18-1.32c-0.13-0.7-0.2-1.46-0.2-2.25
			c0-1.81,1.47-3.28,3.28-3.28c1.13,0,1.99,0.14,2.51,0.25c0.51,0.11,0.95,0.46,1.18,0.93c1.05,2.17,4.02,3.52,7.77,3.52h6.05
			c1.31,0,2.94-0.83,3.58-3.17c0.17-0.62,0.68-1.1,1.31-1.22c0.8-0.16,2.02-0.25,3.36-0.25s2.56,0.09,3.36,0.25
			c0.63,0.13,1.14,0.6,1.31,1.22c0.64,2.34,2.27,3.17,3.58,3.17h6.06c3.75,0,6.73-1.35,7.78-3.52c0.23-0.47,0.66-0.82,1.18-0.93
			c0.52-0.11,1.38-0.25,2.51-0.25c1.81,0,3.28,1.47,3.28,3.28c0,0.79-0.07,1.54-0.2,2.25c-0.12,0.63-0.57,1.14-1.18,1.32
			c-2.05,0.62-3.32,2.15-3.32,3.98S224.67,190.61,226.72,191.23z"/>
	</g>
</g>
</svg>
