<?xml version="1.0" encoding="utf-8"?>
<svg version="1.1" id="Layer_1" xmlns="http://www.w3.org/2000/svg" xmlns:xlink="http://www.w3.org/1999/xlink" x="0px" y="0px"
	 viewBox="0 0 256.39 229.57" style="enable-background:new 0 0 256.39 229.57;" xml:space="preserve">
<style type="text/css">
	.st0{fill:#BCA580;}
	.st1{fill:#1E1E1C;}
</style>
<g>
	<path class="st0" d="M197.69,209.95c-0.01-0.02-0.01-0.04-0.02-0.05l-1.14-2.08c0,0,0,0,0,0c0,0,0,0,0,0
		c0-0.01-0.01-0.01-0.02-0.02c-0.01-0.02-0.03-0.04-0.04-0.05c-0.01-0.02-0.03-0.03-0.04-0.05c-0.01-0.01-0.03-0.02-0.05-0.04
		c-0.01,0-0.01-0.01-0.02-0.02c0,0,0,0,0,0c0,0,0,0,0,0c0,0,0,0,0,0c-0.01,0-0.02,0-0.02-0.01c0,0,0,0,0,0
		c-0.02-0.01-0.04-0.02-0.06-0.03c-0.02-0.01-0.04-0.01-0.06-0.02c-0.02,0-0.04-0.01-0.06-0.01c0,0,0,0,0,0
		c-0.01,0-0.01-0.01-0.02-0.01c0,0,0,0,0,0c0,0,0,0-0.01,0h0l-1.05,0l-2.55-1.53c0,0,0,0,0,0c-0.01,0-0.02,0-0.02-0.01
		c-0.03-0.02-0.06-0.02-0.09-0.03c-0.03-0.01-0.06-0.02-0.09-0.02c-0.01,0-0.02-0.01-0.03-0.01l-47.25-0.81l-0.74-1.34
		c0-0.01-0.01-0.01-0.02-0.02c-0.01-0.02-0.02-0.03-0.04-0.05c-0.01-0.02-0.03-0.03-0.05-0.05c-0.02-0.01-0.03-0.03-0.05-0.04
		c-0.01-0.01-0.01-0.01-0.02-0.02c0,0,0,0,0,0c-0.01,0-0.02,0-0.02-0.01c-0.02-0.01-0.04-0.02-0.06-0.03
		c-0.02-0.01-0.05-0.01-0.07-0.02c-0.02,0-0.04-0.01-0.05-0.01c-0.01,0-0.02-0.01-0.03-0.01l-21.81-0.37l-0.73-1.33l18.3,0.33l0,0
		c0.09,0,0.18-0.03,0.25-0.08c0.06-0.04,0.1-0.08,0.14-0.13c0-0.01,0.01-0.01,0.02-0.02c0,0,0,0,0-0.01c0,0,0,0,0,0l0.78-1.29
		l40.19,0.72l5.28,0.09h0c0.14,0,0.26-0.07,0.35-0.17c0.02-0.03,0.06-0.04,0.07-0.07l0.27-0.44l0.51-0.85l0.89,0.02v0l0.01,0
		c0,0,0,0,0.01,0c0,0,0,0,0,0c0.03,0,0.07-0.02,0.1-0.03c0.08-0.02,0.14-0.05,0.19-0.08c0.04-0.03,0.07-0.06,0.1-0.09
		c0,0,0.01,0,0.01-0.01c0,0,0-0.01,0.01-0.02c0-0.01,0.01-0.01,0.02-0.02l1.53-2.54c0.01-0.02,0.01-0.04,0.02-0.05
		c0.01-0.03,0.03-0.06,0.03-0.09c0-0.02,0.01-0.04,0.01-0.07c0-0.01,0-0.03,0-0.04c0-0.02,0-0.05-0.01-0.07
		c-0.01-0.03-0.02-0.06-0.03-0.09c-0.01-0.02-0.01-0.04-0.02-0.05l-1.14-2.08c0,0,0,0,0,0c0,0,0,0,0,0c0,0,0,0-0.01-0.01
		c0-0.01-0.01-0.01-0.01-0.01c-0.01-0.02-0.02-0.04-0.04-0.05c-0.01-0.02-0.03-0.03-0.05-0.05c-0.01-0.01-0.03-0.03-0.05-0.04
		c-0.01-0.01-0.01-0.01-0.02-0.02c0,0,0,0,0,0l0,0c0,0,0,0,0,0c0,0-0.01,0-0.01,0c-0.01,0-0.01,0-0.02-0.01
		c-0.02-0.01-0.04-0.02-0.06-0.03c-0.02-0.01-0.04-0.01-0.06-0.02c-0.02,0-0.04-0.01-0.06-0.01c-0.01,0-0.01,0-0.02,0
		c0,0-0.01,0-0.01,0c0,0,0,0,0,0c0,0,0,0,0,0l-1.04-0.01l-2.55-1.53c0,0,0,0,0,0c-0.01,0-0.02,0-0.02-0.01
		c-0.03-0.02-0.06-0.02-0.09-0.03c-0.03-0.01-0.06-0.02-0.09-0.02c-0.01,0-0.02-0.01-0.03-0.01l-47.25-0.81l-0.74-1.34
		c0-0.01-0.01-0.01-0.02-0.02c-0.01-0.02-0.02-0.03-0.04-0.05c-0.01-0.02-0.03-0.03-0.05-0.05c-0.02-0.02-0.03-0.03-0.05-0.04
		c-0.01,0-0.01-0.01-0.02-0.02c0,0,0,0,0,0c-0.01,0-0.02,0-0.02-0.01c-0.02-0.01-0.04-0.02-0.05-0.02
		c-0.02-0.01-0.05-0.02-0.08-0.02c-0.02,0-0.03-0.01-0.05-0.01c-0.01,0-0.02-0.01-0.03-0.01l-21.82-0.37l-0.72-1.32l18.28,0.31
		c0,0,0.01,0,0.01,0c0.08,0,0.15-0.03,0.21-0.06c0.01,0,0.02,0,0.03-0.01c0,0,0,0,0,0c0.02-0.01,0.03-0.02,0.04-0.03
		c0.05-0.04,0.1-0.08,0.13-0.14l0.01,0l0.76-1.26l45.48,0.8l0,0l0.03,0c0.21,0,0.37-0.13,0.44-0.32l0.41-0.68l0.32-0.53l0.88,0.02v0
		l0.01,0c0.15,0,0.25-0.06,0.33-0.14c0.03-0.03,0.06-0.05,0.08-0.09c0-0.01,0.01-0.01,0.02-0.02l1.54-2.56
		c0.01-0.02,0.01-0.04,0.02-0.06c0.01-0.03,0.03-0.06,0.03-0.09c0-0.02,0.01-0.04,0.01-0.07c0-0.02,0-0.03,0-0.04
		c0-0.02,0-0.04-0.01-0.07c-0.01-0.03-0.02-0.07-0.03-0.1c-0.01-0.02-0.01-0.04-0.02-0.05l-1.15-2.06c0,0,0,0,0,0
		c0,0-0.01-0.01-0.01-0.01c0,0-0.01-0.01-0.01-0.01c-0.01-0.02-0.03-0.04-0.04-0.05c-0.02-0.02-0.03-0.03-0.05-0.05
		c-0.01-0.01-0.03-0.02-0.04-0.04c-0.01-0.01-0.01-0.01-0.02-0.02l0,0c0,0,0,0,0,0c0,0-0.01,0-0.01,0c0,0-0.01,0-0.01,0
		c-0.02-0.01-0.04-0.02-0.06-0.03c-0.02-0.01-0.04-0.01-0.06-0.02c-0.02,0-0.04-0.01-0.06-0.01c-0.01,0-0.01,0-0.02,0
		c0,0-0.01,0-0.01,0c0,0,0,0,0,0c0,0,0,0,0,0l-1.02,0l-2.57-1.54c0,0,0,0,0,0c-0.01,0-0.02,0-0.02-0.01
		c-0.03-0.02-0.06-0.02-0.09-0.03c-0.03-0.01-0.06-0.02-0.09-0.02c-0.01,0-0.02-0.01-0.03-0.01l-47.25-0.81l-0.72-1.33c0,0,0,0,0,0
		c0,0,0,0,0,0c0,0,0,0-0.01-0.01c0-0.01-0.01-0.01-0.01-0.01c-0.01-0.02-0.02-0.04-0.04-0.05c-0.01-0.02-0.03-0.03-0.04-0.05
		c-0.02-0.01-0.03-0.03-0.05-0.04c-0.01,0-0.01-0.01-0.01-0.01c0,0,0,0-0.01-0.01c0,0,0,0,0,0c0,0,0,0,0,0c-0.01,0-0.02,0-0.02-0.01
		c-0.02-0.01-0.04-0.02-0.05-0.02c-0.02-0.01-0.04-0.01-0.07-0.02c-0.02,0-0.04-0.01-0.06-0.01c-0.01,0-0.02-0.01-0.02-0.01
		c0,0,0,0,0,0c0,0,0,0,0,0l0,0l-21.83-0.37l-11.84-21.38c0,0-0.01-0.01-0.01-0.01c0,0,0-0.01,0-0.01c-0.01-0.01-0.02-0.01-0.02-0.02
		c-0.01-0.02-0.02-0.04-0.04-0.05c-0.01-0.01-0.02-0.02-0.03-0.03c-0.02-0.02-0.04-0.03-0.06-0.04c-0.01-0.01-0.02-0.02-0.03-0.02
		c-0.01,0-0.01-0.01-0.01-0.01c0,0-0.01,0-0.01,0c-0.01-0.01-0.03-0.01-0.04-0.01c-0.03-0.01-0.05-0.01-0.08-0.02
		c-0.02,0-0.04-0.01-0.06-0.01c0,0-0.01,0-0.01,0l-52.1-0.9c-0.01,0-0.03,0-0.04,0c-0.01,0-0.02-0.01-0.03-0.01l-25.25-0.45
		c-0.02,0-0.03,0.01-0.04,0.01h0c-0.04,0-0.07,0.01-0.11,0.02c-0.01,0-0.01,0-0.02,0l-0.06,0.02c0,0-0.01,0-0.01,0.01l-13.38,4.9
		c-0.1,0.04-0.17,0.1-0.22,0.18c-0.01,0.01-0.02,0.01-0.02,0.02l-3.83,6.37c-0.01,0.01-0.01,0.03-0.01,0.04
		c-0.01,0.02-0.01,0.03-0.02,0.05C0.01,165.47,0,165.51,0,165.55c0,0.01,0,0.01,0,0.02c0,0.05,0.01,0.1,0.03,0.15
		c0,0.01,0,0.01,0,0.02c0,0.01,0.01,0.01,0.01,0.01c0.02,0.04,0.03,0.07,0.06,0.1l22.99,41.5l0,0c0.04,0.07,0.09,0.12,0.16,0.16
		c0.02,0.01,0.04,0.02,0.06,0.03c0.02,0.01,0.04,0.03,0.07,0.03l19.14,5.46c0.01,0,0.01,0,0.02,0l0.07,0.02c0.01,0,0.02,0,0.03,0
		c0.03,0.01,0.06,0.02,0.1,0.02l8.02,0.12l8.42,15.19c0.01,0.01,0.02,0.02,0.03,0.03c0.03,0.05,0.07,0.09,0.11,0.12
		c0.01,0.01,0.02,0.02,0.03,0.03c0.01,0,0.02,0,0.02,0.01c0.06,0.03,0.13,0.06,0.21,0.06l50.23,0.88c0.03,0.01,0.06,0.03,0.09,0.03
		c0.02,0,0.04,0,0.06-0.01c0.09-0.02,0.17-0.06,0.23-0.12c0.07-0.05,0.12-0.1,0.15-0.18l5.67-6.85c0,0,0,0,0-0.01
		c0-0.01,0.01-0.01,0.01-0.02c0,0,0.01,0,0.01-0.01l1.65-2.33c0,0,0,0,0,0l0.02-0.03l0.54-0.9l2.53-4.21l26.14,0.47v0l0.01,0
		c0,0,0.01,0,0.01,0c0.08,0,0.16-0.02,0.23-0.06c0,0,0.01,0,0.01-0.01l0,0c0.06-0.03,0.11-0.08,0.15-0.14c0,0,0,0,0.01,0
		c0,0,0-0.01,0.01-0.02c0-0.01,0.01-0.01,0.02-0.01l0.78-1.29l45.47,0.81c0,0,0.01,0,0.01,0c0,0,0,0,0,0l0.02,0
		c0.21,0,0.37-0.13,0.44-0.32l0.28-0.46l0.44-0.74l0.91,0.01c0,0,0,0,0.01,0c0.07,0,0.13-0.03,0.2-0.06c0.01-0.01,0.03,0,0.04-0.01
		c0,0,0,0,0,0c0,0,0,0,0,0c0.02-0.01,0.03-0.02,0.04-0.03c0.05-0.03,0.09-0.07,0.12-0.12c0-0.01,0.01-0.01,0.02-0.02l1.53-2.54
		c0.01-0.02,0.01-0.04,0.02-0.05c0.01-0.03,0.03-0.06,0.03-0.09c0-0.02,0.01-0.04,0.01-0.07c0-0.01,0-0.03,0-0.04
		c0-0.02,0-0.05-0.01-0.07C197.71,210.01,197.7,209.98,197.69,209.95z M195.16,208.52l0.1,0l-0.96,1.59l-0.1,0L195.16,208.52z
		 M192.43,207.1l0.91,0.54l0.91,0.54l-0.53,0.88l-0.51,0.84l-0.91-0.54l-0.91-0.55l0.52-0.86L192.43,207.1z M144.57,206.8l0.42-0.69
		l11.34,0.19l35.1,0.6l-0.96,1.59l-46.44-0.8L144.57,206.8z M143.85,205l0.33,0.59l-0.96,1.59l-0.12-0.21l-0.21-0.38l0.24-0.4
		L143.85,205z M121.72,204.14c0.02,0,0.04,0.01,0.05,0.01c0.02,0,0.03-0.01,0.04-0.01l21.21,0.36l-0.37,0.61l-0.59,0.98l-34.55-0.59
		l0.63-1.05l0.33-0.54l4.41,0.08L121.72,204.14z M107.51,203.68l-0.79,1.31l-1.31-2.35l-0.6-1.08l1.86,0.03l1,1.81L107.51,203.68z
		 M107.77,201.62l12.45,0.22l0.73,1.33l-12.45-0.21L107.77,201.62z M139.65,200.74l-0.06-0.11l0.13,0L139.65,200.74z M187.24,198.97
		c0,0-0.01,0-0.01,0c-0.02,0-0.04,0.01-0.06,0.01c-0.03,0-0.06,0.01-0.08,0.02c-0.03,0.01-0.05,0.02-0.07,0.03
		c-0.01,0-0.01,0.01-0.02,0.01c-0.02,0.01-0.05,0.03-0.07,0.04c-0.03,0.02-0.05,0.05-0.07,0.07c-0.01,0.02-0.03,0.02-0.04,0.04
		l-0.79,1.31l-47.25-0.84c0,0-0.01,0-0.01,0c-0.01,0-0.02,0-0.02,0c-0.03,0-0.06,0.01-0.09,0.02c-0.03,0.01-0.06,0.01-0.09,0.03
		c-0.01,0-0.02,0-0.03,0.01c0,0,0,0,0,0c-0.01,0-0.01,0.01-0.01,0.01c-0.01,0.01-0.02,0.02-0.03,0.03
		c-0.03,0.02-0.05,0.04-0.07,0.06c-0.02,0.02-0.03,0.03-0.04,0.05c0,0.01-0.01,0.01-0.02,0.02c0,0.01,0,0.02-0.01,0.02
		c-0.01,0.02-0.02,0.04-0.03,0.06c-0.01,0.03-0.02,0.06-0.02,0.1c0,0.02-0.01,0.04-0.01,0.06c0,0.01,0,0.02,0.01,0.03
		c0,0.03,0.01,0.06,0.02,0.1c0.01,0.03,0.01,0.06,0.03,0.09c0,0.01,0,0.02,0.01,0.03l0.47,0.85l-30.1-0.54l-4.44-0.08l-1.03-1.86
		l-3.03-5.47l34.52,0.59l0.67,1.21c0,0.01,0.01,0.03,0.02,0.04c0.01,0.02,0.01,0.03,0.02,0.05c0.01,0.01,0.01,0.02,0.01,0.03
		c0.01,0.01,0.02,0.02,0.03,0.03c0.03,0.05,0.07,0.09,0.12,0.12c0.02,0.01,0.03,0.03,0.05,0.04c0.07,0.04,0.14,0.06,0.22,0.06
		l47.42,0.82l1.24,0.75l1.16,0.7c0,0,0.01,0,0.01,0.01c0.02,0.02,0.05,0.04,0.08,0.06c0.02,0.01,0.03,0.02,0.05,0.03
		c0.01,0.01,0.02,0.01,0.03,0.02c0.06,0.03,0.12,0.04,0.19,0.04h0l0.94,0l0.36,0.66l0.25,0.45L187.24,198.97z M188.77,195.81
		l0.61,1.11l-0.95,1.59l-0.61-1.11l0.79-1.31L188.77,195.81z M187.85,195.31l0.05,0l0.05,0l-0.27,0.46l-0.68,1.14l-0.05,0l-0.05,0
		l0.6-1L187.85,195.31z M185.12,193.89l0.91,0.54l0.91,0.54l-0.53,0.89l-0.51,0.85l-0.91-0.54l-0.91-0.54l0.52-0.87L185.12,193.89z
		 M137.68,192.89l11.33,0.2l35.11,0.6l-0.97,1.61l-9.73-0.17l-36.71-0.63L137.68,192.89z M136.68,192.05l0.18,0.33l-0.23,0.38
		l-0.74,1.23l-0.33-0.59l0.97-1.61L136.68,192.05z M114.41,190.93c0.02,0,0.04,0.01,0.06,0.01c0.02,0,0.03-0.01,0.05-0.01
		l21.21,0.36l-0.57,0.96l-0.39,0.65l-34.54-0.59l0.97-1.61l10.3,0.18L114.41,190.93z M99.79,191.15l-0.4,0.66l-1.9-3.43l1.87,0.03
		l0.99,1.8L99.79,191.15z M100.47,188.43l12.45,0.22l0.01,0.02l0.71,1.3l-12.45-0.21L100.47,188.43z M132.34,187.53l-0.05-0.09
		l0.1,0L132.34,187.53z M179.91,185.77c-0.01,0-0.01,0-0.01,0c-0.02,0-0.04,0.01-0.06,0.01c-0.03,0-0.06,0.01-0.09,0.02
		c-0.03,0.01-0.05,0.02-0.07,0.03c0,0-0.01,0.01-0.01,0.01c-0.02,0.01-0.05,0.03-0.07,0.05c-0.03,0.02-0.05,0.05-0.07,0.07
		c-0.01,0.02-0.03,0.03-0.04,0.04l-0.78,1.31l-45.41-0.8c-0.01,0-0.01,0-0.02,0l-1.8-0.03c-0.01,0-0.02,0.01-0.03,0.01
		c-0.03,0-0.06,0.01-0.09,0.02c-0.02,0.01-0.05,0.01-0.07,0.02c-0.02,0.01-0.03,0.01-0.05,0.02c-0.03,0.02-0.05,0.04-0.07,0.06
		c-0.01,0.01-0.01,0.01-0.02,0.02c-0.03,0.02-0.05,0.05-0.07,0.08c0,0.01-0.01,0.01-0.01,0.01c-0.01,0.01,0,0.02-0.01,0.03
		c-0.01,0.01-0.01,0.03-0.02,0.04c-0.02,0.04-0.02,0.08-0.03,0.12c0,0.02-0.01,0.03-0.01,0.05c0,0,0,0,0,0c0,0,0,0,0,0
		c0,0.01,0,0.02,0,0.03c0,0.03,0.01,0.06,0.02,0.1c0.01,0.03,0.02,0.06,0.03,0.09c0,0.01,0,0.02,0.01,0.03l0.46,0.81l-34.54-0.6
		l-1.3-2.34l-2.75-4.99l34.53,0.59l0.19,0.36l0.46,0.84c0,0.02,0.01,0.03,0.02,0.05c0.01,0.02,0.01,0.03,0.02,0.04
		c0.01,0.01,0.01,0.02,0.01,0.03c0.01,0.01,0.02,0.02,0.03,0.03c0,0,0,0.01,0.01,0.01c0,0,0,0,0,0c0.03,0.04,0.06,0.08,0.11,0.11
		c0.02,0.01,0.03,0.03,0.05,0.04c0.07,0.04,0.14,0.06,0.21,0.06l47.42,0.82l1.25,0.75l1.17,0.7c0,0,0.01,0,0.01,0.01
		c0.02,0.02,0.05,0.04,0.08,0.06c0.02,0.01,0.03,0.02,0.05,0.03c0.01,0.01,0.02,0.01,0.03,0.02c0.06,0.03,0.12,0.04,0.19,0.04
		l0.91,0l0.19,0.34l0.42,0.77L179.91,185.77z M181.45,182.61l0.61,1.1l-0.24,0.41l-0.72,1.2l-0.61-1.11l0.37-0.61L181.45,182.61z
		 M180.55,182.13h0.02l0.05,0l-0.95,1.58h-0.02l-0.05,0L180.55,182.13z M177.8,180.69l0.92,0.55l0.92,0.55l-0.53,0.88l-0.51,0.84
		l-0.92-0.55l-0.92-0.55l0.52-0.86L177.8,180.69z M130.36,179.7l11.33,0.2l35.11,0.6l-0.96,1.59l-46.44-0.8L130.36,179.7z
		 M129.23,178.61l0.19,0.36l0.12,0.22l-0.41,0.68l-0.55,0.91l-0.1-0.19l-0.21-0.39l0.67-1.12L129.23,178.61z M128.42,178.11
		l-0.96,1.59l-34.55-0.59l0.96-1.59L128.42,178.11z M23.5,177.13c2.83-0.78,6.38-0.08,8.83,0.87l-0.37,0.98c0,0,0,0,0,0l-0.01,0.02
		l0.01,0c0,0,0,0,0,0c-0.01,0.03-0.01,0.07-0.02,0.1c0,0.01-0.01,0.03-0.01,0.04v0c0,0,0,0,0,0c0,0.01,0,0.02,0,0.03
		c0,0.03,0.01,0.05,0.01,0.08c0,0.02,0.01,0.03,0.01,0.05c0.01,0.02,0.01,0.04,0.02,0.06c0,0.01,0,0.02,0.01,0.03l5.67,10.22
		C31.63,187.97,24.89,182.86,23.5,177.13z M38.3,190.76l2.97,5.35c-0.14,0.04-0.28,0.09-0.42,0.13c-0.22,0.06-0.44,0.12-0.67,0.16
		c-0.23,0.04-0.47,0.07-0.71,0.1c-0.24,0.03-0.48,0.06-0.73,0.07c-0.24,0.01-0.48,0.01-0.72,0.01c-0.26,0-0.52,0-0.79-0.02
		c-0.24-0.02-0.47-0.05-0.71-0.07c-0.28-0.03-0.55-0.06-0.83-0.11c-0.23-0.04-0.47-0.09-0.7-0.14c-0.29-0.06-0.57-0.12-0.86-0.2
		c-0.23-0.06-0.46-0.14-0.7-0.21c-0.29-0.09-0.58-0.18-0.87-0.28c-0.23-0.08-0.46-0.18-0.7-0.27c-0.29-0.11-0.57-0.22-0.86-0.35
		c-0.24-0.1-0.47-0.22-0.71-0.33c-0.27-0.13-0.55-0.26-0.81-0.4c-0.25-0.13-0.49-0.27-0.73-0.41c-0.25-0.14-0.5-0.28-0.74-0.42
		c-0.26-0.16-0.51-0.33-0.76-0.49c-0.22-0.14-0.44-0.28-0.65-0.43c-0.27-0.19-0.54-0.4-0.8-0.6c-0.18-0.13-0.36-0.26-0.53-0.4
		c-0.29-0.24-0.57-0.48-0.84-0.73c-0.13-0.12-0.27-0.23-0.39-0.34c-0.3-0.28-0.59-0.58-0.87-0.87c-0.08-0.09-0.17-0.17-0.26-0.26
		c-0.31-0.34-0.59-0.68-0.87-1.02c-0.04-0.05-0.09-0.1-0.13-0.15c-0.62-0.8-1.13-1.62-1.51-2.44c-1.28-2.57-1.61-5.95,1.3-7.75
		c0.24-0.15,0.5-0.28,0.78-0.4c0.03-0.01,0.06-0.02,0.09-0.03C24.16,183.75,31.81,189.33,38.3,190.76z M89.15,169.99l3.9,7.03
		l-0.57,0.94l-0.38,0.64l-2.22-3.99l-1.6-2.87l-0.01-0.02L89.15,169.99z M87.32,171.51l-4.85,8.06l-6.31-0.11l-43.06-0.77l0.3-0.79
		l6.11-16.31l51.78,0.9l-2.6,6.28L87.32,171.51z M95.2,156.67l11.13,20.1l-0.08,0l-12.35-0.21l-4.24-7.63l2.78-6.71L95.2,156.67z
		 M43.27,155.22l51.14,0.89l-2.7,5.43l-51.69-0.9L43.27,155.22z M18.02,154.77l2.07,0.04l22.07,0.39l-3.26,5.42l-5.58-0.1
		l-18.56-0.33l0.77-1.29L18.02,154.77z M4.5,159.79l0.12-0.19l12.03-4.4l-3.04,5.06l-12.03,4.4L4.5,159.79z M42.84,212.14l-19-5.42
		l-22.66-40.9l12.83-4.7l20.22,0.36l4.27,0.08l-0.7,1.87l-1.42,3.8l-3.7,9.87c-2.83-1.1-6.78-1.83-9.91-0.77
		c-0.57,0.19-1.1,0.44-1.56,0.73c-0.22,0.13-0.42,0.27-0.6,0.42c-2.63,2.08-2.4,5.49-1.27,8.08c0.07,0.16,0.15,0.33,0.22,0.49
		c0.19,0.41,0.41,0.81,0.65,1.21c0.08,0.12,0.16,0.25,0.24,0.37c0.18,0.28,0.36,0.55,0.57,0.83c0.11,0.14,0.22,0.28,0.33,0.43
		c0.2,0.25,0.41,0.5,0.62,0.75c0.12,0.14,0.25,0.28,0.38,0.42c0.23,0.25,0.48,0.49,0.72,0.74c0.13,0.12,0.25,0.25,0.38,0.37
		c0.3,0.28,0.62,0.55,0.94,0.82c0.09,0.08,0.18,0.15,0.27,0.23c0.43,0.35,0.87,0.68,1.32,1c0.06,0.04,0.11,0.07,0.17,0.11
		c0.4,0.28,0.8,0.54,1.22,0.8c0.13,0.08,0.27,0.16,0.41,0.24c0.35,0.2,0.7,0.4,1.05,0.59c0.16,0.08,0.31,0.16,0.47,0.24
		c0.35,0.18,0.7,0.34,1.06,0.5c0.16,0.07,0.31,0.14,0.47,0.21c0.38,0.16,0.77,0.31,1.16,0.45c0.13,0.05,0.25,0.1,0.38,0.14
		c1.04,0.36,2.09,0.63,3.13,0.81c0.1,0.02,0.2,0.03,0.3,0.04c0.41,0.06,0.81,0.11,1.21,0.14c0.16,0.01,0.31,0.02,0.47,0.02
		c0.21,0.01,0.41,0.03,0.62,0.03c0.17,0,0.33-0.01,0.49-0.02c0.1,0,0.19-0.01,0.29-0.01c0.47-0.03,0.93-0.08,1.38-0.16
		c0.05-0.01,0.09-0.02,0.14-0.03c0.4-0.08,0.79-0.18,1.17-0.3c0.06-0.02,0.12-0.03,0.18-0.05l4.64,8.37l3.82,6.9L42.84,212.14z
		 M59.88,227.7l-6.66-12.01l-1.73-3.13c0,0,0,0,0,0l-0.03-0.05c0,0,0,0,0,0l-4.9-8.83l-13.32-24.03l1.14,0.02l48.08,0.86
		l26.62,48.04L59.88,227.7z M114.94,222.22l-4.96,5.99l-9.17-16.55l-17.51-31.6l4.43-7.36l0.08,0.15l6.72,12.15l1.72,3.13
		c0,0,0,0,0,0l2.68,4.83c0.01,0.02,0.02,0.04,0.03,0.06c0,0,0,0,0,0s0,0,0,0c0,0,0,0,0,0c0,0,0,0,0,0L115,221.93l0.07,0.13
		L114.94,222.22z M115.7,221.21l-2.03-3.67l-1.54-2.78l1.86,0.03l2.74,4.95L115.7,221.21z M117.32,218.82l-2.22-4.01l4.58,0.08
		L117.32,218.82z M146.97,213.94l-0.06-0.11l0.13,0L146.97,213.94z M194.54,212.18C194.54,212.18,194.53,212.18,194.54,212.18
		c-0.03,0-0.04,0.01-0.06,0.01c-0.03,0-0.06,0.01-0.09,0.02c-0.03,0.01-0.05,0.02-0.08,0.04c-0.03,0.01-0.05,0.03-0.08,0.05
		c-0.03,0.02-0.05,0.05-0.07,0.07c-0.01,0.02-0.03,0.02-0.04,0.04l-0.77,1.29l-47.25-0.84c0,0-0.01,0-0.01,0c-0.01,0-0.01,0-0.02,0
		c-0.03,0-0.07,0.01-0.1,0.02c-0.03,0.01-0.06,0.01-0.09,0.03c-0.01,0-0.02,0-0.03,0.01c0,0,0,0,0,0c0,0-0.01,0.01-0.01,0.01
		c-0.01,0.01-0.02,0.02-0.03,0.03c-0.03,0.02-0.05,0.04-0.07,0.06c-0.02,0.02-0.03,0.03-0.04,0.05c0,0.01-0.01,0.01-0.02,0.02
		c0,0.01,0,0.02-0.01,0.02c-0.01,0.02-0.02,0.04-0.03,0.06c-0.01,0.03-0.02,0.06-0.02,0.1c0,0.02-0.01,0.04-0.01,0.06
		c0,0.01,0,0.02,0.01,0.03c0,0.03,0.01,0.06,0.02,0.1c0.01,0.03,0.01,0.06,0.03,0.09c0,0.01,0,0.02,0.01,0.03l0.47,0.85l-29.45-0.53
		l-5.09-0.09l-1.03-1.86l-3.03-5.47l34.52,0.59l0.67,1.22c0,0.01,0.01,0.03,0.02,0.04c0.01,0.02,0.01,0.03,0.02,0.05
		c0,0.01,0.01,0.02,0.01,0.03c0.01,0.01,0.02,0.02,0.03,0.03c0.03,0.05,0.07,0.09,0.12,0.12c0.02,0.01,0.03,0.03,0.05,0.04
		c0.07,0.04,0.14,0.06,0.21,0.06l47.42,0.82l1.26,0.76l1.14,0.69c0,0,0.01,0,0.01,0.01c0.02,0.02,0.05,0.04,0.08,0.06
		c0.02,0.01,0.03,0.02,0.05,0.03c0.01,0.01,0.02,0.01,0.03,0.02c0.06,0.03,0.12,0.04,0.19,0.04l0.93,0.01l0.62,1.11L194.54,212.18z
		 M195.74,211.71l-0.52-0.94l-0.09-0.16l0.68-1.13l0.28-0.47l0.61,1.11L195.74,211.71z"/>
	<path class="st0" d="M256.37,175.54C256.37,175.54,256.37,175.54,256.37,175.54l-6.05-18.97c0,0,0,0,0,0l0-0.01
		c0-0.02-0.01-0.04-0.02-0.06l0-0.02c0,0,0,0,0-0.01c-0.01-0.04-0.02-0.08-0.04-0.11l-4.33-6.75l7.99-15.42
		c0.01-0.02,0.01-0.04,0.02-0.06c0.01-0.03,0.02-0.06,0.03-0.09c0-0.02,0.01-0.05,0.01-0.07c0-0.01,0-0.03,0-0.04
		c0-0.02-0.01-0.05-0.01-0.07c-0.01-0.03-0.02-0.06-0.03-0.09c-0.01-0.02-0.01-0.04-0.02-0.06l-27.09-42.4c0,0,0,0,0,0
		c-0.02-0.03-0.01-0.07-0.04-0.09c-0.07-0.06-0.13-0.1-0.21-0.11c-0.08-0.03-0.16-0.04-0.24-0.03l-8.83-0.93c0,0-0.01,0-0.01,0
		c0,0-0.01,0-0.01,0c-0.01,0-0.01,0-0.02,0l-2.85-0.09c0,0,0,0,0,0l-0.01,0h-0.01c-0.01,0-0.02,0-0.02,0l-5.95,0.27L194.5,68.29l0,0
		c-0.01-0.01-0.02-0.01-0.02-0.02c-0.04-0.05-0.08-0.09-0.14-0.12c-0.01-0.01-0.02-0.01-0.03-0.02c0,0,0,0-0.01,0
		c-0.04-0.02-0.09-0.03-0.13-0.04c-0.02,0-0.04-0.01-0.07-0.01c-0.01,0-0.02-0.01-0.04,0l0,0c0,0,0,0,0,0l0,0l-1.5,0.07
		l-24.48-38.33c0,0,0,0,0,0l-0.01-0.02c-0.11-0.18-0.32-0.24-0.51-0.19l-1.4,0.06l-0.27-0.41l-0.23-0.35
		c-0.01-0.01-0.02-0.01-0.03-0.02c-0.07-0.1-0.18-0.17-0.31-0.18c-0.02,0-0.05-0.01-0.07-0.01c-0.01,0-0.02,0-0.03,0l-2.96,0.13
		c-0.02,0-0.04,0.01-0.06,0.02c-0.03,0.01-0.06,0.01-0.09,0.02c-0.02,0.01-0.04,0.02-0.06,0.03c-0.01,0.01-0.03,0.02-0.04,0.03
		c-0.02,0.01-0.03,0.03-0.05,0.04c-0.02,0.02-0.04,0.05-0.06,0.08c-0.01,0.02-0.03,0.03-0.04,0.05l-1.1,2.1c0,0,0,0,0,0c0,0,0,0,0,0
		c0,0.01,0,0.01,0,0.02c0,0,0,0,0,0c-0.01,0.02-0.02,0.04-0.02,0.06c-0.01,0.02-0.01,0.04-0.01,0.06c0,0.02,0,0.04,0,0.06
		c0,0.01,0,0.02,0,0.03l0,0c0,0,0,0,0,0c0,0,0,0,0,0.01c0,0,0,0.01,0,0.01c0,0.01,0,0.01,0.01,0.02c0,0.02,0.01,0.04,0.01,0.06
		c0,0.02,0.01,0.04,0.02,0.06c0.01,0.02,0.02,0.04,0.03,0.06c0,0.01,0,0.02,0.01,0.02c0,0,0,0,0,0c0,0,0,0,0,0.01l0.58,0.87
		l0.13,2.97c0,0.01,0.01,0.02,0.01,0.03c0,0.03,0.01,0.06,0.02,0.09c0.01,0.03,0.02,0.06,0.03,0.09c0.01,0.01,0.01,0.02,0.01,0.03
		l25.46,39.81l-0.71,1.36c0,0.01,0,0.02-0.01,0.03c-0.01,0.02-0.02,0.04-0.02,0.06c-0.01,0.02-0.01,0.04-0.01,0.07
		c0,0.02-0.01,0.04-0.01,0.06c0,0.01-0.01,0.02,0,0.03c0,0.01,0.01,0.02,0.01,0.03c0,0.02,0.01,0.04,0.01,0.06
		c0.01,0.02,0.01,0.04,0.02,0.06c0.01,0.02,0.02,0.04,0.03,0.06c0,0,0,0.01,0,0.01c0,0,0,0.01,0.01,0.02c0,0,0,0,0,0l11.75,18.38
		l-0.7,1.34l-9.84-15.41l0,0l0,0l0,0c-0.01-0.01-0.02-0.01-0.02-0.02c-0.04-0.06-0.1-0.11-0.17-0.14c0,0,0,0-0.01,0c0,0,0,0,0,0
		c-0.04-0.02-0.09-0.03-0.14-0.04c-0.02,0-0.04-0.01-0.06-0.01c-0.01,0-0.02-0.01-0.03,0l-1.51,0.07l-24.48-38.33c0,0,0,0,0,0
		l-0.01-0.02c-0.11-0.18-0.32-0.24-0.51-0.19l-1.09,0.05l-0.33,0.01l-0.09-0.14l-0.39-0.62c-0.01-0.01-0.03-0.02-0.04-0.03
		c0,0,0,0,0-0.01c0-0.01-0.01-0.01-0.01-0.02c-0.03-0.03-0.06-0.06-0.1-0.09c-0.02-0.01-0.04-0.03-0.06-0.04
		c-0.03-0.01-0.07-0.02-0.1-0.03c-0.03-0.01-0.05-0.01-0.08-0.02c-0.01,0-0.01,0-0.02,0c-0.01,0-0.01,0-0.02,0l-0.01,0l0,0
		c0,0,0,0,0,0l-2.95,0.13c-0.02,0-0.04,0.01-0.06,0.01c-0.03,0.01-0.06,0.01-0.09,0.02c-0.02,0.01-0.04,0.02-0.06,0.03
		c-0.01,0.01-0.03,0.02-0.04,0.03c-0.02,0.01-0.03,0.03-0.05,0.04c-0.02,0.02-0.04,0.05-0.06,0.08c-0.01,0.02-0.03,0.03-0.04,0.05
		l-1.1,2.1c0,0,0,0,0,0l0,0c0,0,0,0,0,0c0,0.01,0,0.02-0.01,0.02c-0.01,0.02-0.02,0.04-0.02,0.06c-0.01,0.02-0.01,0.04-0.01,0.06
		c0,0.02,0,0.04,0,0.06c0,0.01,0,0.02,0,0.03c0,0,0,0,0,0c0,0,0,0,0,0c0,0.01,0.01,0.02,0.01,0.03c0,0.02,0.01,0.04,0.01,0.06
		c0,0.02,0.01,0.04,0.02,0.06c0.01,0.02,0.02,0.04,0.03,0.06c0,0.01,0.01,0.02,0.01,0.03l0,0c0,0,0,0,0,0l0.56,0.87l0.13,2.98
		c0,0.01,0.01,0.02,0.01,0.03c0,0.03,0.01,0.05,0.02,0.08c0.01,0.02,0.01,0.05,0.02,0.07c0,0,0.01,0.01,0.01,0.01
		c0,0.01,0.01,0.01,0.01,0.02c0,0.01,0.01,0.02,0.01,0.03l25.46,39.81l-0.71,1.36c0,0.01,0,0.02-0.01,0.03
		c-0.01,0.02-0.01,0.04-0.02,0.06c-0.01,0.02-0.01,0.04-0.01,0.06c0,0.02-0.01,0.04-0.01,0.06c0,0.01-0.01,0.02,0,0.03
		c0,0.01,0.01,0.02,0.01,0.03c0,0.02,0.01,0.04,0.01,0.06c0.01,0.02,0.01,0.04,0.02,0.06c0.01,0.02,0.02,0.04,0.03,0.06
		c0,0,0,0.01,0,0.01c0,0.01,0,0.01,0.01,0.02c0,0,0,0,0,0l11.76,18.37l-0.7,1.33l-9.58-14.97l-0.26-0.41h0l-0.01-0.02
		c-0.01-0.01-0.02-0.02-0.03-0.03c0,0-0.01-0.01-0.01-0.01c0-0.01-0.01-0.01-0.01-0.02c-0.04-0.04-0.08-0.07-0.13-0.1
		c-0.01,0-0.01-0.01-0.02-0.01c0,0-0.01,0-0.01,0c-0.04-0.02-0.08-0.03-0.13-0.04c-0.03,0-0.05-0.01-0.08-0.01
		c-0.01,0-0.02,0-0.03,0l-1.47,0.07L154.2,56.61c0,0,0,0,0,0l-0.01-0.02c-0.11-0.18-0.32-0.24-0.51-0.19l-1.42,0.06l-0.47-0.76
		c-0.01-0.01-0.02-0.02-0.03-0.03c0,0,0-0.01-0.01-0.01c0-0.01-0.01-0.01-0.01-0.02c-0.03-0.04-0.07-0.07-0.12-0.1
		c-0.01-0.01-0.02-0.02-0.04-0.02c-0.04-0.02-0.09-0.03-0.13-0.04c-0.02,0-0.04-0.01-0.06-0.01c-0.01,0-0.02-0.01-0.04,0l-2.98,0.13
		c-0.02,0-0.04,0.01-0.06,0.01c-0.03,0.01-0.06,0.01-0.09,0.02c-0.02,0.01-0.04,0.02-0.06,0.03c-0.01,0.01-0.03,0.02-0.04,0.03
		c-0.02,0.01-0.03,0.03-0.05,0.04c-0.03,0.02-0.04,0.05-0.06,0.08c-0.01,0.02-0.03,0.03-0.04,0.04l-1.08,2.1c0,0,0,0,0,0
		c0,0,0,0,0,0c0,0,0,0.01,0,0.01c0,0,0,0.01,0,0.01c-0.01,0.02-0.02,0.04-0.02,0.06c-0.01,0.02-0.01,0.04-0.01,0.06
		c0,0.02,0,0.04,0,0.06c0,0.01-0.01,0.02,0,0.03c0,0,0,0,0,0c0,0,0,0.01,0,0.01c0,0.01,0,0.01,0.01,0.02c0,0.02,0.01,0.04,0.01,0.06
		c0,0.02,0.01,0.04,0.02,0.06c0.01,0.02,0.02,0.04,0.03,0.06c0,0.01,0,0.01,0.01,0.02c0,0,0,0,0,0.01c0,0,0,0,0,0c0,0,0,0,0,0
		l0.56,0.85l0.14,3c0,0.01,0.01,0.02,0.01,0.03c0,0.03,0.01,0.06,0.02,0.09c0.01,0.03,0.02,0.06,0.03,0.09
		c0.01,0.01,0.01,0.02,0.01,0.03l12.81,20.03l12.65,19.78l-0.7,1.34c0,0,0,0,0,0c0,0,0,0,0,0c0,0,0,0,0,0.01
		c0,0.01,0,0.01-0.01,0.02c-0.01,0.02-0.02,0.04-0.02,0.06c-0.01,0.02-0.01,0.04-0.01,0.06c0,0.02-0.01,0.04-0.01,0.06
		c0,0.01,0,0.02,0,0.03c0,0,0,0,0,0c0,0,0,0,0,0c0,0.01,0.01,0.02,0.01,0.03c0,0.02,0.01,0.04,0.01,0.06
		c0.01,0.02,0.01,0.04,0.02,0.06c0.01,0.02,0.02,0.04,0.03,0.06c0,0.01,0,0.01,0.01,0.02c0,0,0,0,0,0.01l0,0c0,0,0,0,0,0
		l11.76,18.39l-11.26,21.7c0,0,0,0.01,0,0.01c0,0,0,0-0.01,0.01c0,0.01,0,0.02-0.01,0.03c-0.01,0.02-0.02,0.03-0.02,0.05
		c0,0.02,0,0.03-0.01,0.05c0,0.02,0,0.05,0,0.07c0,0,0,0.01,0,0.01c0,0.01,0,0.02,0,0.02c0,0,0,0,0,0c0,0.01,0,0.01,0,0.02
		c0,0,0,0,0,0.01c0,0.02,0.01,0.03,0.01,0.05c0.01,0.03,0.02,0.06,0.03,0.09c0.01,0.02,0.01,0.04,0.02,0.06l28.07,43.9
		c0.01,0.01,0.01,0.02,0.02,0.04c0,0.01,0,0.02,0.01,0.03l13.6,21.28c0.01,0.01,0.02,0.02,0.03,0.03c0.02,0.03,0.04,0.05,0.07,0.08
		c0.01,0.01,0.01,0.02,0.02,0.02l11.5,8.45c0,0,0.01,0,0.01,0.01l0.04,0.03c0,0,0.01,0,0.02,0.01c0.08,0.05,0.17,0.09,0.27,0.09
		c0.01,0,0.01,0,0.02,0l7.4-0.33c0,0,0,0,0,0l0.02,0c0.15-0.01,0.27-0.09,0.35-0.2c0,0,0.01,0,0.01-0.01
		c0.01-0.01,0.01-0.02,0.01-0.03c0.02-0.03,0.03-0.06,0.04-0.09l21.85-42.11c0.01-0.01,0.01-0.02,0.01-0.04
		c0.02-0.05,0.04-0.09,0.04-0.14c0,0,0,0,0,0C256.39,175.66,256.38,175.6,256.37,175.54z M226.43,92.54l26.5,41.47l-7.99,15.42l0,0
		l-8.6,16.59l-1.77,3.41l-6.92,13.35l-26.5-41.49L226.43,92.54z M190.94,142.24l9.4-0.42l26.58,41.62l-0.82,0.19c0,0,0,0,0,0
		l-16.96,3.93l-27.9-43.63l6.67-1.31L190.94,142.24z M188.66,141.55l3.52-6.8l0.18-0.35l1.85-0.08l-2.39,4.63l-1.22,2.36
		L188.66,141.55z M227.81,184.2L227.81,184.2c0.01-0.01,0.02-0.03,0.04-0.03c0.03-0.01,0.06-0.01,0.09-0.03c0,0,0.01,0,0.01,0
		c0.04-0.02,0.06-0.06,0.09-0.09c0.01-0.01,0.02-0.02,0.03-0.03c0.01-0.02,0.02-0.03,0.03-0.05c0-0.01,0.01-0.01,0.02-0.02
		l5.38-10.38c1.97,5.94,1.44,14.38-2.56,18.7c-2.22-1.92-3.59-5.27-4.16-7.84L227.81,184.2z M234.09,172.42l2.82-5.43
		c0.12,0.09,0.23,0.18,0.34,0.28c0.17,0.15,0.34,0.3,0.5,0.47c0.17,0.18,0.33,0.36,0.49,0.55c0.15,0.18,0.3,0.35,0.44,0.54
		c0.15,0.21,0.29,0.42,0.43,0.64c0.13,0.2,0.26,0.4,0.38,0.61c0.13,0.23,0.25,0.47,0.38,0.72c0.11,0.22,0.22,0.43,0.32,0.66
		c0.11,0.26,0.22,0.52,0.32,0.79c0.09,0.23,0.18,0.46,0.26,0.69c0.1,0.28,0.18,0.57,0.26,0.86c0.07,0.24,0.14,0.47,0.2,0.71
		c0.08,0.3,0.14,0.61,0.21,0.92c0.05,0.24,0.1,0.47,0.15,0.71c0.06,0.32,0.1,0.65,0.15,0.98c0.03,0.23,0.07,0.46,0.09,0.69
		c0.04,0.35,0.06,0.7,0.08,1.05c0.01,0.22,0.03,0.43,0.04,0.65c0.02,0.37,0.01,0.74,0.01,1.11c0,0.19,0.01,0.39,0,0.58
		c-0.01,0.39-0.04,0.78-0.06,1.17c-0.01,0.17-0.02,0.34-0.03,0.5c-0.04,0.41-0.09,0.82-0.15,1.22c-0.02,0.13-0.03,0.27-0.05,0.4
		c-0.07,0.43-0.16,0.86-0.26,1.27c-0.02,0.1-0.04,0.2-0.06,0.29c-0.11,0.45-0.24,0.89-0.38,1.32c-0.02,0.05-0.03,0.11-0.05,0.16
		c-0.33,0.96-0.73,1.84-1.2,2.61c-0.72,1.24-1.73,2.4-2.96,3.07c-0.61,0.33-1.28,0.55-1.99,0.59c-0.71,0.04-1.45-0.09-2.23-0.45
		c-0.25-0.11-0.51-0.26-0.76-0.42c-0.03-0.02-0.05-0.04-0.08-0.05C236.07,188.07,236.49,178.62,234.09,172.42z M217.64,91.25
		l0.05-0.1l7.94,0.84l-25.35,48.87l-8.58,0.39l0.08-0.15l6.72-12.94l1.33-2.55c0,0,0,0,0,0l2.54-4.91c0.02-0.02,0.02-0.04,0.04-0.07
		L217.64,91.25z M199.36,124.43l-0.98-1.53l-0.03-0.05l0.95-1.82l1.11-0.05l0.75-0.03L199.36,124.43z M205.91,110.43l-0.61-0.96
		l0.23-0.44l0.73-1.39l1.81-0.08l0.04,0l-1.8,3.48L205.91,110.43z M214.85,91.04l1.79,0.06l-3.4,6.54l-0.06-0.1l-0.94-1.47
		L214.85,91.04z M210.36,91.22l3.4-0.15l-2.11,4.07l-2.47-3.86L210.36,91.22z M193.28,69.07l-0.06,0.11l-0.07-0.11L193.28,69.07z
		 M165.3,30.11l0.2,0.31c0.01,0.01,0.02,0.02,0.03,0.03c0.03,0.04,0.07,0.08,0.11,0.11c0.01,0.01,0.02,0.02,0.03,0.03
		c0.01,0,0.01,0,0.02,0.01c0.06,0.03,0.13,0.05,0.2,0.05c0.01,0,0.01,0,0.02,0l1.5-0.07l25.44,39.83c0,0.01,0.01,0.01,0.02,0.02
		c0.03,0.05,0.07,0.08,0.12,0.11c0.05,0.04,0.11,0.06,0.17,0.07c0.03,0.01,0.06,0.02,0.09,0.02c0,0,0.01,0,0.01,0c0,0,0.01,0,0.01,0
		c0.05,0,0.09-0.03,0.13-0.04c0.03-0.01,0.07-0.01,0.1-0.03c0,0,0,0,0.01,0l0,0c0.07-0.04,0.11-0.1,0.15-0.16
		c0-0.01,0.01-0.01,0.02-0.02l0.45-0.86l18.59,29.11l-1.36,2.63l-2.49,4.81l-18.61-29.09l0.24-0.46l0.4-0.77
		c0.01-0.01,0.02-0.03,0.03-0.04c0.01-0.01,0.02-0.03,0.03-0.04c0.01-0.01,0.02-0.02,0.02-0.03c0.01-0.01,0-0.03,0.01-0.04
		c0.02-0.05,0.03-0.11,0.04-0.16c0-0.02,0-0.04,0-0.06c-0.01-0.07-0.03-0.13-0.06-0.2c0-0.01,0-0.01-0.01-0.02L165.41,35.2
		l-0.13-2.8c0,0,0-0.01,0-0.01c0.01-0.03,0.01-0.06,0.01-0.1c0-0.02,0-0.04,0-0.06c0-0.01,0-0.02,0-0.03
		c-0.01-0.04-0.02-0.07-0.04-0.11c-0.01-0.01-0.01-0.03-0.02-0.04c-0.01-0.01-0.01-0.02-0.01-0.04l-0.51-0.79L165.3,30.11z
		 M162,30.87l0.58-1.11l1.86-0.08l-0.54,1.04l-0.04,0.08L162,30.87L162,30.87z M162.06,31.83l0.34-0.02l1.52-0.07l0.06,0.09
		l-1.86,0.08L162.06,31.83z M162.34,32.87l0.22-0.01l1.78-0.08l0.1,2.11l-2,0.09L162.34,32.87z M173.37,52.4l-10.54-16.48l0.76-0.03
		l1.09-0.05l25.03,39.13l-0.4,0.02l-1.45,0.07L173.37,52.4z M187.88,76.01l1.63-0.07l0.23-0.01l-0.31,0.6l-1.85,0.08L187.88,76.01z
		 M187.61,77.57l1.59-0.07l0.27-0.01l18.62,29.1l-1.86,0.08l-4.7-7.34l-2.41-3.76c-0.02-0.06-0.06-0.12-0.11-0.17L187.61,77.57z
		 M198.71,96.69l4.06,6.34l2.65,4.14l-0.71,1.35l-5.03-7.87L198,98.04L198.71,96.69z M186.34,82.47l-0.06,0.11l-0.07-0.11
		L186.34,82.47z M158.35,43.51l0.19,0.3c0.01,0.01,0.02,0.02,0.03,0.03c0.03,0.04,0.07,0.08,0.12,0.11
		c0.02,0.01,0.04,0.03,0.06,0.04c0.06,0.03,0.13,0.05,0.2,0.05c0.01,0,0.01,0,0.02,0l1.52-0.07l25.44,39.83
		c0,0.01,0.01,0.01,0.02,0.02c0.04,0.05,0.09,0.1,0.15,0.14c0,0,0.01,0.01,0.01,0.01c0.03,0.02,0.07,0.02,0.11,0.03
		c0.04,0.01,0.08,0.03,0.12,0.03c0,0,0.01,0,0.01,0c0,0,0.01,0,0.01,0c0.05,0,0.09-0.03,0.13-0.04c0.03-0.01,0.07-0.01,0.1-0.03
		c0,0,0,0,0.01,0c0,0,0,0,0,0c0.07-0.04,0.11-0.1,0.15-0.16c0-0.01,0.01-0.01,0.02-0.02l0.45-0.86l11.27,17.64l7.33,11.47
		l-3.85,7.44l-18.61-29.09l0.64-1.23c0.01-0.01,0.02-0.03,0.03-0.04c0.01-0.01,0.02-0.02,0.03-0.04c0.01-0.01,0.02-0.02,0.02-0.03
		c0.01-0.01,0-0.03,0.01-0.04c0.02-0.05,0.04-0.11,0.04-0.17c0-0.02,0-0.04,0-0.06c-0.01-0.07-0.02-0.15-0.07-0.22l-18.82-29.42
		l-6.74-10.53l-0.13-2.8c0,0,0-0.01,0-0.01c0.01-0.03,0-0.06,0.01-0.1c0-0.02,0-0.04,0-0.06c0-0.01,0-0.02,0-0.04
		c-0.01-0.06-0.03-0.12-0.07-0.18l-0.52-0.78L158.35,43.51z M155.13,44.14l0.52-0.98l0.32-0.01l1.53-0.07l-0.59,1.12l-0.29,0.01
		l-1.56,0.07L155.13,44.14z M155.1,45.23l0.63-0.03l1.22-0.06l0.06,0.09l-1.03,0.05l-0.82,0.04L155.1,45.23z M155.38,46.27
		l2.02-0.09l0.1,2.11l-2.02,0.09L155.38,46.27z M155.87,49.32l1.88-0.08l22.57,35.29l2.45,3.84l-1.88,0.08L155.87,49.32z
		 M180.92,89.41l0.78-0.04l1.09-0.05l-0.31,0.6l-1.88,0.08L180.92,89.41z M180.64,90.97l1-0.04l0.88-0.04l18.62,29.1l-0.64,0.03
		l-1.24,0.06l-7.1-11.1c-0.02-0.07-0.06-0.12-0.11-0.17L180.64,90.97z M191.06,111.4l0.68-1.3l6.71,10.49l-0.7,1.34l-6.71-10.49
		L191.06,111.4z M179.38,95.87l-0.04,0.09l-0.05-0.08L179.38,95.87z M151.41,56.91l0.19,0.3c0.01,0.01,0.02,0.02,0.03,0.03
		c0.03,0.04,0.07,0.08,0.12,0.11c0.02,0.01,0.03,0.02,0.05,0.03c0.06,0.03,0.13,0.05,0.21,0.05c0.01,0,0.01,0,0.02,0l1.52-0.07
		l25.44,39.81c0.01,0.01,0.01,0.01,0.02,0.02c0.04,0.05,0.08,0.09,0.13,0.12c0.05,0.03,0.09,0.04,0.14,0.05
		c0.04,0.01,0.07,0.03,0.11,0.03c0,0,0.01,0,0.01,0c0,0,0.01,0,0.01,0c0.05,0,0.09-0.03,0.13-0.04c0.03-0.01,0.07-0.01,0.1-0.03
		c0,0,0,0,0.01,0c0,0,0,0,0,0c0,0,0-0.01,0.01-0.01c0.06-0.04,0.11-0.1,0.14-0.16c0-0.01,0.01-0.01,0.02-0.02l0.43-0.83l0.62,0.98
		L198.59,125l0.26,0.41l-1.21,2.32l-2.67,5.11l-18.61-29.09l0.64-1.21c0.01-0.01,0.02-0.02,0.03-0.04c0.01-0.01,0.02-0.03,0.03-0.05
		c0.01-0.01,0.01-0.02,0.02-0.02c0.01-0.01,0-0.02,0.01-0.03c0.02-0.06,0.04-0.11,0.04-0.17c0-0.02,0-0.04,0-0.06
		c-0.01-0.08-0.02-0.15-0.07-0.22l-18.82-29.42L151.51,62l-0.13-2.82c0,0,0-0.01,0-0.01c0.01-0.03,0-0.06,0.01-0.09
		c0-0.02,0-0.04,0-0.06c0-0.01,0-0.02,0-0.04c-0.01-0.06-0.03-0.12-0.07-0.18l-0.5-0.76L151.41,56.91z M148.64,56.64l0.04-0.08
		l1.87-0.08l-0.59,1.12l-0.78,0.03l-1.08,0.05L148.64,56.64z M148.2,58.68l-0.03-0.05l0.56-0.03l1.28-0.06l0.04,0.06l-0.5,0.02
		l-1.35,0.06L148.2,58.68z M148.44,59.64l2-0.09l0.1,2.13l-2,0.09L148.44,59.64z M159.46,79.2l-10.54-16.48l1.86-0.08l25.03,39.13
		l-0.34,0.02l-1.51,0.07L159.46,79.2z M173.97,102.81l0.97-0.04l0.88-0.04l-0.31,0.58l-0.36,0.02l-1.49,0.07L173.97,102.81z
		 M177.33,110.02l-3.63-5.68l1.53-0.07l0.33-0.01l11.26,17.6l7.36,11.5l-1.73,0.08l-0.13,0.01L177.33,110.02z M176.43,139.62
		l8.38-16.14l6.7,10.47l-4.01,7.75l-7.13,1.4l-6.15,0.77L176.43,139.62z M174.19,144.85l6.02-0.75l27.85,43.56l-4.13,0.19l-2.18,0.1
		L174.19,144.85z M202.32,188.87l6.31-0.29l13,20.35l-6.32,0.29L202.32,188.87z M230.1,217.56l-3.33,0.15l-10.32-7.58l3.2-0.14
		l2.7-0.12l10.32,7.58L230.1,217.56z M233.86,217.14l-11.01-8.09l-13.19-20.64l6.7-1.55l9.47-2.19c0.65,2.97,2.23,6.66,4.84,8.67
		c0.48,0.37,0.98,0.68,1.48,0.9c0.22,0.1,0.44,0.18,0.65,0.26c0.07,0.02,0.14,0.04,0.21,0.06c0.14,0.04,0.29,0.08,0.43,0.11
		c0.08,0.02,0.16,0.03,0.24,0.04c0.13,0.02,0.26,0.04,0.39,0.05c0.08,0.01,0.16,0.01,0.24,0.01c0.07,0,0.14,0.01,0.21,0.01
		c0.03,0,0.06-0.01,0.1-0.01c0.28-0.01,0.56-0.03,0.84-0.08c0.04-0.01,0.08-0.02,0.12-0.03c0.24-0.05,0.48-0.12,0.71-0.2
		c0.06-0.02,0.12-0.04,0.18-0.06c0.25-0.1,0.5-0.22,0.74-0.35c0.05-0.03,0.1-0.06,0.14-0.09c0.21-0.12,0.42-0.26,0.62-0.41
		c0.04-0.03,0.08-0.06,0.12-0.09c0.22-0.17,0.44-0.36,0.65-0.55c0.04-0.04,0.08-0.08,0.12-0.12c0.2-0.19,0.38-0.39,0.56-0.59
		c0.01-0.01,0.03-0.03,0.04-0.04c0.19-0.22,0.36-0.45,0.53-0.68c0.03-0.04,0.06-0.09,0.09-0.13c0.16-0.23,0.31-0.47,0.45-0.71
		c0.25-0.42,0.49-0.86,0.7-1.32c0.07-0.15,0.12-0.31,0.18-0.46c0.14-0.32,0.28-0.65,0.4-0.99c0.07-0.21,0.13-0.43,0.19-0.65
		c0.09-0.3,0.19-0.6,0.27-0.92c0.06-0.24,0.1-0.5,0.16-0.74c0.06-0.3,0.14-0.6,0.19-0.91c0.05-0.27,0.07-0.54,0.11-0.82
		c0.04-0.3,0.09-0.6,0.12-0.9c0.03-0.28,0.04-0.57,0.05-0.86c0.02-0.3,0.04-0.6,0.05-0.9c0.01-0.29,0-0.59,0-0.89
		c0-0.3,0-0.6-0.01-0.9c-0.01-0.3-0.04-0.6-0.07-0.89c-0.02-0.3-0.04-0.6-0.07-0.89c-0.03-0.3-0.08-0.59-0.13-0.89
		c-0.04-0.29-0.08-0.59-0.13-0.88c-0.05-0.29-0.12-0.58-0.19-0.86c-0.06-0.29-0.12-0.58-0.2-0.86c-0.07-0.28-0.16-0.55-0.25-0.82
		c-0.09-0.28-0.17-0.56-0.26-0.83c-0.09-0.27-0.2-0.52-0.31-0.78c-0.11-0.26-0.21-0.53-0.33-0.79c-0.11-0.25-0.24-0.48-0.37-0.72
		c-0.13-0.25-0.25-0.5-0.39-0.73c-0.13-0.23-0.28-0.44-0.43-0.65c-0.15-0.23-0.3-0.45-0.46-0.67c-0.16-0.2-0.32-0.39-0.49-0.58
		c-0.17-0.2-0.34-0.4-0.53-0.58c-0.18-0.18-0.36-0.33-0.55-0.49c-0.14-0.12-0.27-0.26-0.42-0.38l8.04-15.49l3.99,6.21l3,9.42l3,9.4
		L233.86,217.14z"/>
	<path class="st0" d="M9.39,137.44l0.44,0.96l-0.07,0.1l-0.45,0.64l0,0c-0.01,0.01-0.01,0.03-0.01,0.04
		c-0.01,0.01-0.01,0.02-0.01,0.03c-0.02,0.04-0.03,0.08-0.04,0.13c0,0,0,0,0,0c0,0.02-0.01,0.05-0.01,0.07
		c0,0.03,0.01,0.06,0.01,0.09c0.01,0.03,0.01,0.06,0.02,0.09c0,0.01,0,0.02,0.01,0.03l1.23,2.69c0.01,0.01,0.02,0.02,0.02,0.03
		c0.03,0.05,0.06,0.09,0.11,0.13c0.01,0.01,0.02,0.03,0.04,0.04c0.01,0,0.01,0.01,0.02,0.01c0.06,0.04,0.12,0.06,0.2,0.07l2.36,0.24
		c0,0,0,0,0.01,0c0,0,0,0,0,0c0.01,0,0.03,0,0.04,0h0h0h0h0h0c0,0,0,0,0,0c0.07,0,0.13-0.01,0.2-0.04c0,0,0.01,0,0.01-0.01
		s0.01,0,0.01,0c0,0,0,0,0,0c0.01-0.01,0.02-0.02,0.04-0.03c0.01-0.01,0.03-0.02,0.04-0.03c0.01-0.01,0.02-0.01,0.03-0.02
		c0.02-0.02,0.03-0.03,0.04-0.05c0.01-0.01,0.01-0.01,0.02-0.02c0,0,0,0,0-0.01c0,0,0,0,0,0l0.59-0.86l2.71-1.24c0,0,0,0,0.01-0.01
		c0,0,0.01,0,0.01,0c0.01-0.01,0.02-0.02,0.04-0.03c0.04-0.02,0.07-0.04,0.1-0.07c0.01-0.01,0.01-0.02,0.02-0.03
		c0.01-0.01,0.01-0.01,0.02-0.02l27.37-38.52l1.52,0.14c0.01,0,0.03,0,0.04,0h0h0h0h0h0c0,0,0,0,0,0c0.07,0,0.13-0.01,0.2-0.04
		c0,0,0,0,0.01-0.01c0,0,0.01,0,0.01,0c0.01-0.01,0.02-0.02,0.04-0.03c0.02-0.01,0.03-0.02,0.04-0.03c0.01-0.01,0.02-0.01,0.03-0.02
		c0.02-0.02,0.03-0.03,0.04-0.05c0.01-0.01,0.01-0.01,0.02-0.02l12.63-17.79l1.51,0.15l-10.6,14.89l0,0l-0.01,0.01
		c-0.01,0.01-0.01,0.03-0.02,0.05c-0.02,0.04-0.04,0.09-0.05,0.13c-0.01,0.03-0.02,0.05-0.02,0.08c0,0.07,0.01,0.14,0.04,0.2
		c0,0.01,0,0.01,0,0.02l0,0l0,0c0,0,0,0,0,0c0,0,0,0,0,0l0.63,1.37l-26.37,37.07l0,0c-0.01,0.02-0.01,0.05-0.02,0.07
		c-0.01,0.03-0.02,0.06-0.03,0.1c-0.01,0.04-0.02,0.07-0.02,0.1c0,0.07,0.01,0.14,0.04,0.2l0.01,0.02c0,0,0,0,0,0l0.62,1.35
		l-0.53,0.73l0,0c-0.01,0.01-0.01,0.03-0.01,0.04c-0.02,0.04-0.04,0.09-0.05,0.14c-0.01,0.03-0.01,0.06-0.01,0.09
		c0,0.06,0.01,0.13,0.03,0.18c0,0.01,0,0.02,0,0.02l1.23,2.69c0.01,0.01,0.02,0.02,0.03,0.03c0.03,0.05,0.06,0.09,0.11,0.13
		c0.01,0.01,0.02,0.03,0.04,0.04c0.01,0,0.01,0.01,0.02,0.01c0.06,0.04,0.12,0.06,0.2,0.07l2.36,0.24c0,0,0,0,0,0c0,0,0,0,0,0
		c0.01,0,0.03,0,0.04,0h0h0h0h0h0c0,0,0,0,0,0c0.07,0,0.13-0.01,0.2-0.04c0,0,0.01,0,0.01-0.01c0,0,0.01,0,0.01,0c0,0,0,0,0,0
		c0.01-0.01,0.02-0.02,0.03-0.03c0,0,0,0,0,0c0.01-0.01,0.03-0.02,0.04-0.03c0.01-0.01,0.02-0.01,0.03-0.02
		c0.02-0.02,0.03-0.03,0.04-0.05c0.01-0.01,0.01-0.01,0.02-0.02c0,0,0,0,0,0c0,0,0,0,0,0l0.6-0.85l2.71-1.24c0,0,0,0,0.01-0.01
		c0,0,0.01,0,0.01,0c0.01-0.01,0.02-0.02,0.04-0.03c0.05-0.03,0.09-0.06,0.12-0.1c0.01-0.01,0.01-0.01,0.02-0.02l27.37-38.52
		l1.52,0.14c0.02,0,0.03,0,0.04,0h0h0h0h0c0,0,0,0,0,0l0,0c0.07,0,0.13-0.01,0.2-0.04c0,0,0,0,0.01-0.01c0,0,0.01,0,0.01,0
		c0.01-0.01,0.02-0.02,0.04-0.03c0.02-0.01,0.03-0.02,0.04-0.03c0.01-0.01,0.02-0.01,0.03-0.02c0.02-0.02,0.03-0.03,0.04-0.05
		c0.01-0.01,0.01-0.01,0.02-0.02l12.63-17.79l1.5,0.15l-8.73,12.29l-1.86,2.62l0,0c-0.01,0.01-0.01,0.03-0.01,0.04
		c-0.03,0.05-0.04,0.1-0.05,0.15c0,0.03-0.01,0.05-0.01,0.08c0,0.07,0.01,0.13,0.04,0.19c0,0,0,0.01,0,0.01l0,0l0.61,1.34
		l-26.36,37.07c0,0,0,0,0,0l-0.02,0.02c-0.12,0.17-0.1,0.38,0.02,0.54l0.59,1.29l-0.52,0.72l0,0l0,0.01
		c-0.01,0.01-0.01,0.03-0.02,0.05c0,0,0,0,0,0.01c0,0.01-0.01,0.01-0.01,0.02c-0.02,0.04-0.03,0.08-0.04,0.12
		c0,0.02-0.01,0.03-0.01,0.05c0,0,0,0,0,0.01c0,0,0,0,0,0c0,0,0,0.01,0,0.01c0,0.03,0,0.07,0.01,0.1c0.01,0.03,0.01,0.06,0.02,0.09
		c0,0.01,0,0.02,0,0.02c0,0,0,0,0,0c0,0,0,0,0,0l1.24,2.71c0.01,0.01,0.02,0.02,0.02,0.03c0.03,0.05,0.06,0.09,0.11,0.13
		c0.01,0.01,0.02,0.03,0.04,0.04c0.01,0,0.01,0.01,0.02,0.01c0.06,0.04,0.13,0.06,0.2,0.07l2.35,0.22c0.01,0,0.03,0,0.04,0h0h0h0h0
		h0l0,0c0.07,0,0.13-0.01,0.2-0.04c0,0,0.01-0.01,0.01-0.01c0,0,0.01,0,0.01,0c0,0,0,0,0,0c0.01-0.01,0.02-0.02,0.04-0.03
		c0.01-0.01,0.03-0.02,0.04-0.03c0.01-0.01,0.02-0.01,0.03-0.02c0.02-0.02,0.03-0.03,0.04-0.05c0.01-0.01,0.01-0.01,0.02-0.02
		c0,0,0,0,0,0c0,0,0,0,0,0l0.58-0.84l2.73-1.25c0,0,0,0,0.01-0.01c0,0,0.01,0,0.01,0c0.01-0.01,0.02-0.02,0.04-0.03
		c0.05-0.03,0.09-0.06,0.12-0.1c0.01-0.01,0.01-0.01,0.02-0.02L74.6,104.7l1.5,0.15l0,0c0,0,0,0,0,0c0.01,0,0.03,0,0.04,0h0h0
		c0,0,0,0,0,0h0h0l0,0c0.07,0,0.13-0.01,0.2-0.04c0,0,0,0,0.01-0.01c0,0,0.01,0,0.01,0c0,0,0,0,0,0c0.01,0,0.01-0.01,0.02-0.02
		c0.01,0,0.01-0.01,0.02-0.02c0.01-0.01,0.03-0.02,0.04-0.03c0.01-0.01,0.02-0.01,0.03-0.02c0.02-0.02,0.03-0.03,0.04-0.05
		c0.01-0.01,0.01-0.01,0.02-0.02c0,0,0,0,0,0l0,0l12.64-17.79l24.34,2.31c0.01,0,0.01,0,0.02,0l0,0c0.01,0,0.02,0,0.03,0h0h0
		c0,0,0,0,0,0h0h0c0,0,0.01,0,0.01,0c0.01,0,0.01,0,0.02,0c0.07,0,0.13-0.02,0.19-0.05c0,0,0,0,0.01,0c0,0,0,0,0.01,0c0,0,0,0,0,0
		c0.02-0.01,0.04-0.04,0.06-0.05c0.01-0.01,0.02-0.02,0.04-0.03c0.02-0.02,0.04-0.03,0.05-0.05c0,0,0.01,0,0.01-0.01l30.2-42.5
		c0.01-0.01,0.02-0.02,0.03-0.03l14.64-20.58c0.01-0.02,0.01-0.04,0.02-0.05c0.02-0.03,0.03-0.06,0.04-0.09
		c0-0.01,0.01-0.01,0.01-0.02l3.53-13.83c0-0.01,0-0.01,0-0.02l0.01-0.04c0-0.01,0-0.03,0-0.04c0.01-0.04,0.01-0.08,0.01-0.12
		c0-0.03-0.01-0.06-0.02-0.09c-0.01-0.02-0.01-0.04-0.02-0.07l-3.09-6.75l0,0c0-0.01-0.01-0.01-0.01-0.02
		c-0.06-0.12-0.17-0.22-0.32-0.25c-0.02-0.01-0.04,0-0.07,0L111.62,0c-0.01,0-0.01,0-0.02,0c-0.12-0.01-0.24,0.03-0.33,0.11
		L95.95,12.82c-0.01,0-0.01,0.01-0.02,0.01l-0.05,0.04c0,0-0.01,0.01-0.01,0.01c-0.03,0.02-0.06,0.04-0.08,0.07l0,0l0,0l-0.77,1.09
		l-3.86,5.46l-17.29-1.64c-0.02,0-0.03,0.01-0.05,0.01c-0.04,0-0.08,0-0.11,0.01c-0.02,0-0.03,0.01-0.05,0.02
		c-0.02,0.01-0.03,0.01-0.05,0.02c-0.02,0.01-0.04,0.03-0.07,0.04c-0.02,0.02-0.04,0.03-0.06,0.05c-0.02,0.02-0.04,0.03-0.05,0.05
		l-29.16,41c0,0,0,0.01,0,0.01c0,0-0.01,0.01-0.01,0.01c-0.01,0.02-0.01,0.03-0.02,0.05c-0.02,0.04-0.04,0.07-0.05,0.12
		c-0.03,0.12-0.01,0.25,0.06,0.36l2.45,8.54c0,0,0,0,0,0c0,0.01,0,0.01,0.01,0.02c0,0,0,0.01,0,0.01l0.99,2.68c0,0,0,0,0,0
		l0.01,0.03l0,0.01c0,0,0,0,0,0l2.48,5.42l-15.16,21.3l0,0l-0.01,0.01c-0.01,0.02-0.01,0.04-0.02,0.05
		c-0.02,0.03-0.02,0.06-0.03,0.09c-0.01,0.03-0.03,0.06-0.03,0.1c-0.01,0.08,0.01,0.15,0.03,0.21c0,0.01,0,0.01,0,0.02
		c0,0,0,0,0.01,0.01l0,0l0.63,1.37l-14.93,20.99L9.25,136.56c0,0,0,0,0,0l-0.02,0.02c-0.12,0.17-0.1,0.38,0.02,0.54L9.39,137.44z
		 M11.79,141.73l-0.53-0.05l-0.77-1.69l1.22,0.11l0.03,0l0.1,0.23l0.67,1.47L11.79,141.73z M13.39,141.37l-0.01,0.02l-0.77-1.69
		l0.06-0.08l0.77,1.69L13.39,141.37z M14.23,140.74l-0.52-1.14l-0.31-0.69l1.92-0.88l0.83,1.82L14.23,140.74z M16.88,139.14
		l-0.77-1.69l21.98-30.93l4.93-6.93l0.3,0.66l0.47,1.03L16.88,139.14z M44.66,100.9l-0.77-1.69l0.68,0.06l0.77,1.69L44.66,100.9z
		 M58.57,83.15c-0.01,0.01-0.02,0.03-0.03,0.04l-0.02,0.03c0,0,0,0,0,0l-12.31,17.33l-0.23-0.49l-0.55-1.19l20.01-28.17l0.77,1.69
		L58.57,83.15z M59.78,83.11l7.21-10.15l1.52,0.15l-7.22,10.15L59.78,83.11z M66.32,70.33l3.91,0.37l-1.08,1.51l-2.06-0.2
		l-0.34-0.75L66.32,70.33z M26.75,143.14l-0.47-0.05l-0.77-1.69l0.78,0.08l0.47,0.05l0.77,1.69L26.75,143.14z M27.55,139.66
		c-0.01,0.01-0.02,0.01-0.03,0.01c-0.05,0.03-0.1,0.08-0.14,0.13l-0.34,0.51l-0.18,0.27l-1.25-0.13l-0.01,0l0.21-0.29
		c0.01-0.02,0.02-0.04,0.03-0.06c0.02-0.03,0.03-0.06,0.04-0.09c0.01-0.02,0.01-0.04,0.01-0.07c0-0.02,0-0.03,0-0.05
		c0-0.02,0-0.04,0-0.07c0-0.03-0.01-0.07-0.02-0.1c-0.01-0.02,0-0.04-0.01-0.06l-0.63-1.38l27.4-38.51
		c0.05-0.06,0.07-0.14,0.08-0.21c0-0.01,0.01-0.01,0.01-0.02c0,0,0,0,0,0c0-0.02-0.01-0.04-0.01-0.06c0-0.03,0-0.06-0.01-0.1
		c-0.01-0.02-0.01-0.04-0.02-0.07c0-0.01,0-0.01,0-0.02c0-0.01-0.01-0.01-0.01-0.02c-0.01-0.02-0.02-0.04-0.04-0.06
		c-0.02-0.03-0.04-0.05-0.07-0.07c-0.01-0.01-0.02-0.03-0.04-0.04c0,0,0,0,0,0c-0.01-0.01-0.02-0.01-0.03-0.01
		c-0.03-0.02-0.06-0.03-0.09-0.04c-0.03-0.01-0.06-0.02-0.09-0.03c-0.01,0-0.02-0.01-0.03-0.01l-0.96-0.09L71.33,70.8l8.34,0.79
		l-16.9,23.79l-3.1,4.36l-0.05-0.01l-1.33-0.13c-0.01-0.01-0.03-0.01-0.05-0.01c-0.02,0-0.03-0.01-0.05-0.01
		c-0.01,0-0.02-0.01-0.03-0.01c-0.01,0-0.02,0.01-0.04,0.01c-0.06,0-0.12,0.01-0.17,0.03c-0.02,0.01-0.04,0.01-0.06,0.02
		c-0.07,0.03-0.13,0.08-0.17,0.14l-27.47,38.66l-2.55,1.16c-0.01,0-0.01,0-0.01,0.01c-0.03,0.01-0.06,0.02-0.09,0.03
		C27.59,139.64,27.57,139.65,27.55,139.66z M51.22,99.9l0.13,0.01l-0.07,0.1L51.22,99.9z M28.44,142.77l-0.03,0.05l-0.27-0.58
		l-0.51-1.11l0.06-0.08l0.77,1.69L28.44,142.77z M29.26,142.17l-0.84-1.84l1.92-0.88l0.84,1.84L29.26,142.17z M36.83,133.64
		l-4.93,6.93l-0.78-1.71l19.01-26.75L58.03,101l0.78,1.71L36.83,133.64z M59.69,102.33L59.54,102l-0.63-1.38l0.68,0.06l0.78,1.71
		L59.69,102.33z M73.61,84.58c-0.05,0.05-0.09,0.1-0.12,0.17L61.24,102l-0.31-0.67l-0.47-1.04l20.01-28.17l0.78,1.71L73.61,84.58z
		 M74.81,84.54L82,74.42l0.02-0.02l1.5,0.15l-7.21,10.15L74.81,84.54z M81.34,71.74l3.9,0.37l-1.08,1.53l-2.04-0.2L81.34,71.74z
		 M41.31,144.53l-0.16-0.35l-0.62-1.36l0.15,0.02l1.11,0.11l0.77,1.69L41.31,144.53z M42.57,141.1c-0.01,0.01-0.02,0.01-0.03,0.01
		c-0.05,0.03-0.1,0.08-0.14,0.13L41.87,142l-1.26-0.13l-0.01,0l0.21-0.29c0.01-0.02,0.02-0.04,0.02-0.05
		c0.02-0.03,0.03-0.06,0.04-0.09c0.01-0.02,0.01-0.04,0.01-0.07c0-0.02,0-0.03,0-0.05c0-0.02,0-0.04,0-0.07
		c0-0.03-0.01-0.06-0.02-0.1c-0.01-0.02-0.01-0.04-0.01-0.06l-0.63-1.38l26.32-37.02c0,0,0,0,0,0l1.05-1.48
		c0.05-0.06,0.07-0.14,0.08-0.21c0-0.01,0.01-0.01,0.01-0.02c0,0,0,0,0,0c0-0.02-0.01-0.04-0.01-0.06c0-0.03,0-0.07-0.01-0.1
		c-0.01-0.02-0.01-0.04-0.02-0.06c0-0.01,0-0.02,0-0.02c0-0.01-0.01-0.01-0.01-0.02c-0.01-0.02-0.02-0.04-0.04-0.06
		c-0.02-0.03-0.04-0.05-0.06-0.07c-0.02-0.01-0.02-0.03-0.04-0.04c0,0,0,0,0,0l0,0c-0.01-0.01-0.02-0.01-0.03-0.01
		c-0.03-0.02-0.06-0.03-0.09-0.04c-0.03-0.01-0.06-0.02-0.09-0.03c-0.01,0-0.02-0.01-0.03-0.01l-0.93-0.08l20.01-28.16l2.77,0.26
		l5.57,0.54l-5.99,8.44l-14,19.71l-1.36-0.14c-0.01-0.01-0.03-0.01-0.05-0.01c-0.02-0.01-0.04-0.01-0.06-0.01
		c-0.01,0-0.02-0.01-0.02-0.01c0,0,0,0,0,0c-0.01,0-0.02,0.01-0.04,0.01c-0.06,0-0.11,0.01-0.16,0.03
		c-0.02,0.01-0.05,0.01-0.07,0.03c-0.06,0.03-0.12,0.08-0.17,0.14l-27.47,38.66l-2.57,1.17c0,0-0.01,0-0.01,0
		c-0.03,0-0.06,0.02-0.09,0.03C42.6,141.09,42.58,141.09,42.57,141.1z M66.25,101.33l0.1,0.01l-0.06,0.08L66.25,101.33z
		 M43.43,144.23l-0.77-1.68l0.01-0.01l0.04-0.06l0.77,1.68L43.43,144.23z M44.26,143.6l-0.83-1.82l1.34-0.61l0.6-0.28l0.83,1.82
		L44.26,143.6z M46.93,141.99l-0.33-0.72l-0.45-0.97l26.9-37.86l0.77,1.69L46.93,141.99z M74.71,103.75l-0.77-1.68l0.65,0.07
		l0.77,1.68L74.71,103.75z M76.24,103.42l-0.77-1.69l20.01-28.17l0.77,1.69L76.24,103.42z M109.84,87.86l-20.02-1.9l7.2-10.14
		l8.69,0.82l1.36,2.08l2.61,4l3.02,5.42L109.84,87.86z M136.33,17.42c-0.95,2.78-3.54,5.31-5.71,6.79l-0.6-0.85l0,0l-0.01-0.01
		c0-0.01-0.01-0.01-0.02-0.01c-0.02-0.02-0.04-0.04-0.06-0.06c-0.02-0.01-0.02-0.03-0.04-0.05c-0.01-0.01-0.02-0.01-0.03-0.01
		c-0.03-0.02-0.06-0.03-0.08-0.04c-0.01,0-0.02-0.01-0.03-0.01c-0.01,0-0.02-0.01-0.02-0.01c-0.01,0-0.03,0-0.04,0
		c-0.01,0-0.02-0.01-0.03-0.01l-11.64-1.1C122.8,18,130.83,15.33,136.33,17.42z M116.72,21.93l-1.12-0.11l-4.97-0.47
		c0.04-0.14,0.09-0.29,0.14-0.43c0.07-0.21,0.15-0.42,0.24-0.62c0.1-0.23,0.22-0.46,0.34-0.68c0.1-0.2,0.21-0.39,0.33-0.58
		c0.14-0.23,0.3-0.46,0.46-0.68c0.13-0.18,0.25-0.36,0.39-0.53c0.18-0.23,0.38-0.46,0.58-0.69c0.14-0.16,0.27-0.31,0.42-0.47
		c0.23-0.24,0.47-0.47,0.72-0.7c0.14-0.13,0.28-0.26,0.42-0.39c0.28-0.25,0.58-0.48,0.88-0.72c0.13-0.1,0.25-0.2,0.38-0.3
		c0.34-0.25,0.7-0.5,1.06-0.73c0.1-0.07,0.2-0.14,0.3-0.2c0.41-0.26,0.83-0.5,1.26-0.74c0.06-0.04,0.13-0.07,0.19-0.11
		c0.48-0.26,0.97-0.5,1.46-0.73c0.02-0.01,0.04-0.02,0.05-0.03c3.66-1.67,7.67-2.48,10.81-1.95c2.84,0.4,5.82,2.04,5.66,5.45
		c-0.01,0.28-0.05,0.57-0.1,0.87c-0.01,0.03-0.01,0.06-0.02,0.09C130.5,14.22,121.57,17.38,116.72,21.93z M130.11,25.15l10,14.26
		l-24.54,34.53l-5.46,7.68l-3.71-5.69l-1.49-2.69L101,64.69l28.62-40.24L130.11,25.15z M104.89,75.18l0.24,0.43l-8.01-0.75
		l-0.77-1.68l7.84,0.73L104.89,75.18z M123.15,74.38l-9.54,13.42l-2.95-5.3l29.95-42.14l2.63,5.75L123.15,74.38z M147.13,40.66
		l-3.24,4.56l-1.1-2.4l-1.53-3.35l14-19.68l2.13,4.66l0.5,1.09L147.13,40.66z M159.01,6.38l0.4,0.88l2.05,4.49l-1.98,7.76
		l-1.19,4.65l-2.23-4.88l-0.22-0.49L159.01,6.38z M96.52,13.59l8.11-6.73l7.1-5.89l8.71,0.83l37.84,3.59l-0.5,1.96l-2.88,11.28
		l-14.19,19.96l-1.07-1.52L131.18,25c2.5-1.71,5.34-4.56,6.23-7.74c0.16-0.58,0.26-1.16,0.28-1.7c0.07-1.52-0.39-2.75-1.15-3.71
		c-0.09-0.12-0.19-0.22-0.29-0.33c-0.04-0.04-0.07-0.09-0.11-0.12c-1.29-1.31-3.18-2.03-4.92-2.28c-0.48-0.08-0.97-0.13-1.48-0.16
		c-0.31-0.02-0.63,0-0.95,0c-0.2,0-0.4-0.01-0.6,0c-0.32,0.02-0.66,0.06-0.99,0.09c-0.21,0.02-0.42,0.03-0.63,0.06
		c-0.31,0.04-0.63,0.11-0.95,0.17c-0.24,0.04-0.48,0.08-0.72,0.13c-0.29,0.06-0.58,0.15-0.88,0.22c-0.27,0.07-0.54,0.13-0.81,0.21
		c-0.27,0.08-0.54,0.18-0.81,0.27c-0.29,0.1-0.58,0.19-0.87,0.3c-0.25,0.09-0.49,0.2-0.74,0.3c-0.31,0.13-0.61,0.25-0.91,0.38
		c-0.23,0.11-0.46,0.23-0.69,0.34c-0.31,0.15-0.62,0.3-0.92,0.46c-0.22,0.12-0.43,0.25-0.65,0.38c-0.3,0.17-0.6,0.34-0.89,0.53
		c-0.21,0.13-0.41,0.28-0.61,0.42c-0.28,0.19-0.57,0.38-0.84,0.59c-0.2,0.15-0.38,0.31-0.58,0.46c-0.26,0.21-0.52,0.41-0.76,0.63
		c-0.19,0.17-0.36,0.34-0.54,0.51c-0.23,0.22-0.46,0.44-0.67,0.66c-0.17,0.18-0.33,0.37-0.49,0.56c-0.19,0.23-0.39,0.45-0.57,0.69
		c-0.15,0.2-0.29,0.41-0.43,0.61c-0.16,0.23-0.32,0.47-0.46,0.7c-0.13,0.21-0.23,0.43-0.34,0.65c-0.12,0.24-0.25,0.48-0.35,0.73
		c-0.1,0.22-0.17,0.45-0.25,0.68c-0.06,0.18-0.15,0.36-0.2,0.54l-17.38-1.64L96.52,13.59z M54.45,46.43l19.61-27.58l17.29,1.64
		c0,0,0,0,0,0l18.61,1.76l5,0.47l13.8,1.31l-28.54,40.12l-54.48-5.17l-0.19-0.02L54.45,46.43z M47.59,67.59l-0.07-0.01l-2.2-7.68
		l7.1,0.67l47.71,4.52l3.57,7.81l-14.64-1.39l-2.9-0.28c0,0,0,0,0,0l-5.56-0.52c0,0,0,0-0.01,0c0,0,0,0,0,0c0,0,0,0-0.01,0
		c0,0,0,0-0.01,0L47.59,67.59z M47.87,68.58l7.34,0.7l-0.14,0.2l-0.94,1.32l-5.64-0.54L47.87,68.58z M49.26,72l-0.34-0.74l4.56,0.43
		l-0.97,1.37l-1.68,2.36L49.26,72z M37.59,98.38c0.05-0.06,0.07-0.14,0.08-0.21c0-0.01,0.01-0.01,0.01-0.02c0,0,0,0,0,0
		c0-0.02-0.01-0.04-0.01-0.06c0-0.03,0-0.06-0.01-0.1c-0.01-0.02-0.01-0.04-0.02-0.07c0-0.01,0-0.02,0-0.02
		c0-0.01-0.01-0.01-0.01-0.02c-0.01-0.02-0.02-0.04-0.03-0.06c-0.02-0.03-0.04-0.05-0.07-0.07c-0.01-0.01-0.02-0.03-0.04-0.04
		c0,0,0,0,0,0c-0.01-0.01-0.02-0.01-0.02-0.01c-0.03-0.02-0.06-0.03-0.09-0.04c-0.03-0.01-0.06-0.02-0.09-0.03
		c-0.01,0-0.02-0.01-0.03-0.01l-0.96-0.09l14.85-20.87l0,0l0.13-0.19l5.04-7.09l8.34,0.79l-16.9,23.79l-3.1,4.36l-0.03,0l-1.35-0.13
		c-0.01-0.01-0.03-0.01-0.04-0.01c-0.02,0-0.03-0.01-0.05-0.01c-0.01,0-0.02-0.01-0.03-0.01c-0.01,0-0.02,0.01-0.04,0.01
		c-0.06,0-0.12,0.01-0.17,0.03c-0.02,0.01-0.03,0.01-0.05,0.02c-0.07,0.03-0.13,0.08-0.18,0.15l-27.47,38.66l-2.55,1.17
		c0,0-0.01,0-0.01,0c-0.03,0-0.06,0.02-0.09,0.03c-0.02,0.01-0.04,0.01-0.06,0.02c-0.01,0-0.02,0.01-0.03,0.01
		c-0.05,0.03-0.1,0.08-0.14,0.13l-0.54,0.76l-1.26-0.12l0.21-0.3c0.01-0.02,0.01-0.04,0.02-0.05c0.02-0.03,0.03-0.06,0.04-0.09
		c0.01-0.02,0.01-0.04,0.01-0.07c0-0.02,0-0.03,0-0.04c0-0.02,0-0.04,0-0.07c0-0.03-0.01-0.07-0.02-0.1c-0.01-0.02,0-0.04-0.01-0.06
		l-0.62-1.36L37.59,98.38z M36.2,98.49l0.13,0.01l-0.07,0.1L36.2,98.49z"/>
</g>
<g>
	<polygon class="st1" points="91.62,161.55 94.32,156.12 43.18,155.24 39.92,160.65 	"/>
	<polygon class="st1" points="128.32,178.13 93.78,177.54 92.82,179.13 127.37,179.72 	"/>
	<polygon class="st1" points="195.17,208.54 195.07,208.54 194.11,210.13 194.21,210.13 	"/>
	<polygon class="st1" points="89.79,174.63 92.01,178.62 92.4,177.98 92.96,177.03 89.06,170 88.19,171.74 88.2,171.76 	"/>
	<polygon class="st1" points="112.04,214.78 113.58,217.56 115.61,221.23 116.65,219.77 113.9,214.81 	"/>
	<path class="st1" d="M22.48,177.46c-0.03,0.01-0.06,0.02-0.09,0.03c-0.27,0.12-0.54,0.25-0.78,0.4c-2.91,1.8-2.58,5.18-1.3,7.75
		c0.38,0.82,0.9,1.64,1.51,2.44c0.04,0.05,0.09,0.1,0.13,0.15c0.27,0.35,0.56,0.69,0.87,1.02c0.08,0.09,0.17,0.17,0.26,0.26
		c0.28,0.29,0.56,0.59,0.87,0.87c0.13,0.12,0.26,0.23,0.39,0.34c0.28,0.25,0.55,0.49,0.84,0.73c0.17,0.14,0.35,0.27,0.53,0.4
		c0.26,0.2,0.53,0.41,0.8,0.6c0.21,0.15,0.43,0.29,0.65,0.43c0.25,0.17,0.5,0.34,0.76,0.49c0.24,0.15,0.49,0.28,0.74,0.42
		c0.24,0.14,0.48,0.28,0.73,0.41c0.27,0.14,0.54,0.27,0.81,0.4c0.23,0.11,0.47,0.23,0.71,0.33c0.28,0.12,0.57,0.23,0.86,0.35
		c0.23,0.09,0.46,0.18,0.7,0.27c0.29,0.1,0.58,0.19,0.87,0.28c0.23,0.07,0.46,0.14,0.7,0.21c0.29,0.08,0.57,0.14,0.86,0.2
		c0.23,0.05,0.47,0.1,0.7,0.14c0.28,0.05,0.55,0.08,0.83,0.11c0.24,0.03,0.48,0.06,0.71,0.07c0.26,0.02,0.53,0.02,0.79,0.02
		c0.24,0,0.48,0,0.72-0.01c0.25-0.01,0.49-0.04,0.73-0.07c0.24-0.03,0.48-0.06,0.71-0.1c0.23-0.04,0.45-0.1,0.67-0.16
		c0.14-0.04,0.28-0.08,0.42-0.13l-2.97-5.35C31.71,189.35,24.07,183.77,22.48,177.46z"/>
	<polygon class="st1" points="128.86,179.1 128.19,180.21 128.4,180.6 128.5,180.79 129.05,179.88 129.46,179.2 129.34,178.98 
		129.14,178.62 	"/>
	<polygon class="st1" points="33.01,178.71 76.07,179.47 82.38,179.59 87.23,171.52 88.6,168.78 91.2,162.5 39.42,161.6 
		33.31,177.91 	"/>
	<polygon class="st1" points="117.23,218.84 119.59,214.91 115.01,214.83 	"/>
	<path class="st1" d="M193.27,211.08c-0.07,0-0.13-0.02-0.19-0.04c-0.01,0-0.02-0.01-0.03-0.02c-0.02-0.01-0.03-0.02-0.05-0.03
		c-0.03-0.02-0.06-0.04-0.08-0.06c0,0-0.01,0-0.01-0.01l-1.14-0.69l-1.26-0.76l-47.42-0.82c-0.08,0-0.15-0.03-0.21-0.06
		c-0.02-0.01-0.03-0.02-0.05-0.04c-0.05-0.03-0.08-0.07-0.12-0.12c-0.01-0.01-0.02-0.02-0.03-0.03c-0.01-0.01-0.01-0.02-0.01-0.03
		c-0.01-0.02-0.01-0.03-0.02-0.05c0-0.01-0.01-0.03-0.02-0.04l-0.67-1.22l-34.52-0.59l3.03,5.47l1.03,1.86l5.09,0.09l29.45,0.53
		l-0.47-0.85c0-0.01,0-0.02-0.01-0.03c-0.01-0.03-0.02-0.06-0.03-0.09c-0.01-0.03-0.02-0.06-0.02-0.1c0-0.01-0.01-0.02-0.01-0.03
		c0-0.02,0.01-0.04,0.01-0.06c0-0.03,0.01-0.07,0.02-0.1c0.01-0.02,0.02-0.04,0.03-0.06c0-0.01,0-0.02,0.01-0.02
		c0-0.01,0.01-0.01,0.02-0.02c0.01-0.02,0.03-0.04,0.04-0.05c0.02-0.02,0.05-0.04,0.07-0.06c0.01-0.01,0.02-0.02,0.03-0.03
		c0,0,0.01-0.01,0.01-0.01c0,0,0,0,0,0c0.01,0,0.02,0,0.03-0.01c0.03-0.01,0.06-0.02,0.09-0.03c0.03-0.01,0.07-0.02,0.1-0.02
		c0.01,0,0.01,0,0.02,0c0,0,0.01,0,0.01,0l47.25,0.84l0.77-1.29c0.01-0.02,0.03-0.03,0.04-0.04c0.02-0.03,0.04-0.05,0.07-0.07
		c0.02-0.02,0.05-0.04,0.08-0.05c0.03-0.01,0.05-0.03,0.08-0.04c0.03-0.01,0.06-0.01,0.09-0.02c0.02,0,0.04-0.01,0.06-0.01
		c0,0,0,0,0.01,0l0.37,0l-0.62-1.11L193.27,211.08z"/>
	<polygon class="st1" points="14.67,160.2 33.24,160.53 38.82,160.63 42.08,155.21 20,154.82 17.93,154.78 15.45,158.91 	"/>
	<polygon class="st1" points="195.72,209.49 195.04,210.62 195.13,210.78 195.65,211.72 196.61,210.13 196,209.02 	"/>
	<path class="st1" d="M98.88,193.03C98.88,193.03,98.88,193.02,98.88,193.03C98.88,193.02,98.88,193.02,98.88,193.03
		C98.88,193.02,98.87,193.02,98.88,193.03L98.88,193.03c-0.02-0.03-0.03-0.05-0.04-0.07l-2.68-4.83c0,0,0,0,0,0L94.44,185
		l-6.72-12.15l-0.08-0.15l-4.43,7.36l17.51,31.6l9.17,16.55l4.96-5.99l0.13-0.16l-0.07-0.13L98.88,193.03z"/>
	<polygon class="st1" points="34.29,179.69 33.15,179.67 46.47,203.7 51.37,212.53 51.37,212.53 51.39,212.58 51.39,212.58 
		53.13,215.7 59.78,227.72 108.99,228.58 82.37,180.54 	"/>
	<polygon class="st1" points="16.56,155.21 4.53,159.61 4.41,159.81 1.49,164.67 13.51,160.27 	"/>
	<path class="st1" d="M41.66,197c-0.06,0.02-0.12,0.03-0.18,0.05c-0.38,0.12-0.77,0.22-1.17,0.3c-0.05,0.01-0.09,0.02-0.14,0.03
		c-0.45,0.08-0.91,0.13-1.38,0.16c-0.1,0.01-0.19,0.01-0.29,0.01c-0.17,0.01-0.33,0.02-0.49,0.02c-0.2,0-0.41-0.02-0.62-0.03
		c-0.16-0.01-0.31-0.01-0.47-0.02c-0.4-0.03-0.81-0.08-1.21-0.14c-0.1-0.02-0.2-0.02-0.3-0.04c-1.04-0.18-2.09-0.45-3.13-0.81
		c-0.13-0.04-0.25-0.09-0.38-0.14c-0.39-0.14-0.78-0.29-1.16-0.45c-0.16-0.07-0.31-0.14-0.47-0.21c-0.36-0.16-0.71-0.33-1.06-0.5
		c-0.16-0.08-0.31-0.16-0.47-0.24c-0.36-0.19-0.7-0.39-1.05-0.59c-0.14-0.08-0.27-0.16-0.41-0.24c-0.41-0.26-0.82-0.52-1.22-0.8
		c-0.06-0.04-0.11-0.07-0.17-0.11c-0.46-0.32-0.9-0.66-1.32-1c-0.09-0.07-0.18-0.15-0.27-0.23c-0.32-0.27-0.64-0.54-0.94-0.82
		c-0.13-0.12-0.26-0.25-0.38-0.37c-0.25-0.24-0.49-0.49-0.72-0.74c-0.13-0.14-0.26-0.28-0.38-0.42c-0.22-0.25-0.42-0.5-0.62-0.75
		c-0.11-0.14-0.23-0.28-0.33-0.43c-0.2-0.27-0.39-0.55-0.57-0.83c-0.08-0.12-0.17-0.25-0.24-0.37c-0.24-0.4-0.47-0.81-0.65-1.21
		c-0.08-0.16-0.15-0.32-0.22-0.49c-1.12-2.58-1.36-5.99,1.27-8.08c0.19-0.15,0.39-0.29,0.6-0.42c0.46-0.29,0.99-0.54,1.56-0.73
		c3.13-1.06,7.08-0.33,9.91,0.77l3.7-9.87l1.42-3.8l0.7-1.87l-4.27-0.08l-20.22-0.36l-12.83,4.7l22.66,40.9l19,5.42l7.38,0.11
		l-3.82-6.9L41.66,197z"/>
	<polygon class="st1" points="93.81,176.58 106.16,176.79 106.24,176.79 95.11,156.69 92.35,162.23 89.57,168.95 	"/>
	<polygon class="st1" points="108.42,202.97 120.87,203.19 120.14,201.86 107.68,201.64 	"/>
	<polygon class="st1" points="185.03,193.9 184.51,194.77 183.99,195.64 184.89,196.18 185.8,196.73 186.31,195.88 186.84,194.99 
		185.94,194.45 	"/>
	<polygon class="st1" points="188.51,196.1 187.73,197.41 188.33,198.52 189.29,196.93 188.68,195.82 	"/>
	<polygon class="st1" points="130.27,179.71 129.31,181.31 175.75,182.11 176.71,180.51 141.6,179.91 	"/>
	<polygon class="st1" points="106.62,205.01 107.41,203.7 107.58,203.43 106.58,201.62 104.72,201.58 105.32,202.66 	"/>
	<polygon class="st1" points="144.9,206.12 144.48,206.82 143.94,207.71 190.38,208.51 191.34,206.92 156.24,206.32 	"/>
	<polygon class="st1" points="192.34,207.11 191.82,207.97 191.31,208.83 192.21,209.38 193.12,209.92 193.63,209.08 194.15,208.2 
		193.25,207.66 	"/>
	<polygon class="st1" points="143.13,207.2 144.09,205.61 143.76,205.02 143.04,206.21 142.8,206.61 143.01,206.99 	"/>
	<path class="st1" d="M142.57,205.13l0.37-0.61l-21.21-0.36c-0.02,0-0.03,0.01-0.04,0.01c-0.02,0-0.04-0.01-0.05-0.01l-8.83-0.15
		l-4.41-0.08l-0.33,0.54l-0.63,1.05l34.55,0.59L142.57,205.13z"/>
	<polygon class="st1" points="187.76,195.33 187.4,195.93 186.8,196.92 186.85,196.92 186.9,196.92 187.59,195.78 187.86,195.33 
		187.81,195.33 	"/>
	<polygon class="st1" points="137.59,192.91 136.62,194.52 173.33,195.15 183.06,195.32 184.03,193.71 148.92,193.1 	"/>
	<polygon class="st1" points="180.46,182.14 179.5,183.73 179.56,183.73 179.58,183.73 180.53,182.14 180.48,182.14 	"/>
	<polygon class="st1" points="177.71,180.71 177.19,181.57 176.68,182.43 177.59,182.98 178.51,183.53 179.01,182.68 179.54,181.81 
		178.62,181.26 	"/>
	<path class="st1" d="M96.87,187.42l34.54,0.6l-0.46-0.81c-0.01-0.01,0-0.02-0.01-0.03c-0.01-0.03-0.02-0.06-0.03-0.09
		c-0.01-0.03-0.02-0.06-0.02-0.1c0-0.01,0-0.02,0-0.03l0,0c0,0,0,0,0,0c0-0.02,0.01-0.03,0.01-0.05c0.01-0.04,0.01-0.08,0.03-0.12
		c0.01-0.01,0.01-0.03,0.02-0.04c0.01-0.01,0-0.02,0.01-0.03c0-0.01,0.01-0.01,0.01-0.01c0.02-0.03,0.04-0.05,0.07-0.08
		c0.01-0.01,0.01-0.01,0.02-0.02c0.02-0.02,0.04-0.05,0.07-0.06c0.02-0.01,0.03-0.01,0.05-0.02c0.02-0.01,0.05-0.02,0.07-0.02
		c0.03-0.01,0.06-0.02,0.09-0.02c0.01,0,0.02-0.01,0.03-0.01l1.8,0.03c0.01,0,0.01,0,0.02,0l45.41,0.8l0.78-1.31
		c0.01-0.02,0.03-0.03,0.04-0.04c0.02-0.03,0.04-0.05,0.07-0.07c0.02-0.02,0.05-0.03,0.07-0.05c0,0,0.01-0.01,0.01-0.01
		c0.02-0.01,0.05-0.02,0.07-0.03c0.03-0.01,0.06-0.01,0.09-0.02c0.02,0,0.04-0.01,0.06-0.01c0,0,0.01,0,0.01,0l0.35,0.01l-0.42-0.77
		l-0.19-0.34l-0.91,0c-0.07,0-0.13-0.02-0.19-0.04c-0.01,0-0.02-0.01-0.03-0.02c-0.02-0.01-0.03-0.02-0.05-0.03
		c-0.03-0.02-0.05-0.03-0.08-0.06c0,0-0.01,0-0.01-0.01l-1.17-0.7l-1.25-0.75l-47.42-0.82c-0.08,0-0.15-0.03-0.21-0.06
		c-0.02-0.01-0.03-0.02-0.05-0.04c-0.04-0.03-0.08-0.06-0.11-0.11c0,0,0,0,0,0c0,0,0-0.01-0.01-0.01c-0.01-0.01-0.02-0.02-0.03-0.03
		c-0.01-0.01-0.01-0.02-0.01-0.03c-0.01-0.01-0.01-0.03-0.02-0.04c-0.01-0.02-0.01-0.03-0.02-0.05l-0.46-0.84l-0.19-0.36
		l-34.53-0.59l2.75,4.99L96.87,187.42z"/>
	<polygon class="st1" points="180.77,183.61 180.4,184.22 181.01,185.32 181.73,184.13 181.97,183.72 181.36,182.62 	"/>
	<polygon class="st1" points="135.48,193.41 135.81,194.01 136.55,192.77 136.78,192.4 136.59,192.06 136.45,191.8 	"/>
	<polygon class="st1" points="100.38,188.44 101.11,189.76 113.56,189.97 112.84,188.68 112.83,188.66 	"/>
	<path class="st1" d="M135.05,192.27l0.57-0.96l-21.21-0.36c-0.02,0-0.03,0.01-0.05,0.01c-0.02,0-0.04-0.01-0.06-0.01l-2.93-0.05
		l-10.3-0.18l-0.97,1.61l34.54,0.59L135.05,192.27z"/>
	<polygon class="st1" points="99.7,191.16 100.27,190.22 99.28,188.42 97.41,188.39 99.3,191.82 	"/>
	<path class="st1" d="M104.18,200.61l4.44,0.08l30.1,0.54l-0.47-0.85c0-0.01,0-0.02-0.01-0.03c-0.01-0.03-0.02-0.06-0.03-0.09
		c-0.01-0.03-0.02-0.06-0.02-0.1c0-0.01-0.01-0.02-0.01-0.03c0-0.02,0.01-0.04,0.01-0.06c0-0.03,0.01-0.07,0.02-0.1
		c0.01-0.02,0.02-0.04,0.03-0.06c0-0.01,0-0.02,0.01-0.02c0-0.01,0.01-0.01,0.02-0.02c0.01-0.02,0.03-0.04,0.04-0.05
		c0.02-0.02,0.05-0.04,0.07-0.06c0.01-0.01,0.02-0.02,0.03-0.03c0,0,0.01-0.01,0.01-0.01c0,0,0,0,0,0c0.01,0,0.02,0,0.03-0.01
		c0.03-0.01,0.06-0.02,0.09-0.03c0.03-0.01,0.06-0.02,0.09-0.02c0.01,0,0.02,0,0.02,0c0,0,0,0,0.01,0l47.25,0.84l0.79-1.31
		c0.01-0.02,0.03-0.03,0.04-0.04c0.02-0.03,0.04-0.05,0.07-0.07c0.02-0.02,0.04-0.03,0.07-0.04c0.01,0,0.01-0.01,0.02-0.01
		c0.02-0.01,0.05-0.02,0.07-0.03c0.03-0.01,0.06-0.01,0.08-0.02c0.02,0,0.04-0.01,0.06-0.01c0,0,0.01,0,0.01,0l0.35,0.01l-0.25-0.45
		l-0.36-0.66l-0.94,0h0c-0.07,0-0.13-0.02-0.19-0.04c-0.01,0-0.02-0.01-0.03-0.02c-0.02-0.01-0.03-0.02-0.05-0.03
		c-0.03-0.02-0.06-0.04-0.08-0.06c0,0-0.01,0-0.01-0.01l-1.16-0.7l-1.24-0.75l-47.42-0.82c-0.08,0-0.15-0.03-0.22-0.06
		c-0.02-0.01-0.03-0.02-0.05-0.04c-0.05-0.03-0.08-0.07-0.12-0.12c-0.01-0.01-0.02-0.02-0.03-0.03c-0.01-0.01-0.01-0.02-0.01-0.03
		c-0.01-0.02-0.01-0.03-0.02-0.05c0-0.01-0.01-0.03-0.02-0.04l-0.67-1.21l-34.52-0.59l3.03,5.47L104.18,200.61z"/>
	<rect x="155.33" y="46.24" transform="matrix(0.999 -0.045 0.045 0.999 -1.971 7.0884)" class="st1" width="2.03" height="2.11"/>
	<polygon class="st1" points="157.65,49.25 155.78,49.34 180.8,88.47 182.68,88.38 180.23,84.55 	"/>
	<polygon class="st1" points="156.86,45.16 155.64,45.22 155.01,45.25 155.06,45.33 155.89,45.3 156.92,45.25 	"/>
	<path class="st1" d="M200.42,120.03l0.64-0.03l-18.62-29.1l-0.88,0.04l-1,0.04l11.4,17.83c0.05,0.05,0.09,0.11,0.11,0.17l7.1,11.1
		L200.42,120.03z"/>
	<polygon class="st1" points="155.55,43.17 155.04,44.15 154.97,44.29 156.53,44.22 156.82,44.21 157.41,43.09 155.87,43.16 	"/>
	<polygon class="st1" points="180.82,89.42 180.51,90.03 182.39,89.94 182.7,89.34 181.61,89.39 	"/>
	<path class="st1" d="M158.87,44.05c-0.01,0-0.01,0-0.02,0c-0.07,0-0.14-0.02-0.2-0.05c-0.02-0.01-0.04-0.03-0.06-0.04
		c-0.05-0.03-0.08-0.07-0.12-0.11c-0.01-0.01-0.02-0.02-0.03-0.03l-0.19-0.3l-0.59,1.12l0.52,0.78c0.04,0.06,0.06,0.12,0.07,0.18
		c0,0.01,0,0.02,0,0.04c0,0.02,0,0.04,0,0.06c0,0.03,0,0.06-0.01,0.1c0,0,0,0.01,0,0.01l0.13,2.8l6.74,10.53l18.82,29.42
		c0.04,0.07,0.06,0.14,0.07,0.22c0,0.02,0,0.04,0,0.06c0,0.06-0.01,0.11-0.04,0.17c-0.01,0.01,0,0.03-0.01,0.04
		c-0.01,0.01-0.01,0.02-0.02,0.03c-0.01,0.01-0.02,0.02-0.03,0.04c-0.01,0.01-0.02,0.03-0.03,0.04l-0.64,1.23l18.61,29.09l3.85-7.44
		l-7.33-11.47l-11.27-17.64l-0.45,0.86c0,0.01-0.01,0.01-0.02,0.02c-0.04,0.06-0.08,0.12-0.15,0.16c0,0,0,0,0,0c0,0,0,0-0.01,0
		c-0.03,0.02-0.07,0.02-0.1,0.03c-0.04,0.01-0.08,0.04-0.13,0.04c0,0-0.01,0-0.01,0c0,0-0.01,0-0.01,0c-0.04,0-0.08-0.02-0.12-0.03
		c-0.04-0.01-0.07-0.01-0.11-0.03c0,0-0.01-0.01-0.01-0.01c-0.06-0.04-0.11-0.08-0.15-0.14c0-0.01-0.01-0.01-0.02-0.02l-25.44-39.83
		L158.87,44.05z"/>
	<polygon class="st1" points="162.74,35.94 173.28,52.42 187.77,75.07 189.22,75 189.62,74.98 164.6,35.85 163.5,35.9 	"/>
	<polygon class="st1" points="187.79,76.03 187.47,76.63 189.33,76.55 189.64,75.94 189.41,75.95 	"/>
	<polygon class="st1" points="162.3,31.83 161.96,31.85 162.02,31.94 163.88,31.85 163.82,31.77 	"/>
	<polygon class="st1" points="190.97,111.41 190.96,111.44 197.66,121.93 198.36,120.6 191.65,110.11 	"/>
	<polygon class="st1" points="163.82,30.73 164.35,29.69 162.5,29.78 161.91,30.88 161.91,30.89 163.78,30.81 	"/>
	<path class="st1" d="M189.11,77.51l-1.59,0.07l11.4,17.83c0.05,0.05,0.09,0.11,0.11,0.17l2.41,3.76l4.7,7.34l1.86-0.08l-18.62-29.1
		L189.11,77.51z"/>
	<polygon class="st1" points="198.62,96.71 197.91,98.05 199.59,100.68 204.62,108.55 205.32,107.2 202.67,103.05 	"/>
	<polygon class="st1" points="207.96,187.67 180.11,144.11 174.09,144.86 201.65,187.95 203.83,187.86 	"/>
	<polygon class="st1" points="192.23,133.47 192.36,133.46 194.09,133.38 186.73,121.88 175.47,104.28 175.14,104.29 173.61,104.36 
		177.24,110.04 	"/>
	<polygon class="st1" points="208.55,188.6 202.23,188.89 215.23,209.24 221.55,208.95 	"/>
	<polygon class="st1" points="187.4,141.73 191.42,133.97 184.72,123.5 176.34,139.64 174.13,143.89 180.27,143.12 	"/>
	<polygon class="st1" points="219.55,210 216.35,210.15 226.67,217.73 230,217.58 232.57,217.46 222.25,209.88 	"/>
	<path class="st1" d="M252.3,166.25l-3-9.42l-3.99-6.21l-8.04,15.49c0.15,0.11,0.28,0.26,0.42,0.38c0.19,0.16,0.37,0.32,0.55,0.49
		c0.18,0.18,0.35,0.38,0.53,0.58c0.17,0.19,0.33,0.38,0.49,0.58c0.16,0.21,0.31,0.44,0.46,0.67c0.14,0.22,0.29,0.43,0.43,0.65
		c0.14,0.24,0.26,0.48,0.39,0.73c0.13,0.24,0.25,0.47,0.37,0.72c0.12,0.25,0.22,0.52,0.33,0.79c0.1,0.26,0.21,0.51,0.31,0.78
		c0.1,0.27,0.18,0.55,0.26,0.83c0.08,0.27,0.17,0.54,0.25,0.82c0.07,0.28,0.13,0.57,0.2,0.86c0.06,0.29,0.13,0.57,0.19,0.86
		c0.05,0.29,0.09,0.58,0.13,0.88c0.04,0.3,0.09,0.59,0.13,0.89c0.03,0.3,0.05,0.59,0.07,0.89c0.02,0.3,0.05,0.59,0.07,0.89
		c0.01,0.3,0.01,0.6,0.01,0.9c0,0.3,0.01,0.59,0,0.89c-0.01,0.3-0.03,0.6-0.05,0.9c-0.02,0.29-0.03,0.58-0.05,0.86
		c-0.03,0.3-0.08,0.6-0.12,0.9c-0.04,0.27-0.06,0.55-0.11,0.82c-0.05,0.31-0.12,0.61-0.19,0.91c-0.05,0.25-0.1,0.5-0.16,0.74
		c-0.08,0.31-0.18,0.61-0.27,0.92c-0.07,0.21-0.12,0.44-0.19,0.65c-0.12,0.34-0.26,0.67-0.4,0.99c-0.06,0.15-0.12,0.31-0.18,0.46
		c-0.21,0.46-0.45,0.91-0.7,1.32c-0.14,0.24-0.29,0.47-0.45,0.71c-0.03,0.04-0.06,0.09-0.09,0.13c-0.17,0.23-0.34,0.46-0.53,0.68
		c-0.01,0.01-0.03,0.03-0.04,0.04c-0.18,0.21-0.37,0.4-0.56,0.59c-0.04,0.04-0.08,0.08-0.12,0.12c-0.21,0.19-0.42,0.38-0.65,0.55
		c-0.04,0.03-0.08,0.06-0.12,0.09c-0.2,0.15-0.41,0.28-0.62,0.41c-0.05,0.03-0.09,0.06-0.14,0.09c-0.24,0.13-0.49,0.25-0.74,0.35
		c-0.06,0.02-0.12,0.04-0.18,0.06c-0.23,0.08-0.47,0.15-0.71,0.2c-0.04,0.01-0.08,0.02-0.12,0.03c-0.27,0.05-0.55,0.07-0.84,0.08
		c-0.03,0-0.06,0.01-0.1,0.01c-0.07,0-0.14-0.01-0.21-0.01c-0.08,0-0.16-0.01-0.24-0.01c-0.13-0.01-0.26-0.03-0.39-0.05
		c-0.08-0.01-0.16-0.02-0.24-0.04c-0.14-0.03-0.29-0.07-0.43-0.11c-0.07-0.02-0.14-0.04-0.21-0.06c-0.21-0.07-0.43-0.15-0.65-0.26
		c-0.5-0.22-1-0.52-1.48-0.9c-2.61-2.01-4.19-5.71-4.84-8.67l-9.47,2.19l-6.7,1.55l13.19,20.64l11.01,8.09l21.53-41.5L252.3,166.25z
		"/>
	<polygon class="st1" points="175.43,103.32 175.73,102.74 174.85,102.78 173.88,102.82 173.57,103.4 175.06,103.34 	"/>
	<polygon class="st1" points="148.12,58.71 149.46,58.65 149.96,58.63 149.92,58.56 148.64,58.62 148.08,58.65 148.11,58.69 	"/>
	<polygon class="st1" points="149.88,57.61 150.46,56.49 148.59,56.57 148.55,56.65 148.02,57.69 149.1,57.64 	"/>
	
		<rect x="148.39" y="59.61" transform="matrix(0.999 -0.0451 0.0451 0.999 -2.5863 6.8039)" class="st1" width="2.01" height="2.14"/>
	<path class="st1" d="M177,102.41c0,0.01,0,0.02-0.01,0.03c0,0.01-0.01,0.02-0.02,0.02c-0.01,0.02-0.02,0.03-0.03,0.05
		c-0.01,0.01-0.02,0.03-0.03,0.04l-0.64,1.21l18.61,29.09l2.67-5.11l1.21-2.32l-0.26-0.41l-17.73-27.72l-0.62-0.98l-0.43,0.83
		c0,0.01-0.01,0.01-0.02,0.02c-0.04,0.06-0.08,0.12-0.14,0.16c0,0,0,0.01-0.01,0.01l0,0c0,0,0,0-0.01,0
		c-0.03,0.02-0.06,0.02-0.1,0.03c-0.04,0.02-0.08,0.04-0.13,0.04c0,0-0.01,0-0.01,0c0,0-0.01,0-0.01,0c-0.04,0-0.07-0.02-0.11-0.03
		c-0.05-0.01-0.1-0.02-0.14-0.05c-0.05-0.03-0.1-0.07-0.13-0.12c-0.01-0.01-0.01-0.01-0.02-0.02l-25.44-39.81l-1.52,0.07
		c-0.01,0-0.01,0-0.02,0c-0.07,0-0.14-0.02-0.21-0.05c-0.02-0.01-0.03-0.02-0.05-0.03c-0.05-0.03-0.09-0.07-0.12-0.11
		c-0.01-0.01-0.02-0.02-0.03-0.03l-0.19-0.3l-0.59,1.12l0.5,0.76c0.04,0.06,0.06,0.12,0.07,0.18c0,0.01,0,0.02,0,0.04
		c0,0.02,0,0.04,0,0.06c0,0.03,0,0.06-0.01,0.09c0,0,0,0.01,0,0.01l0.13,2.82l6.74,10.53l18.82,29.42c0.04,0.07,0.06,0.14,0.07,0.22
		c0,0.02,0,0.04,0,0.06C177.04,102.3,177.02,102.36,177,102.41z"/>
	<polygon class="st1" points="173.86,101.86 175.37,101.8 175.72,101.78 150.69,62.65 148.84,62.73 159.37,79.21 	"/>
	<polygon class="st1" points="162.35,35 164.35,34.91 164.25,32.79 162.47,32.87 162.25,32.88 	"/>
	<polygon class="st1" points="206.21,111.05 208.01,107.56 207.98,107.57 206.17,107.65 205.44,109.04 205.21,109.48 205.82,110.44 
			"/>
	<path class="st1" d="M231.68,192.96c0.25,0.16,0.51,0.31,0.76,0.42c0.78,0.36,1.53,0.49,2.23,0.45c0.71-0.04,1.37-0.25,1.99-0.59
		c1.23-0.67,2.24-1.83,2.96-3.07c0.47-0.78,0.87-1.66,1.2-2.61c0.02-0.05,0.03-0.11,0.05-0.16c0.14-0.43,0.27-0.86,0.38-1.32
		c0.02-0.1,0.04-0.2,0.06-0.29c0.1-0.42,0.19-0.84,0.26-1.27c0.02-0.13,0.03-0.27,0.05-0.4c0.06-0.4,0.12-0.81,0.15-1.22
		c0.02-0.17,0.02-0.33,0.03-0.5c0.03-0.39,0.05-0.78,0.06-1.17c0-0.19,0-0.39,0-0.58c0-0.37,0-0.74-0.01-1.11
		c-0.01-0.22-0.03-0.43-0.04-0.65c-0.02-0.35-0.05-0.7-0.08-1.05c-0.03-0.23-0.06-0.46-0.09-0.69c-0.04-0.33-0.09-0.66-0.15-0.98
		c-0.04-0.24-0.1-0.47-0.15-0.71c-0.06-0.31-0.13-0.62-0.21-0.92c-0.06-0.24-0.13-0.48-0.2-0.71c-0.08-0.29-0.17-0.58-0.26-0.86
		c-0.08-0.24-0.17-0.46-0.26-0.69c-0.1-0.27-0.21-0.53-0.32-0.79c-0.1-0.23-0.21-0.44-0.32-0.66c-0.12-0.24-0.24-0.49-0.38-0.72
		c-0.12-0.21-0.25-0.41-0.38-0.61c-0.14-0.22-0.28-0.44-0.43-0.64c-0.14-0.19-0.29-0.37-0.44-0.54c-0.16-0.19-0.32-0.38-0.49-0.55
		c-0.16-0.16-0.33-0.32-0.5-0.47c-0.11-0.1-0.23-0.19-0.34-0.28l-2.82,5.43c2.4,6.2,1.98,15.66-2.4,20.47
		C231.63,192.92,231.66,192.94,231.68,192.96z"/>
	<polygon class="st1" points="201.07,120.96 200.32,121 199.21,121.05 198.26,122.86 198.29,122.91 199.27,124.44 	"/>
	<path class="st1" d="M202.28,120.71l-2.54,4.91c0,0,0,0,0,0l-1.33,2.55l-6.72,12.94l-0.08,0.15l8.58-0.39L225.54,92l-7.94-0.84
		l-0.05,0.1l-15.24,29.38C202.3,120.67,202.29,120.69,202.28,120.71z"/>
	<polygon class="st1" points="192.08,134.77 188.57,141.57 190.49,141.33 191.72,138.97 194.11,134.34 192.26,134.42 	"/>
	<polygon class="st1" points="226,183.63 226,183.63 226.82,183.44 200.24,141.83 190.85,142.25 187.8,142.62 181.13,143.93 
		209.03,187.57 	"/>
	<polygon class="st1" points="227.55,182.8 234.47,169.44 236.24,166.03 244.84,149.44 244.84,149.44 252.84,134.03 226.34,92.55 
		201.05,141.3 	"/>
	<polygon class="st1" points="213.67,91.08 210.27,91.24 209.09,91.29 211.56,95.15 	"/>
	<path class="st1" d="M165.15,32.07c0.01,0.01,0.01,0.03,0.02,0.04c0.01,0.04,0.03,0.07,0.04,0.11c0,0.01,0,0.02,0,0.03
		c0,0.02,0,0.04,0,0.06c0,0.03,0,0.07-0.01,0.1c0,0,0,0.01,0,0.01l0.13,2.8l25.55,39.95c0,0.01,0,0.01,0.01,0.02
		c0.04,0.06,0.06,0.13,0.06,0.2c0,0.02,0,0.04,0,0.06c0,0.06-0.01,0.11-0.04,0.16c-0.01,0.01,0,0.03-0.01,0.04
		c-0.01,0.01-0.01,0.02-0.02,0.03c-0.01,0.01-0.02,0.03-0.03,0.04c-0.01,0.01-0.02,0.03-0.03,0.04l-0.4,0.77l-0.24,0.46l18.61,29.09
		l2.49-4.81l1.36-2.63l-18.59-29.11l-0.45,0.86c0,0.01-0.01,0.01-0.02,0.02c-0.04,0.06-0.08,0.12-0.15,0.16l0,0c0,0,0,0-0.01,0
		c-0.03,0.02-0.07,0.02-0.1,0.03c-0.04,0.01-0.08,0.04-0.13,0.04c0,0-0.01,0-0.01,0c0,0-0.01,0-0.01,0c-0.03,0-0.06-0.02-0.09-0.02
		c-0.06-0.01-0.12-0.03-0.17-0.07c-0.05-0.03-0.09-0.07-0.12-0.11c-0.01-0.01-0.01-0.01-0.02-0.02l-25.44-39.83l-1.5,0.07
		c-0.01,0-0.01,0-0.02,0c-0.07,0-0.14-0.02-0.2-0.05c-0.01,0-0.01,0-0.02-0.01c-0.01-0.01-0.02-0.02-0.03-0.03
		c-0.04-0.03-0.08-0.06-0.11-0.11c-0.01-0.01-0.02-0.02-0.03-0.03l-0.2-0.31l-0.58,1.13l0.51,0.79
		C165.14,32.04,165.14,32.06,165.15,32.07z"/>
	<polygon class="st1" points="213.09,97.55 213.15,97.65 216.55,91.11 214.76,91.06 212.15,96.08 	"/>
	<polygon class="st1" points="76.22,84.7 83.43,74.55 81.93,74.41 81.91,74.43 74.72,84.56 	"/>
	<polygon class="st1" points="100.12,64.16 128.66,24.04 114.86,22.74 109.86,22.26 91.25,20.5 91.25,20.5 73.97,18.87 54.36,46.44 
		45.44,58.98 45.64,58.99 	"/>
	<polygon class="st1" points="155.16,19.8 141.16,39.48 142.7,42.84 143.79,45.23 147.04,40.67 157.79,25.55 157.29,24.46 	"/>
	<path class="st1" d="M109.74,20.73c0.08-0.23,0.15-0.46,0.25-0.68c0.1-0.25,0.23-0.48,0.35-0.73c0.11-0.22,0.22-0.44,0.34-0.65
		c0.14-0.24,0.3-0.47,0.46-0.7c0.14-0.2,0.27-0.41,0.43-0.61c0.18-0.23,0.38-0.46,0.57-0.69c0.16-0.19,0.32-0.38,0.49-0.56
		c0.21-0.23,0.44-0.44,0.67-0.66c0.18-0.17,0.35-0.35,0.54-0.51c0.25-0.22,0.51-0.42,0.76-0.63c0.19-0.15,0.38-0.31,0.58-0.46
		c0.27-0.2,0.56-0.39,0.84-0.59c0.2-0.14,0.4-0.28,0.61-0.42c0.29-0.19,0.59-0.36,0.89-0.53c0.22-0.13,0.43-0.26,0.65-0.38
		c0.3-0.16,0.61-0.31,0.92-0.46c0.23-0.11,0.45-0.23,0.69-0.34c0.3-0.14,0.61-0.26,0.91-0.38c0.25-0.1,0.49-0.21,0.74-0.3
		c0.29-0.11,0.58-0.2,0.87-0.3c0.27-0.09,0.54-0.19,0.81-0.27c0.27-0.08,0.54-0.14,0.81-0.21c0.29-0.08,0.59-0.16,0.88-0.22
		c0.24-0.05,0.48-0.09,0.72-0.13c0.32-0.06,0.63-0.12,0.95-0.17c0.21-0.03,0.42-0.04,0.63-0.06c0.33-0.03,0.66-0.08,0.99-0.09
		c0.21-0.01,0.4,0,0.6,0c0.32,0,0.64-0.02,0.95,0c0.51,0.03,1,0.08,1.48,0.16c1.74,0.24,3.63,0.97,4.92,2.28
		c0.04,0.04,0.07,0.08,0.11,0.12c0.1,0.11,0.2,0.22,0.29,0.33c0.76,0.96,1.22,2.18,1.15,3.71c-0.02,0.55-0.11,1.12-0.28,1.7
		c-0.89,3.18-3.73,6.02-6.23,7.74l8.46,12.06l1.07,1.52l14.19-19.96l2.88-11.28l0.5-1.96l-37.84-3.59l-8.71-0.83l-7.1,5.89
		l-8.11,6.73l-4.26,6.02l17.38,1.64C109.6,21.09,109.68,20.91,109.74,20.73z"/>
	<polygon class="st1" points="110.57,82.52 113.52,87.81 123.06,74.39 143.15,46.12 140.52,40.37 	"/>
	<path class="st1" d="M60.37,100.3l0.47,1.04l0.31,0.67L73.4,84.76c0.03-0.07,0.07-0.12,0.12-0.17l7.63-10.74l-0.78-1.71
		L60.37,100.3z"/>
	<polygon class="st1" points="155.98,19.29 158.21,24.17 159.4,19.52 161.38,11.76 159.32,7.28 158.92,6.39 155.76,18.8 	"/>
	<path class="st1" d="M37.57,98.18c-0.01,0.07-0.03,0.15-0.08,0.21L10.1,136.9l0.62,1.36c0.01,0.02,0.01,0.04,0.01,0.06
		c0.01,0.03,0.02,0.06,0.02,0.1c0,0.02,0,0.05,0,0.07c0,0.02,0,0.03,0,0.04c0,0.02-0.01,0.04-0.01,0.07
		c-0.01,0.03-0.02,0.06-0.04,0.09c-0.01,0.02-0.01,0.04-0.02,0.05l-0.21,0.3l1.26,0.12l0.54-0.76c0.04-0.06,0.09-0.1,0.14-0.13
		c0.01-0.01,0.02-0.01,0.03-0.01c0.02-0.01,0.04-0.01,0.06-0.02c0.03-0.01,0.06-0.03,0.09-0.03c0,0,0.01,0,0.01,0l2.55-1.17
		l27.47-38.66c0.05-0.07,0.11-0.11,0.18-0.15c0.02-0.01,0.03-0.01,0.05-0.02c0.06-0.02,0.11-0.03,0.17-0.03
		c0.01,0,0.02-0.01,0.04-0.01c0.01,0,0.02,0.01,0.03,0.01c0.02,0,0.03,0.01,0.05,0.01c0.01,0,0.03,0.01,0.04,0.01l1.35,0.13l0.03,0
		l3.1-4.36l16.9-23.79l-8.34-0.79l-5.04,7.09l-0.13,0.19l0,0L36.19,97.55l0.96,0.09c0.01,0,0.02,0.01,0.03,0.01
		c0.03,0,0.06,0.02,0.09,0.03c0.03,0.01,0.06,0.02,0.09,0.04c0.01,0,0.02,0.01,0.02,0.01c0,0,0,0,0,0c0.02,0.01,0.02,0.03,0.04,0.04
		c0.03,0.02,0.05,0.05,0.07,0.07c0.01,0.02,0.02,0.04,0.03,0.06c0,0.01,0.01,0.01,0.01,0.02c0,0.01,0,0.01,0,0.02
		c0.01,0.02,0.02,0.04,0.02,0.07c0.01,0.03,0.01,0.06,0.01,0.1c0,0.02,0.01,0.04,0.01,0.06l0,0C37.58,98.17,37.58,98.17,37.57,98.18
		z"/>
	<polygon class="st1" points="36.74,133.66 58.72,102.73 57.94,101.02 50.04,112.13 31.04,138.88 31.82,140.59 	"/>
	<polygon class="st1" points="60.28,102.41 59.49,100.7 58.82,100.64 59.45,102.02 59.6,102.35 	"/>
	<polygon class="st1" points="50.74,75.44 52.42,73.08 53.39,71.71 48.83,71.28 49.17,72.02 	"/>
	<polygon class="st1" points="47.5,67.6 80.5,70.72 80.5,70.73 80.51,70.72 80.51,70.73 80.52,70.73 86.08,71.25 86.08,71.25 
		88.98,71.53 103.62,72.93 100.04,65.11 52.33,60.59 45.23,59.92 47.43,67.6 	"/>
	<polygon class="st1" points="54.97,69.49 55.11,69.29 47.78,68.59 48.4,70.27 54.03,70.81 	"/>
	<polygon class="st1" points="74.51,102.15 73.85,102.08 74.62,103.77 75.28,103.83 	"/>
	<polygon class="st1" points="46.84,142.01 73.74,104.14 72.97,102.45 46.07,140.32 46.51,141.29 	"/>
	
		<rect x="28.65" y="139.81" transform="matrix(0.9093 -0.4161 0.4161 0.9093 -55.8981 25.1277)" class="st1" width="2.11" height="2.03"/>
	<polygon class="st1" points="44.68,141.18 43.34,141.79 44.17,143.61 46.11,142.72 45.28,140.9 	"/>
	<polygon class="st1" points="97.03,74.88 105.04,75.63 104.8,75.2 104.1,73.93 96.26,73.2 	"/>
	<polygon class="st1" points="42.57,142.55 42.57,142.56 43.33,144.24 43.38,144.18 42.61,142.5 	"/>
	<polygon class="st1" points="75.38,101.75 76.15,103.44 96.16,75.27 95.39,73.58 	"/>
	<path class="st1" d="M86.26,72.23l-20.01,28.16l0.93,0.08c0.01,0,0.02,0.01,0.03,0.01c0.03,0,0.06,0.02,0.09,0.03
		c0.03,0.01,0.06,0.02,0.09,0.04c0.01,0.01,0.02,0.01,0.03,0.01l0,0c0,0,0,0,0,0c0.02,0.01,0.03,0.03,0.04,0.04
		c0.02,0.02,0.05,0.04,0.06,0.07c0.01,0.02,0.03,0.04,0.04,0.06c0,0.01,0.01,0.01,0.01,0.02c0,0.01,0,0.02,0,0.02
		c0.01,0.02,0.02,0.04,0.02,0.06c0.01,0.03,0.01,0.07,0.01,0.1c0,0.02,0.01,0.04,0.01,0.06l0,0c0,0.01-0.01,0.02-0.01,0.02
		c-0.01,0.07-0.03,0.15-0.08,0.21l-1.05,1.48c0,0,0,0,0,0l-26.32,37.02l0.63,1.38c0.01,0.02,0.01,0.04,0.01,0.06
		c0.01,0.03,0.02,0.06,0.02,0.1c0,0.02,0,0.04,0,0.07c0,0.02,0,0.03,0,0.05c0,0.02-0.01,0.04-0.01,0.07
		c-0.01,0.03-0.03,0.06-0.04,0.09c-0.01,0.02-0.01,0.04-0.02,0.05l-0.21,0.29l0.01,0l1.26,0.13l0.52-0.75
		c0.04-0.06,0.09-0.1,0.14-0.13c0.01-0.01,0.02-0.01,0.03-0.01c0.02-0.01,0.04-0.01,0.06-0.02c0.03-0.01,0.06-0.02,0.09-0.03
		c0,0,0.01,0,0.01,0l2.57-1.17l27.47-38.66c0.04-0.06,0.1-0.11,0.17-0.14c0.02-0.01,0.05-0.02,0.07-0.03
		c0.05-0.02,0.11-0.03,0.16-0.03c0.01,0,0.02-0.01,0.04-0.01c0,0,0,0,0,0c0.01,0,0.02,0,0.02,0.01c0.02,0,0.04,0.01,0.06,0.01
		c0.02,0,0.03,0.01,0.05,0.01l1.36,0.14l14-19.71l5.99-8.44l-5.57-0.54L86.26,72.23z"/>
	<polygon class="st1" points="104.82,73.26 106.31,75.95 110.02,81.64 115.48,73.95 140.02,39.42 130.02,25.17 129.53,24.47 
		100.91,64.71 	"/>
	<path class="st1" d="M136.51,16.49c0.01-0.03,0.02-0.06,0.02-0.09c0.05-0.29,0.09-0.58,0.1-0.87c0.16-3.42-2.82-5.05-5.66-5.45
		c-3.14-0.52-7.15,0.28-10.81,1.95c-0.02,0.01-0.04,0.02-0.05,0.03c-0.49,0.23-0.98,0.47-1.46,0.73c-0.06,0.03-0.13,0.07-0.19,0.11
		c-0.43,0.24-0.85,0.48-1.26,0.74c-0.1,0.07-0.2,0.13-0.3,0.2c-0.36,0.24-0.72,0.48-1.06,0.73c-0.13,0.1-0.25,0.2-0.38,0.3
		c-0.3,0.23-0.6,0.47-0.88,0.72c-0.15,0.13-0.28,0.26-0.42,0.39c-0.25,0.23-0.49,0.46-0.72,0.7c-0.15,0.15-0.28,0.31-0.42,0.47
		c-0.2,0.23-0.4,0.45-0.58,0.69c-0.14,0.17-0.26,0.35-0.39,0.53c-0.16,0.23-0.32,0.45-0.46,0.68c-0.12,0.19-0.22,0.39-0.33,0.58
		c-0.12,0.23-0.24,0.45-0.34,0.68c-0.09,0.21-0.17,0.41-0.24,0.62c-0.05,0.14-0.09,0.29-0.14,0.43l4.97,0.47l1.12,0.11
		C121.48,17.39,130.41,14.24,136.51,16.49z"/>
	<path class="st1" d="M45.34,98.89l0.55,1.19l0.23,0.49l12.31-17.33c0,0,0,0,0,0l0.02-0.03c0.01-0.01,0.01-0.03,0.03-0.04
		l7.64-10.76l-0.77-1.69L45.34,98.89z"/>
	<polygon class="st1" points="82.03,73.46 84.07,73.66 85.16,72.13 81.25,71.76 	"/>
	<polygon class="st1" points="109.75,87.88 112.61,88.15 109.59,82.73 106.98,78.73 105.63,76.65 96.93,75.83 89.73,85.97 	"/>
	<polygon class="st1" points="43.69,101.29 43.22,100.26 42.91,99.6 37.99,106.54 16.01,137.47 16.78,139.16 	"/>
	<polygon class="st1" points="44.47,99.29 43.79,99.22 44.57,100.91 45.24,100.98 	"/>
	<polygon class="st1" points="26.2,141.5 25.42,141.42 26.19,143.11 26.66,143.15 27.44,143.23 26.67,141.55 	"/>
	<path class="st1" d="M25.75,139.7c0.01,0.02,0.01,0.04,0.01,0.06c0.01,0.03,0.02,0.06,0.02,0.1c0,0.02,0,0.04,0,0.07
		c0,0.02,0,0.03,0,0.05c0,0.02-0.01,0.04-0.01,0.07c-0.01,0.03-0.03,0.06-0.04,0.09c-0.01,0.02-0.01,0.04-0.03,0.06l-0.21,0.29
		l0.01,0l1.25,0.13l0.18-0.27l0.34-0.51c0.04-0.06,0.09-0.1,0.14-0.13c0.01-0.01,0.02-0.01,0.03-0.01c0.02-0.01,0.04-0.01,0.06-0.02
		c0.03-0.01,0.06-0.02,0.09-0.03c0.01,0,0.01,0,0.01-0.01l2.55-1.16l27.47-38.66c0.05-0.06,0.11-0.11,0.17-0.14
		c0.02-0.01,0.04-0.02,0.06-0.02c0.06-0.02,0.11-0.03,0.17-0.03c0.01,0,0.02-0.01,0.04-0.01c0.01,0,0.02,0.01,0.03,0.01
		c0.02,0,0.03,0.01,0.05,0.01c0.02,0,0.03,0.01,0.05,0.01l1.33,0.13l0.05,0.01l3.1-4.36l16.9-23.79l-8.34-0.79L51.21,98.96
		l0.96,0.09c0.01,0,0.02,0.01,0.03,0.01c0.03,0,0.06,0.02,0.09,0.03c0.03,0.01,0.06,0.02,0.09,0.04c0.01,0.01,0.02,0.01,0.03,0.01
		l0,0c0.02,0.01,0.03,0.03,0.04,0.04c0.02,0.02,0.05,0.04,0.07,0.07c0.01,0.02,0.02,0.04,0.04,0.06c0,0.01,0.01,0.01,0.01,0.02
		c0,0.01,0,0.01,0,0.02c0.01,0.02,0.02,0.04,0.02,0.07c0.01,0.03,0.01,0.06,0.01,0.1c0,0.02,0.01,0.04,0.01,0.06l0,0
		c0,0.01-0.01,0.01-0.01,0.02c-0.01,0.07-0.03,0.15-0.08,0.21l-27.4,38.51L25.75,139.7z"/>
	<polygon class="st1" points="40.59,142.85 40.44,142.84 41.06,144.19 41.22,144.54 42.47,144.66 41.7,142.96 	"/>
	<polygon class="st1" points="27.54,141.15 28.05,142.25 28.32,142.84 28.35,142.79 28.37,142.75 27.6,141.06 	"/>
	<polygon class="st1" points="61.2,83.27 68.42,73.12 66.9,72.97 59.69,83.12 	"/>
	<polygon class="st1" points="14.14,140.75 16.06,139.87 15.23,138.05 13.3,138.93 13.62,139.62 	"/>
	<polygon class="st1" points="69.06,72.22 70.14,70.71 66.23,70.34 66.66,71.28 67,72.02 	"/>
	<polygon class="st1" points="11.64,140.12 11.61,140.11 10.39,140 11.16,141.69 11.7,141.75 12.42,141.82 11.75,140.34 	"/>
	<polygon class="st1" points="12.51,139.71 13.29,141.41 13.3,141.39 13.34,141.32 12.57,139.63 	"/>
</g>
</svg>
